<svg width="45" height="45" viewBox="0 0 45 45" fill="none" xmlns="http://www.w3.org/2000/svg">
<circle cx="22.5" cy="22.5" r="22.5" fill="#FAFF00"/>
<path d="M25.596 18.334V37H20.016V18.334H25.596ZM26.172 13.222C26.172 13.666 26.082 14.086 25.902 14.482C25.722 14.866 25.476 15.208 25.164 15.508C24.852 15.796 24.486 16.03 24.066 16.21C23.658 16.378 23.22 16.462 22.752 16.462C22.296 16.462 21.87 16.378 21.474 16.21C21.078 16.03 20.724 15.796 20.412 15.508C20.112 15.208 19.872 14.866 19.692 14.482C19.524 14.086 19.44 13.666 19.44 13.222C19.44 12.766 19.524 12.34 19.692 11.944C19.872 11.548 20.112 11.2 20.412 10.9C20.724 10.6 21.078 10.366 21.474 10.198C21.87 10.03 22.296 9.946 22.752 9.946C23.22 9.946 23.658 10.03 24.066 10.198C24.486 10.366 24.852 10.6 25.164 10.9C25.476 11.2 25.722 11.548 25.902 11.944C26.082 12.34 26.172 12.766 26.172 13.222Z" fill="black"/>
</svg>
