<svg width="45" height="45" viewBox="0 0 45 45" fill="none" xmlns="http://www.w3.org/2000/svg">
<path d="M28.3158 42.6286C27.5364 42.0553 27.4527 41.194 27.4527 41.194L27.1602 39.3242H17.8389L17.5455 41.1926C17.5455 41.1926 17.4641 42.0548 16.6842 42.6281C15.9048 43.2014 15.2897 43.6937 15.9048 43.7774C16.4975 43.8575 22.0878 43.7846 22.5 43.7774C22.9131 43.7846 28.5021 43.8575 29.0943 43.7774C29.709 43.6946 29.0934 43.2032 28.3158 42.6286Z" fill="#FAFF00"/>
<path d="M11.9997 27.6926C14.49 27.6732 14.8001 27.0729 15.6119 24.5727C17.109 20.6271 23.8509 25.6059 19.6727 27.3339C15.4944 29.0628 9.50941 27.7119 11.9997 27.6926Z" fill="#FAFF00"/>
<path d="M37.5345 1.69064C36.3249 0.716836 34.3238 1.19654 33.0624 2.76164L20.2869 20.9128C19.0256 22.4775 19.0319 22.1787 20.2401 23.1516C21.4484 24.1254 21.1572 24.1951 22.4186 22.6305L37.4378 6.28784C38.6991 4.72184 38.7432 2.66399 37.5345 1.69064ZM34.2491 3.86324C34.2491 3.86324 34.0619 3.64589 33.4395 3.14819C34.3728 1.62404 36.207 1.90349 36.207 1.90349C34.4682 2.93039 34.2491 3.86324 34.2491 3.86324Z" fill="#FAFF00"/>
<path d="M43.2 8H37.5822L35.1004 10.7H42.3004V32.3H2.70045V10.7H25.736L27.6381 8H1.8C0.80595 8 0 8.80595 0 9.8V35.9C0 36.8941 0.80595 37.7 1.8 37.7H43.2C44.194 37.7 45 36.8941 45 35.9V9.8C45 8.80595 44.194 8 43.2 8Z" fill="#FAFF00"/>
</svg>
