<svg width="47" height="42" viewBox="0 0 47 42" fill="none" xmlns="http://www.w3.org/2000/svg">
<path d="M10.7941 23.375L11.6503 22.8583L10.7584 21.3806L9.92001 22.8893L10.7941 23.375ZM25.7059 14.75L26.5386 14.1963L25.6348 12.8371L24.8344 14.2596L25.7059 14.75ZM46.5 0.5L36.1791 5.67797L45.8238 12.0272L46.5 0.5ZM16 32L15.1439 32.5167L16.0303 33.9854L16.8715 32.4904L16 32ZM31.4412 23.375L30.6085 23.9287L31.4454 25.1873L32.2764 23.9249L31.4412 23.375ZM1.87411 41.4857L11.6682 23.8607L9.92001 22.8893L0.125894 40.5143L1.87411 41.4857ZM9.93798 23.8917L15.1439 32.5167L16.8561 31.4833L11.6503 22.8583L9.93798 23.8917ZM16.8715 32.4904L26.5774 15.2404L24.8344 14.2596L15.1285 31.5096L16.8715 32.4904ZM24.8732 15.3037L30.6085 23.9287L32.2739 22.8213L26.5386 14.1963L24.8732 15.3037ZM32.2764 23.9249L42.3865 8.56718L40.716 7.46746L30.6059 22.8251L32.2764 23.9249Z" fill="#FAFF00"/>
</svg>
