<svg width="169" height="57" viewBox="0 0 169 57" fill="none" xmlns="http://www.w3.org/2000/svg">
<path d="M10.0972 23.3261H37.9001V31.8717H10.0972V23.3261ZM10.8961 47.2853H42.454V55.9903H0.51001V0.0859375H41.3355V8.79098H10.8961V47.2853ZM54.0323 55.9903V0.0859375H78.4798C84.5517 0.0859375 89.8778 1.25705 94.4584 3.59998C99.0391 5.94255 102.608 9.19041 105.164 13.3432C107.721 17.496 108.999 22.3943 108.999 28.0381C108.999 33.6286 107.721 38.5269 105.164 42.733C102.608 46.8858 99.0391 50.1337 94.4584 52.4763C89.8778 54.8192 84.5517 55.9903 78.4798 55.9903H54.0323ZM64.4184 47.2054H78.0004C82.208 47.2054 85.8298 46.4068 88.866 44.8094C91.9551 43.212 94.3252 40.9758 95.9765 38.1009C97.6807 35.226 98.5332 31.8717 98.5332 28.0381C98.5332 24.1515 97.6807 20.7972 95.9765 17.9753C94.3252 15.1001 91.9551 12.8639 88.866 11.2668C85.8298 9.6694 82.208 8.87086 78.0004 8.87086H64.4184V47.2054ZM144.086 56.7888C136.416 56.7888 130.398 54.6325 126.03 50.32C121.716 46.0074 119.559 39.7782 119.559 31.632V0.0859375H129.945V31.2326C129.945 36.9828 131.17 41.1625 133.619 43.7712C136.124 46.38 139.639 47.6847 144.166 47.6847C148.693 47.6847 152.182 46.38 154.632 43.7712C157.082 41.1625 158.307 36.9828 158.307 31.2326V0.0859375H168.533V31.632C168.533 39.7782 166.35 46.0074 161.982 50.32C157.668 54.6325 151.703 56.7888 144.086 56.7888Z" fill="white"/>
</svg>
