<svg width="173" height="25" viewBox="0 0 173 25" fill="none" xmlns="http://www.w3.org/2000/svg">
<path d="M0.894287 24.8126V0.354492H11.4852C13.6755 0.354492 15.563 0.715362 17.1476 1.43745C18.7321 2.13647 19.9555 3.14954 20.8177 4.47733C21.6799 5.80512 22.111 7.38911 22.111 9.22929C22.111 11.0461 21.6799 12.6183 20.8177 13.9461C19.9555 15.2739 18.7321 16.2987 17.1476 17.0208C15.563 17.7198 13.6755 18.069 11.4852 18.069H4.04008L6.55672 15.5184V24.8126H0.894287ZM6.55672 16.1475L4.04008 13.4572H11.1706C12.9182 13.4572 14.2232 13.0842 15.0853 12.3391C15.9475 11.5936 16.3786 10.5571 16.3786 9.22929C16.3786 7.87808 15.9475 6.82989 15.0853 6.08473C14.2232 5.33922 12.9182 4.96665 11.1706 4.96665H4.04008L6.55672 2.27594V16.1475ZM21.709 24.8126L32.6144 0.354492H38.2069L49.1475 24.8126H43.2054L34.2571 3.21944H36.4944L27.5114 24.8126H21.709ZM27.1617 19.5717L28.6646 15.2739H41.2478L42.7859 19.5717H27.1617ZM51.686 24.8126V0.354492H62.2769C64.4671 0.354492 66.3548 0.715362 67.9392 1.43745C69.5237 2.13647 70.7472 3.14954 71.6093 4.47733C72.4714 5.80512 72.9026 7.38911 72.9026 9.22929C72.9026 11.0461 72.4714 12.6183 71.6093 13.9461C70.7472 15.2505 69.5237 16.2522 67.9392 16.9509C66.3548 17.6499 64.4671 17.9994 62.2769 17.9994H54.8319L57.3483 15.5184V24.8126H51.686ZM67.2403 24.8126L61.1233 15.9378H67.1704L73.3569 24.8126H67.2403ZM57.3483 16.1475L54.8319 13.4919H61.9624C63.71 13.4919 65.0146 13.1194 65.8771 12.3738C66.7392 11.6053 67.1704 10.5571 67.1704 9.22929C67.1704 7.87808 66.7392 6.82989 65.8771 6.08473C65.0146 5.33922 63.71 4.96665 61.9624 4.96665H54.8319L57.3483 2.27594V16.1475ZM82.1159 24.8126V4.96665H74.2864V0.354492H95.6077V4.96665H87.7782V24.8126H82.1159ZM98.6545 24.8126V0.354492H103.338L117.774 17.9643H115.502V0.354492H121.094V24.8126H116.445L101.975 7.20282H104.247V24.8126H98.6545ZM132.091 10.2076H143.871V14.61H132.091V10.2076ZM132.511 20.2704H145.828V24.8126H126.883V0.354492H145.373V4.89675H132.511V20.2704ZM150.334 24.8126V0.354492H160.925C163.115 0.354492 165.003 0.715362 166.587 1.43745C168.171 2.13647 169.395 3.14954 170.257 4.47733C171.119 5.80512 171.55 7.38911 171.55 9.22929C171.55 11.0461 171.119 12.6183 170.257 13.9461C169.395 15.2505 168.171 16.2522 166.587 16.9509C165.003 17.6499 163.115 17.9994 160.925 17.9994H153.48L155.996 15.5184V24.8126H150.334ZM165.888 24.8126L159.771 15.9378H165.818L172.005 24.8126H165.888ZM155.996 16.1475L153.48 13.4919H160.61C162.358 13.4919 163.662 13.1194 164.525 12.3738C165.387 11.6053 165.818 10.5571 165.818 9.22929C165.818 7.87808 165.387 6.82989 164.525 6.08473C163.662 5.33922 162.358 4.96665 160.61 4.96665H153.48L155.996 2.27594V16.1475Z" fill="#FAFF00"/>
</svg>
