<svg width="23" height="39" viewBox="0 0 23 39" fill="none" xmlns="http://www.w3.org/2000/svg">
<path d="M21.7411 10.2658C21.5071 10.0316 21.2411 9.91449 20.9444 9.91391C20.8812 9.91391 20.7882 9.92976 20.6626 9.96087L11.3816 12.2577L15.389 1.40621C15.4671 1.24999 15.5065 1.10954 15.5065 0.984348C15.5065 0.718867 15.4046 0.488521 15.2017 0.293145C14.9986 0.0975236 14.7486 0 14.4519 0H6.76451C6.51455 0 6.29594 0.0701874 6.10828 0.210809C5.92078 0.351594 5.7956 0.531372 5.73329 0.749897L1.02243 20.086C0.944197 20.4607 1.04574 20.7655 1.32707 21.0001C1.53008 21.1724 1.77208 21.2578 2.05341 21.2578C2.17851 21.2578 2.27226 21.2505 2.33473 21.2347L11.8502 18.8674L7.23309 37.8049C7.1707 38.0549 7.20575 38.2892 7.33874 38.5078C7.47164 38.7269 7.67096 38.8752 7.93644 38.9533C8.09266 38.9842 8.20233 38.9999 8.26472 38.9999C8.71786 38.9999 9.04573 38.805 9.24907 38.4141L21.9052 11.297C22.0771 10.9221 22.0229 10.5782 21.7411 10.2658Z" fill="#FAFF00"/>
</svg>
