<svg width="45" height="43" viewBox="0 0 45 43" fill="none" xmlns="http://www.w3.org/2000/svg">
<path d="M28.3158 41.6281C27.5364 41.0548 27.4527 40.1935 27.4527 40.1935L27.1602 38.3237H17.8389L17.5455 40.1921C17.5455 40.1921 17.464 41.0543 16.6842 41.6276C15.9048 42.2009 15.2896 42.6932 15.9048 42.7769C16.4974 42.857 22.0878 42.7841 22.5 42.7769C22.9131 42.7841 28.5021 42.857 29.0943 42.7769C29.709 42.6941 29.0934 42.2027 28.3158 41.6281Z" fill="#FAFF00"/>
<path d="M11.9997 26.6921C14.49 26.6727 14.8001 26.0724 15.6119 23.5722C17.109 19.6266 23.8509 24.6054 19.6727 26.3334C15.4944 28.0623 9.50941 26.7114 11.9997 26.6921Z" fill="#FAFF00"/>
<path d="M37.5345 0.690147C36.3249 -0.283653 34.3238 0.196047 33.0624 1.76115L20.2869 19.9123C19.0256 21.477 19.0319 21.1782 20.2401 22.1511C21.4484 23.1249 21.1572 23.1946 22.4186 21.63L37.4378 5.28735C38.6991 3.72135 38.7432 1.6635 37.5345 0.690147ZM34.2491 2.86275C34.2491 2.86275 34.0619 2.6454 33.4395 2.1477C34.3728 0.623547 36.207 0.902997 36.207 0.902997C34.4682 1.9299 34.2491 2.86275 34.2491 2.86275Z" fill="#FAFF00"/>
<path d="M43.2 6.82373H37.5822L35.1004 9.52373H42.3004V31.1237H2.70045V9.52373H25.736L27.6381 6.82373H1.8C0.80595 6.82373 0 7.62968 0 8.62373V34.7237C0 35.7178 0.80595 36.5237 1.8 36.5237H43.2C44.194 36.5237 45 35.7178 45 34.7237V8.62373C45 7.62968 44.194 6.82373 43.2 6.82373Z" fill="#FAFF00"/>
</svg>
