<svg width="45" height="37" viewBox="0 0 45 37" fill="none" xmlns="http://www.w3.org/2000/svg">
<path d="M1.40608 31.1564H18.2812C19.0585 31.1564 19.6877 30.6837 19.6877 30.1017V27.992C19.6877 27.4099 19.0585 26.9376 18.2812 26.9376H1.40608C0.628891 26.9376 0 27.4098 0 27.992V30.1017C0 30.6837 0.628891 31.1564 1.40608 31.1564ZM1.40608 36.7816H18.2812C19.0585 36.7816 19.6877 36.309 19.6877 35.7268V33.6171C19.6877 33.035 19.0585 32.5627 18.2812 32.5627H1.40608C0.628891 32.5627 0 33.035 0 33.6171V35.7268C0 36.309 0.628891 36.7816 1.40608 36.7816ZM1.40608 25.5308H18.2812C19.0585 25.5308 19.6877 25.0587 19.6877 24.4765V22.3677C19.6877 21.7851 19.0585 21.3124 18.2812 21.3124H1.40608C0.628891 21.3123 0 21.785 0 22.3676V24.4764C0 25.0587 0.628891 25.5308 1.40608 25.5308ZM22.4384 24.9711C22.4602 24.8062 22.5 24.6469 22.5 24.4764V22.3676C22.5 20.1974 20.6472 18.4999 18.2812 18.4999H12.6562C12.6562 14.6163 15.804 11.4689 19.6877 11.4689C23.5713 11.4689 26.7189 14.6163 26.7189 18.4999C26.719 21.4059 24.9542 23.8995 22.4384 24.9711ZM0 5.84373H39.3752V31.1564H22.3326C22.4328 30.8215 22.5 30.4696 22.5 30.1017V28.3439H30.9377C30.9377 25.2374 33.4564 22.7188 36.5625 22.7188V14.2813C33.4564 14.2813 30.9377 11.7626 30.9377 8.65635H8.43759C8.43759 11.7627 5.91915 14.2813 2.81262 14.2813V18.4999H1.40608C0.907585 18.4999 0.440808 18.5907 0 18.7279V5.84373ZM45 0.21875V28.3439H42.1878V3.03129H2.81262V0.21875H45Z" fill="#FAFF00"/>
</svg>
