<svg width="24" height="35" viewBox="0 0 24 35" fill="none" xmlns="http://www.w3.org/2000/svg">
<path d="M20.9444 0H3.05556C2.37778 0 1.72776 0.263392 1.24851 0.732233C0.769246 1.20107 0.5 1.83696 0.5 2.5V32.5C0.5 33.163 0.769246 33.7989 1.24851 34.2678C1.72776 34.7366 2.37778 35 3.05556 35H20.9444C21.6222 35 22.2722 34.7366 22.7515 34.2678C23.2308 33.7989 23.5 33.163 23.5 32.5V2.5C23.5 1.83696 23.2308 1.20107 22.7515 0.732233C22.2722 0.263392 21.6222 0 20.9444 0ZM13.2778 32.5H10.7222V30H13.2778V32.5ZM3.05556 27.5V2.5H20.9444V27.5H3.05556Z" fill="#FAFF00"/>
</svg>
