<svg width="31" height="31" viewBox="0 0 31 31" fill="none" xmlns="http://www.w3.org/2000/svg">
<path d="M21.7969 4.35938H10.1719C10.0434 4.35938 9.92021 4.41041 9.82937 4.50125C9.73853 4.59208 9.6875 4.71529 9.6875 4.84375V7.75C9.6875 7.87846 9.73853 8.00167 9.82937 8.09251C9.92021 8.18334 10.0434 8.23438 10.1719 8.23438H21.7969C21.9253 8.23438 22.0485 8.18334 22.1394 8.09251C22.2302 8.00167 22.2812 7.87846 22.2812 7.75V4.84375C22.2812 4.71529 22.2302 4.59208 22.1394 4.50125C22.0485 4.41041 21.9253 4.35938 21.7969 4.35938ZM21.3125 7.26562H10.6562V5.32812H21.3125V7.26562Z" fill="#FAFF00"/>
<path d="M21.3125 10.6562H12.1094C11.9809 10.6562 11.8577 10.7073 11.7669 10.7981C11.676 10.889 11.625 11.0122 11.625 11.1406C11.625 11.2691 11.676 11.3923 11.7669 11.4831C11.8577 11.574 11.9809 11.625 12.1094 11.625H21.3125C21.441 11.625 21.5642 11.574 21.655 11.4831C21.7458 11.3923 21.7969 11.2691 21.7969 11.1406C21.7969 11.0122 21.7458 10.889 21.655 10.7981C21.5642 10.7073 21.441 10.6562 21.3125 10.6562Z" fill="#FAFF00"/>
<path d="M3.875 15.5V17.9219C3.875 18.0503 3.92603 18.1735 4.01687 18.2644C4.10771 18.3552 4.23091 18.4062 4.35938 18.4062H12.1094C12.2378 18.4062 12.361 18.3552 12.4519 18.2644C12.5427 18.1735 12.5938 18.0503 12.5938 17.9219V15.5C12.5938 15.3715 12.5427 15.2483 12.4519 15.1575C12.361 15.0667 12.2378 15.0156 12.1094 15.0156H4.35938C4.23091 15.0156 4.10771 15.0667 4.01687 15.1575C3.92603 15.2483 3.875 15.3715 3.875 15.5ZM4.84375 15.9844H11.625V17.4375H4.84375V15.9844Z" fill="#FAFF00"/>
<path d="M12.1094 19.8594H4.35938C4.23091 19.8594 4.10771 19.9104 4.01687 20.0012C3.92603 20.0921 3.875 20.2153 3.875 20.3438V27.125C3.875 27.2535 3.92603 27.3767 4.01687 27.4675C4.10771 27.5583 4.23091 27.6094 4.35938 27.6094H12.1094C12.2378 27.6094 12.361 27.5583 12.4519 27.4675C12.5427 27.3767 12.5938 27.2535 12.5938 27.125V20.3438C12.5938 20.2153 12.5427 20.0921 12.4519 20.0012C12.361 19.9104 12.2378 19.8594 12.1094 19.8594ZM7.75 26.6406H4.84375V24.2188H7.75V26.6406ZM7.75 23.25H4.84375V20.8281H7.75V23.25ZM11.625 26.6406H8.71875V24.2188H11.625V26.6406ZM11.625 23.25H8.71875V20.8281H11.625V23.25Z" fill="#FAFF00"/>
<path d="M30.0312 21.7969C30.0308 21.4116 29.8776 21.0422 29.6052 20.7698C29.3328 20.4974 28.9634 20.3442 28.5781 20.3438H25.6719V1.45312C25.6719 1.32466 25.6208 1.20146 25.53 1.11062C25.4392 1.01978 25.316 0.96875 25.1875 0.96875H6.78125C6.65279 0.96875 6.52958 1.01978 6.43875 1.11062C6.34791 1.20146 6.29688 1.32466 6.29688 1.45312V12.5938H1.45312C1.32466 12.5938 1.20146 12.6448 1.11062 12.7356C1.01978 12.8265 0.96875 12.9497 0.96875 13.0781V29.5469C0.96875 29.6753 1.01978 29.7985 1.11062 29.8894C1.20146 29.9802 1.32466 30.0312 1.45312 30.0312H15.0156C15.1441 30.0312 15.2673 29.9802 15.3581 29.8894C15.449 29.7985 15.5 29.6753 15.5 29.5469V27.125H17.5268C17.4693 27.2801 17.4391 27.444 17.4375 27.6094V28.5781C17.4379 28.9634 17.5912 29.3328 17.8636 29.6052C18.136 29.8776 18.5054 30.0308 18.8906 30.0312H22.7656C23.1243 30.0302 23.4697 29.8955 23.7344 29.6534C23.9991 29.8955 24.3445 30.0302 24.7031 30.0312H28.5781C28.9634 30.0308 29.3328 29.8776 29.6052 29.6052C29.8776 29.3328 30.0308 28.9634 30.0312 28.5781V27.6094C30.0302 27.2507 29.8955 26.9053 29.6534 26.6406C29.8955 26.3759 30.0302 26.0305 30.0312 25.6719V24.7031C30.0302 24.3445 29.8955 23.9991 29.6534 23.7344C29.8955 23.4697 30.0302 23.1243 30.0312 22.7656V21.7969ZM14.5312 26.6406V29.0625H1.9375V13.5625H14.5312V26.6406ZM23.25 28.5781C23.2499 28.7066 23.1989 28.8297 23.108 28.9205C23.0172 29.0114 22.8941 29.0624 22.7656 29.0625H18.8906C18.7622 29.0624 18.639 29.0114 18.5482 28.9205C18.4574 28.8297 18.4063 28.7066 18.4062 28.5781V27.6094C18.4063 27.4809 18.4574 27.3578 18.5482 27.267C18.639 27.1761 18.7622 27.1251 18.8906 27.125H22.7656C22.8941 27.1251 23.0172 27.1761 23.108 27.267C23.1989 27.3578 23.2499 27.4809 23.25 27.6094V28.5781ZM23.25 25.6719C23.2499 25.8003 23.1989 25.9235 23.108 26.0143C23.0172 26.1051 22.8941 26.1562 22.7656 26.1562H18.8906C18.7622 26.1562 18.639 26.1051 18.5482 26.0143C18.4574 25.9235 18.4063 25.8003 18.4062 25.6719V24.7031C18.4063 24.5747 18.4574 24.4515 18.5482 24.3607C18.639 24.2699 18.7622 24.2188 18.8906 24.2188H22.7656C22.8941 24.2188 23.0172 24.2699 23.108 24.3607C23.1989 24.4515 23.2499 24.5747 23.25 24.7031V25.6719ZM23.25 22.7656C23.2499 22.8941 23.1989 23.0172 23.108 23.108C23.0172 23.1989 22.8941 23.2499 22.7656 23.25H18.8906C18.7622 23.2499 18.639 23.1989 18.5482 23.108C18.4574 23.0172 18.4063 22.8941 18.4062 22.7656V21.7969C18.4063 21.6684 18.4574 21.5453 18.5482 21.4545C18.639 21.3636 18.7622 21.3126 18.8906 21.3125H22.7656C22.8941 21.3126 23.0172 21.3636 23.108 21.4545C23.1989 21.5453 23.2499 21.6684 23.25 21.7969V22.7656ZM22.7656 20.3438H18.8906C18.5054 20.3442 18.136 20.4974 17.8636 20.7698C17.5912 21.0422 17.4379 21.4116 17.4375 21.7969V22.7656C17.4386 23.1243 17.5733 23.4697 17.8153 23.7344C17.5733 23.9991 17.4386 24.3445 17.4375 24.7031V25.6719C17.4392 25.8373 17.4694 26.0011 17.5268 26.1562H15.5V18.4062H21.3125C21.441 18.4062 21.5642 18.3552 21.655 18.2644C21.7458 18.1735 21.7969 18.0503 21.7969 17.9219C21.7969 17.7934 21.7458 17.6702 21.655 17.5794C21.5642 17.4885 21.441 17.4375 21.3125 17.4375H15.5V15.0156H21.3125C21.441 15.0156 21.5642 14.9646 21.655 14.8738C21.7458 14.7829 21.7969 14.6597 21.7969 14.5312C21.7969 14.4028 21.7458 14.2796 21.655 14.1887C21.5642 14.0979 21.441 14.0469 21.3125 14.0469H15.5V13.0781C15.5 12.9497 15.449 12.8265 15.3581 12.7356C15.2673 12.6448 15.1441 12.5938 15.0156 12.5938H7.26562V1.9375H24.7031V20.3438C24.3445 20.3448 23.9991 20.4795 23.7344 20.7216C23.4697 20.4795 23.1243 20.3448 22.7656 20.3438ZM29.0625 28.5781C29.0624 28.7066 29.0114 28.8297 28.9205 28.9205C28.8297 29.0114 28.7066 29.0624 28.5781 29.0625H24.7031C24.5747 29.0624 24.4515 29.0114 24.3607 28.9205C24.2699 28.8297 24.2188 28.7066 24.2188 28.5781V27.6094C24.2188 27.4809 24.2699 27.3578 24.3607 27.267C24.4515 27.1761 24.5747 27.1251 24.7031 27.125H28.5781C28.7066 27.1251 28.8297 27.1761 28.9205 27.267C29.0114 27.3578 29.0624 27.4809 29.0625 27.6094V28.5781ZM29.0625 25.6719C29.0624 25.8003 29.0114 25.9235 28.9205 26.0143C28.8297 26.1051 28.7066 26.1562 28.5781 26.1562H24.7031C24.5747 26.1562 24.4515 26.1051 24.3607 26.0143C24.2699 25.9235 24.2188 25.8003 24.2188 25.6719V24.7031C24.2188 24.5747 24.2699 24.4515 24.3607 24.3607C24.4515 24.2699 24.5747 24.2188 24.7031 24.2188H28.5781C28.7066 24.2188 28.8297 24.2699 28.9205 24.3607C29.0114 24.4515 29.0624 24.5747 29.0625 24.7031V25.6719ZM29.0625 22.7656C29.0624 22.8941 29.0114 23.0172 28.9205 23.108C28.8297 23.1989 28.7066 23.2499 28.5781 23.25H24.7031C24.5747 23.2499 24.4515 23.1989 24.3607 23.108C24.2699 23.0172 24.2188 22.8941 24.2188 22.7656V21.7969C24.2188 21.6684 24.2699 21.5453 24.3607 21.4545C24.4515 21.3636 24.5747 21.3126 24.7031 21.3125H28.5781C28.7066 21.3126 28.8297 21.3636 28.9205 21.4545C29.0114 21.5453 29.0624 21.6684 29.0625 21.7969V22.7656Z" fill="#FAFF00"/>
</svg>
