<svg width="28" height="30" viewBox="0 0 28 30" fill="none" xmlns="http://www.w3.org/2000/svg">
<path d="M8.30923 30C6.30982 25.8396 7.37458 23.4557 8.91127 21.2097C10.5941 18.75 11.0278 16.3152 11.0278 16.3152C11.0278 16.3152 12.3507 18.0349 11.8215 20.7246C14.1586 18.1231 14.5996 13.9781 14.2467 12.3907C19.5294 16.0824 21.7871 24.0759 18.7445 30C34.9273 20.8438 22.7698 7.14342 20.6532 5.60014C21.3588 7.14336 21.4926 9.75589 20.0673 11.0238C17.6547 1.87498 11.6892 0 11.6892 0C12.3948 4.71808 9.13177 9.87728 5.98526 13.7323C5.87472 11.851 5.75727 10.5528 4.76795 8.75245C4.54587 12.1701 1.93402 14.956 1.22673 18.3803C0.268677 23.0175 1.94437 26.4129 8.30923 30Z" fill="#FF0000"/>
</svg>
