<svg width="27" height="23" viewBox="0 0 27 23" fill="none" xmlns="http://www.w3.org/2000/svg">
<path d="M25.5338 0.271541V0.232056H25.4016H1.58515H1.45297V0.271541C0.673765 0.3251 0.0924265 0.945041 0 1.69747V1.82991V17.5236C0 17.8279 0.0791912 18.0844 0.211368 18.3155C0.515471 18.8509 0.964368 19.1215 1.58519 19.1215H10.2769V21.3139H8.62579C8.21634 21.3139 7.89931 21.6323 7.89931 22.041C7.89931 22.4496 8.21634 22.768 8.62579 22.768H18.3611C18.7705 22.768 19.1008 22.4495 19.1008 22.041C19.1008 21.6323 18.7706 21.3139 18.3611 21.3139H16.71V19.1215H25.4016C26.0227 19.1215 26.4756 18.8509 26.7754 18.3155C26.9115 18.0731 27 17.8139 27 17.5236V1.82995V1.69751C26.9076 0.945041 26.2868 0.3251 25.5338 0.271541ZM25.5338 1.82995V17.5237C25.5338 17.6167 25.4943 17.6561 25.4016 17.6561H1.58515C1.49272 17.6561 1.45297 17.6167 1.45297 17.5237V1.82995V1.69751H25.5338L25.5338 1.82995Z" fill="#FAFF00"/>
</svg>
