<svg width="30" height="26" viewBox="0 0 30 26" fill="none" xmlns="http://www.w3.org/2000/svg">
<path d="M0.937386 21.4375H12.1874C12.7057 21.4375 13.1251 21.1224 13.1251 20.7343V19.3278C13.1251 18.9398 12.7057 18.625 12.1874 18.625H0.937386C0.419261 18.625 0 18.9397 0 19.3278V20.7343C0 21.1224 0.419261 21.4375 0.937386 21.4375ZM0.937386 25.1876H12.1874C12.7057 25.1876 13.1251 24.8725 13.1251 24.4844V23.078C13.1251 22.6899 12.7057 22.375 12.1874 22.375H0.937386C0.419261 22.375 0 22.6899 0 23.078V24.4844C0 24.8725 0.419261 25.1876 0.937386 25.1876ZM0.937386 17.6871H12.1874C12.7057 17.6871 13.1251 17.3723 13.1251 16.9842V15.5784C13.1251 15.1899 12.7057 14.8748 12.1874 14.8748H0.937386C0.419261 14.8747 0 15.1899 0 15.5783V16.9842C0 17.3723 0.419261 17.6871 0.937386 17.6871ZM14.9589 17.314C14.9734 17.204 15 17.0978 15 16.9842V15.5783C15 14.1315 13.7648 12.9998 12.1874 12.9998H8.43746C8.43746 10.4108 10.536 8.31247 13.1251 8.31247C15.7142 8.31247 17.8126 10.4108 17.8126 12.9998C17.8127 14.9371 16.6361 16.5995 14.9589 17.314ZM0 4.56236H26.2501V21.4375H14.8884C14.9552 21.2142 15 20.9796 15 20.7343V19.5625H20.6251C20.6251 17.4915 22.3043 15.8124 24.375 15.8124V10.1874C22.3043 10.1874 20.6251 8.50828 20.6251 6.43745H5.62506C5.62506 8.50834 3.9461 10.1874 1.87508 10.1874V12.9998H0.937386C0.605056 12.9998 0.293872 13.0603 0 13.1518V4.56236ZM30 0.812378V19.5625H28.1252V2.6874H1.87508V0.812378H30Z" fill="#FAFF00"/>
</svg>
