<svg width="35" height="35" viewBox="0 0 35 35" fill="none" xmlns="http://www.w3.org/2000/svg">
<path d="M26.2646 16.049C27.4728 16.049 28.4521 15.0696 28.4521 13.8615C28.4521 12.6533 27.4728 11.674 26.2646 11.674C25.0565 11.674 24.0771 12.6533 24.0771 13.8615C24.0771 15.0696 25.0565 16.049 26.2646 16.049Z" fill="#FAFF00"/>
<path d="M17.5 12.8115C18.7081 12.8115 19.6875 11.8321 19.6875 10.624C19.6875 9.41584 18.7081 8.43646 17.5 8.43646C16.2919 8.43646 15.3125 9.41584 15.3125 10.624C15.3125 11.8321 16.2919 12.8115 17.5 12.8115Z" fill="#FAFF00"/>
<path d="M21.1457 18.2292V16.0417C21.1457 15.4615 20.9152 14.9051 20.505 14.4949C20.0947 14.0847 19.5383 13.8542 18.9582 13.8542H16.0415C15.4613 13.8542 14.9049 14.0847 14.4947 14.4949C14.0845 14.9051 13.854 15.4615 13.854 16.0417V18.2292H21.1457Z" fill="#FAFF00"/>
<path d="M8.81543 16.049C10.0236 16.049 11.0029 15.0696 11.0029 13.8615C11.0029 12.6533 10.0236 11.674 8.81543 11.674C7.60731 11.674 6.62793 12.6533 6.62793 13.8615C6.62793 15.0696 7.60731 16.049 8.81543 16.049Z" fill="#FAFF00"/>
<path d="M27.752 17.1208H26.2937C25.0862 17.1208 23.6979 18.1001 23.6979 19.3083L27.6645 24.8354H29.9104V19.3083C29.9104 18.7332 29.684 18.1811 29.28 17.7717C28.8761 17.3623 28.3271 17.1285 27.752 17.1208ZM12.7604 18.9474L10.4343 22.6041H8.74996L11.302 18.9583C11.302 17.7479 10.325 17.0989 9.11454 17.0989H7.31934C6.73917 17.0989 6.18278 17.3294 5.77254 17.7396C5.3623 18.1499 5.13184 18.7063 5.13184 19.2864V23.3333C5.13184 23.7201 5.28548 24.091 5.55897 24.3645C5.83246 24.638 6.2034 24.7916 6.59017 24.7916H12.0312L11.9875 25.5514H8.13746L6.56246 28.4141H28.4375L22.2395 18.9474H12.7604Z" fill="#FAFF00"/>
</svg>
