<svg width="580" height="488" viewBox="0 0 580 488" fill="none" xmlns="http://www.w3.org/2000/svg">
<path d="M244.417 220.916C239.307 218.009 233.036 218.041 227.955 221L102.382 294.128C98.7339 296.252 98.7401 301.524 102.393 303.64L303.245 419.974C306.505 421.862 310.527 421.859 313.784 419.967L444.293 344.12C447.961 341.988 447.937 336.681 444.249 334.584L244.417 220.916Z" stroke="#FAFF00"/>
<path d="M501.095 282.601C495.985 279.694 489.714 279.726 484.634 282.685L447.828 304.119C444.18 306.243 444.186 311.515 447.839 313.631L516.875 353.617C518.583 354.606 520.689 354.605 522.395 353.613L565.34 328.655C569.008 326.524 568.984 321.217 565.296 319.119L501.095 282.601Z" stroke="#C4C4C4"/>
<path d="M57.0089 153.415C51.8987 150.508 45.6278 150.54 40.5474 153.499L7.18796 172.926C3.54007 175.05 3.54628 180.322 7.19916 182.438L71.02 219.403C72.7275 220.392 74.8341 220.391 76.5402 219.399L115.988 196.474C119.656 194.342 119.631 189.036 115.943 186.938L57.0089 153.415Z" stroke="#C4C4C4"/>
<path d="M280.891 1.74654L279.903 1.96607C275.395 2.96788 271.266 5.23448 268 8.5L265 12L487.315 113.092L431.179 277.221L432.512 277.344C441.039 278.129 448.939 272.798 451.401 264.596L491.622 130.652C495.069 119.173 489.884 106.863 479.263 101.309L291.592 3.16295C288.304 1.44323 284.513 0.941534 280.891 1.74654Z" fill="#C4C4C4"/>
<path d="M87.6506 236.61L88.8149 233.059L280.238 349.874C290.391 356.07 303.142 356.124 313.347 350.013L435.733 276.73L435.509 280.749C435.342 283.756 433.682 286.48 431.086 288.007L306.388 361.349C300.439 364.848 293.062 364.846 287.116 361.345L91.1936 245.996C87.9536 244.089 86.4791 240.182 87.6506 236.61Z" fill="#C4C4C4"/>
<path d="M216.718 158.629C221.634 155.82 227.668 155.818 232.586 158.624L432.927 272.94C436.273 274.849 436.294 279.665 432.966 281.603L312.614 351.69C303.287 357.121 291.762 357.124 282.432 351.697L91.4313 240.594C87.436 238.27 87.4583 232.492 91.4713 230.198L216.718 158.629Z" fill="white"/>
<path d="M216.485 157.278C221.412 154.409 227.493 154.379 232.448 157.197L432.28 270.865C435.633 272.772 435.655 277.596 432.32 279.534L311.843 349.55C302.537 354.959 291.047 354.967 281.733 349.572L90.9219 239.054C87.6011 237.131 87.5954 232.338 90.9117 230.407L216.485 157.278Z" fill="#FAFF00"/>
<path d="M289.946 8.94098C280.894 4.216 269.766 8.76455 266.616 18.4776L228.645 135.547C225.215 146.122 229.665 157.653 239.309 163.184L429.479 272.23C434.758 275.257 441.482 272.609 443.28 266.796L485.836 129.224C488.618 120.23 484.576 110.532 476.23 106.175L289.946 8.94098Z" fill="#101010" stroke="#FAFF00" stroke-width="9"/>
<path d="M185.98 209.551C186.568 209.227 187.278 209.219 187.872 209.53L192.767 212.089C194.175 212.825 194.204 214.83 192.818 215.606L187.14 218.786C186.231 219.295 185.122 219.296 184.212 218.788L179.911 216.387C178.54 215.622 178.545 213.647 179.921 212.889L185.98 209.551Z" fill="#1E1F06"/>
<path d="M196.944 203.327C197.545 203.006 198.267 203.014 198.861 203.346L217.402 213.722C218.763 214.484 218.767 216.441 217.409 217.209L212.442 220.016C211.527 220.533 210.409 220.534 209.494 220.018L191.345 209.798C189.968 209.023 189.991 207.033 191.385 206.29L196.944 203.327Z" fill="#1E1F06"/>
<path d="M206.876 197.327C207.487 197 208.224 197.013 208.823 197.361L221.683 204.823C223.008 205.592 223.012 207.505 221.69 208.279L217.591 210.678C216.696 211.202 215.594 211.227 214.676 210.743L201.448 203.767C200.029 203.019 200.024 200.99 201.438 200.234L206.876 197.327Z" fill="#1E1F06"/>
<path d="M217.638 191.021C218.258 190.668 219.018 190.672 219.635 191.031L229.7 196.897C231.04 197.678 231.02 199.62 229.664 200.373L224.888 203.027C223.969 203.537 222.85 203.53 221.938 203.007L212.346 197.505C211.003 196.735 211.006 194.798 212.351 194.032L217.638 191.021Z" fill="#1E1F06"/>
<path d="M343.267 276.008C343.885 275.616 344.667 275.593 345.307 275.947L358.42 283.215C359.772 283.964 359.799 285.899 358.468 286.686L353.86 289.409C352.93 289.958 351.775 289.965 350.838 289.427L338.639 282.412C337.335 281.662 337.295 279.795 338.565 278.989L343.267 276.008Z" fill="#1E1F06"/>
<path d="M327.849 278.656C328.45 278.336 329.173 278.344 329.766 278.677L348.032 288.915C349.393 289.678 349.395 291.635 348.037 292.402L343.204 295.129C342.289 295.645 341.17 295.645 340.256 295.129L322.383 285.048C321.008 284.272 321.032 282.282 322.427 281.541L327.849 278.656Z" fill="#1E1F06"/>
<path d="M196.85 215.519C197.449 215.176 198.182 215.167 198.79 215.494L203.702 218.135C205.073 218.872 205.113 220.825 203.773 221.618L198.1 224.975C197.207 225.504 196.105 225.533 195.185 225.054L190.581 222.654C189.178 221.923 189.139 219.93 190.512 219.145L196.85 215.519Z" fill="#1E1F06"/>
<path d="M207.215 221.594C207.814 221.251 208.548 221.242 209.156 221.569L214.068 224.21C215.439 224.948 215.479 226.9 214.139 227.693L208.465 231.051C207.573 231.579 206.471 231.609 205.551 231.129L200.947 228.729C199.544 227.998 199.505 226.005 200.878 225.22L207.215 221.594Z" fill="#1E1F06"/>
<path d="M221.147 217.285C221.752 216.956 222.483 216.96 223.083 217.297L227.9 220.003C229.258 220.766 229.261 222.721 227.904 223.488L222.848 226.346C221.946 226.856 220.844 226.864 219.934 226.367L215.432 223.909C214.042 223.15 214.043 221.155 215.433 220.397L221.147 217.285Z" fill="#1E1F06"/>
<path d="M231.927 223.505C232.532 223.175 233.263 223.18 233.863 223.517L238.68 226.223C240.038 226.986 240.041 228.941 238.684 229.707L233.628 232.565C232.726 233.075 231.624 233.084 230.714 232.587L226.212 230.129C224.822 229.37 224.823 227.374 226.213 226.617L231.927 223.505Z" fill="#1E1F06"/>
<path d="M242.707 229.724C243.312 229.395 244.043 229.399 244.644 229.736L249.46 232.442C250.818 233.205 250.821 235.16 249.464 235.927L244.408 238.785C243.506 239.295 242.404 239.303 241.494 238.806L236.992 236.348C235.602 235.589 235.603 233.594 236.994 232.836L242.707 229.724Z" fill="#1E1F06"/>
<path d="M253.073 235.529C253.677 235.2 254.409 235.204 255.009 235.542L259.825 238.247C261.184 239.01 261.186 240.965 259.83 241.732L254.773 244.59C253.871 245.1 252.769 245.108 251.86 244.611L247.357 242.153C245.968 241.394 245.969 239.399 247.359 238.641L253.073 235.529Z" fill="#1E1F06"/>
<path d="M263.853 241.748C264.457 241.419 265.189 241.424 265.789 241.761L270.605 244.466C271.964 245.229 271.966 247.184 270.61 247.951L265.554 250.809C264.651 251.319 263.55 251.327 262.64 250.831L258.137 248.372C256.748 247.614 256.749 245.618 258.139 244.861L263.853 241.748Z" fill="#1E1F06"/>
<path d="M274.633 247.967C275.238 247.638 275.969 247.643 276.569 247.98L281.385 250.686C282.744 251.449 282.747 253.404 281.39 254.17L276.334 257.028C275.431 257.538 274.33 257.546 273.42 257.05L268.917 254.592C267.528 253.833 267.529 251.837 268.919 251.08L274.633 247.967Z" fill="#1E1F06"/>
<path d="M285.414 254.186C286.018 253.857 286.75 253.862 287.35 254.199L292.166 256.904C293.524 257.667 293.527 259.622 292.171 260.389L287.114 263.247C286.212 263.757 285.11 263.765 284.2 263.269L279.698 260.81C278.308 260.052 278.309 258.056 279.7 257.299L285.414 254.186Z" fill="#1E1F06"/>
<path d="M295.779 260.406C296.384 260.077 297.115 260.081 297.715 260.419L302.531 263.124C303.89 263.887 303.893 265.842 302.536 266.609L297.48 269.467C296.577 269.977 295.476 269.985 294.566 269.488L290.063 267.03C288.674 266.271 288.675 264.276 290.065 263.518L295.779 260.406Z" fill="#1E1F06"/>
<path d="M306.559 266.625C307.164 266.296 307.895 266.301 308.495 266.638L313.312 269.343C314.67 270.106 314.673 272.061 313.316 272.828L308.26 275.686C307.358 276.196 306.256 276.204 305.346 275.708L300.844 273.249C299.454 272.491 299.455 270.495 300.845 269.738L306.559 266.625Z" fill="#1E1F06"/>
<path d="M317.339 272.845C317.944 272.516 318.675 272.52 319.276 272.858L324.092 275.563C325.45 276.326 325.453 278.281 324.096 279.048L319.04 281.906C318.138 282.416 317.036 282.424 316.126 281.927L311.624 279.469C310.234 278.71 310.235 276.715 311.626 275.957L317.339 272.845Z" fill="#1E1F06"/>
<path d="M333.095 269.528C333.699 269.198 334.431 269.203 335.031 269.54L339.847 272.246C341.206 273.009 341.208 274.964 339.852 275.73L334.796 278.588C333.893 279.098 332.792 279.107 331.882 278.61L327.379 276.152C325.99 275.393 325.991 273.397 327.381 272.64L333.095 269.528Z" fill="#1E1F06"/>
<path d="M322.411 263.624C323.018 263.303 323.747 263.316 324.343 263.658L329.104 266.397C330.456 267.175 330.437 269.133 329.069 269.884L324.358 272.472C323.451 272.97 322.351 272.965 321.448 272.46L317.003 269.971C315.62 269.197 315.644 267.198 317.046 266.458L322.411 263.624Z" fill="#1E1F06"/>
<path d="M311.535 257.089C312.139 256.76 312.871 256.765 313.471 257.102L318.287 259.807C319.646 260.57 319.648 262.525 318.292 263.292L313.235 266.15C312.333 266.66 311.231 266.668 310.322 266.171L305.819 263.713C304.429 262.955 304.43 260.959 305.821 260.201L311.535 257.089Z" fill="#1E1F06"/>
<path d="M300.755 250.87C301.359 250.541 302.091 250.545 302.691 250.882L307.507 253.588C308.866 254.351 308.868 256.306 307.512 257.073L302.455 259.931C301.553 260.441 300.451 260.449 299.541 259.952L295.039 257.494C293.649 256.735 293.65 254.74 295.041 253.982L300.755 250.87Z" fill="#1E1F06"/>
<path d="M290.803 245.065C291.408 244.735 292.139 244.74 292.74 245.077L297.556 247.783C298.914 248.546 298.917 250.501 297.56 251.268L292.504 254.126C291.602 254.636 290.5 254.644 289.59 254.147L285.088 251.689C283.698 250.93 283.699 248.934 285.089 248.177L290.803 245.065Z" fill="#1E1F06"/>
<path d="M279.609 238.431C280.213 238.102 280.945 238.106 281.545 238.443L286.361 241.149C287.72 241.912 287.722 243.867 286.366 244.634L281.309 247.492C280.407 248.002 279.305 248.01 278.396 247.513L273.893 245.055C272.504 244.296 272.504 242.301 273.895 241.543L279.609 238.431Z" fill="#1E1F06"/>
<path d="M268.828 232.627C269.433 232.297 270.164 232.302 270.765 232.639L275.581 235.345C276.939 236.108 276.942 238.063 275.585 238.83L270.529 241.688C269.627 242.198 268.525 242.206 267.615 241.709L263.113 239.251C261.723 238.492 261.724 236.496 263.114 235.739L268.828 232.627Z" fill="#1E1F06"/>
<path d="M258.048 226.407C258.653 226.078 259.384 226.083 259.985 226.42L264.801 229.125C266.159 229.889 266.162 231.844 264.805 232.61L259.749 235.468C258.847 235.978 257.745 235.986 256.835 235.49L252.333 233.032C250.943 232.273 250.944 230.277 252.335 229.52L258.048 226.407Z" fill="#1E1F06"/>
<path d="M248.098 220.188C248.702 219.858 249.434 219.863 250.034 220.2L254.85 222.906C256.208 223.669 256.211 225.624 254.855 226.391L249.798 229.249C248.896 229.759 247.794 229.767 246.884 229.27L242.382 226.812C240.992 226.053 240.993 224.057 242.384 223.3L248.098 220.188Z" fill="#1E1F06"/>
<path d="M236.903 214.383C237.508 214.054 238.239 214.058 238.839 214.396L243.655 217.101C245.014 217.864 245.017 219.819 243.66 220.586L238.604 223.444C237.701 223.954 236.6 223.962 235.69 223.465L231.188 221.007C229.798 220.249 229.799 218.253 231.189 217.495L236.903 214.383Z" fill="#1E1F06"/>
<path d="M226.123 207.749C226.727 207.42 227.459 207.425 228.059 207.762L232.875 210.467C234.234 211.23 234.236 213.185 232.88 213.952L227.823 216.81C226.921 217.32 225.819 217.328 224.91 216.832L220.407 214.373C219.018 213.615 219.019 211.619 220.409 210.862L226.123 207.749Z" fill="#1E1F06"/>
<path d="M233.586 200.286C234.19 199.957 234.922 199.961 235.522 200.298L240.338 203.004C241.697 203.767 241.699 205.722 240.343 206.489L235.287 209.347C234.384 209.857 233.283 209.865 232.373 209.368L227.87 206.91C226.481 206.151 226.482 204.156 227.872 203.398L233.586 200.286Z" fill="#1E1F06"/>
<path d="M228.61 185.775C229.215 185.445 229.946 185.45 230.546 185.787L235.363 188.493C236.721 189.256 236.724 191.211 235.367 191.977L230.311 194.835C229.409 195.345 228.307 195.354 227.397 194.857L222.895 192.399C221.505 191.64 221.506 189.644 222.896 188.887L228.61 185.775Z" fill="#1E1F06"/>
<path d="M239.805 191.578C240.41 191.249 241.141 191.254 241.741 191.591L246.557 194.296C247.916 195.06 247.919 197.014 246.562 197.781L241.506 200.639C240.603 201.149 239.502 201.157 238.592 200.661L234.089 198.202C232.7 197.444 232.701 195.448 234.091 194.691L239.805 191.578Z" fill="#1E1F06"/>
<path d="M250.585 197.799C251.19 197.469 251.921 197.474 252.521 197.811L257.338 200.517C258.696 201.28 258.699 203.235 257.342 204.001L252.286 206.859C251.384 207.369 250.282 207.378 249.372 206.881L244.87 204.423C243.48 203.664 243.481 201.668 244.871 200.911L250.585 197.799Z" fill="#1E1F06"/>
<path d="M260.951 204.017C261.555 203.688 262.287 203.693 262.887 204.03L267.703 206.735C269.062 207.499 269.064 209.453 267.708 210.22L262.651 213.078C261.749 213.588 260.647 213.596 259.738 213.1L255.235 210.641C253.846 209.883 253.846 207.887 255.237 207.13L260.951 204.017Z" fill="#1E1F06"/>
<path d="M271.731 209.822C272.335 209.493 273.067 209.497 273.667 209.835L278.483 212.54C279.842 213.303 279.844 215.258 278.488 216.025L273.431 218.883C272.529 219.393 271.427 219.401 270.518 218.904L266.015 216.446C264.626 215.687 264.627 213.692 266.017 212.934L271.731 209.822Z" fill="#1E1F06"/>
<path d="M282.097 216.042C282.701 215.712 283.433 215.717 284.033 216.054L288.849 218.76C290.208 219.523 290.21 221.478 288.854 222.245L283.797 225.103C282.895 225.613 281.793 225.621 280.883 225.124L276.381 222.666C274.991 221.907 274.992 219.911 276.383 219.154L282.097 216.042Z" fill="#1E1F06"/>
<path d="M292.877 222.26C293.481 221.931 294.213 221.936 294.813 222.273L299.629 224.979C300.988 225.742 300.99 227.697 299.634 228.463L294.577 231.321C293.675 231.831 292.573 231.839 291.664 231.343L287.161 228.885C285.771 228.126 285.772 226.13 287.163 225.373L292.877 222.26Z" fill="#1E1F06"/>
<path d="M303.657 228.48C304.261 228.151 304.993 228.156 305.593 228.493L310.409 231.198C311.767 231.961 311.77 233.916 310.414 234.683L305.357 237.541C304.455 238.051 303.353 238.059 302.443 237.562L297.941 235.104C296.551 234.346 296.552 232.35 297.943 231.593L303.657 228.48Z" fill="#1E1F06"/>
<path d="M314.437 234.699C315.041 234.37 315.773 234.375 316.373 234.712L321.189 237.417C322.548 238.181 322.55 240.136 321.194 240.902L316.138 243.76C315.235 244.27 314.134 244.278 313.224 243.782L308.721 241.324C307.332 240.565 307.333 238.569 308.723 237.812L314.437 234.699Z" fill="#1E1F06"/>
<path d="M325.217 240.919C325.821 240.589 326.553 240.594 327.153 240.931L331.969 243.637C333.328 244.4 333.33 246.355 331.974 247.122L326.918 249.98C326.015 250.49 324.914 250.498 324.004 250.001L319.501 247.543C318.112 246.784 318.113 244.788 319.503 244.031L325.217 240.919Z" fill="#1E1F06"/>
<path d="M335.583 246.724C336.187 246.395 336.919 246.399 337.519 246.736L342.335 249.442C343.694 250.205 343.696 252.16 342.34 252.927L337.283 255.785C336.381 256.295 335.279 256.303 334.37 255.806L329.867 253.348C328.478 252.589 328.479 250.594 329.869 249.836L335.583 246.724Z" fill="#1E1F06"/>
<path d="M346.363 252.943C346.967 252.613 347.699 252.618 348.299 252.955L353.115 255.661C354.474 256.424 354.476 258.379 353.12 259.145L348.064 262.003C347.161 262.513 346.059 262.522 345.15 262.025L340.647 259.567C339.258 258.808 339.259 256.812 340.649 256.055L346.363 252.943Z" fill="#1E1F06"/>
<path d="M357.143 259.162C357.748 258.832 358.479 258.837 359.079 259.174L363.896 261.88C365.254 262.643 365.257 264.598 363.9 265.365L358.844 268.223C357.942 268.733 356.84 268.741 355.93 268.244L351.428 265.786C350.038 265.027 350.039 263.032 351.429 262.274L357.143 259.162Z" fill="#1E1F06"/>
<path d="M366.66 265.257C367.295 264.849 368.105 264.833 368.756 265.216L378.936 271.204C380.234 271.968 380.255 273.836 378.975 274.629L374.606 277.333C373.669 277.913 372.49 277.933 371.534 277.385L361.843 271.827C360.542 271.081 360.495 269.221 361.757 268.41L366.66 265.257Z" fill="#1E1F06"/>
<path d="M244.366 206.506C244.971 206.176 245.702 206.181 246.302 206.518L251.118 209.224C252.477 209.987 252.48 211.942 251.123 212.708L246.067 215.566C245.164 216.076 244.063 216.085 243.153 215.588L238.65 213.13C237.261 212.371 237.262 210.375 238.652 209.618L244.366 206.506Z" fill="#1E1F06"/>
<path d="M255.561 212.724C256.165 212.395 256.897 212.4 257.497 212.737L262.313 215.442C263.672 216.206 263.674 218.16 262.318 218.927L257.262 221.785C256.359 222.295 255.258 222.303 254.348 221.807L249.845 219.348C248.456 218.59 248.457 216.594 249.847 215.837L255.561 212.724Z" fill="#1E1F06"/>
<path d="M266.341 218.944C266.945 218.615 267.677 218.619 268.277 218.957L273.093 221.662C274.452 222.425 274.454 224.38 273.098 225.147L268.041 228.005C267.139 228.515 266.037 228.523 265.128 228.026L260.625 225.568C259.236 224.81 259.237 222.814 260.627 222.056L266.341 218.944Z" fill="#1E1F06"/>
<path d="M277.121 225.163C277.725 224.834 278.457 224.839 279.057 225.176L283.873 227.881C285.232 228.645 285.234 230.599 283.878 231.366L278.822 234.224C277.919 234.734 276.818 234.742 275.908 234.246L271.405 231.787C270.016 231.029 270.017 229.033 271.407 228.276L277.121 225.163Z" fill="#1E1F06"/>
<path d="M287.901 231.383C288.506 231.053 289.237 231.058 289.838 231.395L294.654 234.101C296.012 234.864 296.015 236.819 294.658 237.585L289.602 240.443C288.7 240.953 287.598 240.962 286.688 240.465L282.186 238.007C280.796 237.248 280.797 235.252 282.188 234.495L287.901 231.383Z" fill="#1E1F06"/>
<path d="M298.681 237.602C299.286 237.272 300.017 237.277 300.618 237.614L305.434 240.32C306.792 241.083 306.795 243.038 305.438 243.805L300.382 246.663C299.48 247.173 298.378 247.181 297.468 246.684L292.966 244.226C291.576 243.467 291.577 241.471 292.968 240.714L298.681 237.602Z" fill="#1E1F06"/>
<path d="M309.461 243.821C310.066 243.492 310.797 243.496 311.398 243.834L316.214 246.539C317.572 247.302 317.575 249.257 316.218 250.024L311.162 252.882C310.26 253.392 309.158 253.4 308.248 252.903L303.746 250.445C302.356 249.686 302.357 247.691 303.747 246.933L309.461 243.821Z" fill="#1E1F06"/>
<path d="M320.242 250.04C320.846 249.711 321.578 249.716 322.178 250.053L326.994 252.758C328.353 253.521 328.355 255.476 326.999 256.243L321.942 259.101C321.04 259.611 319.938 259.619 319.029 259.123L314.526 256.664C313.137 255.906 313.138 253.91 314.528 253.153L320.242 250.04Z" fill="#1E1F06"/>
<path d="M330.192 256.259C330.797 255.93 331.528 255.935 332.129 256.272L336.945 258.978C338.303 259.741 338.306 261.696 336.949 262.462L331.893 265.32C330.991 265.83 329.889 265.838 328.979 265.342L324.477 262.884C323.087 262.125 323.088 260.129 324.479 259.372L330.192 256.259Z" fill="#1E1F06"/>
<path d="M341.387 262.065C341.992 261.735 342.723 261.74 343.324 262.077L348.14 264.783C349.498 265.546 349.501 267.501 348.144 268.268L343.088 271.126C342.186 271.636 341.084 271.644 340.174 271.147L335.672 268.689C334.282 267.93 334.283 265.934 335.673 265.177L341.387 262.065Z" fill="#1E1F06"/>
<path d="M351.338 268.284C351.943 267.955 352.674 267.959 353.274 268.297L358.091 271.002C359.449 271.765 359.452 273.72 358.095 274.487L353.039 277.345C352.137 277.855 351.035 277.863 350.125 277.366L345.623 274.908C344.233 274.149 344.234 272.154 345.624 271.396L351.338 268.284Z" fill="#1E1F06"/>
<path d="M362.118 274.503C362.723 274.174 363.454 274.179 364.055 274.516L368.871 277.221C370.229 277.984 370.232 279.939 368.875 280.706L363.819 283.564C362.917 284.074 361.815 284.082 360.905 283.585L356.403 281.127C355.013 280.369 355.014 278.373 356.405 277.616L362.118 274.503Z" fill="#1E1F06"/>
<path d="M299.261 274.665C299.86 274.323 300.594 274.313 301.202 274.64L306.114 277.281C307.485 278.019 307.525 279.971 306.185 280.764L300.511 284.122C299.619 284.65 298.516 284.68 297.597 284.2L292.993 281.8C291.59 281.069 291.551 279.076 292.924 278.291L299.261 274.665Z" fill="#1E1F06"/>
<path d="M304.972 283.742C305.563 283.434 306.268 283.441 306.852 283.76L311.862 286.493C313.243 287.246 313.254 289.225 311.882 289.994L311.332 290.301C310.416 290.814 309.298 290.811 308.385 290.292L303.932 287.762C302.553 286.979 302.591 284.98 303.997 284.248L304.972 283.742Z" fill="#1E1F06"/>
<path d="M315.545 290.108C316.136 289.801 316.841 289.808 317.425 290.127L322.435 292.859C323.816 293.613 323.827 295.592 322.454 296.36L321.905 296.668C320.989 297.181 319.871 297.177 318.958 296.659L314.505 294.129C313.126 293.345 313.163 291.347 314.57 290.615L315.545 290.108Z" fill="#1E1F06"/>
<path d="M321.35 286.791C321.94 286.484 322.645 286.491 323.23 286.81L328.24 289.543C329.621 290.296 329.632 292.275 328.259 293.043L327.71 293.351C326.794 293.864 325.676 293.861 324.762 293.342L320.309 290.812C318.931 290.029 318.968 288.03 320.375 287.298L321.35 286.791Z" fill="#1E1F06"/>
<path d="M326.325 296.327C326.916 296.02 327.621 296.027 328.205 296.346L333.215 299.079C334.596 299.832 334.607 301.811 333.235 302.58L332.686 302.887C331.769 303.4 330.651 303.397 329.738 302.878L325.285 300.348C323.906 299.565 323.944 297.566 325.35 296.834L326.325 296.327Z" fill="#1E1F06"/>
<path d="M371.519 260.256C372.109 259.948 372.814 259.955 373.399 260.274L378.409 263.007C379.79 263.76 379.801 265.739 378.428 266.508L377.879 266.815C376.963 267.328 375.845 267.325 374.931 266.806L370.478 264.276C369.1 263.493 369.137 261.494 370.544 260.763L371.519 260.256Z" fill="#1E1F06"/>
<path d="M361.568 254.45C362.159 254.143 362.864 254.15 363.448 254.469L368.458 257.201C369.839 257.954 369.85 259.933 368.478 260.702L367.928 261.01C367.012 261.523 365.894 261.519 364.981 261L360.528 258.47C359.149 257.687 359.187 255.688 360.593 254.957L361.568 254.45Z" fill="#1E1F06"/>
<path d="M351.202 248.232C351.793 247.925 352.498 247.932 353.082 248.25L358.092 250.983C359.473 251.736 359.484 253.715 358.112 254.484L357.563 254.791C356.646 255.304 355.528 255.301 354.615 254.782L350.162 252.252C348.784 251.469 348.821 249.47 350.227 248.739L351.202 248.232Z" fill="#1E1F06"/>
<path d="M340.007 242.012C340.598 241.705 341.303 241.712 341.888 242.031L346.898 244.763C348.279 245.516 348.29 247.496 346.917 248.264L346.368 248.572C345.452 249.085 344.334 249.081 343.42 248.562L338.967 246.032C337.589 245.249 337.626 243.25 339.033 242.519L340.007 242.012Z" fill="#1E1F06"/>
<path d="M280.717 208.013C281.307 207.706 282.012 207.713 282.597 208.032L287.607 210.764C288.988 211.517 288.999 213.496 287.626 214.265L287.077 214.573C286.161 215.086 285.043 215.082 284.129 214.563L279.676 212.033C278.298 211.25 278.335 209.251 279.742 208.52L280.717 208.013Z" fill="#1E1F06"/>
<path d="M270.351 202.208C270.942 201.901 271.647 201.908 272.231 202.226L277.241 204.959C278.622 205.712 278.633 207.691 277.261 208.46L276.712 208.767C275.795 209.281 274.677 209.277 273.764 208.758L269.311 206.228C267.932 205.445 267.97 203.446 269.376 202.715L270.351 202.208Z" fill="#1E1F06"/>
<path d="M259.986 195.99C260.576 195.682 261.281 195.689 261.866 196.008L266.876 198.741C268.257 199.494 268.268 201.473 266.895 202.242L266.346 202.549C265.43 203.062 264.312 203.059 263.398 202.54L258.945 200.01C257.567 199.227 257.604 197.228 259.011 196.497L259.986 195.99Z" fill="#1E1F06"/>
<path d="M249.205 189.77C249.796 189.463 250.501 189.47 251.086 189.789L256.095 192.521C257.476 193.274 257.487 195.253 256.115 196.022L255.566 196.329C254.649 196.843 253.531 196.839 252.618 196.32L248.165 193.79C246.787 193.007 246.824 191.008 248.23 190.277L249.205 189.77Z" fill="#1E1F06"/>
<path d="M235.523 181.477C236.114 181.17 236.818 181.177 237.403 181.496L242.413 184.229C243.794 184.982 243.805 186.961 242.432 187.729L241.883 188.037C240.967 188.55 239.849 188.547 238.936 188.028L234.483 185.498C233.104 184.715 233.141 182.716 234.548 181.984L235.523 181.477Z" fill="#1E1F06"/>
<path d="M285.159 266.376C285.761 266.032 286.498 266.024 287.108 266.356L296.505 271.467C297.844 272.196 297.908 274.096 296.621 274.913L290.301 278.923C289.328 279.541 288.088 279.546 287.11 278.938L278.498 273.586C277.211 272.787 277.246 270.903 278.56 270.151L285.159 266.376Z" fill="#1E1F06"/>
<path d="M217.968 227.829C218.582 227.478 219.335 227.477 219.95 227.826L229.229 233.1C230.539 233.844 230.587 235.714 229.317 236.525L223.876 239.997C222.948 240.59 221.77 240.626 220.808 240.092L211.586 234.979C210.223 234.223 210.21 232.268 211.563 231.494L217.968 227.829Z" fill="#1E1F06"/>
<path d="M232.154 236.564C232.771 236.204 233.533 236.201 234.153 236.555L281.308 263.473C282.654 264.242 282.652 266.183 281.305 266.949L275.284 270.372C274.355 270.901 273.216 270.895 272.292 270.357L226.167 243.514C224.842 242.743 224.841 240.83 226.165 240.058L232.154 236.564Z" fill="#1E1F06"/>
<path d="M208.115 254.549C210.632 253.095 213.739 253.121 216.232 254.617L263.944 283.244C266.505 284.781 266.54 288.481 264.008 290.065L240.383 304.847C237.838 306.439 234.615 306.473 232.037 304.933L184.701 276.657C181.426 274.7 181.461 269.943 184.765 268.034L208.115 254.549Z" fill="#1D1D1D" stroke="#1D1D1D" stroke-width="4"/>
<path d="M313.633 51.5241C315.41 45.3157 322.519 42.395 328.148 45.5602L452.178 115.3C455.818 117.347 457.572 121.629 456.414 125.641L429.63 218.427C428.739 221.516 425.205 222.973 422.395 221.41L292.172 148.947C288.922 147.138 287.347 143.329 288.371 139.754L313.633 51.5241Z" fill="white" fill-opacity="0.25"/>
<path d="M296.261 53.824C298.029 47.606 305.143 44.6737 310.779 47.8402L436.145 118.279C439.808 120.337 441.559 124.655 440.365 128.683L412.655 222.163C411.742 225.245 408.199 226.676 405.401 225.095L274.904 151.329C271.689 149.512 270.136 145.73 271.146 142.177L296.261 53.824Z" fill="#FAFF00"/>
<path d="M295.37 55.0515C297.147 48.8431 304.255 45.9224 309.885 49.0875L433.915 118.828C437.555 120.874 439.309 125.156 438.15 129.168L411.367 221.955C410.475 225.044 406.942 226.5 404.132 224.937L273.909 152.474C270.659 150.666 269.084 146.856 270.108 143.281L295.37 55.0515Z" fill="white"/>
<line x1="309.902" y1="76.6932" x2="321.805" y2="83.7706" stroke="#2900FB" stroke-width="4" stroke-linecap="round"/>
<line x1="306.98" y1="82.8416" x2="313.856" y2="86.6919" stroke="#2900FB" stroke-width="4" stroke-linecap="round"/>
<line x1="326.902" y1="86.6439" x2="338.804" y2="93.7213" stroke="#C4C4C4" stroke-width="4" stroke-linecap="round"/>
<line x1="319.433" y1="113.161" x2="332.98" y2="121.091" stroke="#C4C4C4" stroke-width="4" stroke-linecap="round"/>
<line x1="300.357" y1="132.635" x2="320.529" y2="144.313" stroke="#C4C4C4" stroke-width="4" stroke-linecap="round"/>
<line x1="309.88" y1="107.71" x2="313.847" y2="109.914" stroke="#C4C4C4" stroke-width="4" stroke-linecap="round"/>
<line x1="365.037" y1="108.583" x2="393.913" y2="125.242" stroke="#1D1D1D" stroke-width="4" stroke-linecap="round"/>
<line x1="312.788" y1="94.0472" x2="328.378" y2="102.859" stroke="#1D1D1D" stroke-width="4" stroke-linecap="round"/>
<line x1="338.523" y1="124.424" x2="343.829" y2="127.709" stroke="#1D1D1D" stroke-width="4" stroke-linecap="round"/>
<line x1="332.304" y1="158.423" x2="337.61" y2="161.708" stroke="#1D1D1D" stroke-width="4" stroke-linecap="round"/>
<line x1="322.353" y1="152.618" x2="327.659" y2="155.903" stroke="#1D1D1D" stroke-width="4" stroke-linecap="round"/>
<line x1="297.475" y1="137.277" x2="302.781" y2="140.562" stroke="#1D1D1D" stroke-width="4" stroke-linecap="round"/>
<line x1="324.395" y1="139.232" x2="337.906" y2="146.812" stroke="#1D1D1D" stroke-width="4" stroke-linecap="round"/>
<line x1="304.929" y1="120.654" x2="307.719" y2="122.327" stroke="#1D1D1D" stroke-width="4" stroke-linecap="round"/>
<line x1="312.81" y1="125.229" x2="321.001" y2="130.202" stroke="#1D1D1D" stroke-width="4" stroke-linecap="round"/>
<line x1="345.302" y1="97.5456" x2="356.878" y2="104.372" stroke="#FAFF00" stroke-width="4" stroke-linecap="round"/>
<line x1="311.136" y1="100.703" x2="335.034" y2="114.462" stroke="#FAFF00" stroke-width="4" stroke-linecap="round"/>
<line x1="303.275" y1="126.891" x2="318.931" y2="136.421" stroke="#FAFF00" stroke-width="4" stroke-linecap="round"/>
<line x1="326.887" y1="133.027" x2="338.749" y2="139.759" stroke="#FAFF00" stroke-width="4" stroke-linecap="round"/>
<line x1="306.992" y1="113.982" x2="321.363" y2="122.337" stroke="#2900FB" stroke-width="4" stroke-linecap="round"/>
<line x1="325.236" y1="146.738" x2="339.607" y2="155.093" stroke="#2900FB" stroke-width="4" stroke-linecap="round"/>
<line x1="307.413" y1="143.86" x2="317.242" y2="149.696" stroke="#2900FB" stroke-width="4" stroke-linecap="round"/>
<path d="M145.013 100.082L147.548 119.138L166.604 121.672L147.548 124.207L145.013 143.263L142.479 124.207L123.423 121.672L142.479 119.138L145.013 100.082Z" fill="#FAFF00"/>
<path d="M548.851 48.0693L552.48 75.7873L579.765 79.4735L552.48 83.1597L548.851 110.878L545.223 83.1597L517.938 79.4735L545.223 75.7873L548.851 48.0693Z" fill="#FAFF00"/>
<path d="M512.05 29.4229L513.893 43.7149L527.752 45.6156L513.893 47.5163L512.05 61.8084L510.207 47.5163L496.348 45.6156L510.207 43.7149L512.05 29.4229Z" fill="white"/>
</svg>
