<svg width="78" height="93" viewBox="0 0 78 93" fill="none" xmlns="http://www.w3.org/2000/svg">
<path d="M0.629911 4.071C0.116841 4.2754 -0.133391 4.85702 0.0710036 5.37009L3.4018 13.7311C3.6062 14.2441 4.18782 14.4944 4.70089 14.29C5.21396 14.0856 5.46419 13.5039 5.25979 12.9909L2.29909 5.55891L9.73106 2.5982C10.2441 2.3938 10.4944 1.81218 10.29 1.29911C10.0856 0.786042 9.50395 0.535811 8.99088 0.740205L0.629911 4.071ZM42.6325 50.9349L43.4525 51.5072L42.6325 50.9349ZM13.9061 50.9349L13.086 51.5072L13.086 51.5072L13.9061 50.9349ZM64.6977 24.6267L64.1944 25.4908L64.6977 24.6267ZM64.6977 75.9903L65.4772 76.6167L65.4772 76.6167L64.6977 75.9903ZM1 5C0.604793 5.91859 0.604821 5.9186 0.605065 5.91871C0.605434 5.91887 0.605892 5.91907 0.606628 5.91938C0.608098 5.92002 0.610425 5.92102 0.6136 5.92239C0.61995 5.92514 0.629693 5.92935 0.64277 5.93503C0.668923 5.94639 0.708405 5.96358 0.760728 5.98651C0.865376 6.03237 1.02138 6.10117 1.22482 6.19208C1.63171 6.37391 2.22829 6.64413 2.98324 6.99612C4.49334 7.70018 6.63609 8.73087 9.16132 10.035C14.216 12.6456 20.7842 16.3421 26.8748 20.6987C32.9845 25.069 38.5245 30.0413 41.6159 35.1807C43.1554 37.7402 44.0612 40.2978 44.1628 42.8136C44.2637 45.3127 43.5745 47.8377 41.8124 50.3626L43.4525 51.5072C45.4507 48.644 46.2807 45.6925 46.1612 42.7329C46.0423 39.7901 44.9881 36.9069 43.3297 34.1498C40.0251 28.6559 34.2169 23.4915 28.0383 19.072C21.8407 14.6389 15.1806 10.8928 10.0791 8.25804C7.52619 6.93959 5.35884 5.89701 3.82837 5.18345C3.06304 4.82663 2.45671 4.55197 2.04078 4.3661C1.8328 4.27316 1.6724 4.20242 1.56351 4.1547C1.50906 4.13083 1.46748 4.11273 1.43927 4.10048C1.42516 4.09435 1.4144 4.08969 1.40703 4.08651C1.40335 4.08492 1.40052 4.0837 1.39855 4.08285C1.39756 4.08242 1.39672 4.08206 1.39623 4.08185C1.39561 4.08158 1.39521 4.08141 1 5ZM41.8124 50.3626C39.1535 54.1726 33.808 56.1987 28.2693 56.1987C22.7305 56.1987 17.385 54.1726 14.7261 50.3626L13.086 51.5072C16.2557 56.049 22.3591 58.1987 28.2693 58.1987C34.1795 58.1987 40.2829 56.049 43.4525 51.5072L41.8124 50.3626ZM14.7261 50.3626C13.2317 48.2213 12.6 46.1154 12.6211 44.0869C12.6424 42.0505 13.3227 40.018 14.5724 38.0377C17.0863 34.0541 21.8401 30.3891 27.6937 27.5868C33.5292 24.7932 40.3548 22.9072 46.8928 22.4108C53.4452 21.9134 59.6064 22.8182 64.1944 25.4908L65.2011 23.7626C60.1367 20.8126 53.5226 19.9017 46.7414 20.4166C39.9459 20.9325 32.8797 22.8868 26.8301 25.7829C20.7987 28.6703 15.6741 32.5443 12.881 36.9703C11.4773 39.1948 10.6471 41.5847 10.6212 44.0661C10.5953 46.5553 11.3799 49.0625 13.086 51.5072L14.7261 50.3626ZM64.1944 25.4908C73.2693 30.7771 76.551 38.9642 75.9261 47.9683C75.2967 57.0379 70.6888 66.9388 63.9182 75.3639L65.4772 76.6167C72.4171 67.981 77.2554 57.7025 77.9213 48.1068C78.5919 38.4455 75.0183 29.4813 65.2011 23.7626L64.1944 25.4908ZM63.9182 75.3639C56.3305 84.8057 45.4361 88.6126 36.3395 90.042C31.7996 90.7553 27.7369 90.8713 24.8101 90.8086C23.3476 90.7773 22.1712 90.7014 21.3637 90.6338C20.96 90.6 20.6488 90.5683 20.4402 90.5453C20.3359 90.5338 20.2574 90.5244 20.2058 90.5181C20.18 90.5149 20.161 90.5125 20.1489 90.511C20.1428 90.5102 20.1385 90.5096 20.1359 90.5093C20.1346 90.5091 20.1338 90.509 20.1334 90.5089C20.1331 90.5089 20.1332 90.5089 20.1331 90.5089C20.1332 90.5089 20.1334 90.5089 20 91.5C19.8666 92.4911 19.867 92.4911 19.8676 92.4912C19.8679 92.4912 19.8686 92.4913 19.8693 92.4914C19.8707 92.4916 19.8725 92.4918 19.8747 92.4921C19.8792 92.4927 19.8854 92.4935 19.8934 92.4946C19.9094 92.4966 19.9323 92.4995 19.962 92.5032C20.0215 92.5105 20.1082 92.5208 20.2207 92.5332C20.4459 92.5581 20.7747 92.5915 21.1969 92.6268C22.041 92.6975 23.259 92.7758 24.7673 92.8081C27.782 92.8727 31.9667 92.7536 36.6499 92.0177C45.9993 90.5487 57.4537 86.6008 65.4772 76.6167L63.9182 75.3639Z" fill="#FAFF00"/>
</svg>
