<svg width="50" height="50" viewBox="0 0 50 50" fill="none" xmlns="http://www.w3.org/2000/svg">
<rect width="50" height="50" rx="10" fill="#FAFF00"/>
<g clip-path="url(#clip0_1460_1156)">
<path fill-rule="evenodd" clip-rule="evenodd" d="M25.5 36C25.5 36 34.125 27.8264 34.125 21.625C34.125 19.3375 33.2163 17.1437 31.5988 15.5262C29.9813 13.9087 27.7875 13 25.5 13C23.2125 13 21.0187 13.9087 19.4012 15.5262C17.7837 17.1437 16.875 19.3375 16.875 21.625C16.875 27.8264 25.5 36 25.5 36ZM25.5 25.9375C26.6437 25.9375 27.7406 25.4831 28.5494 24.6744C29.3581 23.8656 29.8125 22.7687 29.8125 21.625C29.8125 20.4813 29.3581 19.3844 28.5494 18.5756C27.7406 17.7669 26.6437 17.3125 25.5 17.3125C24.3563 17.3125 23.2594 17.7669 22.4506 18.5756C21.6419 19.3844 21.1875 20.4813 21.1875 21.625C21.1875 22.7687 21.6419 23.8656 22.4506 24.6744C23.2594 25.4831 24.3563 25.9375 25.5 25.9375Z" fill="#1D1D1D"/>
</g>
<defs>
<clipPath id="clip0_1460_1156">
<rect width="23" height="23" fill="white" transform="translate(14 13)"/>
</clipPath>
</defs>
</svg>
