<svg width="50" height="50" viewBox="0 0 50 50" fill="none" xmlns="http://www.w3.org/2000/svg">
<rect width="50" height="50" rx="10" fill="#FAFF00"/>
<g clip-path="url(#clip0_1460_1145)">
<path d="M37.9881 31.725C38.041 32.1309 37.9174 32.4838 37.6175 32.7837L34.0976 36.277C33.9388 36.4534 33.7315 36.6035 33.4757 36.7269C33.2199 36.8505 32.9685 36.9299 32.7216 36.9651C32.7039 36.9651 32.6509 36.9697 32.5626 36.9785C32.4745 36.9873 32.3598 36.9918 32.2187 36.9918C31.8833 36.9918 31.3408 36.9344 30.5909 36.8197C29.841 36.705 28.9236 36.4226 27.8386 35.9728C26.7533 35.5229 25.5227 34.8479 24.1465 33.9482C22.7704 33.0484 21.3059 31.8133 19.7532 30.2429C18.5181 29.0255 17.4948 27.861 16.6832 26.7495C15.8716 25.6379 15.2188 24.6102 14.7247 23.6662C14.2307 22.7223 13.8601 21.8665 13.6131 21.099C13.3661 20.3315 13.1985 19.6699 13.1103 19.1141C13.0221 18.5583 12.9868 18.1216 13.0044 17.8041C13.0221 17.4865 13.0309 17.31 13.0309 17.2747C13.0662 17.0277 13.1456 16.7763 13.2691 16.5205C13.3926 16.2646 13.5425 16.0573 13.719 15.8985L17.2389 12.3786C17.4859 12.1316 17.7682 12.0081 18.0858 12.0081C18.3152 12.0081 18.5181 12.0742 18.6945 12.2065C18.871 12.3389 19.021 12.5021 19.1445 12.6962L21.9763 18.0687C22.1351 18.351 22.1792 18.6598 22.1086 18.995C22.038 19.3302 21.8881 19.6125 21.6587 19.8419L20.3619 21.1387C20.3266 21.174 20.2957 21.2314 20.2693 21.3108C20.2428 21.3902 20.2296 21.4563 20.2296 21.5093C20.3001 21.8798 20.4589 22.3032 20.7059 22.7796C20.9177 23.2031 21.2441 23.7191 21.6852 24.3279C22.1263 24.9366 22.7526 25.6379 23.5642 26.4318C24.3582 27.2435 25.064 27.8742 25.6815 28.3242C26.2989 28.774 26.8152 29.1049 27.2298 29.3166C27.6444 29.5284 27.962 29.6563 28.1825 29.7003L28.5132 29.7665C28.5485 29.7665 28.606 29.7532 28.6853 29.7268C28.7647 29.7003 28.8221 29.6694 28.8574 29.6341L30.3659 28.0991C30.6837 27.8168 31.054 27.6757 31.4775 27.6757C31.7775 27.6757 32.0156 27.7286 32.192 27.8345H32.2184L37.3263 30.8516C37.6969 31.0811 37.9174 31.3722 37.9881 31.725Z" fill="#1D1D1D"/>
</g>
<defs>
<clipPath id="clip0_1460_1145">
<rect width="25" height="25" fill="white" transform="translate(13 12)"/>
</clipPath>
</defs>
</svg>
