<svg width="53" height="48" viewBox="0 0 53 48" fill="none" xmlns="http://www.w3.org/2000/svg">
<mask id="path-1-inside-1_1447_642" fill="white">
<path fill-rule="evenodd" clip-rule="evenodd" d="M13.2295 0.014823C20.5271 0.0229932 32.4685 0.0229932 39.7661 0.014823C47.0637 0.00665286 41.0929 0 26.4978 0C11.9027 0 5.93195 0.00665286 13.2295 0.014823ZM14.1431 0.129964C14.0314 0.14292 13.5451 0.230982 13.0623 0.325698C9.4157 1.04106 6.09616 3.00108 3.75149 5.82329C2.22171 7.66473 1.0273 9.97368 0.444306 12.2167C0.0491862 13.7369 0.0371795 13.841 0.0068437 16.0109C-0.0298725 18.63 0.0672833 19.4274 0.640531 21.2135C1.35537 23.4407 2.51352 25.538 3.83571 26.9996C4.95228 28.234 9.77532 33.1459 15.8903 39.2765C22.9802 46.3844 23.9936 47.3483 24.8739 47.8203L25.209 48H26.3728C27.4591 48 27.5624 47.9906 27.9238 47.8586C28.4377 47.6709 28.839 47.3844 29.3517 46.8392C30.0852 46.0592 30.3937 45.3712 30.5196 44.2359L30.5908 43.5939L31.0963 43.555C32.2123 43.4692 32.871 43.2198 33.591 42.6105C33.9214 42.331 34.4337 41.6669 34.6333 41.2596C34.9233 40.6676 35.1388 39.7955 35.1399 39.2097L35.1403 38.9689L35.8219 38.9393C36.3213 38.9176 36.602 38.8747 36.8722 38.7787C37.9284 38.4035 39.0796 37.2196 39.4082 36.1706C39.4564 36.0166 39.5093 35.628 39.5257 35.3071C39.5717 34.4076 39.5185 34.482 40.1423 34.4447C40.7408 34.4089 41.4544 34.235 41.8615 34.0257C42.2932 33.8037 43.1891 32.9631 45.842 30.2908C49.6352 26.4698 50.2998 25.6631 51.2551 23.7205C52.2424 21.7129 52.7587 19.8217 52.9528 17.5017C53.2334 14.1478 52.2513 10.3752 50.3264 7.41175C49.0942 5.51469 47.3071 3.75279 45.3779 2.53281C43.6092 1.41437 41.3142 0.540282 39.3145 0.223571C38.4617 0.0884713 34.9507 0.0689796 34.1543 0.194917C33.0121 0.375478 31.8757 0.704444 30.5622 1.23475C29.5262 1.653 28.6538 2.12284 27.4759 2.89679C26.9452 3.24554 26.4719 3.53092 26.4242 3.53092C26.3766 3.53092 25.9293 3.25395 25.4303 2.91547C23.9619 1.91941 22.552 1.23656 20.8698 0.70672C19.3904 0.240845 18.0998 0.0834525 15.8703 0.0971083C15.032 0.102244 14.2548 0.117067 14.1431 0.129964ZM18.1453 1.93102C20.4475 2.2716 22.8451 3.21333 24.5701 4.45444L25.1075 4.84112L21.0018 8.98602C16.5566 13.4736 14.986 15.0771 13.8062 16.3328C12.9204 17.2755 12.8391 17.4356 12.8391 18.2372C12.8391 18.8454 12.9488 19.1898 13.3266 19.7685C14.163 21.0498 15.8994 21.9673 17.6813 22.0694C19.2502 22.1594 20.5774 21.7049 21.7509 20.6757C22.4734 20.0421 22.9036 19.63 25.0404 17.5245C25.9456 16.6326 26.7098 15.9029 26.7387 15.9029C26.7677 15.9029 26.9551 16.0427 27.1552 16.2135C28.0721 16.9961 29.6298 17.8978 30.6555 18.2397C30.9687 18.3441 31.3295 18.5019 31.4571 18.5905C31.907 18.9025 32.5944 19.568 36.176 23.1598C39.9326 26.927 41.8112 28.8727 42.1016 29.2973C42.424 29.7688 42.4817 30.4802 42.2481 31.1045C41.8664 32.125 41.2556 32.5765 40.1752 32.6369C39.6519 32.6662 39.5908 32.6577 39.3013 32.5151C38.7676 32.2525 37.9258 31.4842 35.2278 28.7974C29.1112 22.7065 28.7608 22.3807 28.3277 22.3807C28.1083 22.3807 27.5999 22.8597 27.5999 23.0665C27.5999 23.5097 27.9753 23.9271 32.4424 28.4499C36.6791 32.7395 37.4028 33.5137 37.6245 33.994C37.8208 34.4194 37.8638 35.1123 37.7243 35.6042C37.4646 36.5207 36.7926 37.0723 35.7802 37.2C34.6969 37.3367 34.7389 37.3721 28.0639 30.7013C25.2344 27.8736 24.4728 27.1575 24.1449 27.0165C23.8773 26.9015 23.5661 26.9952 23.2882 27.2748C22.9855 27.5794 22.9832 27.7595 23.2763 28.1877C23.5959 28.6545 24.2768 29.3695 28.0559 33.2062C31.7538 36.9603 32.8574 38.1277 33.0981 38.5396C33.243 38.7877 33.2549 38.8561 33.2509 39.4213C33.2475 39.913 33.2203 40.1032 33.1132 40.3842C32.9422 40.8331 32.4784 41.2998 31.9242 41.5806C31.5473 41.7716 31.4852 41.7848 30.9648 41.7848C30.4319 41.7848 30.3946 41.7763 30.0747 41.5813C29.5505 41.2616 28.7038 40.4568 24.7251 36.4964C21.1311 32.9189 20.1172 31.939 19.7315 31.6703C19.2423 31.3297 18.5518 31.7163 18.5518 32.3308C18.5518 32.7724 18.54 32.7592 22.8699 37.1494C27.2598 41.6003 28.5687 42.9918 28.6496 43.2939C28.7277 43.5858 28.7243 44.2834 28.6431 44.6481C28.3589 45.924 26.922 46.6712 25.6208 46.2197C25.3321 46.1195 24.8237 45.6525 22.2926 43.1624C19.9722 40.8795 7.00072 27.7985 5.86815 26.5992C4.67722 25.338 4.18245 24.6927 3.54152 23.5643C2.26295 21.3134 1.72868 19.2038 1.72688 16.3989C1.72537 14.1408 2.01115 12.5954 2.75748 10.8257C4.51412 6.66021 7.78081 3.70652 12.0814 2.39491C12.8183 2.17017 14.1537 1.91608 15.0033 1.83887C15.75 1.77106 17.389 1.81915 18.1453 1.93102ZM37.6925 1.83922C39.7674 1.98214 41.4276 2.43203 43.2256 3.33874C47.4411 5.4645 50.4655 9.68078 51.0647 14.2671C51.3358 16.3429 51.1654 18.8424 50.6343 20.5777C50.3804 21.4075 49.852 22.6806 49.4863 23.3436C48.6611 24.8398 47.8142 25.879 45.3975 28.3607L44.1549 29.6366L43.9583 29.1247C43.5806 28.1418 43.5328 28.0881 38.299 22.76C36.218 20.6416 34.4464 18.8248 34.3621 18.7228L34.2088 18.5371L34.7181 18.3825C35.9599 18.0055 37.7645 16.7989 38.0101 16.1811C38.2495 15.5792 37.8643 14.9692 37.2448 14.9692C37.0071 14.9692 36.7763 15.1009 36.2714 15.5247C35.8231 15.901 35.2995 16.2375 34.7463 16.505L34.2413 16.7491H32.9942C31.8513 16.7491 31.7108 16.7377 31.3121 16.6131C30.4065 16.33 29.1747 15.6002 28.1854 14.7609C27.0262 13.7775 26.9828 13.7522 26.5833 13.8276C26.2433 13.8918 25.7123 14.3601 23.5688 16.4865C20.3882 19.6416 19.9548 19.99 18.9198 20.2233C18.4811 20.3223 17.4125 20.3052 16.9643 20.1921C15.8654 19.9149 14.952 19.3049 14.6897 18.6733C14.5203 18.2654 14.551 18.2026 15.3462 17.3282C17.1563 15.3382 25.8766 6.60179 27.6624 4.98935C29.1362 3.65866 31.481 2.54565 33.8034 2.07435C35.2269 1.78553 36.1244 1.73126 37.6925 1.83922Z"/>
</mask>
<path fill-rule="evenodd" clip-rule="evenodd" d="M13.2295 0.014823C20.5271 0.0229932 32.4685 0.0229932 39.7661 0.014823C47.0637 0.00665286 41.0929 0 26.4978 0C11.9027 0 5.93195 0.00665286 13.2295 0.014823ZM14.1431 0.129964C14.0314 0.14292 13.5451 0.230982 13.0623 0.325698C9.4157 1.04106 6.09616 3.00108 3.75149 5.82329C2.22171 7.66473 1.0273 9.97368 0.444306 12.2167C0.0491862 13.7369 0.0371795 13.841 0.0068437 16.0109C-0.0298725 18.63 0.0672833 19.4274 0.640531 21.2135C1.35537 23.4407 2.51352 25.538 3.83571 26.9996C4.95228 28.234 9.77532 33.1459 15.8903 39.2765C22.9802 46.3844 23.9936 47.3483 24.8739 47.8203L25.209 48H26.3728C27.4591 48 27.5624 47.9906 27.9238 47.8586C28.4377 47.6709 28.839 47.3844 29.3517 46.8392C30.0852 46.0592 30.3937 45.3712 30.5196 44.2359L30.5908 43.5939L31.0963 43.555C32.2123 43.4692 32.871 43.2198 33.591 42.6105C33.9214 42.331 34.4337 41.6669 34.6333 41.2596C34.9233 40.6676 35.1388 39.7955 35.1399 39.2097L35.1403 38.9689L35.8219 38.9393C36.3213 38.9176 36.602 38.8747 36.8722 38.7787C37.9284 38.4035 39.0796 37.2196 39.4082 36.1706C39.4564 36.0166 39.5093 35.628 39.5257 35.3071C39.5717 34.4076 39.5185 34.482 40.1423 34.4447C40.7408 34.4089 41.4544 34.235 41.8615 34.0257C42.2932 33.8037 43.1891 32.9631 45.842 30.2908C49.6352 26.4698 50.2998 25.6631 51.2551 23.7205C52.2424 21.7129 52.7587 19.8217 52.9528 17.5017C53.2334 14.1478 52.2513 10.3752 50.3264 7.41175C49.0942 5.51469 47.3071 3.75279 45.3779 2.53281C43.6092 1.41437 41.3142 0.540282 39.3145 0.223571C38.4617 0.0884713 34.9507 0.0689796 34.1543 0.194917C33.0121 0.375478 31.8757 0.704444 30.5622 1.23475C29.5262 1.653 28.6538 2.12284 27.4759 2.89679C26.9452 3.24554 26.4719 3.53092 26.4242 3.53092C26.3766 3.53092 25.9293 3.25395 25.4303 2.91547C23.9619 1.91941 22.552 1.23656 20.8698 0.70672C19.3904 0.240845 18.0998 0.0834525 15.8703 0.0971083C15.032 0.102244 14.2548 0.117067 14.1431 0.129964ZM18.1453 1.93102C20.4475 2.2716 22.8451 3.21333 24.5701 4.45444L25.1075 4.84112L21.0018 8.98602C16.5566 13.4736 14.986 15.0771 13.8062 16.3328C12.9204 17.2755 12.8391 17.4356 12.8391 18.2372C12.8391 18.8454 12.9488 19.1898 13.3266 19.7685C14.163 21.0498 15.8994 21.9673 17.6813 22.0694C19.2502 22.1594 20.5774 21.7049 21.7509 20.6757C22.4734 20.0421 22.9036 19.63 25.0404 17.5245C25.9456 16.6326 26.7098 15.9029 26.7387 15.9029C26.7677 15.9029 26.9551 16.0427 27.1552 16.2135C28.0721 16.9961 29.6298 17.8978 30.6555 18.2397C30.9687 18.3441 31.3295 18.5019 31.4571 18.5905C31.907 18.9025 32.5944 19.568 36.176 23.1598C39.9326 26.927 41.8112 28.8727 42.1016 29.2973C42.424 29.7688 42.4817 30.4802 42.2481 31.1045C41.8664 32.125 41.2556 32.5765 40.1752 32.6369C39.6519 32.6662 39.5908 32.6577 39.3013 32.5151C38.7676 32.2525 37.9258 31.4842 35.2278 28.7974C29.1112 22.7065 28.7608 22.3807 28.3277 22.3807C28.1083 22.3807 27.5999 22.8597 27.5999 23.0665C27.5999 23.5097 27.9753 23.9271 32.4424 28.4499C36.6791 32.7395 37.4028 33.5137 37.6245 33.994C37.8208 34.4194 37.8638 35.1123 37.7243 35.6042C37.4646 36.5207 36.7926 37.0723 35.7802 37.2C34.6969 37.3367 34.7389 37.3721 28.0639 30.7013C25.2344 27.8736 24.4728 27.1575 24.1449 27.0165C23.8773 26.9015 23.5661 26.9952 23.2882 27.2748C22.9855 27.5794 22.9832 27.7595 23.2763 28.1877C23.5959 28.6545 24.2768 29.3695 28.0559 33.2062C31.7538 36.9603 32.8574 38.1277 33.0981 38.5396C33.243 38.7877 33.2549 38.8561 33.2509 39.4213C33.2475 39.913 33.2203 40.1032 33.1132 40.3842C32.9422 40.8331 32.4784 41.2998 31.9242 41.5806C31.5473 41.7716 31.4852 41.7848 30.9648 41.7848C30.4319 41.7848 30.3946 41.7763 30.0747 41.5813C29.5505 41.2616 28.7038 40.4568 24.7251 36.4964C21.1311 32.9189 20.1172 31.939 19.7315 31.6703C19.2423 31.3297 18.5518 31.7163 18.5518 32.3308C18.5518 32.7724 18.54 32.7592 22.8699 37.1494C27.2598 41.6003 28.5687 42.9918 28.6496 43.2939C28.7277 43.5858 28.7243 44.2834 28.6431 44.6481C28.3589 45.924 26.922 46.6712 25.6208 46.2197C25.3321 46.1195 24.8237 45.6525 22.2926 43.1624C19.9722 40.8795 7.00072 27.7985 5.86815 26.5992C4.67722 25.338 4.18245 24.6927 3.54152 23.5643C2.26295 21.3134 1.72868 19.2038 1.72688 16.3989C1.72537 14.1408 2.01115 12.5954 2.75748 10.8257C4.51412 6.66021 7.78081 3.70652 12.0814 2.39491C12.8183 2.17017 14.1537 1.91608 15.0033 1.83887C15.75 1.77106 17.389 1.81915 18.1453 1.93102ZM37.6925 1.83922C39.7674 1.98214 41.4276 2.43203 43.2256 3.33874C47.4411 5.4645 50.4655 9.68078 51.0647 14.2671C51.3358 16.3429 51.1654 18.8424 50.6343 20.5777C50.3804 21.4075 49.852 22.6806 49.4863 23.3436C48.6611 24.8398 47.8142 25.879 45.3975 28.3607L44.1549 29.6366L43.9583 29.1247C43.5806 28.1418 43.5328 28.0881 38.299 22.76C36.218 20.6416 34.4464 18.8248 34.3621 18.7228L34.2088 18.5371L34.7181 18.3825C35.9599 18.0055 37.7645 16.7989 38.0101 16.1811C38.2495 15.5792 37.8643 14.9692 37.2448 14.9692C37.0071 14.9692 36.7763 15.1009 36.2714 15.5247C35.8231 15.901 35.2995 16.2375 34.7463 16.505L34.2413 16.7491H32.9942C31.8513 16.7491 31.7108 16.7377 31.3121 16.6131C30.4065 16.33 29.1747 15.6002 28.1854 14.7609C27.0262 13.7775 26.9828 13.7522 26.5833 13.8276C26.2433 13.8918 25.7123 14.3601 23.5688 16.4865C20.3882 19.6416 19.9548 19.99 18.9198 20.2233C18.4811 20.3223 17.4125 20.3052 16.9643 20.1921C15.8654 19.9149 14.952 19.3049 14.6897 18.6733C14.5203 18.2654 14.551 18.2026 15.3462 17.3282C17.1563 15.3382 25.8766 6.60179 27.6624 4.98935C29.1362 3.65866 31.481 2.54565 33.8034 2.07435C35.2269 1.78553 36.1244 1.73126 37.6925 1.83922Z" stroke="#1E1F06" stroke-width="2" mask="url(#path-1-inside-1_1447_642)"/>
</svg>
