<svg width="43" height="44" viewBox="0 0 43 44" fill="none" xmlns="http://www.w3.org/2000/svg">
<path fill-rule="evenodd" clip-rule="evenodd" d="M11.6664 0.796698C6.98285 2.46883 3.28912 5.83982 1.22308 10.3279C-0.509649 14.0921 -0.385919 20.3622 1.4963 24.189C3.28306 27.8206 6.21876 30.751 9.85693 32.5345C12.3043 33.7338 13.3375 33.9364 17.0101 33.9364C20.7164 33.9364 21.7068 33.7383 24.2617 32.4861L27.2206 31.0358L33.7288 37.5181L40.237 44L41.6183 42.6208L43 41.242L36.5307 34.7702L30.0618 28.2985L31.5734 25.9191C36.9322 17.4843 33.5127 6.13422 24.2501 1.61084C20.5866 -0.178252 15.3475 -0.517519 11.6664 0.796698ZM23.796 3.65198C29.0781 6.23202 31.8875 10.8829 31.8875 17.0487C31.8875 21.3432 30.8386 24.2157 28.1589 27.2625C24.0501 31.9336 16.1813 33.3703 10.3529 30.5135C2.25939 26.5462 -0.507124 16.5113 4.37442 8.82819C8.40348 2.48648 16.8176 0.244192 23.796 3.65198Z" fill="#1D1D1D"/>
</svg>
