<svg width="66" height="64" viewBox="0 0 66 64" fill="none" xmlns="http://www.w3.org/2000/svg">
<circle cx="33.6855" cy="32" r="29.5" stroke="#FAFF00"/>
<path d="M34.9897 32.0615L46.3586 20.6926C46.6149 20.4363 46.6149 20.0208 46.3586 19.7645C46.1023 19.5083 45.6869 19.5083 45.4305 19.7645L34.0616 31.1334L22.6926 19.7645C22.4364 19.5082 22.0209 19.5082 21.7646 19.7645C21.5083 20.0207 21.5083 20.4362 21.7646 20.6925L33.1335 32.0615L21.7645 43.4305C21.5082 43.6868 21.5082 44.1022 21.7645 44.3586C21.8927 44.4867 22.0606 44.5508 22.2286 44.5508C22.3966 44.5508 22.5645 44.4867 22.6926 44.3586L34.0616 32.9896L45.4305 44.3586C45.5588 44.4867 45.7266 44.5508 45.8946 44.5508C46.0626 44.5508 46.2305 44.4867 46.3586 44.3586C46.6149 44.1022 46.6149 43.6868 46.3586 43.4305L34.9897 32.0615Z" fill="#FAFF00"/>
</svg>
