<svg width="60" height="60" viewBox="0 0 60 60" fill="none" xmlns="http://www.w3.org/2000/svg">
<rect width="60" height="60" rx="10" fill="#F9FF05"/>
<path d="M36.3672 13H16.7747V47H43.2256V19.8637L36.3672 13ZM42.1631 45.9375H17.8372V14.0625H35.6128V20.6128H42.1631V45.9375Z" fill="black"/>
<path d="M38.2371 32.7306H35.2834V42.8934H33.7534V34.3244H30.7996V42.8934H29.2696V35.9181H26.3159V42.8934H24.7859V37.5119H21.8321V42.8934H20.1799V43.9559H39.8255V42.8934H38.2371V32.7306Z" fill="black"/>
<path d="M31.6116 18.2H21.8411V19.2625H31.6116V18.2Z" fill="black"/>
<path d="M38.5401 26.0254H20.2561V27.0879H38.5401V26.0254Z" fill="black"/>
<path d="M38.5401 28.7363H20.2561V29.7988H38.5401V28.7363Z" fill="black"/>
<path d="M38.5401 23.3132H20.2561V24.3757H38.5401V23.3132Z" fill="black"/>
</svg>
