<svg width="60" height="60" viewBox="0 0 60 60" fill="none" xmlns="http://www.w3.org/2000/svg">
<rect width="60" height="60" rx="10" fill="#F9FF05"/>
<g clip-path="url(#clip0_7_21)">
<path d="M38.0004 26C38.0004 19.3732 32.6275 14 26.0005 14C19.3737 14 14.0005 19.3732 14.0005 26C14.0005 32.6268 19.3737 37.9998 26.0005 37.9998C32.6275 37.9998 38.0004 32.6268 38.0004 26ZM26.0005 34.9997C21.0376 34.9997 17.0006 30.963 17.0006 26.0001C17.0006 21.0372 21.0376 17.0002 26.0005 17.0002C30.9633 17.0002 35.0006 21.0372 35.0006 26.0001C35.0006 30.963 30.9633 34.9997 26.0005 34.9997Z" fill="black"/>
<path d="M45.1208 40.8792L37.7795 33.5373C36.6857 35.2385 35.2381 36.6854 33.5369 37.7793L40.8787 45.1212C42.0508 46.293 43.9512 46.293 45.1207 45.1212C46.2929 43.9513 46.2929 42.051 45.1208 40.8792Z" fill="black"/>
</g>
<defs>
<clipPath id="clip0_7_21">
<rect width="32" height="32" fill="white" transform="translate(14 14)"/>
</clipPath>
</defs>
</svg>
