<svg width="60" height="60" viewBox="0 0 60 60" fill="none" xmlns="http://www.w3.org/2000/svg">
<rect width="60" height="60" rx="10" fill="#F9FF05"/>
<path fill-rule="evenodd" clip-rule="evenodd" d="M17.25 15.1395C16.0911 15.1395 15.125 16.1057 15.125 17.2645V35.327C15.125 36.4859 16.0911 37.452 17.25 37.452H26.5137L25.9824 39.577H23.625C23.3432 39.5771 23.073 39.689 22.8737 39.8882C22.6745 40.0875 22.5625 40.3577 22.5625 40.6395V43.827C22.5625 44.1088 22.6745 44.379 22.8737 44.5783C23.073 44.7775 23.3432 44.8895 23.625 44.8895H36.375C36.6568 44.8895 36.927 44.7775 37.1263 44.5783C37.3255 44.379 37.4375 44.1088 37.4375 43.827V40.6395C37.4375 40.3577 37.3255 40.0875 37.1263 39.8882C36.927 39.689 36.6568 39.5771 36.375 39.577H34.0176L33.4863 37.452H42.75C43.9089 37.452 44.875 36.4859 44.875 35.327V17.2645C44.875 16.1057 43.9089 15.1395 42.75 15.1395H17.25ZM17.25 17.2645H42.75V31.077H17.25V17.2645ZM17.25 33.202H42.75V35.327H17.25V33.202ZM28.7051 37.452H31.2949L31.8262 39.577H28.1738L28.7051 37.452ZM24.6875 41.702H35.3125V42.7645H24.6875V41.702Z" fill="black"/>
</svg>
