<svg width="60" height="60" viewBox="0 0 60 60" fill="none" xmlns="http://www.w3.org/2000/svg">
<rect width="60" height="60" rx="10" fill="#F9FF05"/>
<path d="M14.1191 33.7412V33.2789L13.6582 33.2427C11.8957 33.1043 10.5061 31.6107 10.5061 29.8022V19.3432C10.5061 17.449 12.0333 15.9043 13.9101 15.9043H29.1865C31.0672 15.9043 32.6025 17.4408 32.6025 19.331V20.6644V21.1644H33.1025H46.8755C48.7533 21.1644 50.2916 22.71 50.2916 24.6155V35.0745C50.2916 36.893 48.892 38.3765 47.1393 38.515L46.6786 38.5514V39.0135V41.9004C46.6786 42.0641 46.5829 42.2137 46.4277 42.2832C46.3579 42.3108 46.3138 42.3178 46.2693 42.3178C46.171 42.3178 46.0568 42.2723 45.9819 42.1967L42.5023 38.686L42.3555 38.5379H42.1471H31.5992C29.7214 38.5379 28.1831 36.9923 28.1831 35.0868V33.7534V33.2534H27.6831H18.6506H18.4422L18.2955 33.4014L14.8159 36.9122C14.7385 36.9903 14.6353 37.0333 14.5284 37.0333C14.473 37.0333 14.4221 37.0219 14.3814 37.0037L14.3713 36.9992L14.361 36.9951C14.2252 36.9412 14.1191 36.7921 14.1191 36.6158V33.7412ZM14.9256 34.4017V35.6165L15.7807 34.7537L17.9752 32.5396C18.0526 32.4615 18.1557 32.4185 18.2626 32.4185H29.1865C30.6186 32.4185 31.7718 31.2485 31.7718 29.8144V19.3555C31.7718 17.9214 30.6186 16.7514 29.1865 16.7514H13.9101C12.4779 16.7514 11.3247 17.9214 11.3247 19.3555V29.8144C11.3247 31.2485 12.4779 32.4185 13.9101 32.4185H14.5163C14.733 32.4185 14.9256 32.6063 14.9256 32.8359V34.4017ZM46.8634 22.0115H46.3634V22.0237H33.0904H32.5904V22.5237V29.8144C32.5904 31.6219 31.2018 33.1043 29.4502 33.2427L28.9896 33.2791V33.7412V35.0868C28.9896 36.5349 30.1568 37.703 31.587 37.703H42.5109C42.6178 37.703 42.7209 37.746 42.7983 37.8241L44.9928 40.0382L45.8479 40.901V39.6863V38.1205C45.8479 37.8909 46.0405 37.703 46.2572 37.703H46.8634C48.3095 37.703 49.4609 36.5189 49.4609 35.0868V24.6278C49.4609 23.1796 48.2937 22.0115 46.8634 22.0115Z" fill="black" stroke="black"/>
</svg>
