<svg width="60" height="60" viewBox="0 0 60 60" fill="none" xmlns="http://www.w3.org/2000/svg">
<rect width="60" height="60" rx="10" fill="#F9FF05"/>
<mask id="path-2-outside-1_7_31" maskUnits="userSpaceOnUse" x="5" y="10.9512" width="50" height="37" fill="black">
<rect fill="white" x="5" y="10.9512" width="50" height="37"/>
<path d="M6 22.4101V32.6229L7.31236 33.3588C8.01348 33.7537 9.34382 34.4537 10.2607 34.9204C11.8607 35.728 11.9326 35.746 12.2742 35.4409C12.6157 35.1357 12.6517 35.1357 13.0831 35.4588C13.4067 35.6742 13.5146 35.8896 13.4607 36.1409C13.173 37.128 13.173 37.8101 13.4247 38.3127C13.8202 39.0845 14.3596 39.4973 15.1146 39.6229C15.7258 39.7306 15.7978 39.8024 15.9056 40.3588C16.1213 41.687 16.5708 42.1178 17.991 42.405C18.8899 42.5845 19.0337 42.6562 19.1775 43.1409C19.627 44.5588 21.0652 45.1511 22.5933 44.5768C22.827 44.487 22.8989 44.5409 22.8989 44.8101C22.8989 45.2768 23.5281 46.0486 24.1573 46.3716C25.236 46.928 26.1708 46.6409 27.7888 45.2768L28.2921 44.8639L29.8202 45.8332C30.6652 46.3537 31.6 46.8562 31.8876 46.9101C32.9843 47.1434 34.2787 46.3537 34.5663 45.2768C34.6921 44.7742 34.7461 44.7562 35.609 44.8101C36.2022 44.8639 36.7236 44.7742 37.0831 44.5768C37.7303 44.2537 38.3596 43.3383 38.3596 42.728C38.3596 42.387 38.4494 42.3332 39.0427 42.3332C39.7798 42.3332 40.7506 41.8306 41.0382 41.2921C41.1461 41.0947 41.2719 40.628 41.3438 40.2332C41.4337 39.587 41.5236 39.4793 42.1348 39.2998C42.9978 39.0486 43.6629 38.2768 43.8067 37.3614C43.9146 36.7691 44.1663 36.446 45.3708 35.3511C46.7371 34.1127 46.8449 34.0588 47.0787 34.3639C47.2225 34.5614 47.3483 34.7588 47.3483 34.8306C47.3483 34.9204 47.5101 35.1357 47.7079 35.3332C48.0494 35.6742 48.1213 35.6742 48.7146 35.4229C49.0742 35.2793 50.4045 34.5793 51.6809 33.8973L54 32.6229V22.3921C54 16.7742 53.9461 12.1793 53.8742 12.1793C53.7303 12.1793 51.7528 13.6511 47.7978 16.7383C41.7573 21.4409 40.1393 22.787 40.1933 23.0742C40.2652 23.4332 38.5573 24.187 37.6404 24.205C37.2989 24.205 36.2022 23.9178 35.2135 23.5588C32.6247 22.6434 31.8517 22.5178 30.6472 22.8768C30 23.0562 29.3528 23.128 28.8315 23.0562C28.382 23.0024 26.8 23.0742 25.3258 23.2178C23.8337 23.3614 21.964 23.487 21.1371 23.487C19.7708 23.487 19.6449 23.4511 19.7348 23.1639C19.8067 22.9486 19.6449 22.6614 19.2674 22.2845C18.2787 21.387 6.3236 12.1793 6.10787 12.1793C6.05393 12.1793 6 16.7742 6 22.4101ZM13.0472 18.6229C15.8697 20.8127 18.2966 22.7152 18.4045 22.8588C18.5843 23.0742 17.973 24.205 15.1685 28.8178C13.2629 31.9588 11.6809 34.5434 11.6809 34.5614C11.6629 34.5793 10.5124 33.987 9.12809 33.2332L6.59326 31.8691L6.44944 24.5639C6.37753 20.5434 6.37753 16.4332 6.44944 15.446L6.59326 13.6152L7.24045 14.1178C7.6 14.405 10.2067 16.4152 13.0472 18.6229ZM53.5146 25.0486L53.4067 31.905L50.8719 33.2332C48.6247 34.4357 48.3191 34.5614 48.1573 34.2921C48.0315 34.1127 46.4674 31.528 44.6517 28.5486C41.4337 23.2178 41.3798 23.0921 41.7034 22.7691C41.9011 22.5716 44.5978 20.4357 47.7079 18.0306L53.3708 13.6332L53.4966 15.9127C53.5685 17.1691 53.5685 21.2793 53.5146 25.0486ZM35.0876 24.5101L37.6584 25.3716L38.9528 24.905C39.6719 24.6357 40.373 24.3665 40.5348 24.3127C40.7685 24.205 41.3258 24.9947 43.2494 28.0998C44.5798 30.2537 45.8202 32.2819 46.018 32.605L46.3596 33.1973L45.191 34.2742C44.5438 34.8486 43.8966 35.405 43.7528 35.4947C43.5371 35.6204 42.9978 35.2614 41.5056 34.0229C36.3281 29.6973 32.8584 26.8973 32.6427 26.8973C32.5169 26.8973 32.0854 27.0588 31.6899 27.2742C30.7551 27.7409 28.5258 27.9921 26.9618 27.7947C24.6966 27.5255 24.8225 26.987 27.4831 25.6409C28.5798 25.0845 29.8202 24.4204 30.2697 24.1511C31.4022 23.487 32.1034 23.5229 35.0876 24.5101ZM28.2921 24.1152C28.2921 24.1691 27.591 24.5639 26.7281 24.9947C25.8472 25.4255 25.0022 25.946 24.8225 26.1434C24.3191 26.6998 24.373 27.5973 24.9303 28.0819C25.973 28.9793 29.4966 29.105 31.564 28.3332L32.6067 27.9562L37.1371 31.6716C42.9258 36.4101 42.8539 36.3383 42.8539 37.0742C42.8539 37.846 42.3146 38.3845 41.5236 38.3845C41.0382 38.3845 40.2112 37.8819 37.0831 35.6562C34.9618 34.1665 33.0742 32.928 32.8764 32.928C32.6427 32.9101 32.5169 33.0178 32.5169 33.2691C32.5169 33.5024 33.2539 34.1486 34.9438 35.3691C40.7685 39.587 40.3371 39.228 40.3371 39.9998C40.3371 40.5383 40.2292 40.7716 39.8697 41.0588C39.6 41.2742 39.2045 41.4357 38.9888 41.4357C38.773 41.4357 37.0112 40.305 35.0157 38.905C33.0562 37.505 31.2944 36.3204 31.1326 36.2665C30.7371 36.1588 30.5213 36.6793 30.809 37.0383C30.9348 37.1819 32.391 38.2768 34.0809 39.4793C36.0764 40.8973 37.191 41.8127 37.2989 42.1178C37.6404 42.9973 36.8854 43.9486 35.8607 43.9486C35.6809 43.9486 34.764 43.4101 33.8472 42.7639C29.2989 39.5332 28.8315 39.2819 28.8315 39.9639C28.8315 40.3768 29.1551 40.6639 31.5461 42.387C32.6067 43.1409 33.5056 43.8947 33.5775 44.0562C33.7933 44.5947 33.6854 45.205 33.3258 45.5639C32.7506 46.1383 31.9416 46.0127 30.5393 45.1511L29.2809 44.3793L29.3348 43.1947C29.4067 42.046 29.3708 41.9742 28.7955 41.328C28.364 40.8793 27.9685 40.646 27.4831 40.5562C26.836 40.4486 26.764 40.3768 26.5124 39.5691C26.1888 38.5998 25.6135 38.0614 24.6966 37.8639C24.1753 37.7562 24.0854 37.6486 23.8876 36.9127C23.636 35.9075 23.3483 35.5306 22.5933 35.2075C21.8382 34.9024 21.3169 34.9204 20.6697 35.2434C20.0045 35.6024 19.8427 35.5845 19.8427 35.1716C19.8427 34.3998 18.5483 33.3588 17.5955 33.3588C17.0022 33.3588 16.5888 33.5742 15.4202 34.4537C14.9169 34.8486 14.4315 35.1537 14.3416 35.1537C14.2517 35.1357 13.9461 34.9562 13.6584 34.7229C13.2809 34.4178 13.173 34.2024 13.2629 33.9511C13.3348 33.7716 14.6112 31.5998 16.1034 29.105L18.836 24.5998L21.3708 24.4742C22.7551 24.4024 24.391 24.2768 24.9663 24.205C26.2427 24.0434 28.2921 23.9896 28.2921 24.1152ZM18.3865 34.7229C18.8 35.0639 18.9438 35.3332 18.9438 35.7998C18.9438 36.3204 18.782 36.5357 17.6494 37.487C16.2472 38.6357 15.7978 38.8511 15.0787 38.6716C14.5213 38.528 14.036 37.6486 14.1978 37.0383C14.3596 36.4101 17.0022 34.2562 17.6135 34.2562C17.7393 34.2562 18.0809 34.4716 18.3865 34.7229ZM22.6831 36.5178C23.4921 37.4152 23.1865 37.8819 20.2202 40.3409C19.1056 41.2562 18.782 41.4357 18.2067 41.4357C17.6854 41.4357 17.4517 41.328 17.164 40.9691C16.5528 40.1973 16.6787 39.7845 17.8652 38.6896C19.0517 37.5768 20.8674 36.1588 21.2809 35.9973C21.7124 35.8537 22.2337 36.0511 22.6831 36.5178ZM25.1281 39.1204C25.4876 39.4075 25.5955 39.6409 25.5955 40.1793C25.5955 40.8255 25.5056 40.9332 23.8876 42.2614C22.9348 43.0511 21.982 43.7332 21.7483 43.787C20.7236 44.0742 19.8247 43.1409 20.0944 42.0819C20.2382 41.5075 23.6719 38.7434 24.2472 38.7434C24.4629 38.7434 24.8584 38.905 25.1281 39.1204ZM28.0225 41.8845C28.7236 42.5665 28.6157 43.2306 27.6809 44.0921C25.8472 45.7793 25.0022 46.0486 24.1573 45.205C23.4022 44.4511 23.8157 43.6075 25.5775 42.2255C26.7461 41.3101 27.3753 41.2204 28.0225 41.8845Z"/>
</mask>
<path d="M6 22.4101V32.6229L7.31236 33.3588C8.01348 33.7537 9.34382 34.4537 10.2607 34.9204C11.8607 35.728 11.9326 35.746 12.2742 35.4409C12.6157 35.1357 12.6517 35.1357 13.0831 35.4588C13.4067 35.6742 13.5146 35.8896 13.4607 36.1409C13.173 37.128 13.173 37.8101 13.4247 38.3127C13.8202 39.0845 14.3596 39.4973 15.1146 39.6229C15.7258 39.7306 15.7978 39.8024 15.9056 40.3588C16.1213 41.687 16.5708 42.1178 17.991 42.405C18.8899 42.5845 19.0337 42.6562 19.1775 43.1409C19.627 44.5588 21.0652 45.1511 22.5933 44.5768C22.827 44.487 22.8989 44.5409 22.8989 44.8101C22.8989 45.2768 23.5281 46.0486 24.1573 46.3716C25.236 46.928 26.1708 46.6409 27.7888 45.2768L28.2921 44.8639L29.8202 45.8332C30.6652 46.3537 31.6 46.8562 31.8876 46.9101C32.9843 47.1434 34.2787 46.3537 34.5663 45.2768C34.6921 44.7742 34.7461 44.7562 35.609 44.8101C36.2022 44.8639 36.7236 44.7742 37.0831 44.5768C37.7303 44.2537 38.3596 43.3383 38.3596 42.728C38.3596 42.387 38.4494 42.3332 39.0427 42.3332C39.7798 42.3332 40.7506 41.8306 41.0382 41.2921C41.1461 41.0947 41.2719 40.628 41.3438 40.2332C41.4337 39.587 41.5236 39.4793 42.1348 39.2998C42.9978 39.0486 43.6629 38.2768 43.8067 37.3614C43.9146 36.7691 44.1663 36.446 45.3708 35.3511C46.7371 34.1127 46.8449 34.0588 47.0787 34.3639C47.2225 34.5614 47.3483 34.7588 47.3483 34.8306C47.3483 34.9204 47.5101 35.1357 47.7079 35.3332C48.0494 35.6742 48.1213 35.6742 48.7146 35.4229C49.0742 35.2793 50.4045 34.5793 51.6809 33.8973L54 32.6229V22.3921C54 16.7742 53.9461 12.1793 53.8742 12.1793C53.7303 12.1793 51.7528 13.6511 47.7978 16.7383C41.7573 21.4409 40.1393 22.787 40.1933 23.0742C40.2652 23.4332 38.5573 24.187 37.6404 24.205C37.2989 24.205 36.2022 23.9178 35.2135 23.5588C32.6247 22.6434 31.8517 22.5178 30.6472 22.8768C30 23.0562 29.3528 23.128 28.8315 23.0562C28.382 23.0024 26.8 23.0742 25.3258 23.2178C23.8337 23.3614 21.964 23.487 21.1371 23.487C19.7708 23.487 19.6449 23.4511 19.7348 23.1639C19.8067 22.9486 19.6449 22.6614 19.2674 22.2845C18.2787 21.387 6.3236 12.1793 6.10787 12.1793C6.05393 12.1793 6 16.7742 6 22.4101ZM13.0472 18.6229C15.8697 20.8127 18.2966 22.7152 18.4045 22.8588C18.5843 23.0742 17.973 24.205 15.1685 28.8178C13.2629 31.9588 11.6809 34.5434 11.6809 34.5614C11.6629 34.5793 10.5124 33.987 9.12809 33.2332L6.59326 31.8691L6.44944 24.5639C6.37753 20.5434 6.37753 16.4332 6.44944 15.446L6.59326 13.6152L7.24045 14.1178C7.6 14.405 10.2067 16.4152 13.0472 18.6229ZM53.5146 25.0486L53.4067 31.905L50.8719 33.2332C48.6247 34.4357 48.3191 34.5614 48.1573 34.2921C48.0315 34.1127 46.4674 31.528 44.6517 28.5486C41.4337 23.2178 41.3798 23.0921 41.7034 22.7691C41.9011 22.5716 44.5978 20.4357 47.7079 18.0306L53.3708 13.6332L53.4966 15.9127C53.5685 17.1691 53.5685 21.2793 53.5146 25.0486ZM35.0876 24.5101L37.6584 25.3716L38.9528 24.905C39.6719 24.6357 40.373 24.3665 40.5348 24.3127C40.7685 24.205 41.3258 24.9947 43.2494 28.0998C44.5798 30.2537 45.8202 32.2819 46.018 32.605L46.3596 33.1973L45.191 34.2742C44.5438 34.8486 43.8966 35.405 43.7528 35.4947C43.5371 35.6204 42.9978 35.2614 41.5056 34.0229C36.3281 29.6973 32.8584 26.8973 32.6427 26.8973C32.5169 26.8973 32.0854 27.0588 31.6899 27.2742C30.7551 27.7409 28.5258 27.9921 26.9618 27.7947C24.6966 27.5255 24.8225 26.987 27.4831 25.6409C28.5798 25.0845 29.8202 24.4204 30.2697 24.1511C31.4022 23.487 32.1034 23.5229 35.0876 24.5101ZM28.2921 24.1152C28.2921 24.1691 27.591 24.5639 26.7281 24.9947C25.8472 25.4255 25.0022 25.946 24.8225 26.1434C24.3191 26.6998 24.373 27.5973 24.9303 28.0819C25.973 28.9793 29.4966 29.105 31.564 28.3332L32.6067 27.9562L37.1371 31.6716C42.9258 36.4101 42.8539 36.3383 42.8539 37.0742C42.8539 37.846 42.3146 38.3845 41.5236 38.3845C41.0382 38.3845 40.2112 37.8819 37.0831 35.6562C34.9618 34.1665 33.0742 32.928 32.8764 32.928C32.6427 32.9101 32.5169 33.0178 32.5169 33.2691C32.5169 33.5024 33.2539 34.1486 34.9438 35.3691C40.7685 39.587 40.3371 39.228 40.3371 39.9998C40.3371 40.5383 40.2292 40.7716 39.8697 41.0588C39.6 41.2742 39.2045 41.4357 38.9888 41.4357C38.773 41.4357 37.0112 40.305 35.0157 38.905C33.0562 37.505 31.2944 36.3204 31.1326 36.2665C30.7371 36.1588 30.5213 36.6793 30.809 37.0383C30.9348 37.1819 32.391 38.2768 34.0809 39.4793C36.0764 40.8973 37.191 41.8127 37.2989 42.1178C37.6404 42.9973 36.8854 43.9486 35.8607 43.9486C35.6809 43.9486 34.764 43.4101 33.8472 42.7639C29.2989 39.5332 28.8315 39.2819 28.8315 39.9639C28.8315 40.3768 29.1551 40.6639 31.5461 42.387C32.6067 43.1409 33.5056 43.8947 33.5775 44.0562C33.7933 44.5947 33.6854 45.205 33.3258 45.5639C32.7506 46.1383 31.9416 46.0127 30.5393 45.1511L29.2809 44.3793L29.3348 43.1947C29.4067 42.046 29.3708 41.9742 28.7955 41.328C28.364 40.8793 27.9685 40.646 27.4831 40.5562C26.836 40.4486 26.764 40.3768 26.5124 39.5691C26.1888 38.5998 25.6135 38.0614 24.6966 37.8639C24.1753 37.7562 24.0854 37.6486 23.8876 36.9127C23.636 35.9075 23.3483 35.5306 22.5933 35.2075C21.8382 34.9024 21.3169 34.9204 20.6697 35.2434C20.0045 35.6024 19.8427 35.5845 19.8427 35.1716C19.8427 34.3998 18.5483 33.3588 17.5955 33.3588C17.0022 33.3588 16.5888 33.5742 15.4202 34.4537C14.9169 34.8486 14.4315 35.1537 14.3416 35.1537C14.2517 35.1357 13.9461 34.9562 13.6584 34.7229C13.2809 34.4178 13.173 34.2024 13.2629 33.9511C13.3348 33.7716 14.6112 31.5998 16.1034 29.105L18.836 24.5998L21.3708 24.4742C22.7551 24.4024 24.391 24.2768 24.9663 24.205C26.2427 24.0434 28.2921 23.9896 28.2921 24.1152ZM18.3865 34.7229C18.8 35.0639 18.9438 35.3332 18.9438 35.7998C18.9438 36.3204 18.782 36.5357 17.6494 37.487C16.2472 38.6357 15.7978 38.8511 15.0787 38.6716C14.5213 38.528 14.036 37.6486 14.1978 37.0383C14.3596 36.4101 17.0022 34.2562 17.6135 34.2562C17.7393 34.2562 18.0809 34.4716 18.3865 34.7229ZM22.6831 36.5178C23.4921 37.4152 23.1865 37.8819 20.2202 40.3409C19.1056 41.2562 18.782 41.4357 18.2067 41.4357C17.6854 41.4357 17.4517 41.328 17.164 40.9691C16.5528 40.1973 16.6787 39.7845 17.8652 38.6896C19.0517 37.5768 20.8674 36.1588 21.2809 35.9973C21.7124 35.8537 22.2337 36.0511 22.6831 36.5178ZM25.1281 39.1204C25.4876 39.4075 25.5955 39.6409 25.5955 40.1793C25.5955 40.8255 25.5056 40.9332 23.8876 42.2614C22.9348 43.0511 21.982 43.7332 21.7483 43.787C20.7236 44.0742 19.8247 43.1409 20.0944 42.0819C20.2382 41.5075 23.6719 38.7434 24.2472 38.7434C24.4629 38.7434 24.8584 38.905 25.1281 39.1204ZM28.0225 41.8845C28.7236 42.5665 28.6157 43.2306 27.6809 44.0921C25.8472 45.7793 25.0022 46.0486 24.1573 45.205C23.4022 44.4511 23.8157 43.6075 25.5775 42.2255C26.7461 41.3101 27.3753 41.2204 28.0225 41.8845Z" fill="black"/>
<path d="M6 22.4101V32.6229L7.31236 33.3588C8.01348 33.7537 9.34382 34.4537 10.2607 34.9204C11.8607 35.728 11.9326 35.746 12.2742 35.4409C12.6157 35.1357 12.6517 35.1357 13.0831 35.4588C13.4067 35.6742 13.5146 35.8896 13.4607 36.1409C13.173 37.128 13.173 37.8101 13.4247 38.3127C13.8202 39.0845 14.3596 39.4973 15.1146 39.6229C15.7258 39.7306 15.7978 39.8024 15.9056 40.3588C16.1213 41.687 16.5708 42.1178 17.991 42.405C18.8899 42.5845 19.0337 42.6562 19.1775 43.1409C19.627 44.5588 21.0652 45.1511 22.5933 44.5768C22.827 44.487 22.8989 44.5409 22.8989 44.8101C22.8989 45.2768 23.5281 46.0486 24.1573 46.3716C25.236 46.928 26.1708 46.6409 27.7888 45.2768L28.2921 44.8639L29.8202 45.8332C30.6652 46.3537 31.6 46.8562 31.8876 46.9101C32.9843 47.1434 34.2787 46.3537 34.5663 45.2768C34.6921 44.7742 34.7461 44.7562 35.609 44.8101C36.2022 44.8639 36.7236 44.7742 37.0831 44.5768C37.7303 44.2537 38.3596 43.3383 38.3596 42.728C38.3596 42.387 38.4494 42.3332 39.0427 42.3332C39.7798 42.3332 40.7506 41.8306 41.0382 41.2921C41.1461 41.0947 41.2719 40.628 41.3438 40.2332C41.4337 39.587 41.5236 39.4793 42.1348 39.2998C42.9978 39.0486 43.6629 38.2768 43.8067 37.3614C43.9146 36.7691 44.1663 36.446 45.3708 35.3511C46.7371 34.1127 46.8449 34.0588 47.0787 34.3639C47.2225 34.5614 47.3483 34.7588 47.3483 34.8306C47.3483 34.9204 47.5101 35.1357 47.7079 35.3332C48.0494 35.6742 48.1213 35.6742 48.7146 35.4229C49.0742 35.2793 50.4045 34.5793 51.6809 33.8973L54 32.6229V22.3921C54 16.7742 53.9461 12.1793 53.8742 12.1793C53.7303 12.1793 51.7528 13.6511 47.7978 16.7383C41.7573 21.4409 40.1393 22.787 40.1933 23.0742C40.2652 23.4332 38.5573 24.187 37.6404 24.205C37.2989 24.205 36.2022 23.9178 35.2135 23.5588C32.6247 22.6434 31.8517 22.5178 30.6472 22.8768C30 23.0562 29.3528 23.128 28.8315 23.0562C28.382 23.0024 26.8 23.0742 25.3258 23.2178C23.8337 23.3614 21.964 23.487 21.1371 23.487C19.7708 23.487 19.6449 23.4511 19.7348 23.1639C19.8067 22.9486 19.6449 22.6614 19.2674 22.2845C18.2787 21.387 6.3236 12.1793 6.10787 12.1793C6.05393 12.1793 6 16.7742 6 22.4101ZM13.0472 18.6229C15.8697 20.8127 18.2966 22.7152 18.4045 22.8588C18.5843 23.0742 17.973 24.205 15.1685 28.8178C13.2629 31.9588 11.6809 34.5434 11.6809 34.5614C11.6629 34.5793 10.5124 33.987 9.12809 33.2332L6.59326 31.8691L6.44944 24.5639C6.37753 20.5434 6.37753 16.4332 6.44944 15.446L6.59326 13.6152L7.24045 14.1178C7.6 14.405 10.2067 16.4152 13.0472 18.6229ZM53.5146 25.0486L53.4067 31.905L50.8719 33.2332C48.6247 34.4357 48.3191 34.5614 48.1573 34.2921C48.0315 34.1127 46.4674 31.528 44.6517 28.5486C41.4337 23.2178 41.3798 23.0921 41.7034 22.7691C41.9011 22.5716 44.5978 20.4357 47.7079 18.0306L53.3708 13.6332L53.4966 15.9127C53.5685 17.1691 53.5685 21.2793 53.5146 25.0486ZM35.0876 24.5101L37.6584 25.3716L38.9528 24.905C39.6719 24.6357 40.373 24.3665 40.5348 24.3127C40.7685 24.205 41.3258 24.9947 43.2494 28.0998C44.5798 30.2537 45.8202 32.2819 46.018 32.605L46.3596 33.1973L45.191 34.2742C44.5438 34.8486 43.8966 35.405 43.7528 35.4947C43.5371 35.6204 42.9978 35.2614 41.5056 34.0229C36.3281 29.6973 32.8584 26.8973 32.6427 26.8973C32.5169 26.8973 32.0854 27.0588 31.6899 27.2742C30.7551 27.7409 28.5258 27.9921 26.9618 27.7947C24.6966 27.5255 24.8225 26.987 27.4831 25.6409C28.5798 25.0845 29.8202 24.4204 30.2697 24.1511C31.4022 23.487 32.1034 23.5229 35.0876 24.5101ZM28.2921 24.1152C28.2921 24.1691 27.591 24.5639 26.7281 24.9947C25.8472 25.4255 25.0022 25.946 24.8225 26.1434C24.3191 26.6998 24.373 27.5973 24.9303 28.0819C25.973 28.9793 29.4966 29.105 31.564 28.3332L32.6067 27.9562L37.1371 31.6716C42.9258 36.4101 42.8539 36.3383 42.8539 37.0742C42.8539 37.846 42.3146 38.3845 41.5236 38.3845C41.0382 38.3845 40.2112 37.8819 37.0831 35.6562C34.9618 34.1665 33.0742 32.928 32.8764 32.928C32.6427 32.9101 32.5169 33.0178 32.5169 33.2691C32.5169 33.5024 33.2539 34.1486 34.9438 35.3691C40.7685 39.587 40.3371 39.228 40.3371 39.9998C40.3371 40.5383 40.2292 40.7716 39.8697 41.0588C39.6 41.2742 39.2045 41.4357 38.9888 41.4357C38.773 41.4357 37.0112 40.305 35.0157 38.905C33.0562 37.505 31.2944 36.3204 31.1326 36.2665C30.7371 36.1588 30.5213 36.6793 30.809 37.0383C30.9348 37.1819 32.391 38.2768 34.0809 39.4793C36.0764 40.8973 37.191 41.8127 37.2989 42.1178C37.6404 42.9973 36.8854 43.9486 35.8607 43.9486C35.6809 43.9486 34.764 43.4101 33.8472 42.7639C29.2989 39.5332 28.8315 39.2819 28.8315 39.9639C28.8315 40.3768 29.1551 40.6639 31.5461 42.387C32.6067 43.1409 33.5056 43.8947 33.5775 44.0562C33.7933 44.5947 33.6854 45.205 33.3258 45.5639C32.7506 46.1383 31.9416 46.0127 30.5393 45.1511L29.2809 44.3793L29.3348 43.1947C29.4067 42.046 29.3708 41.9742 28.7955 41.328C28.364 40.8793 27.9685 40.646 27.4831 40.5562C26.836 40.4486 26.764 40.3768 26.5124 39.5691C26.1888 38.5998 25.6135 38.0614 24.6966 37.8639C24.1753 37.7562 24.0854 37.6486 23.8876 36.9127C23.636 35.9075 23.3483 35.5306 22.5933 35.2075C21.8382 34.9024 21.3169 34.9204 20.6697 35.2434C20.0045 35.6024 19.8427 35.5845 19.8427 35.1716C19.8427 34.3998 18.5483 33.3588 17.5955 33.3588C17.0022 33.3588 16.5888 33.5742 15.4202 34.4537C14.9169 34.8486 14.4315 35.1537 14.3416 35.1537C14.2517 35.1357 13.9461 34.9562 13.6584 34.7229C13.2809 34.4178 13.173 34.2024 13.2629 33.9511C13.3348 33.7716 14.6112 31.5998 16.1034 29.105L18.836 24.5998L21.3708 24.4742C22.7551 24.4024 24.391 24.2768 24.9663 24.205C26.2427 24.0434 28.2921 23.9896 28.2921 24.1152ZM18.3865 34.7229C18.8 35.0639 18.9438 35.3332 18.9438 35.7998C18.9438 36.3204 18.782 36.5357 17.6494 37.487C16.2472 38.6357 15.7978 38.8511 15.0787 38.6716C14.5213 38.528 14.036 37.6486 14.1978 37.0383C14.3596 36.4101 17.0022 34.2562 17.6135 34.2562C17.7393 34.2562 18.0809 34.4716 18.3865 34.7229ZM22.6831 36.5178C23.4921 37.4152 23.1865 37.8819 20.2202 40.3409C19.1056 41.2562 18.782 41.4357 18.2067 41.4357C17.6854 41.4357 17.4517 41.328 17.164 40.9691C16.5528 40.1973 16.6787 39.7845 17.8652 38.6896C19.0517 37.5768 20.8674 36.1588 21.2809 35.9973C21.7124 35.8537 22.2337 36.0511 22.6831 36.5178ZM25.1281 39.1204C25.4876 39.4075 25.5955 39.6409 25.5955 40.1793C25.5955 40.8255 25.5056 40.9332 23.8876 42.2614C22.9348 43.0511 21.982 43.7332 21.7483 43.787C20.7236 44.0742 19.8247 43.1409 20.0944 42.0819C20.2382 41.5075 23.6719 38.7434 24.2472 38.7434C24.4629 38.7434 24.8584 38.905 25.1281 39.1204ZM28.0225 41.8845C28.7236 42.5665 28.6157 43.2306 27.6809 44.0921C25.8472 45.7793 25.0022 46.0486 24.1573 45.205C23.4022 44.4511 23.8157 43.6075 25.5775 42.2255C26.7461 41.3101 27.3753 41.2204 28.0225 41.8845Z" stroke="black" mask="url(#path-2-outside-1_7_31)"/>
</svg>
