<svg width="48" height="40" viewBox="0 0 48 40" fill="none" xmlns="http://www.w3.org/2000/svg">
<path d="M43.537 13.2416C42.0343 13.2416 40.8141 14.4613 40.8141 15.959C40.8141 17.4578 42.0343 18.6759 43.537 18.6759C45.0347 18.6759 46.2539 17.4573 46.2539 15.959C46.2539 14.4613 45.0342 13.2416 43.537 13.2416ZM4.46853 13.2416C2.96581 13.2416 1.74555 14.4613 1.74555 15.959C1.74555 17.4578 2.96581 18.6759 4.46853 18.6759C5.96734 18.6759 7.18705 17.4573 7.18705 15.959C7.18705 14.4613 5.96734 13.2416 4.46853 13.2416ZM35.449 8.29904C33.2178 8.29904 31.4081 10.1133 31.4081 12.3462C31.4081 14.5746 33.2178 16.3855 35.449 16.3855C37.6808 16.3855 39.4961 14.5746 39.4961 12.3462C39.4961 10.1155 37.6808 8.29904 35.449 8.29904ZM48 32.8933H43.3925V24.4127C43.3925 22.9558 42.9643 21.6032 42.2766 20.4237C42.6819 20.3053 43.0977 20.221 43.537 20.221C45.9938 20.221 48 22.2273 48 24.6902V32.8933ZM12.5504 8.29904C10.3175 8.29904 8.50333 10.1133 8.50333 12.3462C8.50333 14.5746 10.3175 16.3855 12.5504 16.3855C14.776 16.3855 16.5902 14.5746 16.5902 12.3462C16.5902 10.1155 14.7766 8.29904 12.5504 8.29904ZM4.46853 20.221C4.90785 20.221 5.31814 20.3048 5.72452 20.4237C5.02954 21.6032 4.60864 22.9558 4.60864 24.4127V32.8933H0V24.6902C0 22.2267 2.00735 20.221 4.46853 20.221ZM23.9955 0.21875C20.7021 0.21875 18.017 2.90102 18.017 6.19789C18.017 9.4942 20.6993 12.1798 23.9955 12.1798C27.2924 12.1798 29.9779 9.4942 29.9779 6.19789C29.9807 2.90046 27.2924 0.21875 23.9955 0.21875ZM41.9126 36.0495H34.854V23.1461C34.854 21.3715 34.3856 19.7209 33.6287 18.241C34.2064 18.0702 34.8138 17.9491 35.4496 17.9491C39.011 17.9491 41.9126 20.8451 41.9126 24.4127V36.0495ZM13.1388 23.1461V36.0495H6.08904V24.4127C6.08904 20.8485 8.98674 17.9491 12.5538 17.9491C13.1896 17.9491 13.7908 18.0702 14.3674 18.241C13.6099 19.7209 13.1388 21.3715 13.1388 23.1461ZM14.6186 39.7845H33.3736V23.1461C33.3736 17.9747 29.1652 13.7691 23.995 13.7691C18.8209 13.7691 14.6186 17.9747 14.6186 23.1461V39.7845Z" fill="#FAFF00"/>
</svg>
