<svg width="180" height="80" viewBox="0 0 180 80" fill="none" xmlns="http://www.w3.org/2000/svg">
<path fill-rule="evenodd" clip-rule="evenodd" d="M129.252 25.0305C127.996 25.6017 125.793 26.0139 124.355 25.9465C121.112 25.7947 116.845 27.6542 114.296 30.3302C111.834 32.9132 109.49 37.4847 110.097 38.5204C113.233 43.8769 121.753 56 122.381 56C122.833 56 123.903 55.3019 124.76 54.4494C127.311 51.9082 132.804 49.4003 136.704 48.9966C138.932 48.7657 140.343 48.8723 140.343 49.2701C140.343 50.2561 143.426 53.3842 144.389 53.3757C144.855 53.3718 144.283 52.6148 143.117 51.6936C140.333 49.4932 141.039 48.1323 145.733 46.6478C149.755 45.3765 151.929 45.2555 154.327 46.1695C155.533 46.6295 156 46.5935 156 46.0413C156 45.2692 153.248 40.9661 151.433 38.9005C150.895 38.2881 148.4 34.9762 145.888 31.5412C142.248 26.5642 140.858 25.1594 139.038 24.6223C135.787 23.6624 131.904 23.824 129.252 25.0305ZM138.059 25.2301C139.571 25.5795 141.081 26.4575 141.648 27.3166C142.532 28.6572 149.845 38.2371 151.379 40.0638C152.36 41.2324 151.506 41.5634 149.404 40.8287C147.108 40.0259 143.394 40.6108 142.286 41.9501C141.847 42.4807 141.124 42.9145 140.68 42.9145C139.739 42.9145 128.6 28.1076 128.6 26.8566C128.6 25.0338 133.542 24.1846 138.059 25.2301ZM125.73 27.2407C127.648 27.9329 134.066 35.7063 137.869 41.9442C138.125 42.3636 136.911 42.6135 134.579 42.6214C130.382 42.6358 128.277 43.6931 124.59 47.6371L122.211 50.1822L120.492 47.6933C119.546 46.3246 117.29 42.9538 115.479 40.2032C112.286 35.3537 112.215 35.1443 113.155 33.3333C114.611 30.5251 117.045 28.5257 120.212 27.5344C123.786 26.4163 123.491 26.432 125.73 27.2407Z" fill="#C4C4C4"/>
<path d="M28.402 40.348C28.342 40.108 28.312 39.874 28.312 39.646C28.312 39.406 28.342 39.172 28.402 38.944L33.64 38.962C33.544 37.342 33.106 36.13 32.326 35.326C31.558 34.522 30.508 34.12 29.176 34.12C28.78 34.12 28.462 34.156 28.222 34.228C27.994 34.288 27.832 34.366 27.736 34.462L26.8 36.658H26.332C26.308 36.502 26.284 36.316 26.26 36.1C26.236 35.884 26.212 35.656 26.188 35.416C26.176 35.176 26.164 34.93 26.152 34.678C26.152 34.414 26.152 34.162 26.152 33.922C26.332 33.778 26.548 33.664 26.8 33.58C27.064 33.484 27.334 33.406 27.61 33.346C27.886 33.286 28.168 33.244 28.456 33.22C28.756 33.196 29.032 33.184 29.284 33.184C30.256 33.184 31.12 33.31 31.876 33.562C32.644 33.802 33.292 34.186 33.82 34.714C34.348 35.23 34.75 35.902 35.026 36.73C35.302 37.546 35.44 38.53 35.44 39.682C35.44 40.834 35.272 41.824 34.936 42.652C34.6 43.468 34.15 44.14 33.586 44.668C33.034 45.196 32.398 45.586 31.678 45.838C30.97 46.09 30.232 46.216 29.464 46.216C28.672 46.216 28.006 46.162 27.466 46.054C26.938 45.958 26.464 45.808 26.044 45.604C26.056 45.412 26.068 45.184 26.08 44.92C26.104 44.644 26.128 44.368 26.152 44.092C26.176 43.804 26.2 43.522 26.224 43.246C26.26 42.97 26.29 42.718 26.314 42.49H26.782L27.718 45.118C27.85 45.19 28.072 45.238 28.384 45.262C28.696 45.274 29.002 45.28 29.302 45.28C29.842 45.28 30.37 45.166 30.886 44.938C31.402 44.71 31.864 44.368 32.272 43.912C32.68 43.456 33.01 42.886 33.262 42.202C33.514 41.518 33.64 40.72 33.64 39.808L28.402 40.348ZM42.2406 37H45.7146V37.468C45.5946 37.564 45.4326 37.648 45.2286 37.72C45.0366 37.792 44.7966 37.876 44.5086 37.972C44.1006 38.464 43.6686 38.962 43.2126 39.466C42.7566 39.97 42.2766 40.474 41.7726 40.978C42.0366 41.266 42.3126 41.584 42.6006 41.932C42.9006 42.28 43.2006 42.64 43.5006 43.012C43.8006 43.384 44.1006 43.75 44.4006 44.11C44.7006 44.47 44.9946 44.806 45.2826 45.118L46.1286 45.55V46H44.0226L43.4466 45.586C42.9066 44.938 42.4146 44.29 41.9706 43.642C41.5266 42.994 41.0766 42.358 40.6206 41.734H39.9006V45.118C40.1406 45.178 40.3566 45.244 40.5486 45.316C40.7526 45.376 40.9266 45.454 41.0706 45.55V46H37.0926V45.55C37.4166 45.358 37.8126 45.214 38.2806 45.118V37.9C37.8606 37.816 37.4646 37.672 37.0926 37.468V37H40.7826V37.468C40.6626 37.552 40.5306 37.63 40.3866 37.702C40.2546 37.774 40.0926 37.84 39.9006 37.9V41.266L40.7286 41.086C41.2086 40.534 41.6646 40.018 42.0966 39.538C42.5286 39.058 42.9306 38.536 43.3026 37.972C43.0986 37.888 42.9066 37.81 42.7266 37.738C42.5586 37.654 42.3966 37.564 42.2406 37.468V37ZM53.604 44.74C53.388 45.16 53.034 45.514 52.542 45.802C52.062 46.078 51.498 46.216 50.85 46.216C50.142 46.216 49.524 46.108 48.996 45.892C48.48 45.664 48.048 45.346 47.7 44.938C47.352 44.518 47.088 44.02 46.908 43.444C46.74 42.856 46.656 42.208 46.656 41.5C46.656 39.976 47.028 38.812 47.772 38.008C48.516 37.192 49.53 36.784 50.814 36.784C51.402 36.784 51.924 36.838 52.38 36.946C52.848 37.042 53.244 37.174 53.568 37.342C53.532 37.738 53.466 38.182 53.37 38.674C53.274 39.166 53.154 39.574 53.01 39.898H52.524L51.768 37.756C51.684 37.696 51.588 37.654 51.48 37.63C51.372 37.594 51.192 37.576 50.94 37.576C50.124 37.576 49.494 37.876 49.05 38.476C48.606 39.064 48.384 40.066 48.384 41.482C48.384 41.938 48.444 42.382 48.564 42.814C48.696 43.246 48.888 43.636 49.14 43.984C49.404 44.32 49.728 44.59 50.112 44.794C50.508 44.998 50.964 45.1 51.48 45.1C51.9 45.1 52.266 45.04 52.578 44.92C52.89 44.8 53.154 44.656 53.37 44.488L53.604 44.74ZM58.8747 46H55.0047V45.55C55.2327 45.418 55.4427 45.322 55.6347 45.262C55.8267 45.19 56.0127 45.142 56.1927 45.118V37.9C55.9407 37.84 55.7127 37.774 55.5087 37.702C55.3047 37.63 55.1367 37.552 55.0047 37.468V37H64.5987V37.468C64.4427 37.564 64.2687 37.654 64.0767 37.738C63.8847 37.822 63.6627 37.876 63.4107 37.9V45.118C63.8187 45.19 64.2147 45.334 64.5987 45.55V46H60.7287V45.55C60.8487 45.466 60.9867 45.388 61.1427 45.316C61.3107 45.244 61.5267 45.178 61.7907 45.118V37.792H57.8127V45.118C58.0527 45.19 58.2567 45.262 58.4247 45.334C58.5927 45.406 58.7427 45.478 58.8747 45.55V46ZM73.3346 44.74C73.2386 44.944 73.0886 45.136 72.8846 45.316C72.6806 45.496 72.4466 45.652 72.1826 45.784C71.9186 45.916 71.6306 46.018 71.3186 46.09C71.0066 46.174 70.6886 46.216 70.3646 46.216C69.6566 46.216 69.0326 46.108 68.4926 45.892C67.9526 45.664 67.5026 45.346 67.1426 44.938C66.7826 44.518 66.5066 44.02 66.3146 43.444C66.1346 42.868 66.0446 42.22 66.0446 41.5C66.0446 39.964 66.3986 38.794 67.1066 37.99C67.8146 37.186 68.8166 36.784 70.1126 36.784C70.5326 36.784 70.9466 36.844 71.3546 36.964C71.7626 37.072 72.1226 37.258 72.4346 37.522C72.7586 37.786 73.0166 38.14 73.2086 38.584C73.4126 39.016 73.5146 39.556 73.5146 40.204C73.5146 40.408 73.5026 40.618 73.4786 40.834C73.4666 41.038 73.4366 41.26 73.3886 41.5H67.7726C67.7726 42.004 67.8326 42.478 67.9526 42.922C68.0846 43.354 68.2766 43.732 68.5286 44.056C68.7806 44.38 69.0986 44.638 69.4826 44.83C69.8666 45.01 70.3166 45.1 70.8326 45.1C71.2526 45.1 71.6786 45.04 72.1106 44.92C72.5426 44.8 72.8666 44.644 73.0826 44.452L73.3346 44.74ZM70.0406 37.576C69.3566 37.576 68.8346 37.81 68.4746 38.278C68.1146 38.734 67.8986 39.544 67.8266 40.708H71.7866C71.7986 40.6 71.8046 40.498 71.8046 40.402C71.8166 40.294 71.8226 40.192 71.8226 40.096C71.8226 39.328 71.6786 38.716 71.3906 38.26C71.1026 37.804 70.6526 37.576 70.0406 37.576ZM78.9134 49.6H74.9174V49.15C75.3254 48.958 75.7214 48.814 76.1054 48.718V38.044L74.9174 37.9V37.432C75.3014 37.264 75.6914 37.132 76.0874 37.036C76.4954 36.928 76.8914 36.844 77.2754 36.784H77.7254V38.8H77.7434C77.9834 38.188 78.3194 37.702 78.7514 37.342C79.1834 36.97 79.7474 36.784 80.4434 36.784C81.5114 36.784 82.3394 37.138 82.9274 37.846C83.5154 38.554 83.8094 39.706 83.8094 41.302C83.8094 42.058 83.7074 42.742 83.5034 43.354C83.3114 43.966 83.0294 44.482 82.6574 44.902C82.2974 45.322 81.8534 45.646 81.3254 45.874C80.8094 46.102 80.2334 46.216 79.5974 46.216C79.1534 46.216 78.8054 46.186 78.5534 46.126C78.3014 46.078 78.0254 45.988 77.7254 45.856V48.718C77.9174 48.742 78.1094 48.784 78.3014 48.844C78.4934 48.916 78.6974 49.018 78.9134 49.15V49.6ZM79.8674 37.9C79.2794 37.9 78.8114 38.086 78.4634 38.458C78.1154 38.83 77.8694 39.34 77.7254 39.988V45.028C77.9414 45.16 78.1814 45.262 78.4454 45.334C78.7214 45.394 79.0754 45.424 79.5074 45.424C79.9034 45.424 80.2574 45.322 80.5694 45.118C80.8934 44.914 81.1634 44.626 81.3794 44.254C81.6074 43.882 81.7814 43.45 81.9014 42.958C82.0214 42.454 82.0814 41.902 82.0814 41.302C82.0814 40.81 82.0394 40.36 81.9554 39.952C81.8834 39.532 81.7574 39.172 81.5774 38.872C81.4094 38.56 81.1814 38.32 80.8934 38.152C80.6174 37.984 80.2754 37.9 79.8674 37.9ZM90.7179 46H86.7219V45.55C87.0939 45.358 87.4899 45.214 87.9099 45.118V37.792H86.2359L85.4439 39.952H84.9759C84.9159 39.436 84.8679 38.932 84.8319 38.44C84.7959 37.936 84.7719 37.456 84.7599 37H92.6799C92.6679 37.432 92.6439 37.906 92.6079 38.422C92.5839 38.926 92.5359 39.436 92.4639 39.952H91.9959L91.2039 37.792H89.5299V45.118C90.0939 45.262 90.4899 45.406 90.7179 45.55V46Z" fill="#C4C4C4"/>
</svg>
