<svg width="280" height="80" viewBox="0 0 280 80" fill="none" xmlns="http://www.w3.org/2000/svg">
<path fill-rule="evenodd" clip-rule="evenodd" d="M29 40V72H140.5H252V40V8H140.5H29V40ZM94.2288 21.6333C98.6134 23.5644 105.082 30.016 105.082 32.4571C105.082 32.655 97.1245 32.8163 87.3991 32.8163H69.7152L68.7065 36.2005C67.4413 40.4428 67.4413 42.1695 68.7065 46.4118L69.7152 49.7959H87.3991C97.1245 49.7959 105.082 49.9572 105.082 50.1551C105.082 51.3528 102.795 54.4953 100.165 56.9084C95.7065 61.0005 92.0034 62.4575 86.0618 62.4588C81.7611 62.4594 78.9376 61.7848 63.6083 57.0952C53.9648 54.1447 45.258 51.3691 44.2598 50.9264C42.723 50.2452 44.2257 50.095 54.096 49.9442L65.7465 49.7659L65.246 47.985C64.5974 45.6764 64.6 36.9273 65.25 34.6122L65.7543 32.8163L53.772 32.7967C46.6052 32.7843 42.1852 32.5473 42.7735 32.2051C43.5507 31.7538 76.2675 21.6731 81.7985 20.1809C84.2312 19.5246 91.3219 20.3527 94.2288 21.6333ZM79.3764 24.6518C76.7122 25.6268 72.9441 28.1861 72.9441 29.0207C72.9441 29.3127 78.6995 29.551 85.7338 29.551C92.7682 29.551 98.5235 29.2963 98.5235 28.9848C98.5235 28.1966 94.0622 25.359 91.3751 24.4376C88.4433 23.4331 82.4131 23.5402 79.3764 24.6518ZM66.7132 28.0575C64.5475 28.576 63.9808 29.551 65.8462 29.551C66.7755 29.551 67.9037 29.1102 68.3529 28.5714C69.1885 27.569 68.9996 27.5102 66.7132 28.0575ZM124.288 33.0586C127.835 34.5633 129.536 36.945 129.828 40.8111C130.377 48.1051 124.474 52.6707 117.052 50.6906C115.843 50.368 115.576 49.8384 115.576 47.7603C115.576 45.3466 116.341 44.4682 117.216 45.8776C117.439 46.2367 118.775 46.5306 120.183 46.5306C122.045 46.5306 122.931 46.1851 123.424 45.2676C124.449 43.3607 124.338 43.2653 121.108 43.2653C118.228 43.2653 118.121 43.1967 118.321 41.4694C118.5 39.9099 118.852 39.6467 120.988 39.471C123.623 39.2535 124.03 38.6828 122.469 37.393C121.502 36.593 118.986 36.7308 116.68 37.7091C115.628 38.1551 115.512 37.9174 115.696 35.7048C115.865 33.6679 116.214 33.1096 117.544 32.7438C120.187 32.0176 122.038 32.1038 124.288 33.0586ZM196.241 33.9931C200.099 36.8052 201.197 42.2753 198.766 46.5816C197.105 49.5249 194.183 51.102 190.391 51.102C183.877 51.102 180.272 47.4586 180.669 41.2767C180.942 37.0194 182.446 34.6207 185.756 33.1644C188.631 31.8994 193.944 32.3193 196.241 33.9931ZM147.715 41.6327V50.449H144.763H141.812V43.9184C141.812 37.8233 141.725 37.3878 140.5 37.3878C139.298 37.3878 139.188 37.8233 139.188 42.6122C139.188 48.591 138.313 50.063 134.31 50.8108C130.943 51.4397 130.006 50.8676 130.006 48.1835C130.006 46.159 130.206 45.8776 131.646 45.8776H133.285V39.3469V32.8163H140.5H147.715V41.6327ZM161.488 35.102C161.488 37.3336 161.426 37.3878 158.865 37.3878C155.323 37.3878 155.182 39.1811 158.701 39.471C160.951 39.6565 161.16 39.84 161.16 41.6327C161.16 43.4253 160.951 43.6088 158.701 43.7943C155.182 44.0842 155.323 45.8776 158.865 45.8776C161.426 45.8776 161.488 45.9318 161.488 48.1633V50.449H155.913H150.338V41.6327V32.8163H155.913H161.488V35.102ZM169.485 35.5918L169.687 38.3673L171.578 35.5918C173.415 32.8953 173.57 32.8163 177.048 32.8163H180.629L177.263 37.0808C175.27 39.6062 174.088 41.6705 174.367 42.142C174.626 42.5802 176.131 44.6282 177.711 46.6939L180.586 50.449H176.949C173.404 50.449 173.267 50.3804 171.5 47.7107L169.687 44.9718L169.485 47.7107L169.283 50.449H166.37H163.456V41.6327V32.8163H166.37H169.283L169.485 35.5918ZM207.4 36.0816V39.3469H210.024H212.647V36.0816V32.8163H215.599H218.55V41.6327V50.449H215.599H212.647V47.1837V43.9184H210.024H207.4V47.1837V50.449H204.449H201.497V41.6327V32.8163H204.449H207.4V36.0816ZM236.774 39.5102C236.924 44.5793 237.158 45.8776 237.922 45.8776C238.667 45.8776 238.882 46.831 238.882 50.1224V54.3673H236.259C233.781 54.3673 233.635 54.2583 233.635 52.4082V50.449H229.044H224.453V52.4082C224.453 54.2583 224.307 54.3673 221.829 54.3673H219.206V50.1224C219.206 46.8297 219.422 45.8776 220.167 45.8776C221.8 45.8776 222.485 43.5677 222.485 38.0617V32.7719L229.536 32.9574L236.587 33.1429L236.774 39.5102ZM89.8292 36.2136C90.3939 36.6798 91.2668 38.0389 91.7679 39.234C93.5998 43.5971 89.2854 48.4617 84.3945 47.5481C78.6837 46.4816 77.6829 37.6516 83.0165 35.3927C84.7769 34.6475 88.4715 35.0922 89.8292 36.2136ZM188.022 38.338C185.201 41.1461 186.662 46.5306 190.245 46.5306C193.596 46.5306 195.117 40.1691 192.307 37.9037C190.413 36.3768 189.944 36.4238 188.022 38.338ZM228.388 40.3696C228.388 42.0095 228.083 43.9197 227.709 44.6145C227.121 45.7091 227.252 45.8776 228.693 45.8776C230.302 45.8776 230.356 45.7411 230.356 41.6327C230.356 38.2949 230.145 37.3878 229.372 37.3878C228.641 37.3878 228.388 38.1544 228.388 40.3696ZM64.7784 53.63C65.1208 53.9429 66.2646 54.402 67.3199 54.6508C69.0075 55.0485 69.1354 54.9799 68.387 54.082C67.9194 53.5203 66.7755 53.0612 65.8462 53.0612C64.8459 53.0612 64.4098 53.2937 64.7784 53.63ZM72.9441 53.6274C72.9441 54.4157 77.4054 57.2532 80.0926 58.1747C83.1365 59.2176 88.6177 59.1353 91.8578 57.9971C94.7089 56.9953 98.5235 54.4744 98.5235 53.5915C98.5235 53.2996 92.7682 53.0612 85.7338 53.0612C78.6995 53.0612 72.9441 53.3159 72.9441 53.6274Z" fill="#C4C4C4"/>
</svg>
