<svg width="380" height="80" viewBox="0 0 380 80" fill="none" xmlns="http://www.w3.org/2000/svg">
<path fill-rule="evenodd" clip-rule="evenodd" d="M17 39.5V67H190H363V39.5V12H190H17V39.5ZM91.8579 27.9388C94.0327 32.7522 94.55 32.625 72.7546 32.625H52.6619L50.1708 35.137C47.0083 38.3261 47.0023 41.1655 50.1521 44.5652C53.2201 47.8772 56.3341 48.0379 59.3083 45.0395C61.0613 43.2718 61.4124 42.2251 61.1124 39.6684C60.9071 37.9213 60.4443 35.815 60.0838 34.9883C59.4779 33.5978 60.2875 33.4852 70.8115 33.4912L82.1946 33.4981L83.2598 35.8107C85.2609 40.1548 84.9617 40.3482 76.016 40.5037C71.4464 40.5837 69.0926 40.7968 70.786 40.9781C73.0665 41.223 74.1173 41.865 74.834 43.4523C76.3901 46.8958 76.0561 47.2344 71.1072 47.2344C67.3941 47.2344 66.1013 47.6082 64.9287 49.0227C62.9456 51.4144 57.6448 54.1094 54.9236 54.1094C51.6673 54.1094 46.6895 51.2356 44.2829 47.9648C41.2993 43.9103 41.2473 36.041 44.1772 31.8954C48.3718 25.9614 49.2709 25.7569 71.1916 25.7534L90.8693 25.75L91.8579 27.9388ZM112.531 28.1133C111.997 30.1431 111.376 30.5367 108.13 30.9062C104.468 31.323 104.344 31.4348 104.088 34.5586C103.827 37.734 103.868 37.7812 106.884 37.7812C110.798 37.7812 111.304 39.1004 110.104 46.167C108.909 53.1976 107.811 54.0466 99.8781 54.0819C93.8111 54.1085 93.6995 54.0698 93.6995 51.9111C93.6995 49.7395 96.4564 35.216 98.0543 28.9727L98.8784 25.75H106.016H113.153L112.531 28.1133ZM132.049 30.5015C132.049 32.3998 127.527 52.9716 126.987 53.5276C126.61 53.916 125.006 54.1094 123.422 53.9573C120.999 53.7235 120.502 53.3067 120.275 51.3164C119.918 48.1909 118.69 48.306 117.988 51.5312C117.481 53.861 117.105 54.1094 114.085 54.1094C110.065 54.1094 110.079 54.2151 112.432 41.8934C114.591 30.5917 115.164 30.0469 124.9 30.0469C128.832 30.0469 132.049 30.2514 132.049 30.5015ZM140.526 32.4102C140.502 33.7095 139.994 37.7701 139.399 41.4336C138.558 46.6087 138.546 48.0938 139.346 48.0938C139.986 48.0938 140.757 45.4108 141.384 41.0039C143.005 29.6026 142.774 30.0469 147.055 30.0469C149.114 30.0469 150.798 30.3563 150.798 30.7352C150.798 31.1134 150.04 34.8843 149.112 39.1141C147.068 48.4392 146.976 49.7094 148.454 48.2321C149.041 47.6469 150.287 43.4127 151.225 38.822L152.929 30.4766L156.668 30.2067L160.408 29.9369L159.865 32.6714C159.566 34.1762 158.701 39.1313 157.941 43.6834C157.181 48.2364 156.176 52.4448 155.705 53.0352C154.527 54.5159 150.807 54.3835 149.07 52.7988C147.783 51.6241 147.521 51.6241 146.555 52.7988C145.043 54.6353 142.506 54.4308 141.42 52.3846C140.511 50.6702 140.484 50.6719 137.156 52.5995L133.807 54.5391L131.949 52.6682C130.159 50.8661 130.129 50.5516 131.139 44.0745C131.716 40.3766 132.586 35.7076 133.072 33.6992C133.923 30.1827 134.079 30.0469 137.264 30.0469C140.315 30.0469 140.568 30.2299 140.526 32.4102ZM179.768 31.5508C179.766 32.3775 179.331 34.6016 178.803 36.4922C178.273 38.3828 177.221 43.0234 176.463 46.8047L175.086 53.6797H171.686C168.595 53.6797 168.236 53.4451 167.749 51.1016L167.212 48.5234L166.062 51.3164C165.051 53.7708 164.521 54.1094 161.69 54.1094C158.982 54.1094 158.468 53.8206 158.468 52.2987C158.468 48.0955 161.34 35.1352 162.813 32.6938C164.405 30.052 164.424 30.0469 172.091 30.0469C178.841 30.0469 179.773 30.2291 179.768 31.5508ZM195.812 31.1495C196.831 32.3878 195.674 39.072 194.112 40.9704C193.451 41.7739 193.492 42.0781 194.266 42.0781C196.069 42.0781 194.549 50.8085 192.433 52.6055C190.109 54.5803 179.127 54.7891 178.397 52.8727C177.918 51.6146 178.803 46.277 181.217 35.8477L182.56 30.0469H188.733C192.715 30.0469 195.227 30.4379 195.812 31.1495ZM207.227 31.0291C207.468 31.7587 208.044 31.7467 209.461 30.9819C211.686 29.7813 214.34 30.4027 215.059 32.2924C215.491 33.4251 215.882 33.3589 217.81 31.8301C220.495 29.6997 222.625 29.557 224.145 31.4047C225.072 32.5305 225 34.3309 223.726 41.932C222.88 46.9757 221.835 51.7788 221.404 52.6055C220.554 54.2366 215.208 54.7505 214.311 53.287C214.033 52.8349 214.586 49.3862 215.539 45.6248C217.439 38.1207 217.781 34.3455 216.437 35.6998C215.979 36.1622 214.713 40.3963 213.624 45.11L211.645 53.6797L208.81 53.9573C207.251 54.1094 205.676 53.916 205.309 53.5276C204.943 53.1383 205.382 48.9918 206.284 44.3134C207.188 39.6341 207.758 35.6371 207.554 35.4309C206.84 34.7107 205.576 38.2548 204.572 43.7969C202.944 52.7791 202.202 54.1094 198.818 54.1094C196.976 54.1094 195.726 53.6204 195.404 52.7739C194.974 51.6447 198.909 32.6233 199.973 30.6914C200.543 29.6559 206.87 29.9506 207.227 31.0291ZM243.125 31.6109C244.384 33.0143 244.406 33.6545 243.343 37.8414C242.69 40.4084 241.707 44.7327 241.158 47.4518C239.968 53.3411 238.896 54.1094 231.875 54.1094C226.808 54.1094 224.091 52.8134 224.087 50.396C224.082 47.2825 227.01 33.6236 228.034 31.9805C229.107 30.2617 229.936 30.0469 235.481 30.0469C240.433 30.0469 242.011 30.37 243.125 31.6109ZM254.06 30.9123C254.245 31.4709 255.31 31.4107 257.071 30.7395C259.417 29.8466 260.032 29.918 261.492 31.2491C263.058 32.6791 263.333 32.692 265.132 31.4219C267.617 29.667 270.438 29.6653 271.88 31.4176C272.824 32.5657 272.668 34.4864 270.919 43.234L268.83 53.6797L265.952 53.9573C261.688 54.368 261.21 53.3505 262.727 47.0995C264.86 38.3098 265.272 35.2031 264.306 35.2031C263.822 35.2031 262.802 38.0064 262.039 41.4336C259.091 54.662 259.372 54.1094 255.587 54.1094C253.731 54.1094 252.212 53.7063 252.212 53.2139C252.212 52.4448 254.139 42.122 255.133 37.5664C255.313 36.7397 254.996 36.0625 254.428 36.0625C253.802 36.0625 252.8 39.1915 251.885 44.004C251.055 48.3722 249.975 52.4327 249.485 53.0274C248.487 54.24 243.183 54.509 242.492 53.3815C242.247 52.981 243.27 47.567 244.767 41.3502L247.488 30.0469H250.631C252.36 30.0469 253.903 30.4362 254.06 30.9123ZM291.363 30.8564C292.392 31.513 292.432 32.497 291.609 36.958C290.196 44.6202 288.826 46.375 284.252 46.375C280.561 46.375 280.531 46.3991 279.571 50.2422C278.632 54.0037 278.515 54.1094 275.26 54.1094C273.419 54.1094 271.728 53.8069 271.501 53.4365C271.274 53.0661 271.46 50.8429 271.915 48.4951C272.949 43.1515 275.253 32.5511 275.691 31.1211C276.083 29.8415 289.42 29.6163 291.363 30.8564ZM311.488 31.9805C311.262 33.0444 310.463 37.2012 309.714 41.2188C307.401 53.6152 307.155 54.1094 303.278 54.1094C300.133 54.1094 299.936 53.9573 299.936 51.5312C299.936 50.1133 299.552 48.9531 299.084 48.9531C298.615 48.9531 298.232 49.6492 298.232 50.5C298.232 51.3508 297.771 52.5109 297.209 53.0781C295.996 54.301 290.877 54.46 290.164 53.2964C289.89 52.8495 290.636 48.1118 291.821 42.7691C294.546 30.4886 294.994 30.0469 304.734 30.0469C311.719 30.0469 311.889 30.0959 311.488 31.9805ZM320.852 34.7734C320.482 37.758 320.582 39.5 321.123 39.5C322.063 39.5 322.566 38.1379 323.421 33.2695C323.976 30.113 324.066 30.0469 327.786 30.0469C331.004 30.0469 331.515 30.2763 331.138 31.5508C330.894 32.3775 329.865 37.502 328.852 42.9375C327.838 48.373 326.574 53.1048 326.043 53.452C324.309 54.5838 320.354 54.1584 319.831 52.7825C319.553 52.0529 319.701 49.5392 320.161 47.1966C320.817 43.8502 320.76 42.9375 319.892 42.9375C319.227 42.9375 318.556 44.5566 318.202 47.0195C317.306 53.2509 316.536 54.2503 312.877 53.9427C309.162 53.6316 309.205 54.2615 311.929 40.1445L313.877 30.0469H317.658H321.437L320.852 34.7734ZM348.58 32.3766C349.064 33.658 349.238 35.5916 348.969 36.6735C348.562 38.3115 347.911 38.6406 345.087 38.6406C342.036 38.6406 341.695 38.4241 341.695 36.4922C341.695 32.4686 340.288 34.3274 339.256 39.7148C338.69 42.6694 338.004 46.149 337.731 47.4492C337.439 48.8405 337.601 49.8125 338.127 49.8125C338.618 49.8125 339.142 48.942 339.291 47.8789C339.518 46.2719 340.175 45.9006 343.186 45.6815C346.657 45.428 346.808 45.5182 346.808 47.8531C346.808 49.1929 346.21 51.1488 345.481 52.199C344.329 53.8584 343.384 54.1094 338.298 54.1094C334.111 54.1094 332.06 53.7244 331.102 52.7593C329.481 51.1239 329.475 52.1586 331.161 42.1847C333.123 30.5797 333.572 30.0469 341.388 30.0469C347.47 30.0469 347.734 30.1328 348.58 32.3766ZM121.55 35.418C120.333 40.5639 119.929 45.7348 120.786 45.2002C121.633 44.6726 123.527 37.4392 123.527 34.7313C123.527 32.7668 122.056 33.2773 121.55 35.418ZM168.694 38.2161C167.527 43.882 167.916 47.1888 169.341 43.7187C169.843 42.4932 170.522 39.6899 170.849 37.4882C171.705 31.7364 169.902 32.3457 168.694 38.2161ZM188.067 36.2773C187.593 39.4141 187.778 39.9237 189.091 39.1055C190.184 38.4241 190.319 33.4844 189.244 33.4844C188.829 33.4844 188.299 34.7408 188.067 36.2773ZM234.841 34.9238C233.62 38.8976 231.779 49.2608 232.216 49.7008C233.162 50.6547 234.158 47.7629 235.192 41.058C236.161 34.7769 235.961 31.2792 234.841 34.9238ZM282.704 34.7734C281.519 38.7214 281.097 43.0956 281.952 42.562C283.008 41.9045 284.034 36.8531 283.561 34.6445C283.244 33.163 283.186 33.1716 282.704 34.7734ZM301.244 34.5586C300.383 37.2527 299.088 44.9467 299.436 45.2973C300.417 46.2873 301.493 44.3228 302.017 40.5845C302.332 38.3338 302.786 35.815 303.024 34.9883C303.514 33.2987 301.78 32.8802 301.244 34.5586ZM101.517 45.703C100.684 49.009 100.781 50.6916 101.749 49.7163C102.52 48.9385 103.722 42.0781 103.087 42.0781C102.725 42.0781 102.019 43.7092 101.517 45.703ZM186.379 46.1602C186.16 47.933 186.139 49.565 186.332 49.7876C187.004 50.561 188.269 47.6503 188.283 45.3008C188.302 41.7825 186.839 42.4434 186.379 46.1602Z" fill="#EBEBEB" fill-opacity="0.81"/>
</svg>
