<svg width="280" height="80" viewBox="0 0 280 80" fill="none" xmlns="http://www.w3.org/2000/svg">
<path d="M59.8 38V21.2H73.84V24.872H64.48V27.584H68.824C70.872 27.584 72.432 28.016 73.504 28.88C74.592 29.744 75.136 30.992 75.136 32.624C75.136 34.304 74.528 35.624 73.312 36.584C72.096 37.528 70.392 38 68.2 38H59.8ZM64.48 34.592H67.888C68.672 34.592 69.272 34.432 69.688 34.112C70.12 33.792 70.336 33.336 70.336 32.744C70.336 31.56 69.52 30.968 67.888 30.968H64.48V34.592ZM80.5356 38V23.912L81.5916 24.968H75.3756V21.2H90.3516V24.968H84.1596L85.2156 23.912V38H80.5356ZM96.0942 31.28V27.776H104.014V31.28H96.0942ZM98.3502 20.864C99.6462 20.864 100.83 21.08 101.902 21.512C102.974 21.928 103.902 22.528 104.686 23.312C105.486 24.096 106.102 25.024 106.534 26.096C106.982 27.152 107.206 28.32 107.206 29.6C107.206 30.88 106.982 32.056 106.534 33.128C106.102 34.184 105.486 35.104 104.686 35.888C103.902 36.672 102.974 37.28 101.902 37.712C100.83 38.128 99.6462 38.336 98.3502 38.336C96.7822 38.336 95.3822 38.064 94.1502 37.52C92.9182 36.96 91.8942 36.176 91.0782 35.168L94.0782 32.432C94.6222 33.072 95.2222 33.56 95.8782 33.896C96.5502 34.232 97.2942 34.4 98.1102 34.4C98.7502 34.4 99.3342 34.288 99.8622 34.064C100.39 33.84 100.838 33.52 101.206 33.104C101.59 32.672 101.878 32.16 102.07 31.568C102.278 30.976 102.382 30.32 102.382 29.6C102.382 28.88 102.278 28.224 102.07 27.632C101.878 27.04 101.59 26.536 101.206 26.12C100.838 25.688 100.39 25.36 99.8622 25.136C99.3342 24.912 98.7502 24.8 98.1102 24.8C97.2942 24.8 96.5502 24.968 95.8782 25.304C95.2222 25.64 94.6222 26.128 94.0782 26.768L91.0782 24.032C91.8942 23.008 92.9182 22.224 94.1502 21.68C95.3822 21.136 96.7822 20.864 98.3502 20.864Z" fill="#C4C4C4"/>
<path d="M65.09 69V62H70.37V62.85H66.08V64.85H68.26C69.0933 64.85 69.7267 65.0233 70.16 65.37C70.5933 65.7167 70.81 66.22 70.81 66.88C70.81 67.56 70.5733 68.0833 70.1 68.45C69.6333 68.8167 68.9633 69 68.09 69H65.09ZM66.08 68.21H68.05C68.63 68.21 69.0667 68.1 69.36 67.88C69.66 67.66 69.81 67.3333 69.81 66.9C69.81 66.06 69.2233 65.64 68.05 65.64H66.08V68.21ZM72.2445 69V63.7H73.2045V65.87H74.8045V66.76H73.2045V69H72.2445ZM76.9345 69.06C76.4145 69.06 75.9511 68.9433 75.5445 68.71C75.1445 68.4767 74.8278 68.1567 74.5945 67.75C74.3611 67.3367 74.2445 66.87 74.2445 66.35C74.2445 65.8233 74.3611 65.3567 74.5945 64.95C74.8278 64.5367 75.1445 64.2167 75.5445 63.99C75.9511 63.7633 76.4145 63.65 76.9345 63.65C77.4478 63.65 77.9078 63.7633 78.3145 63.99C78.7211 64.2167 79.0411 64.5367 79.2745 64.95C79.5078 65.3567 79.6245 65.8233 79.6245 66.35C79.6245 66.8767 79.5078 67.3433 79.2745 67.75C79.0411 68.1567 78.7211 68.4767 78.3145 68.71C77.9078 68.9433 77.4478 69.06 76.9345 69.06ZM76.9345 68.22C77.2678 68.22 77.5645 68.1433 77.8245 67.99C78.0845 67.83 78.2911 67.6133 78.4445 67.34C78.5978 67.06 78.6745 66.73 78.6745 66.35C78.6745 65.97 78.5978 65.6433 78.4445 65.37C78.2911 65.09 78.0845 64.8733 77.8245 64.72C77.5645 64.5667 77.2678 64.49 76.9345 64.49C76.6078 64.49 76.3111 64.5667 76.0445 64.72C75.7845 64.8733 75.5778 65.09 75.4245 65.37C75.2711 65.6433 75.1945 65.97 75.1945 66.35C75.1945 66.73 75.2711 67.06 75.4245 67.34C75.5778 67.6133 75.7845 67.83 76.0445 67.99C76.3111 68.1433 76.6078 68.22 76.9345 68.22ZM83.8142 69.06C83.3742 69.06 82.9709 68.96 82.6042 68.76C82.2442 68.5533 81.9542 68.25 81.7342 67.85C81.5209 67.45 81.4142 66.95 81.4142 66.35C81.4142 65.75 81.5176 65.25 81.7242 64.85C81.9376 64.45 82.2242 64.15 82.5842 63.95C82.9509 63.75 83.3609 63.65 83.8142 63.65C84.3342 63.65 84.7942 63.7633 85.1942 63.99C85.5942 64.2167 85.9109 64.5333 86.1442 64.94C86.3776 65.34 86.4942 65.81 86.4942 66.35C86.4942 66.89 86.3776 67.3633 86.1442 67.77C85.9109 68.1767 85.5942 68.4933 85.1942 68.72C84.7942 68.9467 84.3342 69.06 83.8142 69.06ZM81.0042 70.94V63.7H81.9242V65.13L81.8642 66.36L81.9642 67.59V70.94H81.0042ZM83.7342 68.22C84.0742 68.22 84.3776 68.1433 84.6442 67.99C84.9176 67.8367 85.1309 67.62 85.2842 67.34C85.4442 67.0533 85.5242 66.7233 85.5242 66.35C85.5242 65.97 85.4442 65.6433 85.2842 65.37C85.1309 65.09 84.9176 64.8733 84.6442 64.72C84.3776 64.5667 84.0742 64.49 83.7342 64.49C83.4009 64.49 83.0976 64.5667 82.8242 64.72C82.5576 64.8733 82.3442 65.09 82.1842 65.37C82.0309 65.6433 81.9542 65.97 81.9542 66.35C81.9542 66.7233 82.0309 67.0533 82.1842 67.34C82.3442 67.62 82.5576 67.8367 82.8242 67.99C83.0976 68.1433 83.4009 68.22 83.7342 68.22ZM90.159 69.06C89.6257 69.06 89.1523 68.9433 88.739 68.71C88.3257 68.4767 87.999 68.1567 87.759 67.75C87.519 67.3367 87.399 66.87 87.399 66.35C87.399 65.8233 87.519 65.3567 87.759 64.95C87.999 64.5433 88.3257 64.2267 88.739 64C89.1523 63.7667 89.6257 63.65 90.159 63.65C90.6857 63.65 91.1557 63.7667 91.569 64C91.989 64.2267 92.3157 64.5433 92.549 64.95C92.789 65.35 92.909 65.8167 92.909 66.35C92.909 66.8767 92.789 67.3433 92.549 67.75C92.3157 68.1567 91.989 68.4767 91.569 68.71C91.1557 68.9433 90.6857 69.06 90.159 69.06ZM90.159 68.22C90.499 68.22 90.8023 68.1433 91.069 67.99C91.3423 67.8367 91.5557 67.62 91.709 67.34C91.8623 67.0533 91.939 66.7233 91.939 66.35C91.939 65.97 91.8623 65.6433 91.709 65.37C91.5557 65.09 91.3423 64.8733 91.069 64.72C90.8023 64.5667 90.499 64.49 90.159 64.49C89.819 64.49 89.5157 64.5667 89.249 64.72C88.9823 64.8733 88.769 65.09 88.609 65.37C88.449 65.6433 88.369 65.97 88.369 66.35C88.369 66.7233 88.449 67.0533 88.609 67.34C88.769 67.62 88.9823 67.8367 89.249 67.99C89.5157 68.1433 89.819 68.22 90.159 68.22ZM98.5708 69V62.61L98.8208 62.87H96.1808V62H101.951V62.87H99.3108L99.5508 62.61V69H98.5708ZM104.819 69.06C104.253 69.06 103.753 68.9433 103.319 68.71C102.893 68.4767 102.559 68.1567 102.319 67.75C102.086 67.3433 101.969 66.8767 101.969 66.35C101.969 65.8233 102.083 65.3567 102.309 64.95C102.543 64.5433 102.859 64.2267 103.259 64C103.666 63.7667 104.123 63.65 104.629 63.65C105.143 63.65 105.596 63.7633 105.989 63.99C106.383 64.2167 106.689 64.5367 106.909 64.95C107.136 65.3567 107.249 65.8333 107.249 66.38C107.249 66.42 107.246 66.4667 107.239 66.52C107.239 66.5733 107.236 66.6233 107.229 66.67H102.719V65.98H106.729L106.339 66.22C106.346 65.88 106.276 65.5767 106.129 65.31C105.983 65.0433 105.779 64.8367 105.519 64.69C105.266 64.5367 104.969 64.46 104.629 64.46C104.296 64.46 103.999 64.5367 103.739 64.69C103.479 64.8367 103.276 65.0467 103.129 65.32C102.983 65.5867 102.909 65.8933 102.909 66.24V66.4C102.909 66.7533 102.989 67.07 103.149 67.35C103.316 67.6233 103.546 67.8367 103.839 67.99C104.133 68.1433 104.469 68.22 104.849 68.22C105.163 68.22 105.446 68.1667 105.699 68.06C105.959 67.9533 106.186 67.7933 106.379 67.58L106.909 68.2C106.669 68.48 106.369 68.6933 106.009 68.84C105.656 68.9867 105.259 69.06 104.819 69.06ZM107.752 69L110.032 66.04L110.022 66.53L107.852 63.7H108.922L110.582 65.88H110.172L111.832 63.7H112.882L110.682 66.55L110.692 66.04L112.992 69H111.902L110.152 66.68L110.542 66.74L108.822 69H107.752ZM114.002 69V63.7H114.962V65.95H117.982V63.7H118.942V69H117.982V66.78H114.962V69H114.002ZM120.809 69V63.7H121.769V67.56L125.019 63.7H125.889V69H124.929V65.14L121.689 69H120.809ZM131.092 66.83C130.812 66.9633 130.522 67.07 130.222 67.15C129.929 67.2233 129.626 67.26 129.312 67.26C128.672 67.26 128.166 67.11 127.792 66.81C127.426 66.51 127.242 66.0467 127.242 65.42V63.7H128.202V65.36C128.202 65.74 128.319 66.02 128.552 66.2C128.792 66.38 129.112 66.47 129.512 66.47C129.766 66.47 130.026 66.4367 130.292 66.37C130.566 66.3033 130.832 66.21 131.092 66.09V66.83ZM131.022 69V63.7H131.982V69H131.022ZM136.206 69.06C135.639 69.06 135.139 68.9433 134.706 68.71C134.279 68.4767 133.946 68.1567 133.706 67.75C133.473 67.3433 133.356 66.8767 133.356 66.35C133.356 65.8233 133.469 65.3567 133.696 64.95C133.929 64.5433 134.246 64.2267 134.646 64C135.053 63.7667 135.509 63.65 136.016 63.65C136.529 63.65 136.983 63.7633 137.376 63.99C137.769 64.2167 138.076 64.5367 138.296 64.95C138.523 65.3567 138.636 65.8333 138.636 66.38C138.636 66.42 138.633 66.4667 138.626 66.52C138.626 66.5733 138.623 66.6233 138.616 66.67H134.106V65.98H138.116L137.726 66.22C137.733 65.88 137.663 65.5767 137.516 65.31C137.369 65.0433 137.166 64.8367 136.906 64.69C136.653 64.5367 136.356 64.46 136.016 64.46C135.683 64.46 135.386 64.5367 135.126 64.69C134.866 64.8367 134.663 65.0467 134.516 65.32C134.369 65.5867 134.296 65.8933 134.296 66.24V66.4C134.296 66.7533 134.376 67.07 134.536 67.35C134.703 67.6233 134.933 67.8367 135.226 67.99C135.519 68.1433 135.856 68.22 136.236 68.22C136.549 68.22 136.833 68.1667 137.086 68.06C137.346 67.9533 137.573 67.7933 137.766 67.58L138.296 68.2C138.056 68.48 137.756 68.6933 137.396 68.84C137.043 68.9867 136.646 69.06 136.206 69.06ZM142.435 69.06C141.895 69.06 141.412 68.9433 140.985 68.71C140.565 68.4767 140.235 68.1567 139.995 67.75C139.755 67.3433 139.635 66.8767 139.635 66.35C139.635 65.8233 139.755 65.3567 139.995 64.95C140.235 64.5433 140.565 64.2267 140.985 64C141.412 63.7667 141.895 63.65 142.435 63.65C142.915 63.65 143.342 63.7467 143.715 63.94C144.095 64.1267 144.389 64.4067 144.595 64.78L143.865 65.25C143.692 64.99 143.479 64.8 143.225 64.68C142.979 64.5533 142.712 64.49 142.425 64.49C142.079 64.49 141.769 64.5667 141.495 64.72C141.222 64.8733 141.005 65.09 140.845 65.37C140.685 65.6433 140.605 65.97 140.605 66.35C140.605 66.73 140.685 67.06 140.845 67.34C141.005 67.62 141.222 67.8367 141.495 67.99C141.769 68.1433 142.079 68.22 142.425 68.22C142.712 68.22 142.979 68.16 143.225 68.04C143.479 67.9133 143.692 67.72 143.865 67.46L144.595 67.92C144.389 68.2867 144.095 68.57 143.715 68.77C143.342 68.9633 142.915 69.06 142.435 69.06ZM149.678 69L147.628 66.42L148.418 65.94L150.808 69H149.678ZM145.838 69V63.7H146.798V69H145.838ZM146.508 66.76V65.94H148.258V66.76H146.508ZM148.498 66.46L147.608 66.34L149.638 63.7H150.668L148.498 66.46ZM151.815 69V63.7H152.775V67.56L156.025 63.7H156.895V69H155.935V65.14L152.695 69H151.815ZM157.918 69L160.198 66.04L160.188 66.53L158.018 63.7H159.088L160.748 65.88H160.338L161.998 63.7H163.048L160.848 66.55L160.858 66.04L163.158 69H162.068L160.318 66.68L160.708 66.74L158.988 69H157.918ZM168.044 65.85V65.03H171.794V65.85H168.044ZM168.944 61.92C169.45 61.92 169.917 62.01 170.344 62.19C170.77 62.3633 171.14 62.6133 171.454 62.94C171.774 63.26 172.02 63.6367 172.194 64.07C172.374 64.5033 172.464 64.98 172.464 65.5C172.464 66.02 172.374 66.4967 172.194 66.93C172.02 67.3633 171.774 67.7433 171.454 68.07C171.14 68.39 170.77 68.64 170.344 68.82C169.917 68.9933 169.45 69.08 168.944 69.08C168.384 69.08 167.867 68.9867 167.394 68.8C166.927 68.6133 166.534 68.34 166.214 67.98L166.844 67.35C167.124 67.6367 167.434 67.8467 167.774 67.98C168.12 68.1133 168.494 68.18 168.894 68.18C169.26 68.18 169.6 68.1133 169.914 67.98C170.227 67.8467 170.497 67.6633 170.724 67.43C170.957 67.19 171.137 66.9067 171.264 66.58C171.39 66.2467 171.454 65.8867 171.454 65.5C171.454 65.1133 171.39 64.7567 171.264 64.43C171.137 64.0967 170.957 63.8133 170.724 63.58C170.497 63.34 170.227 63.1533 169.914 63.02C169.6 62.8867 169.26 62.82 168.894 62.82C168.494 62.82 168.12 62.8867 167.774 63.02C167.434 63.1533 167.124 63.3633 166.844 63.65L166.214 63.02C166.534 62.66 166.927 62.3867 167.394 62.2C167.867 62.0133 168.384 61.92 168.944 61.92ZM177.764 69L175.714 66.42L176.504 65.94L178.894 69H177.764ZM173.924 69V63.7H174.884V69H173.924ZM174.594 66.76V65.94H176.344V66.76H174.594ZM176.584 66.46L175.694 66.34L177.724 63.7H178.754L176.584 66.46ZM182.035 69.06C181.495 69.06 181.012 68.9433 180.585 68.71C180.165 68.4767 179.835 68.1567 179.595 67.75C179.355 67.3433 179.235 66.8767 179.235 66.35C179.235 65.8233 179.355 65.3567 179.595 64.95C179.835 64.5433 180.165 64.2267 180.585 64C181.012 63.7667 181.495 63.65 182.035 63.65C182.515 63.65 182.942 63.7467 183.315 63.94C183.695 64.1267 183.988 64.4067 184.195 64.78L183.465 65.25C183.292 64.99 183.078 64.8 182.825 64.68C182.578 64.5533 182.312 64.49 182.025 64.49C181.678 64.49 181.368 64.5667 181.095 64.72C180.822 64.8733 180.605 65.09 180.445 65.37C180.285 65.6433 180.205 65.97 180.205 66.35C180.205 66.73 180.285 67.06 180.445 67.34C180.605 67.62 180.822 67.8367 181.095 67.99C181.368 68.1433 181.678 68.22 182.025 68.22C182.312 68.22 182.578 68.16 182.825 68.04C183.078 67.9133 183.292 67.72 183.465 67.46L184.195 67.92C183.988 68.2867 183.695 68.57 183.315 68.77C182.942 68.9633 182.515 69.06 182.035 69.06ZM185.438 69V63.7H190.348V69H189.388V64.3L189.618 64.54H186.168L186.398 64.3V69H185.438ZM194.565 69.06C193.999 69.06 193.499 68.9433 193.065 68.71C192.639 68.4767 192.305 68.1567 192.065 67.75C191.832 67.3433 191.715 66.8767 191.715 66.35C191.715 65.8233 191.829 65.3567 192.055 64.95C192.289 64.5433 192.605 64.2267 193.005 64C193.412 63.7667 193.869 63.65 194.375 63.65C194.889 63.65 195.342 63.7633 195.735 63.99C196.129 64.2167 196.435 64.5367 196.655 64.95C196.882 65.3567 196.995 65.8333 196.995 66.38C196.995 66.42 196.992 66.4667 196.985 66.52C196.985 66.5733 196.982 66.6233 196.975 66.67H192.465V65.98H196.475L196.085 66.22C196.092 65.88 196.022 65.5767 195.875 65.31C195.729 65.0433 195.525 64.8367 195.265 64.69C195.012 64.5367 194.715 64.46 194.375 64.46C194.042 64.46 193.745 64.5367 193.485 64.69C193.225 64.8367 193.022 65.0467 192.875 65.32C192.729 65.5867 192.655 65.8933 192.655 66.24V66.4C192.655 66.7533 192.735 67.07 192.895 67.35C193.062 67.6233 193.292 67.8367 193.585 67.99C193.879 68.1433 194.215 68.22 194.595 68.22C194.909 68.22 195.192 68.1667 195.445 68.06C195.705 67.9533 195.932 67.7933 196.125 67.58L196.655 68.2C196.415 68.48 196.115 68.6933 195.755 68.84C195.402 68.9867 195.005 69.06 194.565 69.06ZM201.295 69.06C200.855 69.06 200.451 68.96 200.085 68.76C199.725 68.5533 199.435 68.25 199.215 67.85C199.001 67.45 198.895 66.95 198.895 66.35C198.895 65.75 198.998 65.25 199.205 64.85C199.418 64.45 199.705 64.15 200.065 63.95C200.431 63.75 200.841 63.65 201.295 63.65C201.815 63.65 202.275 63.7633 202.675 63.99C203.075 64.2167 203.391 64.5333 203.625 64.94C203.858 65.34 203.975 65.81 203.975 66.35C203.975 66.89 203.858 67.3633 203.625 67.77C203.391 68.1767 203.075 68.4933 202.675 68.72C202.275 68.9467 201.815 69.06 201.295 69.06ZM198.485 70.94V63.7H199.405V65.13L199.345 66.36L199.445 67.59V70.94H198.485ZM201.215 68.22C201.555 68.22 201.858 68.1433 202.125 67.99C202.398 67.8367 202.611 67.62 202.765 67.34C202.925 67.0533 203.005 66.7233 203.005 66.35C203.005 65.97 202.925 65.6433 202.765 65.37C202.611 65.09 202.398 64.8733 202.125 64.72C201.858 64.5667 201.555 64.49 201.215 64.49C200.881 64.49 200.578 64.5667 200.305 64.72C200.038 64.8733 199.825 65.09 199.665 65.37C199.511 65.6433 199.435 65.97 199.435 66.35C199.435 66.7233 199.511 67.0533 199.665 67.34C199.825 67.62 200.038 67.8367 200.305 67.99C200.578 68.1433 200.881 68.22 201.215 68.22ZM206.224 69V64.29L206.464 64.54H204.284V63.7H209.124V64.54H206.954L207.184 64.29V69H206.224ZM210.106 69V63.7H211.066V67.56L214.316 63.7H215.186V69H214.226V65.14L210.986 69H210.106ZM218.511 69.07C218.978 69.07 219.391 69.0033 219.751 68.87C220.118 68.73 220.408 68.54 220.621 68.3C220.835 68.0533 220.941 67.77 220.941 67.45C220.941 67.05 220.771 66.7333 220.431 66.5C220.091 66.2667 219.625 66.15 219.031 66.15L218.991 66.38C219.338 66.38 219.645 66.3233 219.911 66.21C220.178 66.0967 220.391 65.9433 220.551 65.75C220.711 65.55 220.791 65.3233 220.791 65.07C220.791 64.77 220.685 64.51 220.471 64.29C220.265 64.07 219.981 63.9033 219.621 63.79C219.261 63.67 218.851 63.6167 218.391 63.63C218.085 63.6367 217.775 63.6833 217.461 63.77C217.155 63.85 216.841 63.9667 216.521 64.12L216.781 64.87C217.068 64.73 217.348 64.6267 217.621 64.56C217.901 64.4933 218.175 64.4567 218.441 64.45C218.715 64.45 218.951 64.48 219.151 64.54C219.358 64.6 219.518 64.6867 219.631 64.8C219.745 64.9133 219.801 65.05 219.801 65.21C219.801 65.3567 219.751 65.4867 219.651 65.6C219.558 65.7067 219.425 65.7867 219.251 65.84C219.078 65.8933 218.875 65.92 218.641 65.92H217.741V66.61H218.701C219.095 66.61 219.401 66.6767 219.621 66.81C219.841 66.9433 219.951 67.1333 219.951 67.38C219.951 67.5533 219.891 67.7067 219.771 67.84C219.651 67.9667 219.478 68.0667 219.251 68.14C219.031 68.2133 218.768 68.25 218.461 68.25C218.128 68.25 217.798 68.2067 217.471 68.12C217.145 68.0267 216.855 67.9 216.601 67.74L216.311 68.47C216.611 68.6633 216.951 68.8133 217.331 68.92C217.718 69.02 218.111 69.07 218.511 69.07Z" fill="#C4C4C4"/>
<path d="M108.352 46.28V42.776H116.272V46.28H108.352ZM110.608 35.864C111.904 35.864 113.088 36.08 114.16 36.512C115.232 36.928 116.16 37.528 116.944 38.312C117.744 39.096 118.36 40.024 118.792 41.096C119.24 42.152 119.464 43.32 119.464 44.6C119.464 45.88 119.24 47.056 118.792 48.128C118.36 49.184 117.744 50.104 116.944 50.888C116.16 51.672 115.232 52.28 114.16 52.712C113.088 53.128 111.904 53.336 110.608 53.336C109.04 53.336 107.64 53.064 106.408 52.52C105.176 51.96 104.152 51.176 103.336 50.168L106.336 47.432C106.88 48.072 107.48 48.56 108.136 48.896C108.808 49.232 109.552 49.4 110.368 49.4C111.008 49.4 111.592 49.288 112.12 49.064C112.648 48.84 113.096 48.52 113.464 48.104C113.848 47.672 114.136 47.16 114.328 46.568C114.536 45.976 114.64 45.32 114.64 44.6C114.64 43.88 114.536 43.224 114.328 42.632C114.136 42.04 113.848 41.536 113.464 41.12C113.096 40.688 112.648 40.36 112.12 40.136C111.592 39.912 111.008 39.8 110.368 39.8C109.552 39.8 108.808 39.968 108.136 40.304C107.48 40.64 106.88 41.128 106.336 41.768L103.336 39.032C104.152 38.008 105.176 37.224 106.408 36.68C107.64 36.136 109.04 35.864 110.608 35.864ZM132.635 53L127.907 45.008L131.723 42.752L137.987 53H132.635ZM121.931 53V36.2H126.659V53H121.931ZM125.291 46.568V42.728H131.387V46.568H125.291ZM132.179 45.104L127.787 44.624L132.947 36.2H137.939L132.179 45.104ZM147.601 53.336C146.273 53.336 145.041 53.128 143.905 52.712C142.785 52.28 141.809 51.672 140.977 50.888C140.161 50.104 139.521 49.184 139.057 48.128C138.593 47.056 138.361 45.88 138.361 44.6C138.361 43.32 138.593 42.152 139.057 41.096C139.521 40.024 140.161 39.096 140.977 38.312C141.809 37.528 142.785 36.928 143.905 36.512C145.041 36.08 146.273 35.864 147.601 35.864C149.153 35.864 150.537 36.136 151.753 36.68C152.985 37.224 154.009 38.008 154.825 39.032L151.801 41.768C151.257 41.128 150.657 40.64 150.001 40.304C149.361 39.968 148.641 39.8 147.841 39.8C147.153 39.8 146.521 39.912 145.945 40.136C145.369 40.36 144.873 40.688 144.457 41.12C144.057 41.536 143.737 42.04 143.497 42.632C143.273 43.224 143.161 43.88 143.161 44.6C143.161 45.32 143.273 45.976 143.497 46.568C143.737 47.16 144.057 47.672 144.457 48.104C144.873 48.52 145.369 48.84 145.945 49.064C146.521 49.288 147.153 49.4 147.841 49.4C148.641 49.4 149.361 49.232 150.001 48.896C150.657 48.56 151.257 48.072 151.801 47.432L154.825 50.168C154.009 51.176 152.985 51.96 151.753 52.52C150.537 53.064 149.153 53.336 147.601 53.336ZM156.972 53V36.2H172.74V53H168.036V38.912L169.092 39.968H160.62L161.652 38.912V53H156.972ZM180.699 42.704H188.499V46.256H180.699V42.704ZM181.035 49.328H189.819V53H176.331V36.2H189.507V39.872H181.035V49.328ZM192.527 53V36.2H200.207C201.743 36.2 203.063 36.448 204.167 36.944C205.287 37.44 206.151 38.16 206.759 39.104C207.367 40.032 207.671 41.136 207.671 42.416C207.671 43.68 207.367 44.776 206.759 45.704C206.151 46.632 205.287 47.352 204.167 47.864C203.063 48.36 201.743 48.608 200.207 48.608H195.167L197.279 46.544V53H192.527ZM197.279 47.048L195.167 44.864H199.919C200.911 44.864 201.647 44.648 202.127 44.216C202.623 43.784 202.871 43.184 202.871 42.416C202.871 41.632 202.623 41.024 202.127 40.592C201.647 40.16 200.911 39.944 199.919 39.944H195.167L197.279 37.76V47.048ZM213.122 53V38.912L214.178 39.968H207.962V36.2H222.938V39.968H216.746L217.802 38.912V53H213.122Z" fill="#C4C4C4"/>
</svg>
