<svg width="280" height="114" viewBox="0 0 280 114" fill="none" xmlns="http://www.w3.org/2000/svg">
<path d="M118.051 51L121.831 42.6H123.367L127.159 51H125.527L122.275 43.428H122.899L119.659 51H118.051ZM119.791 49.056L120.211 47.832H124.747L125.167 49.056H119.791ZM132.23 51.12C131.574 51.12 130.97 51.012 130.418 50.796C129.866 50.58 129.386 50.28 128.978 49.896C128.57 49.504 128.254 49.048 128.03 48.528C127.806 48 127.694 47.424 127.694 46.8C127.694 46.176 127.806 45.604 128.03 45.084C128.254 44.556 128.57 44.1 128.978 43.716C129.386 43.324 129.866 43.02 130.418 42.804C130.97 42.588 131.57 42.48 132.218 42.48C132.874 42.48 133.474 42.588 134.018 42.804C134.57 43.02 135.05 43.324 135.458 43.716C135.866 44.1 136.182 44.556 136.406 45.084C136.63 45.604 136.742 46.176 136.742 46.8C136.742 47.424 136.63 48 136.406 48.528C136.182 49.056 135.866 49.512 135.458 49.896C135.05 50.28 134.57 50.58 134.018 50.796C133.474 51.012 132.878 51.12 132.23 51.12ZM132.218 49.752C132.642 49.752 133.034 49.68 133.394 49.536C133.754 49.392 134.066 49.188 134.33 48.924C134.594 48.652 134.798 48.34 134.942 47.988C135.094 47.628 135.17 47.232 135.17 46.8C135.17 46.368 135.094 45.976 134.942 45.624C134.798 45.264 134.594 44.952 134.33 44.688C134.066 44.416 133.754 44.208 133.394 44.064C133.034 43.92 132.642 43.848 132.218 43.848C131.794 43.848 131.402 43.92 131.042 44.064C130.69 44.208 130.378 44.416 130.106 44.688C129.842 44.952 129.634 45.264 129.482 45.624C129.338 45.976 129.266 46.368 129.266 46.8C129.266 47.224 129.338 47.616 129.482 47.976C129.634 48.336 129.842 48.652 130.106 48.924C130.37 49.188 130.682 49.392 131.042 49.536C131.402 49.68 131.794 49.752 132.218 49.752ZM147.339 51L144.495 46.908L145.755 46.128L149.103 51H147.339ZM141.783 51V42.6H143.319V51H141.783ZM142.851 47.46V46.116H145.683V47.46H142.851ZM145.899 46.98L144.471 46.788L147.339 42.6H148.995L145.899 46.98ZM154.039 51.12C153.383 51.12 152.779 51.012 152.227 50.796C151.675 50.58 151.195 50.28 150.787 49.896C150.379 49.504 150.063 49.048 149.839 48.528C149.615 48 149.503 47.424 149.503 46.8C149.503 46.176 149.615 45.604 149.839 45.084C150.063 44.556 150.379 44.1 150.787 43.716C151.195 43.324 151.675 43.02 152.227 42.804C152.779 42.588 153.379 42.48 154.027 42.48C154.683 42.48 155.283 42.588 155.827 42.804C156.379 43.02 156.859 43.324 157.267 43.716C157.675 44.1 157.991 44.556 158.215 45.084C158.439 45.604 158.551 46.176 158.551 46.8C158.551 47.424 158.439 48 158.215 48.528C157.991 49.056 157.675 49.512 157.267 49.896C156.859 50.28 156.379 50.58 155.827 50.796C155.283 51.012 154.687 51.12 154.039 51.12ZM154.027 49.752C154.451 49.752 154.843 49.68 155.203 49.536C155.563 49.392 155.875 49.188 156.139 48.924C156.403 48.652 156.607 48.34 156.751 47.988C156.903 47.628 156.979 47.232 156.979 46.8C156.979 46.368 156.903 45.976 156.751 45.624C156.607 45.264 156.403 44.952 156.139 44.688C155.875 44.416 155.563 44.208 155.203 44.064C154.843 43.92 154.451 43.848 154.027 43.848C153.603 43.848 153.211 43.92 152.851 44.064C152.499 44.208 152.187 44.416 151.915 44.688C151.651 44.952 151.443 45.264 151.291 45.624C151.147 45.976 151.075 46.368 151.075 46.8C151.075 47.224 151.147 47.616 151.291 47.976C151.443 48.336 151.651 48.652 151.915 48.924C152.179 49.188 152.491 49.392 152.851 49.536C153.211 49.68 153.603 49.752 154.027 49.752ZM166.18 42.6H167.74V51H166.18V42.6ZM161.836 51H160.276V42.6H161.836V51ZM166.3 47.4H161.704V46.068H166.3V47.4ZM170.108 51V42.6H171.644V49.68H175.88V42.6H177.428V51H170.108ZM177.236 52.848V50.616L177.584 51H175.88V49.68H178.676V52.848H177.236ZM181.544 46.092H185.72V47.376H181.544V46.092ZM181.664 49.692H186.404V51H180.104V42.6H186.236V43.908H181.664V49.692ZM188.143 51V42.6H191.599C192.343 42.6 192.979 42.72 193.507 42.96C194.043 43.2 194.455 43.544 194.743 43.992C195.031 44.44 195.175 44.972 195.175 45.588C195.175 46.204 195.031 46.736 194.743 47.184C194.455 47.632 194.043 47.976 193.507 48.216C192.979 48.456 192.343 48.576 191.599 48.576H189.007L189.703 47.844V51H188.143ZM189.703 48.012L189.007 47.256H191.527C192.215 47.256 192.731 47.112 193.075 46.824C193.427 46.528 193.603 46.116 193.603 45.588C193.603 45.052 193.427 44.64 193.075 44.352C192.731 44.064 192.215 43.92 191.527 43.92H189.007L189.703 43.152V48.012ZM202.555 42.6H204.115V51H202.555V42.6ZM198.211 51H196.651V42.6H198.211V51ZM202.675 47.4H198.079V46.068H202.675V47.4ZM209.799 51V42.6H213.555C214.499 42.6 215.235 42.788 215.763 43.164C216.291 43.532 216.555 44.064 216.555 44.76C216.555 45.448 216.303 45.98 215.799 46.356C215.295 46.724 214.631 46.908 213.807 46.908L214.023 46.476C214.959 46.476 215.683 46.664 216.195 47.04C216.707 47.416 216.963 47.96 216.963 48.672C216.963 49.4 216.695 49.972 216.159 50.388C215.623 50.796 214.831 51 213.783 51H209.799ZM211.335 49.8H213.735C214.279 49.8 214.691 49.7 214.971 49.5C215.251 49.292 215.391 48.976 215.391 48.552C215.391 48.128 215.251 47.82 214.971 47.628C214.691 47.428 214.279 47.328 213.735 47.328H211.335V49.8ZM211.335 46.188H213.423C213.927 46.188 214.311 46.088 214.575 45.888C214.839 45.68 214.971 45.384 214.971 45C214.971 44.6 214.839 44.3 214.575 44.1C214.311 43.9 213.927 43.8 213.423 43.8H211.335V46.188ZM224.296 51L221.452 46.908L222.712 46.128L226.06 51H224.296ZM218.74 51V42.6H220.276V51H218.74ZM219.808 47.46V46.116H222.64V47.46H219.808ZM222.856 46.98L221.428 46.788L224.296 42.6H225.952L222.856 46.98ZM230.996 51.12C230.34 51.12 229.736 51.012 229.184 50.796C228.632 50.58 228.152 50.28 227.744 49.896C227.336 49.504 227.02 49.048 226.796 48.528C226.572 48 226.46 47.424 226.46 46.8C226.46 46.176 226.572 45.604 226.796 45.084C227.02 44.556 227.336 44.1 227.744 43.716C228.152 43.324 228.632 43.02 229.184 42.804C229.736 42.588 230.336 42.48 230.984 42.48C231.64 42.48 232.24 42.588 232.784 42.804C233.336 43.02 233.816 43.324 234.224 43.716C234.632 44.1 234.948 44.556 235.172 45.084C235.396 45.604 235.508 46.176 235.508 46.8C235.508 47.424 235.396 48 235.172 48.528C234.948 49.056 234.632 49.512 234.224 49.896C233.816 50.28 233.336 50.58 232.784 50.796C232.24 51.012 231.644 51.12 230.996 51.12ZM230.984 49.752C231.408 49.752 231.8 49.68 232.16 49.536C232.52 49.392 232.832 49.188 233.096 48.924C233.36 48.652 233.564 48.34 233.708 47.988C233.86 47.628 233.936 47.232 233.936 46.8C233.936 46.368 233.86 45.976 233.708 45.624C233.564 45.264 233.36 44.952 233.096 44.688C232.832 44.416 232.52 44.208 232.16 44.064C231.8 43.92 231.408 43.848 230.984 43.848C230.56 43.848 230.168 43.92 229.808 44.064C229.456 44.208 229.144 44.416 228.872 44.688C228.608 44.952 228.4 45.264 228.248 45.624C228.104 45.976 228.032 46.368 228.032 46.8C228.032 47.224 228.104 47.616 228.248 47.976C228.4 48.336 228.608 48.652 228.872 48.924C229.136 49.188 229.448 49.392 229.808 49.536C230.168 49.68 230.56 49.752 230.984 49.752ZM125.536 64.136L124.96 66.452L124.768 65.564C125.048 65.564 125.28 65.648 125.464 65.816C125.648 65.984 125.74 66.208 125.74 66.488C125.74 66.768 125.648 67 125.464 67.184C125.28 67.36 125.052 67.448 124.78 67.448C124.492 67.448 124.256 67.36 124.072 67.184C123.888 67 123.796 66.768 123.796 66.488C123.796 66.4 123.8 66.32 123.808 66.248C123.824 66.168 123.848 66.072 123.88 65.96C123.92 65.84 123.98 65.684 124.06 65.492L124.576 64.136H125.536ZM128.08 64.136L127.504 66.452L127.312 65.564C127.592 65.564 127.824 65.648 128.008 65.816C128.192 65.984 128.284 66.208 128.284 66.488C128.284 66.768 128.192 67 128.008 67.184C127.824 67.36 127.596 67.448 127.324 67.448C127.036 67.448 126.8 67.36 126.616 67.184C126.432 67 126.34 66.768 126.34 66.488C126.34 66.4 126.344 66.32 126.352 66.248C126.368 66.168 126.392 66.072 126.424 65.96C126.464 65.84 126.524 65.684 126.604 65.492L127.12 64.136H128.08ZM128.897 71L132.677 62.6H134.213L138.005 71H136.373L133.121 63.428H133.745L130.505 71H128.897ZM130.637 69.056L131.057 67.832H135.593L136.013 69.056H130.637ZM139.149 71.12C139.013 71.12 138.877 71.108 138.741 71.084C138.605 71.06 138.457 71.032 138.297 71L138.405 69.644C138.517 69.676 138.637 69.692 138.765 69.692C139.101 69.692 139.369 69.556 139.569 69.284C139.769 69.004 139.913 68.596 140.001 68.06C140.089 67.524 140.149 66.864 140.181 66.08L140.301 62.6H146.481V71H144.945V63.536L145.305 63.92H141.309L141.645 63.524L141.561 66.02C141.537 66.852 141.481 67.584 141.393 68.216C141.305 68.848 141.169 69.38 140.985 69.812C140.809 70.236 140.573 70.56 140.277 70.784C139.981 71.008 139.605 71.12 139.149 71.12ZM148.856 71V62.6H150.128L153.812 68.732H153.128L156.752 62.6H158.024L158.048 71H156.56L156.548 64.916H156.86L153.788 70.04H153.092L149.972 64.916H150.332V71H148.856ZM159.331 71L163.111 62.6H164.647L168.439 71H166.807L163.555 63.428H164.179L160.939 71H159.331ZM161.071 69.056L161.491 67.832H166.027L166.447 69.056H161.071ZM168.899 70.172L169.403 69.032C169.763 69.28 170.155 69.472 170.579 69.608C171.011 69.736 171.439 69.804 171.863 69.812C172.287 69.82 172.671 69.772 173.015 69.668C173.367 69.564 173.647 69.408 173.855 69.2C174.063 68.992 174.167 68.732 174.167 68.42C174.167 68.044 174.011 67.764 173.699 67.58C173.395 67.388 172.979 67.292 172.451 67.292H170.495V66.068H172.331C172.803 66.068 173.167 65.972 173.423 65.78C173.687 65.588 173.819 65.328 173.819 65C173.819 64.728 173.731 64.504 173.555 64.328C173.387 64.152 173.155 64.02 172.859 63.932C172.571 63.844 172.243 63.804 171.875 63.812C171.515 63.812 171.139 63.868 170.747 63.98C170.355 64.084 169.983 64.24 169.631 64.448L169.139 63.188C169.667 62.908 170.219 62.712 170.795 62.6C171.379 62.488 171.943 62.456 172.487 62.504C173.031 62.552 173.519 62.676 173.951 62.876C174.391 63.076 174.743 63.34 175.007 63.668C175.271 63.988 175.403 64.368 175.403 64.808C175.403 65.208 175.295 65.564 175.079 65.876C174.871 66.18 174.583 66.416 174.215 66.584C173.847 66.752 173.419 66.836 172.931 66.836L172.991 66.452C173.543 66.452 174.023 66.548 174.431 66.74C174.847 66.924 175.167 67.18 175.391 67.508C175.623 67.836 175.739 68.216 175.739 68.648C175.739 69.056 175.635 69.42 175.427 69.74C175.219 70.052 174.935 70.316 174.575 70.532C174.215 70.74 173.803 70.896 173.339 71C172.875 71.096 172.387 71.132 171.875 71.108C171.363 71.084 170.851 70.996 170.339 70.844C169.835 70.692 169.355 70.468 168.899 70.172ZM177.004 68.288V67.04H180.304V68.288H177.004ZM180.823 71L184.603 62.6H186.139L189.931 71H188.299L185.047 63.428H185.671L182.431 71H180.823ZM182.563 69.056L182.983 67.832H187.519L187.939 69.056H182.563ZM197.123 62.6H198.683V71H197.123V62.6ZM192.779 71H191.219V62.6H192.779V71ZM197.243 67.4H192.647V66.068H197.243V67.4ZM202.803 71V63.536L203.175 63.92H200.031V62.6H207.135V63.92H203.991L204.351 63.536V71H202.803ZM209.921 66.092H214.097V67.376H209.921V66.092ZM210.041 69.692H214.781V71H208.481V62.6H214.613V63.908H210.041V69.692ZM216.532 71V62.6H218.068V68.564L222.58 62.6H224.032V71H222.496V65.048L217.984 71H216.532ZM220.264 62.036C219.544 62.036 219 61.884 218.632 61.58C218.272 61.276 218.088 60.848 218.08 60.296H219.172C219.18 60.592 219.276 60.82 219.46 60.98C219.652 61.14 219.92 61.22 220.264 61.22C220.608 61.22 220.876 61.14 221.068 60.98C221.268 60.82 221.372 60.592 221.38 60.296H222.46C222.452 60.848 222.264 61.276 221.896 61.58C221.528 61.884 220.984 62.036 220.264 62.036ZM225.907 67.364L226.495 65.048L226.687 65.948C226.407 65.948 226.175 65.86 225.991 65.684C225.807 65.508 225.715 65.284 225.715 65.012C225.715 64.732 225.807 64.504 225.991 64.328C226.175 64.144 226.403 64.052 226.675 64.052C226.963 64.052 227.199 64.144 227.383 64.328C227.567 64.504 227.659 64.732 227.659 65.012C227.659 65.092 227.651 65.172 227.635 65.252C227.627 65.332 227.607 65.432 227.575 65.552C227.543 65.672 227.487 65.824 227.407 66.008L226.867 67.364H225.907ZM228.451 67.364L229.039 65.048L229.231 65.948C228.951 65.948 228.719 65.86 228.535 65.684C228.351 65.508 228.259 65.284 228.259 65.012C228.259 64.732 228.351 64.504 228.535 64.328C228.719 64.144 228.947 64.052 229.219 64.052C229.507 64.052 229.743 64.144 229.927 64.328C230.111 64.504 230.203 64.732 230.203 65.012C230.203 65.092 230.195 65.172 230.179 65.252C230.171 65.332 230.151 65.432 230.119 65.552C230.087 65.672 230.031 65.824 229.951 66.008L229.411 67.364H228.451Z" fill="#C4C4C4"/>
<path fill-rule="evenodd" clip-rule="evenodd" d="M6 57V95H46H86V57V19H46H6V57ZM44.8276 33.3668C44.5883 43.3299 44.5458 43.5656 42.4602 46.5078C41.2503 48.215 38.965 50.2001 37.1504 51.1213C34.1968 52.6201 33.074 52.7398 21.7522 52.7581C14.0694 52.7707 9.53982 52.5167 9.53982 52.0741C9.53982 51.6357 13.6135 51.369 20.3363 51.3661C32.2789 51.3619 35.3246 50.8074 38.645 48.0299C42.5345 44.7767 43.4888 41.5987 43.5065 31.8426C43.5172 26.0814 43.7791 23.2222 44.2966 23.2222C44.8326 23.2222 44.9961 26.346 44.8276 33.3668ZM47.8789 32.8981C48.1175 42.3123 48.1819 42.6599 50.2634 45.7407C53.4336 50.4337 56.5841 51.3007 70.6018 51.3394C77.5427 51.3584 81.7522 51.6364 81.7522 52.0741C81.7522 52.5146 77.4159 52.7778 70.16 52.7778C54.5834 52.7778 50.8205 51.4224 47.692 44.6852C46.6329 42.4038 46.3823 40.1027 46.3696 32.5463C46.3611 27.4177 46.6421 23.2222 46.994 23.2222C47.3458 23.2222 47.7444 27.5767 47.8789 32.8981ZM25.2963 32.0938C28.7051 32.9988 33.5639 33.9502 36.0927 34.2077L40.6903 34.6757V32.426C40.6903 30.9468 40.9614 30.343 41.4818 30.6625C42.0035 30.9834 42.1699 33.117 41.9696 36.9191C41.428 47.1707 37.8258 49.963 25.1434 49.963C16.1685 49.963 14.109 48.6203 22.8142 48.4451C27.692 48.3466 27.9143 48.2881 24.8163 47.9173C22.754 47.6703 21.1972 47.0968 21.0039 46.5127C20.7384 45.7112 21.4634 45.5993 24.8432 45.9202L29.0089 46.315L25.2078 45.3811C19.2687 43.9224 18.8191 42.6958 24.4071 43.1933L29.0089 43.6029L24.7759 42.5403C19.1405 41.1259 17.8542 39.7916 22.6372 40.3222C24.5841 40.5383 26.7865 40.9492 27.532 41.2363C28.3929 41.5678 28.7235 41.4946 28.4375 41.0351C28.1904 40.6375 26.0864 39.9113 23.7621 39.4208C21.4372 38.9303 19.3671 38.0936 19.1618 37.5609C18.703 36.373 19.4053 36.3794 24.5841 37.6094C26.8234 38.1414 28.6549 38.3343 28.6549 38.0373C28.6549 37.741 26.5161 36.974 23.9023 36.3329C21.2885 35.6919 18.8411 34.8601 18.463 34.4843C17.0258 33.0558 18.7781 33.0241 23.4542 34.3949C26.1196 35.1767 30.4517 36.2034 33.0796 36.6777C35.7076 37.152 37.8584 37.7333 37.8584 37.9697C37.8584 38.2069 36.8963 38.9648 35.7211 39.6551C34.5451 40.3454 32.4687 42.5516 31.1058 44.5571C28.8219 47.9173 28.7377 48.2213 30.029 48.4247C30.8 48.5464 32.8545 48.02 34.594 47.2551C38.0269 45.7457 39.6814 43.3953 40.0878 39.4517L40.3363 37.0401L35.3805 36.207C28.6973 35.0846 18.6322 32.4506 17.5207 31.5344C16.1869 30.4338 16.4205 29.3212 17.8584 29.9264C18.5395 30.2135 21.8867 31.1881 25.2963 32.0938ZM73.9646 30.5548C73.9646 31.1241 72.5196 32.022 70.6018 32.6434C66.1161 34.098 54.6039 36.5926 52.3795 36.5926C50.8453 36.5926 50.6025 36.9057 50.6046 38.8796C50.6074 41.5446 52.6662 45.2165 54.9926 46.7062C55.8874 47.279 57.8414 47.9701 59.3345 48.241L62.0503 48.735L60.6032 45.916C59.8074 44.3657 57.6644 41.7923 55.8414 40.197C52.749 37.4912 52.6471 37.2963 54.3193 37.2963C55.3055 37.2963 59.7933 36.3463 64.2924 35.1852C73.8081 32.7293 73.3204 32.7933 72.829 34.0663C72.6188 34.6124 70.2393 35.5961 67.5419 36.2534C64.8439 36.91 62.6372 37.7023 62.6372 38.0134C62.6372 38.3244 64.5947 38.1253 66.9876 37.57C69.3798 37.0155 71.4825 36.7059 71.6602 36.8818C72.4807 37.6974 70.8227 38.577 66.9055 39.4032C64.5579 39.8986 62.6372 40.5671 62.6372 40.8887C62.6372 41.211 63.0358 41.3271 63.5221 41.147C64.0092 40.9668 65.9207 40.5425 67.7699 40.2047C70.3575 39.7311 71.1327 39.7973 71.1327 40.4925C71.1327 41.0161 69.2715 41.8535 66.708 42.4826L62.2832 43.5684L66.354 43.1968C70.5968 42.8091 72.1911 43.9428 68.4779 44.707C63.2524 45.7823 62.4149 46.2544 66.354 45.9047C69.1044 45.6612 70.4248 45.7999 70.4248 46.3326C70.4248 47.1679 68.8184 47.6626 64.7611 48.077C63.3982 48.2164 64.7519 48.381 67.7699 48.443C76.252 48.6168 74.5076 49.963 65.8004 49.963C57.4209 49.963 54.9232 49.2241 51.6637 45.7823C49.663 43.6697 49.5257 43.1546 49.2942 36.8994C49.1285 32.4041 49.2998 30.2593 49.8251 30.2593C50.2527 30.2593 50.6018 31.2093 50.6018 32.3704C50.6018 34.2859 50.8149 34.4801 52.9027 34.466C56.1331 34.4449 69.2779 31.3979 73.7876 29.6252C73.8853 29.5865 73.9646 30.0052 73.9646 30.5548ZM47.9058 47.8413C48.5642 48.9919 50.0765 50.5217 51.2658 51.2409C53.2 52.4097 53.5037 53.4815 51.9016 53.4815C50.669 53.4815 45.646 48.3304 45.646 47.0665C45.646 45.1419 46.5345 45.4466 47.9058 47.8413ZM48.0375 51.8207C49.3593 53.6229 49.3586 53.6307 47.8485 53.1543C46.6117 52.7644 46.1579 53.079 45.411 54.846L44.4927 57.0169L42.8219 55.2492C41.6163 53.9734 41.4421 53.4815 42.1954 53.4815C42.7696 53.4815 43.668 53.8777 44.1926 54.3611C44.7681 54.8924 44.9664 54.922 44.6917 54.435C44.4425 53.9917 44.7363 53.4393 45.3451 53.207C46.0793 52.927 46.3002 52.3105 46.0014 51.3739C45.3756 49.4141 46.4453 49.6491 48.0375 51.8207ZM38.2067 56.6481C43.6404 60.0048 44.5395 62.4227 44.8135 74.4167C44.9692 81.2334 44.7993 84.4444 44.2825 84.4444C43.7841 84.4444 43.5207 81.5951 43.5179 76.1759C43.5136 66.8068 42.8404 63.605 40.2244 60.515C36.7653 56.4279 35.1448 56.0078 21.7522 55.7179C14.5692 55.5623 9.53982 55.1739 9.53982 54.7749C9.53982 54.3562 14.3795 54.181 22.165 54.3168L34.7901 54.537L38.2067 56.6481ZM42.7596 56.3505C44.0623 57.6453 44.9381 59.2427 44.9381 60.325C44.9381 62.1026 44.9097 62.0927 43.3281 59.7599C42.4432 58.4539 40.6435 56.665 39.3296 55.7854C36.9827 54.2133 36.9727 54.1852 38.7611 54.1852C39.8499 54.1852 41.457 55.0557 42.7596 56.3505ZM81.7522 54.8305C81.7522 55.1887 76.3051 55.5806 69.5398 55.7101C55.5094 55.9796 53.205 56.6566 50.0078 61.453C48.2237 64.1299 48.1119 64.8118 47.8945 74.3618C47.7685 79.9154 47.3706 84.4444 47.0096 84.4444C46.3065 84.4444 46.2655 83.7731 46.2896 72.5202C46.303 66.215 46.5402 64.7154 47.9596 61.9731C49.5894 58.8261 53.8258 55.2534 56.6195 54.6714C59.5398 54.0634 81.7522 54.2042 81.7522 54.8305ZM33.2566 57.7734C36.6138 58.6804 39.7798 61.4017 41.1313 64.5423C42.223 67.0784 42.4715 76.7037 41.445 76.7037C41.0818 76.7037 40.6832 75.8332 40.56 74.7685C40.3427 72.891 40.2202 72.839 36.4425 73.0304C32.9416 73.207 21.1604 75.7797 17.7621 77.109C16.7851 77.4911 16.514 77.3652 16.7526 76.6397C17.1242 75.5123 22.1444 73.7411 30.4248 71.8151C33.5398 71.0903 35.3182 70.4689 34.3759 70.4337C33.4343 70.3992 29.5129 71.1965 25.6623 72.2056C21.8117 73.2154 18.4885 73.8699 18.2775 73.6602C17.3855 72.7735 19.0251 71.8186 22.8262 71.0093C27.4683 70.0213 30.4786 68.6217 26.531 69.2867C18.4078 70.6554 18.3427 70.6575 19.2658 69.5435C19.748 68.9623 21.9235 68.0911 24.0998 67.6069C26.2761 67.1228 27.9023 66.5732 27.714 66.386C27.5257 66.1988 26.1473 66.3839 24.6506 66.797C21.069 67.785 20.1593 67.7491 20.1593 66.6182C20.1593 66.0757 21.5773 65.3586 23.5221 64.9167L26.885 64.1531L24.0531 64.2707C19.9023 64.4438 20.2081 63.1159 24.548 62.1216L28.3009 61.2609L24.5841 61.5607C21.668 61.795 20.8673 61.6395 20.8673 60.8373C20.8673 60.1554 21.6333 59.8113 23.1681 59.8043C24.434 59.7979 25.9469 59.4862 26.531 59.1111C27.2708 58.6361 26.0354 58.4257 22.4602 58.418C19.5179 58.4123 17.3274 58.1069 17.3274 57.7037C17.3274 56.7474 29.6595 56.8008 33.2566 57.7734ZM73.5752 57.6361C73.2057 57.9859 69.3798 58.3849 65.074 58.5221C59.045 58.7149 56.7993 59.0626 55.3055 60.0358C52.7434 61.7043 50.6074 65.2833 50.6046 67.9144C50.6018 70.0312 50.6074 70.034 57.1504 71.2352C66.0269 72.8643 73.8025 75.2682 74.291 76.5341C74.5784 77.2779 74.3349 77.4721 73.4442 77.2111C66.7965 75.266 57.9894 73.2154 54.6726 72.8404L50.6018 72.3801V74.5419C50.6018 75.7312 50.2832 76.7037 49.8938 76.7037C48.7858 76.7037 49.0202 65.6936 50.1756 63.4727C51.3869 61.1434 53.6496 59.052 56.1529 57.9458C58.3766 56.9634 74.5911 56.6749 73.5752 57.6361ZM29.3628 59.7093C29.3628 60.8725 33.515 65.9849 35.7366 67.557C37.4457 68.7666 37.76 69.2958 37.0386 69.7504C36.3823 70.1642 36.6896 70.3521 38.0354 70.3598C39.8457 70.3697 39.9823 70.167 39.9823 67.4725C39.9823 65.0454 39.5363 64.132 37.234 61.8429C35.0542 59.6762 33.9554 59.1111 31.9242 59.1111C30.5154 59.1111 29.3628 59.3799 29.3628 59.7093ZM69.9051 60.2856C71.28 61.1223 69.4209 61.7029 66.0212 61.4981L62.2832 61.2729L66.1196 62.1314C71.1653 63.2609 71.8655 64.8547 67.1193 64.4072L63.6991 64.0842L67.1894 64.9673C71.8025 66.1348 72.5593 67.8708 68.2081 67.3057C65.1391 66.9067 65.1342 66.9096 67.5929 67.6562C68.9558 68.07 70.4694 68.5231 70.9557 68.6639C71.4428 68.8039 71.8407 69.2867 71.8407 69.7363C71.8407 70.5386 71.4775 70.5174 64.7611 69.3134C60.754 68.5949 63.8273 70.0868 68.4425 71.1001C70.6619 71.5871 72.6428 72.4139 72.8446 72.9375C73.3303 74.1957 73.0393 74.1683 64.9664 72.1951C61.1547 71.2627 56.7653 70.2845 55.2127 70.0206C52.5494 69.5674 52.4694 69.4837 53.7968 68.5421C56.7044 66.4803 59.685 63.2095 60.5522 61.1293C61.4414 58.9957 61.4832 58.9816 65.406 59.4665C67.5823 59.7353 69.6071 60.104 69.9051 60.2856ZM63.2127 66.6288C63.7232 66.8321 64.3342 66.8068 64.5692 66.5732C64.8042 66.3396 64.3865 66.1735 63.6404 66.2037C62.8156 66.2375 62.6478 66.4043 63.2127 66.6288Z" fill="#C4C4C4"/>
</svg>
