<svg width="180" height="80" viewBox="0 0 180 80" fill="none" xmlns="http://www.w3.org/2000/svg">
<path fill-rule="evenodd" clip-rule="evenodd" d="M28.7507 15.0542L13 24.1104V42.7648V61.4185L26.4627 69.1847C33.8672 73.4562 41.1075 77.6372 42.5522 78.4758L45.1791 80L61.2687 70.7115L77.3582 61.4237V42.77V24.117L61.597 15.0595C52.9284 10.0773 45.5357 6.00066 45.1686 6C44.8015 5.99869 37.4134 10.0734 28.7507 15.0542ZM59.3931 18.5351L73.1119 26.4791L72.9365 42.8848L72.7612 59.2906L59.2985 67.0679C51.894 71.346 45.5403 74.8459 45.1791 74.8459C44.8179 74.8459 38.4642 71.346 31.0597 67.0679L17.597 59.2906L17.4217 42.8862L17.2463 26.4824L30.8844 18.5554C38.3854 14.1953 44.7818 10.62 45.0983 10.6095C45.4155 10.5996 51.8481 14.1658 59.3931 18.5351ZM34.2178 21.3218C28.5504 24.6399 23.711 27.5565 23.4648 27.8032C23.2185 28.0493 24.1024 28.7684 25.429 29.4003C27.1923 30.2408 28.1426 30.3688 28.9582 29.8767C29.5722 29.5066 31.7 28.2894 33.6866 27.172L37.2985 25.1412L43.1098 28.5827C46.306 30.4757 48.8587 32.2952 48.7818 32.6266C48.7057 32.9573 46.7093 34.3057 44.3457 35.6232L40.0482 38.0182L42.6278 39.3331L45.2073 40.648L55.3727 34.7715C60.9633 31.54 65.9353 28.6615 66.4219 28.3754C67.0675 27.9961 66.6688 27.4797 64.943 26.4627L62.5795 25.069L58.6379 27.3774L54.6962 29.6857L48.4745 26.2075C45.0524 24.2948 42.2469 22.5822 42.2396 22.4018C42.2331 22.2214 43.8519 21.2253 45.8371 20.1886C47.823 19.1519 49.4478 18.0994 49.4478 17.8501C49.4478 17.4662 45.0839 15.0818 44.6642 15.2366C44.5861 15.2648 39.8853 18.0036 34.2178 21.3218ZM117.09 21.0383C117.09 21.3716 116.053 21.9858 114.786 22.4038C112.273 23.2318 111.179 24.697 111.179 27.2324C111.179 28.9246 113.856 31.5879 115.557 31.5879C116.061 31.5879 116.644 32.0308 116.852 32.5721C117.06 33.1135 117.642 33.5564 118.145 33.5564C118.648 33.5564 119.06 33.1135 119.06 32.5721C119.06 32.0308 119.618 31.5879 120.3 31.5879C122.434 31.5879 124.532 29.3655 124.532 27.1057C124.532 24.7488 122.724 22.4018 120.908 22.4018C120.23 22.4018 119.505 21.9589 119.297 21.4176C118.888 20.3539 117.09 20.0449 117.09 21.0383ZM91.4776 27.3229C91.4776 32.4626 91.5807 32.9002 92.791 32.9002C93.8891 32.9002 94.1045 32.4626 94.1045 30.2343C94.1045 27.6215 94.1472 27.5723 96.2388 27.7737C98.1873 27.9614 98.3909 28.193 98.5767 30.4396C98.71 32.0492 99.108 32.9002 99.726 32.9002C100.475 32.9002 100.672 31.7388 100.672 27.3229C100.672 22.9123 100.475 21.7456 99.7279 21.7456C99.1435 21.7456 98.7061 22.5573 98.5787 23.8781C98.3981 25.7534 98.1157 26.0356 96.2388 26.216C94.1918 26.4135 94.1045 26.3262 94.1045 24.0835C94.1045 22.1833 93.8589 21.7456 92.791 21.7456C91.5807 21.7456 91.4776 22.1833 91.4776 27.3229ZM103.299 27.3229V32.9002H106.582C109.063 32.9002 109.866 32.6594 109.866 31.916C109.866 31.2283 109.172 30.9318 107.567 30.9318C105.707 30.9318 105.269 30.6818 105.269 29.6195C105.269 28.5985 105.707 28.3071 107.239 28.3071C108.552 28.3071 109.209 27.9791 109.209 27.3229C109.209 26.6668 108.552 26.3387 107.239 26.3387C105.728 26.3387 105.269 26.0428 105.269 25.0677C105.269 24.1216 105.8 23.7449 107.352 23.5914C110.981 23.2338 110.405 21.7456 106.637 21.7456H103.299V27.3229ZM124.97 22.4635C124.97 22.8578 125.561 23.3355 126.284 23.5238C127.437 23.825 127.597 24.4188 127.597 28.3839C127.597 31.9613 127.802 32.9002 128.582 32.9002C129.363 32.9002 129.567 31.9573 129.567 28.3511C129.567 24.3788 129.733 23.7495 130.881 23.386C133.373 22.5954 132.183 21.7456 128.582 21.7456C126.406 21.7456 124.97 22.0311 124.97 22.4635ZM133.507 27.3229V32.9002H136.791C139.272 32.9002 140.075 32.6594 140.075 31.916C140.075 31.2283 139.381 30.9318 137.776 30.9318C135.941 30.9318 135.478 30.6759 135.478 29.6608C135.478 28.7146 136.009 28.338 137.561 28.1845C140.572 27.8879 140.798 26.3387 137.831 26.3387C135.916 26.3387 135.478 26.0946 135.478 25.0264C135.478 24.1701 135.916 23.7141 136.737 23.7141C138.453 23.7141 140.075 23.0422 140.075 22.3316C140.075 22.0094 138.597 21.7456 136.791 21.7456H133.507V27.3229ZM117.09 27.0336C117.09 29.1667 116.864 29.6195 115.799 29.6195C113.124 29.6195 112.691 25.1137 115.276 24.1878C116.673 23.6872 117.09 24.3401 117.09 27.0336ZM121.142 24.8C122.525 26.05 122.693 27.695 121.555 28.8321C119.933 30.4528 119.06 29.6949 119.06 26.6668C119.06 23.4326 119.346 23.1761 121.142 24.8ZM21.209 43.7582V56.5406L23.3433 57.8392L25.4776 59.1377L25.806 49.653L26.1343 40.1677L32.0448 43.6342L37.9552 47.1013L38.1371 56.7526L38.319 66.4046L40.4356 67.6939C41.6 68.4032 42.7506 68.9845 42.9929 68.9859C43.2352 68.9872 43.467 63.423 43.5078 56.6207C43.5642 47.2601 43.3777 44.0909 42.7394 43.5863C42.2751 43.2195 37.2414 40.2327 31.5522 36.948L21.209 30.9757V43.7582ZM58.0961 37.3784L47.3712 43.7267L47.2602 56.3576C47.1992 63.3049 47.297 68.9826 47.4776 68.9754C47.6582 68.9681 52.5343 66.2195 58.3134 62.8666L68.8209 56.7716L69.0153 52.3859L69.209 48.0009L66.881 49.3735C65.2753 50.3197 64.5522 51.2199 64.5522 52.2724C64.5522 53.5046 63.4312 54.439 58.7278 57.1286C55.525 58.9599 52.707 60.4585 52.466 60.4585C52.2257 60.4585 52.1127 57.4396 52.2158 53.75L52.403 47.0422L58.3134 43.5941L64.2239 40.1461L64.5522 41.772L64.8806 43.3973L67.0149 42.0955C69.1177 40.8127 69.1493 40.7209 69.1493 35.8627C69.1493 33.1509 69.0757 30.9541 68.9851 30.981C68.8944 31.0079 63.9947 33.8871 58.0961 37.3784ZM91.4776 43.0705C91.4776 48.2102 91.5807 48.6478 92.791 48.6478C93.9797 48.6478 94.1045 48.2102 94.1045 44.0548V39.4617H96.403H98.7015V44.0548C98.7015 47.7003 98.9051 48.6478 99.6866 48.6478C100.485 48.6478 100.672 47.5908 100.672 43.0705V37.4933H96.0746H91.4776V43.0705ZM103.299 43.0705C103.299 47.5908 103.485 48.6478 104.284 48.6478C104.932 48.6478 105.269 47.9995 105.269 46.7522C105.269 45.1072 105.571 44.8002 107.559 44.4275C109.67 44.0318 111.179 42.5266 111.179 40.8173C111.179 39.1855 108.504 37.4933 105.925 37.4933H103.299V43.0705ZM113.755 39.4112C109.165 43.9977 113.979 50.6399 120.482 48.6924C125.188 47.2843 126.431 42.789 123.051 39.4112C121.545 37.9073 120.543 37.4933 118.403 37.4933C116.263 37.4933 115.261 37.9073 113.755 39.4112ZM129.239 42.0863C127.965 44.6125 126.632 46.6794 126.275 46.6794C125.918 46.6794 125.627 47.7128 125.627 48.9759C125.627 51.5139 127.194 52.2278 127.787 49.9601C128.086 48.8184 128.683 48.6478 132.384 48.6478C136.157 48.6478 136.679 48.804 136.999 50.029C137.198 50.7888 137.75 51.2829 138.225 51.1261C139.435 50.7278 139.727 47.8795 138.644 47.0442C138.15 46.663 136.774 44.3586 135.586 41.9223C134.397 39.4866 133.004 37.4933 132.49 37.4933C131.975 37.4933 130.512 39.5601 129.239 42.0863ZM140.342 41.6926C142.318 45.2227 142.628 46.2463 142.049 47.327C141.447 48.4503 141.542 48.6478 142.686 48.6478C143.707 48.6478 144.517 47.5835 146.059 44.2188C147.175 41.7832 148.364 39.2727 148.701 38.6415C149.182 37.7426 149.053 37.4933 148.109 37.4933C147.325 37.4933 146.386 38.5582 145.424 40.5352L143.945 43.5764L142.41 40.6992C141.414 38.8344 140.355 37.7432 139.401 37.6002C137.994 37.3889 138.037 37.574 140.342 41.6926ZM150.582 43.0705C150.582 48.3099 150.666 48.6478 151.97 48.6478C153.139 48.6478 153.312 48.3368 153.069 46.6794C152.91 45.5967 153.004 44.7109 153.278 44.7109C153.552 44.7109 154.407 45.5967 155.179 46.6794C155.951 47.762 157.173 48.6478 157.895 48.6478C159.164 48.6478 159.157 48.5783 157.686 46.6118C156.849 45.4917 155.876 44.1722 155.523 43.6788C155.056 43.0259 155.458 42.1893 157.001 40.5988C159.437 38.0877 159.607 37.4933 157.891 37.4933C157.215 37.4933 155.959 38.5247 155.1 39.7852C154.241 41.0457 153.375 42.0791 153.177 42.0817C152.978 42.0843 152.936 41.0529 153.084 39.7898C153.316 37.8062 153.164 37.4933 151.967 37.4933C150.667 37.4933 150.582 37.8345 150.582 43.0705ZM160.433 38.4775C160.433 39.0188 160.876 39.4617 161.418 39.4617C162.199 39.4617 162.403 40.4092 162.403 44.0548C162.403 47.7003 162.607 48.6478 163.388 48.6478C164.17 48.6478 164.373 47.7003 164.373 44.0548C164.373 39.8994 164.498 39.4617 165.687 39.4617C166.416 39.4617 167 39.0241 167 38.4775C167 37.7341 166.197 37.4933 163.716 37.4933C161.235 37.4933 160.433 37.7341 160.433 38.4775ZM108.224 41.1021C108.224 41.9636 107.716 42.4866 106.746 42.6244C105.534 42.7963 105.269 42.5227 105.269 41.1021C105.269 39.6815 105.534 39.4079 106.746 39.5798C107.716 39.7176 108.224 40.2406 108.224 41.1021ZM120.767 39.9637C122.278 40.9715 123.074 43.3481 122.351 44.6958C121.568 46.159 119.668 47.3355 118.088 47.3355C116.802 47.3355 113.806 44.459 113.806 43.2241C113.806 40.6743 118.522 38.4657 120.767 39.9637ZM132.72 46.5567C131.272 46.6695 129.949 46.6242 129.781 46.4556C129.613 46.2876 130.124 44.8802 130.917 43.3277L132.358 40.505L133.856 43.4281L135.353 46.3513L132.72 46.5567ZM92.7405 55.8149C87.6864 60.8647 94.0178 68.1729 100.448 64.713C104.109 62.7432 103.095 61.7039 98.9675 63.1947C97.1904 63.837 96.5639 63.7806 95.1447 62.8515C93.1732 61.5609 92.8357 58.5393 94.4795 56.8963C95.6281 55.7487 99.0561 55.502 99.6866 56.5216C100.209 57.3654 102.642 57.3792 102.642 56.5387C102.642 55.5315 98.974 53.897 96.7136 53.897C95.3194 53.897 94.0434 54.5131 92.7405 55.8149ZM104.612 59.4743V65.0516H107.896C111.528 65.0516 112.417 63.9414 109.045 63.6166C107.417 63.4598 106.91 63.0995 106.91 62.0989C106.91 61.093 107.418 60.738 109.085 60.5779C111.847 60.3129 111.517 58.8936 108.626 58.6095C105.714 58.3234 106.044 56.2782 109.05 55.9882C110.367 55.8609 111.179 55.4232 111.179 54.8399C111.179 54.1457 110.312 53.897 107.896 53.897H104.612V59.4743ZM113.777 54.0611C113.761 54.1516 113.687 56.6614 113.613 59.6383C113.493 64.4086 113.614 65.0522 114.627 65.0516C115.466 65.0516 115.776 64.5201 115.776 63.0831C115.776 61.799 116.108 61.1147 116.73 61.1147C117.255 61.1147 118.437 60.7722 119.357 60.3529C120.639 59.7696 121.03 59.1042 121.03 57.5058C121.03 55.9075 120.639 55.2421 119.357 54.6588C117.924 54.0059 113.864 53.5716 113.777 54.0611ZM123 59.3975C123 64.6717 123.064 64.9112 124.564 65.1972C127.252 65.7104 130.523 64.2714 130.779 62.4637C130.913 61.513 130.561 60.536 129.915 60.0635C128.982 59.3818 128.949 59.0616 129.688 57.8516C130.453 56.599 130.374 56.29 129.002 55.1667C128.146 54.4659 126.454 53.897 125.226 53.897H123V59.3975ZM132.851 59.4743C132.851 64.3515 132.995 65.0509 134 65.0437C134.651 65.0391 136.289 63.4027 137.776 61.2708L140.403 57.5058L140.6 61.2787C140.744 64.047 141.051 65.0516 141.749 65.0516C142.506 65.0516 142.701 63.9092 142.701 59.4743C142.701 55.0322 142.507 53.897 141.747 53.897C140.91 53.897 138.049 57.1902 135.681 60.8804C135.027 61.8981 134.892 61.4237 134.86 57.998C134.829 54.8071 134.602 53.897 133.836 53.897C133.037 53.897 132.851 54.9541 132.851 59.4743ZM147.627 54.6897C144.284 56.605 143.675 60.5399 146.256 63.5385C148.4 66.0292 153.062 66.1769 155.325 63.8259L156.821 62.2728L154.851 62.7177C149.676 63.8869 149.407 63.8777 148.02 62.4919C146.286 60.7597 146.264 58.868 147.955 57.1778C149.329 55.8051 152.839 55.3924 153.537 56.5216C153.761 56.8825 154.591 57.1686 155.382 57.1568C156.757 57.1371 156.739 57.0643 154.978 55.5164C152.98 53.7605 149.861 53.4095 147.627 54.6897ZM118.731 57.5058C118.731 58.3674 118.224 58.8903 117.254 59.0281C116.041 59.2 115.776 58.9264 115.776 57.5058C115.776 56.0853 116.041 55.8117 117.254 55.9836C118.224 56.1214 118.731 56.6443 118.731 57.5058ZM127.474 57.349C127.625 58.1364 127.271 58.4901 126.332 58.4901C125.392 58.4901 124.97 58.0688 124.97 57.1299C124.97 55.4482 127.144 55.6391 127.474 57.349ZM128.467 61.3784C128.933 62.5936 128.369 63.0831 126.502 63.0831C125.408 63.0831 124.97 62.7085 124.97 61.7708C124.97 60.824 125.408 60.4585 126.542 60.4585C127.406 60.4585 128.272 60.8726 128.467 61.3784Z" fill="#C4C4C4"/>
</svg>
