<svg width="180" height="80" viewBox="0 0 180 80" fill="none" xmlns="http://www.w3.org/2000/svg">
<path fill-rule="evenodd" clip-rule="evenodd" d="M52.7983 8.43817C50.8854 11.4129 49.0836 15.2522 48.2928 18.0382C46.8213 23.2228 46.4549 28.4441 47.2026 33.5734C47.5633 36.0487 48.5846 39.7048 49.5912 42.1245C50.1504 43.4687 51.2582 45.5952 52.123 46.9842C52.5025 47.5938 53.079 48.4185 53.1248 48.4173C53.2255 48.4148 54.2806 46.7711 54.916 45.6267C57.0313 41.8172 58.5018 37.3593 59.0981 32.9476C59.3457 31.1162 59.412 30.1303 59.4114 28.2888C59.4105 25.5244 59.1354 23.2449 58.4053 19.9511C57.6988 16.7645 56.536 13.8159 54.7368 10.6486C54.2495 9.79104 53.1452 8 53.1036 8C53.0907 8 52.9533 8.19715 52.7983 8.43817ZM53.2447 11.4124C53.9931 12.63 55.3407 15.5798 56.0168 17.4805C57.1052 20.5398 57.7421 23.9956 57.9107 27.7562C57.9975 29.6912 57.8695 32.0103 57.5603 34.1046C57.3005 35.864 57.2946 35.8614 57.2559 33.9718C57.2371 33.0516 57.1973 32.0359 57.1675 31.7145C56.9062 28.9006 56.6023 27.1465 56.0301 25.1517C55.6142 23.7018 55.1652 22.3763 54.6408 21.0505C54.0009 19.4326 53.185 17.7472 53.0617 17.7884C52.9822 17.8149 52.3058 19.1741 51.933 20.0564C50.8707 22.5703 49.9339 25.6136 49.503 27.9511C49.1543 29.8416 48.9951 31.7245 48.8791 35.3261L48.8671 35.6979L48.7734 35.1137C48.6573 34.3903 48.4998 32.9972 48.407 31.8739C48.362 31.3277 48.3378 30.1795 48.3394 28.6606C48.3416 26.5561 48.3547 26.1916 48.4593 25.3342C48.6711 23.5962 49.022 21.6668 49.4045 20.1361C49.7961 18.5689 50.9945 15.3461 51.9326 13.3372C52.2456 12.667 53.0309 11.1336 53.0612 11.1336C53.0679 11.1336 53.1505 11.2591 53.2447 11.4124ZM43.5648 27.7611C36.9365 28.2286 30.9298 31.6077 27.0479 37.0527C24.8568 40.1259 23.514 43.7126 23.0909 47.6216C22.9696 48.7423 22.9697 50.9662 23.0911 52.0745C23.3923 54.8259 24.0671 57.1813 25.2465 59.5983C27.5896 64.4003 31.6514 68.2326 36.587 70.2982C40.4687 71.9227 44.8345 72.398 48.9997 71.6495C53.3999 70.8588 57.3895 68.7874 60.5719 65.6411L61.248 64.9727V57.4125V49.8523H53.1885H45.129V53.2817V56.7111L45.5134 56.3967C45.9951 56.0029 46.2884 55.8053 46.6932 55.6021C48.6802 54.6042 51.0587 54.7289 52.8936 55.927C53.4197 56.2704 54.1439 56.9473 54.5187 57.4456C55.3552 58.5579 55.7776 59.9584 55.719 61.4251C55.6523 63.0932 55.0507 64.4102 53.7755 65.6797C50.5107 68.9299 45.627 70.0605 41.1788 68.5959C38.0837 67.5768 35.4567 65.3059 33.9929 62.3841C33.4085 61.2177 33.0012 59.9373 32.7941 58.6158C32.7225 58.1589 32.6982 57.6971 32.6976 56.7834C32.6968 55.4196 32.759 54.8964 33.0637 53.7029C34.1206 49.5632 37.2645 46.2162 41.2926 44.9422C42.2273 44.6466 43.6493 44.3817 44.3016 44.3817C44.4569 44.3817 44.6947 44.3666 44.8299 44.348L45.076 44.3142V36.0094V27.7046L44.612 27.7123C44.3569 27.7165 43.8856 27.7384 43.5648 27.7611ZM53.4355 32.9627C53.8678 33.9001 54.3711 35.5395 54.591 36.7269C55.1312 39.6434 54.8974 42.5021 53.8982 45.1943C53.6493 45.865 53.1648 46.9311 53.109 46.9311C53.0423 46.9311 52.4505 45.6174 52.2357 44.9925C51.6884 43.4003 51.4113 41.8941 51.3074 39.9469C51.1946 37.8313 51.8524 34.8313 52.8766 32.7908C53.1298 32.2864 53.1226 32.2842 53.4355 32.9627ZM64.0582 60.9261V72H66.2586H68.4591V62.3071V52.6141H70.474H72.4888V51.2332V49.8523H68.2735H64.0582V60.9261ZM74.9035 50.078C74.8458 50.4993 72.6479 71.7282 72.6479 71.8646V72H74.7877H76.9276L76.959 71.6415C76.9763 71.4443 77.0647 70.1716 77.1554 68.8133C77.2461 67.4549 77.3312 66.2898 77.3446 66.2241C77.3689 66.1051 77.3734 66.1046 78.3987 66.1046H79.4283L79.4573 66.3303C79.4732 66.4545 79.5585 67.6315 79.6466 68.9461C79.7349 70.2606 79.8215 71.4855 79.8392 71.668L79.8714 72H82.0126C84.0496 72 84.1539 71.9953 84.1539 71.9031C84.1539 71.8499 83.6409 66.8777 83.0139 60.8539C82.3869 54.83 81.8739 49.8904 81.8739 49.8769C81.8739 49.8633 80.3125 49.8523 78.4041 49.8523H74.9344L74.9035 50.078ZM88.5283 49.9308C87.2993 50.159 86.5715 50.8708 86.2463 52.1627C86.1665 52.4797 86.1495 52.8606 86.1302 54.7519L86.1076 56.9693H88.3121H90.5167V55.0386C90.5167 53.1168 90.5172 53.107 90.6376 52.9281C90.8021 52.6835 90.9696 52.6054 91.2747 52.6308C91.5782 52.6562 91.8145 52.8509 91.8953 53.1422C91.9617 53.3816 91.964 57.7754 91.8979 58.2328C91.8292 58.7088 91.6667 59.0148 91.3997 59.1712C91.0826 59.3568 90.6319 59.4116 89.4164 59.412L88.3427 59.4124V60.6012V61.79L89.549 61.816C91.1501 61.8506 91.4994 61.9602 91.7861 62.5181L91.9218 62.7821V65.7336C91.9218 68.464 91.9148 68.6958 91.8282 68.8281C91.5264 69.2897 90.8498 69.279 90.6096 68.8088C90.5257 68.6448 90.5168 68.4176 90.5168 66.4365L90.5167 64.2456H88.3162H86.1157L86.116 66.5693C86.1162 69.0904 86.1524 69.5474 86.4056 70.2213C86.6748 70.9377 87.0702 71.3784 87.7141 71.6803C88.3547 71.9806 88.5494 71.9981 91.2325 71.9981C93.18 71.9981 93.7463 71.9824 94.0427 71.9198C95.1161 71.693 95.8749 70.9485 96.1587 69.8439C96.3284 69.1831 96.3563 68.5126 96.3355 65.6C96.3138 62.5539 96.3141 62.5579 96.0464 61.9616C95.8116 61.4385 95.3099 60.9888 94.7474 60.7972C94.5639 60.7347 94.1693 60.6565 93.8704 60.6235C93.4004 60.5715 93.3269 60.5501 93.3269 60.4659C93.3269 60.3852 93.3701 60.3683 93.5787 60.3676C93.9596 60.3661 94.5353 60.2283 94.891 60.0534C95.5207 59.7436 95.9107 59.2806 96.1737 58.5303L96.3205 58.1112L96.3394 55.8008C96.3593 53.3503 96.3219 52.6578 96.1327 51.9737C95.8128 50.8174 95.068 50.1403 93.8896 49.9345C93.2669 49.8257 89.1097 49.8228 88.5283 49.9308ZM99.2654 60.9261V72H101.466H103.666V62.3071V52.6141H104.382H105.098V62.3071V72H107.298H109.499V60.9261V49.8523H104.382H99.2654V60.9261ZM112.415 60.9239V72H114.615H116.815L116.829 68.2423L116.843 64.4846L118.566 64.4545C120.015 64.4291 120.335 64.4093 120.581 64.3299C121.319 64.0908 121.902 63.6113 122.22 62.9801C122.311 62.7989 122.439 62.4418 122.504 62.1867C122.622 61.7246 122.622 61.7055 122.622 57.1286L122.621 52.5344L122.502 52.1095C122.173 50.9377 121.566 50.2923 120.492 49.9739C120.214 49.8915 119.79 49.8805 116.299 49.865L112.415 49.8478V60.9239ZM128.13 49.9037C126.807 50.1059 126.033 50.8613 125.707 52.2689C125.598 52.7402 125.596 52.8558 125.578 60.5012C125.559 68.5536 125.571 69.121 125.778 69.8664C126.018 70.7334 126.495 71.3527 127.169 71.6751C127.811 71.9821 127.986 71.998 130.713 71.9991C132.989 72 133.215 71.9919 133.587 71.8965C134.707 71.6096 135.317 70.9887 135.652 69.7959L135.771 69.371L135.787 61.2183C135.799 55.4148 135.786 52.9431 135.744 52.6407C135.537 51.1567 134.894 50.3416 133.642 49.9751C133.373 49.8965 133.01 49.8832 130.867 49.8735C129.511 49.8673 128.279 49.8809 128.13 49.9037ZM138.715 60.9261V72H140.941H143.168V65.0689C143.168 58.9433 143.178 58.1378 143.248 58.1378C143.292 58.1378 143.329 58.1437 143.33 58.151C143.331 58.1584 143.84 61.2714 144.461 65.0689L145.59 71.9734H147.36H149.13L149.72 68.3884C150.044 66.4166 150.556 63.3036 150.857 61.4705C151.65 56.6472 151.599 56.4027 151.599 65.0689V72H153.8H156V60.9261V49.8523H153.122H150.244L148.814 57.6338C148.014 61.9858 147.368 65.3742 147.347 65.3218C147.314 65.2356 144.492 49.982 144.494 49.8921C144.494 49.8702 143.194 49.8523 141.604 49.8523H138.715V60.9261ZM78.5335 52.632C78.5335 52.6418 78.7005 55.0819 78.9046 58.0543C79.1088 61.0268 79.2758 63.5164 79.2758 63.5867V63.7145H78.4009H77.526L77.5258 63.5419C77.5255 63.3208 78.2054 53.2641 78.2457 52.8929C78.273 52.6415 78.2886 52.6141 78.4047 52.6141C78.4755 52.6141 78.5335 52.6221 78.5335 52.632ZM117.824 52.7336C117.921 52.7993 118.05 52.9487 118.11 53.0656C118.219 53.2746 118.221 53.3409 118.236 57.2243C118.246 59.8978 118.232 61.2384 118.194 61.381C118.119 61.6595 117.86 61.9467 117.62 62.0181C117.513 62.0498 117.295 62.068 117.134 62.0586L116.843 62.0415L116.829 57.3278L116.815 52.6141H117.232C117.577 52.6141 117.679 52.6347 117.824 52.7336ZM131.069 52.7217C131.418 52.9348 131.397 52.4182 131.397 60.9031C131.397 67.7206 131.388 68.6307 131.316 68.7787C131.08 69.2644 130.434 69.302 130.102 68.8492L129.992 68.6992V60.9355C129.992 54.3474 130.004 53.1447 130.068 52.9929C130.217 52.6372 130.712 52.5033 131.069 52.7217Z" fill="#B8B8B8"/>
</svg>
