<svg width="180" height="80" viewBox="0 0 180 80" fill="none" xmlns="http://www.w3.org/2000/svg">
<path d="M11.076 52H6.522V51.478C7.002 51.262 7.494 51.118 7.998 51.046V40.372C7.758 40.312 7.512 40.246 7.26 40.174C7.008 40.102 6.762 40.018 6.522 39.922V39.4H11.076V39.922C10.884 40.018 10.68 40.102 10.464 40.174C10.248 40.246 10.002 40.312 9.726 40.372V48.184L9.528 49.534L10.392 48.112L15.666 40.804V40.372C15.39 40.312 15.126 40.246 14.874 40.174C14.634 40.09 14.412 40.006 14.208 39.922V39.4H18.78V39.922C18.564 40.018 18.33 40.102 18.078 40.174C17.826 40.246 17.568 40.312 17.304 40.372V51.046C17.868 51.142 18.36 51.286 18.78 51.478V52H14.208V51.478C14.4 51.394 14.61 51.316 14.838 51.244C15.066 51.16 15.312 51.094 15.576 51.046V43.252L15.756 41.902L14.964 43.252L9.618 50.65V51.046C9.894 51.094 10.152 51.154 10.392 51.226C10.644 51.298 10.872 51.382 11.076 51.478V52ZM23.8786 52H20.0086V51.55C20.1766 51.454 20.3626 51.376 20.5666 51.316C20.7706 51.244 20.9806 51.178 21.1966 51.118V43.9C20.9806 43.84 20.7706 43.78 20.5666 43.72C20.3626 43.648 20.1766 43.564 20.0086 43.468V43H23.8786V43.468C23.6026 43.636 23.2486 43.78 22.8166 43.9V47.05H26.8126V43.9C26.3926 43.828 26.0326 43.684 25.7326 43.468V43H29.6206V43.468C29.2966 43.672 28.9006 43.816 28.4326 43.9V51.118C28.6486 51.166 28.8586 51.22 29.0626 51.28C29.2666 51.34 29.4526 51.43 29.6206 51.55V52H25.7326V51.55C26.0326 51.334 26.3926 51.19 26.8126 51.118V47.842H22.8166V51.118C23.0566 51.166 23.2606 51.226 23.4286 51.298C23.5966 51.37 23.7466 51.454 23.8786 51.55V52ZM36.1781 43H39.6521V43.468C39.5321 43.564 39.3701 43.648 39.1661 43.72C38.9741 43.792 38.7341 43.876 38.4461 43.972C38.0381 44.464 37.6061 44.962 37.1501 45.466C36.6941 45.97 36.2141 46.474 35.7101 46.978C35.9741 47.266 36.2501 47.584 36.5381 47.932C36.8381 48.28 37.1381 48.64 37.4381 49.012C37.7381 49.384 38.0381 49.75 38.3381 50.11C38.6381 50.47 38.9321 50.806 39.2201 51.118L40.0661 51.55V52H37.9601L37.3841 51.586C36.8441 50.938 36.3521 50.29 35.9081 49.642C35.4641 48.994 35.0141 48.358 34.5581 47.734H33.8381V51.118C34.0781 51.178 34.2941 51.244 34.4861 51.316C34.6901 51.376 34.8641 51.454 35.0081 51.55V52H31.0301V51.55C31.3541 51.358 31.7501 51.214 32.2181 51.118V43.9C31.7981 43.816 31.4021 43.672 31.0301 43.468V43H34.7201V43.468C34.6001 43.552 34.4681 43.63 34.3241 43.702C34.1921 43.774 34.0301 43.84 33.8381 43.9V47.266L34.6661 47.086C35.1461 46.534 35.6021 46.018 36.0341 45.538C36.4661 45.058 36.8681 44.536 37.2401 43.972C37.0361 43.888 36.8441 43.81 36.6641 43.738C36.4961 43.654 36.3341 43.564 36.1781 43.468V43ZM40.5935 47.5C40.5935 46.744 40.6895 46.078 40.8815 45.502C41.0855 44.914 41.3735 44.422 41.7455 44.026C42.1175 43.618 42.5615 43.312 43.0775 43.108C43.6055 42.892 44.1875 42.784 44.8235 42.784C45.5675 42.784 46.2095 42.898 46.7495 43.126C47.2895 43.354 47.7275 43.678 48.0635 44.098C48.4115 44.506 48.6635 44.998 48.8195 45.574C48.9875 46.15 49.0715 46.792 49.0715 47.5C49.0715 49.012 48.6875 50.176 47.9195 50.992C47.1515 51.808 46.1195 52.216 44.8235 52.216C44.1035 52.216 43.4795 52.108 42.9515 51.892C42.4235 51.664 41.9855 51.346 41.6375 50.938C41.2895 50.518 41.0255 50.02 40.8455 49.444C40.6775 48.856 40.5935 48.208 40.5935 47.5ZM42.3215 47.5C42.3215 48.04 42.3695 48.55 42.4655 49.03C42.5735 49.51 42.7355 49.93 42.9515 50.29C43.1795 50.638 43.4735 50.914 43.8335 51.118C44.1935 51.322 44.6255 51.424 45.1295 51.424C45.7775 51.424 46.3055 51.106 46.7135 50.47C47.1335 49.834 47.3435 48.844 47.3435 47.5C47.3435 46.948 47.2895 46.438 47.1815 45.97C47.0855 45.49 46.9295 45.076 46.7135 44.728C46.4975 44.368 46.2215 44.086 45.8855 43.882C45.5495 43.678 45.1475 43.576 44.6795 43.576C43.9715 43.576 43.4015 43.894 42.9695 44.53C42.5375 45.166 42.3215 46.156 42.3215 47.5ZM53.5307 52H50.3627V51.55C50.7587 51.358 51.1547 51.214 51.5507 51.118L51.8207 44.08C51.5687 43.984 51.3467 43.882 51.1547 43.774C50.9627 43.666 50.7887 43.564 50.6327 43.468V43H54.1427L55.9967 48.256L56.3387 49.498H56.3927L56.7707 48.238L58.6967 43H62.0987V43.468C61.9427 43.564 61.7687 43.648 61.5767 43.72C61.3847 43.792 61.1627 43.852 60.9107 43.9L61.2707 51.118C61.6667 51.19 62.0627 51.334 62.4587 51.55V52H58.6427V51.55C58.7627 51.49 58.9067 51.424 59.0747 51.352C59.2427 51.28 59.4587 51.202 59.7227 51.118L59.3627 43.828H59.2187L56.2667 52H55.7807L52.8647 43.828H52.7207L52.4507 51.118C52.8827 51.25 53.2427 51.394 53.5307 51.55V52ZM63.9774 45.7C63.9774 44.764 64.1034 43.9 64.3554 43.108C64.6194 42.304 64.9914 41.614 65.4714 41.038C65.9634 40.45 66.5634 39.994 67.2714 39.67C67.9794 39.346 68.7834 39.184 69.6834 39.184C70.5834 39.184 71.3874 39.346 72.0954 39.67C72.8034 39.994 73.3974 40.45 73.8774 41.038C74.3694 41.614 74.7414 42.304 74.9934 43.108C75.2574 43.9 75.3894 44.764 75.3894 45.7C75.3894 46.636 75.2574 47.506 74.9934 48.31C74.7414 49.102 74.3694 49.792 73.8774 50.38C73.3974 50.956 72.8034 51.406 72.0954 51.73C71.3874 52.054 70.5834 52.216 69.6834 52.216C68.7834 52.216 67.9794 52.054 67.2714 51.73C66.5634 51.406 65.9634 50.956 65.4714 50.38C64.9914 49.792 64.6194 49.102 64.3554 48.31C64.1034 47.506 63.9774 46.636 63.9774 45.7ZM65.9034 45.7C65.9034 46.468 65.9814 47.194 66.1374 47.878C66.3054 48.55 66.5514 49.138 66.8754 49.642C67.1994 50.146 67.6074 50.548 68.0994 50.848C68.5914 51.136 69.1734 51.28 69.8454 51.28C70.4574 51.28 70.9914 51.136 71.4474 50.848C71.9034 50.548 72.2754 50.146 72.5634 49.642C72.8634 49.138 73.0854 48.55 73.2294 47.878C73.3854 47.194 73.4634 46.468 73.4634 45.7C73.4634 44.932 73.3854 44.212 73.2294 43.54C73.0734 42.856 72.8334 42.262 72.5094 41.758C72.1854 41.254 71.7774 40.858 71.2854 40.57C70.7934 40.27 70.2114 40.12 69.5394 40.12C68.8794 40.12 68.3154 40.27 67.8474 40.57C67.3914 40.858 67.0194 41.254 66.7314 41.758C66.4434 42.262 66.2334 42.856 66.1014 43.54C65.9694 44.212 65.9034 44.932 65.9034 45.7ZM77.0497 52V51.55C77.3737 51.358 77.7697 51.214 78.2377 51.118V43.9C77.7817 43.828 77.3857 43.684 77.0497 43.468V43H80.9197V43.468C80.6437 43.636 80.2897 43.78 79.8577 43.9V51.208H83.6557V43.9C83.3317 43.828 82.9777 43.684 82.5937 43.468V43H86.4637V43.468C86.3077 43.552 86.1337 43.63 85.9417 43.702C85.7497 43.774 85.5277 43.84 85.2757 43.9V51.208H86.8777C86.8537 51.784 86.8237 52.36 86.7877 52.936C86.7637 53.512 86.7277 54.088 86.6797 54.664H86.2297L85.4197 52H77.0497ZM95.4323 50.74C95.3363 50.944 95.1863 51.136 94.9823 51.316C94.7783 51.496 94.5443 51.652 94.2803 51.784C94.0163 51.916 93.7283 52.018 93.4163 52.09C93.1043 52.174 92.7863 52.216 92.4623 52.216C91.7543 52.216 91.1303 52.108 90.5903 51.892C90.0503 51.664 89.6003 51.346 89.2403 50.938C88.8803 50.518 88.6043 50.02 88.4123 49.444C88.2323 48.868 88.1423 48.22 88.1423 47.5C88.1423 45.964 88.4963 44.794 89.2043 43.99C89.9123 43.186 90.9143 42.784 92.2103 42.784C92.6303 42.784 93.0443 42.844 93.4523 42.964C93.8603 43.072 94.2203 43.258 94.5323 43.522C94.8563 43.786 95.1143 44.14 95.3063 44.584C95.5103 45.016 95.6123 45.556 95.6123 46.204C95.6123 46.408 95.6003 46.618 95.5763 46.834C95.5643 47.038 95.5343 47.26 95.4863 47.5H89.8703C89.8703 48.004 89.9303 48.478 90.0503 48.922C90.1823 49.354 90.3743 49.732 90.6263 50.056C90.8783 50.38 91.1963 50.638 91.5803 50.83C91.9643 51.01 92.4143 51.1 92.9303 51.1C93.3503 51.1 93.7763 51.04 94.2083 50.92C94.6403 50.8 94.9643 50.644 95.1803 50.452L95.4323 50.74ZM92.1383 43.576C91.4543 43.576 90.9323 43.81 90.5723 44.278C90.2123 44.734 89.9963 45.544 89.9243 46.708H93.8843C93.8963 46.6 93.9023 46.498 93.9023 46.402C93.9143 46.294 93.9203 46.192 93.9203 46.096C93.9203 45.328 93.7763 44.716 93.4883 44.26C93.2003 43.804 92.7503 43.576 92.1383 43.576ZM101.029 52H97.159V51.55C97.327 51.454 97.513 51.376 97.717 51.316C97.921 51.244 98.131 51.178 98.347 51.118V43.9C98.131 43.84 97.921 43.78 97.717 43.72C97.513 43.648 97.327 43.564 97.159 43.468V43H101.029V43.468C100.753 43.636 100.399 43.78 99.967 43.9V47.05H103.963V43.9C103.543 43.828 103.183 43.684 102.883 43.468V43H106.771V43.468C106.447 43.672 106.051 43.816 105.583 43.9V51.118C105.799 51.166 106.009 51.22 106.213 51.28C106.417 51.34 106.603 51.43 106.771 51.55V52H102.883V51.55C103.183 51.334 103.543 51.19 103.963 51.118V47.842H99.967V51.118C100.207 51.166 100.411 51.226 100.579 51.298C100.747 51.37 100.897 51.454 101.029 51.55V52ZM113.329 43H116.803V43.468C116.683 43.564 116.521 43.648 116.317 43.72C116.125 43.792 115.885 43.876 115.597 43.972C115.189 44.464 114.757 44.962 114.301 45.466C113.845 45.97 113.365 46.474 112.861 46.978C113.125 47.266 113.401 47.584 113.689 47.932C113.989 48.28 114.289 48.64 114.589 49.012C114.889 49.384 115.189 49.75 115.489 50.11C115.789 50.47 116.083 50.806 116.371 51.118L117.217 51.55V52H115.111L114.535 51.586C113.995 50.938 113.503 50.29 113.059 49.642C112.615 48.994 112.165 48.358 111.709 47.734H110.989V51.118C111.229 51.178 111.445 51.244 111.637 51.316C111.841 51.376 112.015 51.454 112.159 51.55V52H108.181V51.55C108.505 51.358 108.901 51.214 109.369 51.118V43.9C108.949 43.816 108.553 43.672 108.181 43.468V43H111.871V43.468C111.751 43.552 111.619 43.63 111.475 43.702C111.343 43.774 111.181 43.84 110.989 43.9V47.266L111.817 47.086C112.297 46.534 112.753 46.018 113.185 45.538C113.617 45.058 114.019 44.536 114.391 43.972C114.187 43.888 113.995 43.81 113.815 43.738C113.647 43.654 113.485 43.564 113.329 43.468V43ZM124.597 49.642C124.597 49.906 124.603 50.134 124.615 50.326C124.627 50.518 124.639 50.722 124.651 50.938L125.893 51.118V51.496C125.593 51.652 125.257 51.79 124.885 51.91C124.525 52.03 124.177 52.12 123.841 52.18H123.391C123.271 51.904 123.199 51.604 123.175 51.28C123.151 50.944 123.133 50.578 123.121 50.182H123.031C122.983 50.422 122.887 50.668 122.743 50.92C122.611 51.16 122.431 51.376 122.203 51.568C121.987 51.76 121.729 51.916 121.429 52.036C121.129 52.156 120.787 52.216 120.403 52.216C119.671 52.216 119.071 51.994 118.603 51.55C118.147 51.106 117.919 50.524 117.919 49.804C117.919 49.252 118.027 48.802 118.243 48.454C118.471 48.094 118.801 47.812 119.233 47.608C119.665 47.404 120.199 47.26 120.835 47.176C121.471 47.08 122.209 47.008 123.049 46.96C123.097 46.444 123.109 45.982 123.085 45.574C123.073 45.154 123.007 44.8 122.887 44.512C122.779 44.212 122.611 43.984 122.383 43.828C122.167 43.66 121.879 43.576 121.519 43.576C121.351 43.576 121.159 43.588 120.943 43.612C120.739 43.624 120.535 43.672 120.331 43.756L119.485 45.916H119.017C118.897 45.556 118.789 45.184 118.693 44.8C118.609 44.416 118.555 44.038 118.531 43.666C118.987 43.39 119.491 43.174 120.043 43.018C120.607 42.862 121.231 42.784 121.915 42.784C122.527 42.784 123.013 42.874 123.373 43.054C123.745 43.222 124.027 43.444 124.219 43.72C124.411 43.996 124.537 44.302 124.597 44.638C124.657 44.974 124.687 45.31 124.687 45.646C124.687 46.366 124.669 47.062 124.633 47.734C124.609 48.394 124.597 49.03 124.597 49.642ZM121.123 51.1C121.423 51.1 121.687 51.04 121.915 50.92C122.143 50.8 122.335 50.656 122.491 50.488C122.647 50.32 122.773 50.152 122.869 49.984C122.965 49.804 123.031 49.654 123.067 49.534V47.644C122.371 47.644 121.801 47.68 121.357 47.752C120.913 47.824 120.565 47.938 120.313 48.094C120.061 48.25 119.887 48.448 119.791 48.688C119.695 48.916 119.647 49.18 119.647 49.48C119.647 49.996 119.779 50.398 120.043 50.686C120.307 50.962 120.667 51.1 121.123 51.1Z" fill="#C4C4C4"/>
<path fill-rule="evenodd" clip-rule="evenodd" d="M150.841 31.8741C148.416 34.2991 148.307 36.1971 150.467 38.3571C152.985 40.8751 157.118 39.9061 158.302 36.5191C159.161 34.0651 158.972 33.3991 156.96 31.7691C154.019 29.3871 153.316 29.3991 150.841 31.8741ZM130.008 33.6651C130.191 34.0991 133.871 40.1741 138.185 47.1651L146.029 59.8741L153.685 59.8711L161.341 59.8691L169.341 47.2171C173.741 40.2581 177.491 34.1841 177.674 33.7191C177.858 33.2541 174.632 32.8741 170.506 32.8741H163.004L158.673 39.8331C156.29 43.6611 154.107 46.8111 153.821 46.8331C153.535 46.8561 151.357 43.7241 148.982 39.8741L144.662 32.8741H137.168C133.047 32.8741 129.824 33.2301 130.008 33.6651ZM173.841 35.3421C173.841 35.6001 170.754 40.5941 166.98 46.4421L160.119 57.0731L157.98 54.0691C156.804 52.4171 155.841 50.5391 155.841 49.8951C155.841 49.2511 157.857 45.6081 160.321 41.7991C164.775 34.9141 164.827 34.8741 169.321 34.8741C171.807 34.8741 173.841 35.0851 173.841 35.3421Z" fill="#C4C4C4"/>
<circle cx="153.5" cy="34.5" r="5.5" fill="#D9D9D9"/>
</svg>
