<svg width="280" height="114" viewBox="0 0 280 114" fill="none" xmlns="http://www.w3.org/2000/svg">
<path fill-rule="evenodd" clip-rule="evenodd" d="M218.756 10.5744C216.168 11.986 209.089 15.8372 203.025 19.1324L192 25.1239L192.021 57.3664C192.042 88.0972 192.049 89.6356 192.179 90.1765C192.684 92.2753 193.513 93.8436 194.859 95.2451C196.292 96.7372 197.926 97.6533 200.463 98.3858C203.116 99.1518 205.074 99.4514 209.876 99.8257C213.29 100.092 214.395 100.244 215.966 100.664C218.197 101.26 220.623 102.59 222.022 103.985C222.416 104.378 223.038 105.167 223.265 105.563L223.515 106L223.669 105.713C224.229 104.668 225.461 103.423 226.795 102.553C227.869 101.852 229.488 101.113 230.763 100.741C232.327 100.285 233.658 100.094 237.158 99.8235C238.517 99.7184 240.09 99.5818 240.653 99.52C243.951 99.1586 247.233 98.3544 249.1 97.45C251.979 96.0554 253.866 93.7675 254.723 90.6305L254.961 89.7603L254.98 57.4378L255 25.1154L249.288 22.0108C246.146 20.3034 239.057 16.4506 233.535 13.4492C228.012 10.4478 223.487 7.99569 223.478 8.00001C223.469 8.00432 221.344 9.16277 218.756 10.5744ZM223.453 11.0759C223.476 11.2736 223.518 13.2649 223.545 15.501C223.594 19.4407 223.6 19.568 223.743 19.6133C223.824 19.639 223.91 19.6413 223.933 19.6183C223.956 19.5954 224.465 17.8163 225.065 15.6647C225.664 13.5132 226.17 11.7369 226.19 11.7174C226.257 11.6506 227.295 11.9438 227.296 12.0301C227.297 12.0776 226.813 13.8612 226.22 15.9937C225.627 18.1262 225.166 19.8949 225.196 19.9243C225.225 19.9537 225.295 19.9288 225.351 19.8688C225.407 19.8088 226.4 18.3125 227.558 16.5435C228.716 14.7746 229.689 13.3001 229.72 13.2668C229.81 13.1709 230.72 13.7624 230.686 13.8949C230.67 13.9573 229.713 15.4435 228.558 17.1976C227.404 18.9516 226.46 20.4178 226.46 20.4557C226.46 20.4936 226.661 20.666 226.907 20.8389L227.354 21.1532L229.95 18.317L232.546 15.4809L232.998 15.8719L233.451 16.2629L233.232 16.4978C233.111 16.627 231.927 17.9194 230.6 19.3698C228.333 21.8486 228.194 22.0173 228.28 22.1791L228.373 22.3512L229.599 21.8603C230.273 21.5903 232.014 20.8992 233.469 20.3245L236.113 19.2795L236.286 19.671C236.381 19.8863 236.481 20.1333 236.508 20.2199C236.553 20.3657 236.279 20.487 232.764 21.877C229.299 23.2472 228.978 23.3888 229.047 23.5169C229.119 23.6511 229.323 23.6571 233.787 23.6571H238.452V24.3382V25.0193H222.855H207.257V24.3382V23.6571H212.145C216.637 23.6571 217.036 23.6469 217.081 23.531C217.108 23.4616 217.103 23.38 217.07 23.3497C217.037 23.3194 215.279 22.7581 213.164 22.1023C211.048 21.4465 209.28 20.8876 209.236 20.8602C209.117 20.7867 209.482 19.7543 209.619 19.778C209.677 19.7881 211.532 20.3581 213.741 21.0446C215.951 21.7311 217.762 22.2848 217.765 22.275C217.768 22.2651 217.832 22.1851 217.906 22.097C218.039 21.9388 218.007 21.9026 215.19 18.9942C213.623 17.3758 212.349 16.0174 212.36 15.9756C212.372 15.9338 212.555 15.7376 212.769 15.5395L213.157 15.1795L216.019 18.13L218.881 21.0806L219.1 20.9194L219.318 20.7583L219.137 20.4482C219.038 20.2777 218.137 18.7419 217.136 17.0354C215.772 14.7113 215.338 13.912 215.404 13.85C215.453 13.8044 215.682 13.6635 215.913 13.5367L216.333 13.3061L218.341 16.7293C219.971 19.5082 220.374 20.1457 220.484 20.117C220.568 20.0951 220.605 20.0346 220.581 19.9585C220.434 19.4875 218.574 12.0456 218.598 12.0216C218.615 12.0049 218.873 11.9287 219.172 11.8522C219.567 11.7507 219.723 11.7368 219.744 11.8011C219.76 11.8497 220.203 13.5922 220.729 15.6733C221.254 17.7544 221.7 19.5104 221.72 19.5756C221.748 19.6684 221.825 19.6847 222.078 19.6507C222.396 19.6078 222.399 19.6043 222.395 19.3052C222.392 19.139 222.362 17.1385 222.328 14.8597L222.267 10.7165H222.839H223.41L223.453 11.0759ZM253.996 26.4382L253.974 27.1004H223.272H192.571L192.549 26.4382L192.527 25.776H223.272H254.018L253.996 26.4382ZM220.426 28.5473C221.371 28.7774 222.312 29.3772 222.881 30.1124C224.542 32.2589 224.361 36.1019 222.512 37.9564C221.703 38.7682 220.674 39.1268 219.174 39.1209C218.369 39.1178 218.135 39.0879 217.637 38.9251C216.407 38.5232 215.659 37.8031 215.1 36.4842C215.012 36.2761 214.918 36.002 214.891 35.8752L214.842 35.6445L215.357 35.5175C215.64 35.4475 215.945 35.3696 216.034 35.3442C216.178 35.3032 216.215 35.3533 216.36 35.7858C216.563 36.3955 216.853 36.8538 217.273 37.2306C217.7 37.6131 218.13 37.7961 218.8 37.8799C219.881 38.0153 220.767 37.7281 221.432 37.0263C222.013 36.4136 222.352 35.6439 222.477 34.6491L222.528 34.2518H220.585H218.642V33.6085V32.9653H220.54H222.437V32.7541C222.437 32.4592 222.232 31.7016 222.051 31.326C221.858 30.9264 221.354 30.353 221.002 30.1322C220.381 29.7434 219.438 29.576 218.616 29.7085C217.966 29.8131 217.462 30.0635 217.103 30.4593C216.815 30.7776 216.441 31.4406 216.441 31.634C216.441 31.8257 216.335 31.8275 215.677 31.6464C215.058 31.476 215.038 31.4636 215.054 31.2558C215.084 30.8554 215.541 30.0675 216.021 29.5881C216.724 28.885 217.532 28.5231 218.604 28.4311C219.289 28.3724 219.857 28.4087 220.426 28.5473ZM213.178 33.7599V38.9437H212.457H211.735V34.4031V29.8626H209.079H206.422V34.4031V38.9437H205.701H204.98V33.7599V28.5761H209.079H213.178V33.7599ZM233.974 33.7599V38.9437H233.253H232.532V34.4031V29.8626H229.876H227.219V34.4031V38.9437H226.498H225.777V33.7599V28.5761H229.876H233.974V33.7599ZM237.617 33.1166V37.6572H240.274H242.93V33.1166V28.5761H243.652H244.373V33.113V37.65L244.847 37.6725L245.321 37.695L245.342 38.735L245.364 39.7749L249.669 39.7945L253.974 39.814L253.996 40.4761L254.018 41.1383H223.272H192.527L192.549 40.4761L192.571 39.814L218.32 39.795L244.069 39.7759V39.3598V38.9437H240.122H236.175V33.7599V28.5761H236.896H237.617V33.1166ZM210.825 60.3222V75.798H208.813H206.802V60.3222V44.8464H208.813H210.825V60.3222ZM218.624 60.3411L218.643 75.798H216.593H214.544V60.3727C214.544 51.8887 214.567 44.9241 214.596 44.8956C214.624 44.8673 215.538 44.853 216.626 44.8642L218.604 44.8843L218.624 60.3411ZM226.384 60.3222V75.798H224.373H222.361V60.3222V44.8464H224.373H226.384V60.3222ZM234.183 60.3411L234.202 75.798H232.191H230.179V60.3209V44.8439L232.172 44.8641L234.164 44.8843L234.183 60.3411ZM241.944 60.3222V75.798H239.932H237.921V60.3222V44.8464H239.932H241.944V60.3222ZM253.974 80.0359V80.6791H223.272H192.571L192.548 80.1187C192.536 79.8104 192.543 79.5123 192.565 79.4563C192.597 79.3713 197.644 79.3577 223.289 79.3736L253.974 79.3926V80.0359ZM212.457 83.5869C213.898 83.7986 214.85 84.6737 215.085 86.0027C215.246 86.916 214.905 87.9062 214.102 88.8565C213.853 89.1503 213.161 89.8144 212.563 90.3322C210.941 91.7381 210.659 91.9957 210.378 92.3304L210.122 92.636L212.617 92.6738L215.113 92.7116L215.135 93.336L215.157 93.9603H211.69H208.223L208.266 93.5473C208.363 92.6061 209.214 91.5055 211.013 89.9952C212.613 88.6512 213.375 87.7999 213.621 87.0814C213.76 86.6762 213.731 85.9751 213.562 85.6446C212.98 84.5087 211.118 84.3244 210.291 85.3211C210.05 85.6118 209.838 86.1927 209.838 86.5629C209.838 86.7347 209.81 86.7733 209.705 86.7437C209.632 86.7232 209.325 86.6833 209.022 86.6553C208.388 86.5966 208.388 86.596 208.589 85.8221C209.009 84.2012 210.556 83.3077 212.457 83.5869ZM220.568 83.6297C221.198 83.7628 221.621 83.9993 222.039 84.4512C222.928 85.413 223.341 87.0956 223.249 89.3819C223.17 91.3523 222.814 92.4552 221.986 93.289C221.607 93.6717 221.383 93.8293 221.044 93.9533C220.12 94.2909 219.153 94.2327 218.314 93.7887C217.062 93.1264 216.441 91.4628 216.442 88.7784C216.443 86.159 217.122 84.5033 218.464 83.8489C219.121 83.5279 219.767 83.4607 220.568 83.6297ZM229.094 83.7563C230.014 84.0995 230.755 85.1059 231.09 86.4684C231.396 87.7095 231.374 90.1578 231.046 91.4453C230.878 92.1074 230.441 92.9303 230.053 93.317C228.906 94.461 226.883 94.4618 225.737 93.3186C224.927 92.5114 224.487 90.9379 224.487 88.8521C224.487 87.3703 224.724 86.0603 225.141 85.2403C225.563 84.4086 226.423 83.743 227.268 83.5924C227.781 83.5012 228.61 83.5757 229.094 83.7563ZM239.439 84.2297C239.439 84.6977 239.426 84.7301 239.091 85.1189C238.587 85.7027 237.695 87.0636 237.213 87.9819C236.336 89.6566 235.716 91.5768 235.547 93.1468L235.459 93.9603H234.755C234.241 93.9603 234.051 93.9347 234.052 93.8657C234.052 93.8137 234.101 93.4114 234.16 92.9719C234.504 90.3925 235.579 87.7707 237.168 85.6343L237.617 85.0305H235.112H232.608V84.3873V83.744H236.024H239.439V84.2297ZM219.383 84.7275C218.86 84.8847 218.443 85.2985 218.201 85.9008C217.733 87.066 217.689 90.1959 218.12 91.5876C218.557 92.9972 220.015 93.5003 220.983 92.5753C221.512 92.0697 221.714 91.4454 221.839 89.9208C221.935 88.764 221.844 87.071 221.647 86.3349C221.322 85.123 220.354 84.436 219.383 84.7275ZM227.342 84.7635C226.946 84.9043 226.505 85.348 226.308 85.8045C226.002 86.5129 225.906 87.2358 225.902 88.8521C225.897 90.9417 226.068 91.7751 226.632 92.4138C227.384 93.2657 228.42 93.2657 229.172 92.4138C229.739 91.7714 229.907 90.9438 229.902 88.8143C229.897 86.5736 229.688 85.7237 228.993 85.1134C228.503 84.6834 227.917 84.5592 227.342 84.7635Z" fill="#B8B8B8"/>
<path d="M16.6303 51V42.6H23.8663V51H22.6903V43.332L22.9783 43.644H17.5183L17.8183 43.332V51H16.6303ZM29.6657 51.072C29.1377 51.072 28.6537 50.952 28.2137 50.712C27.7817 50.464 27.4337 50.1 27.1697 49.62C26.9137 49.14 26.7857 48.54 26.7857 47.82C26.7857 47.1 26.9097 46.5 27.1577 46.02C27.4137 45.54 27.7577 45.18 28.1897 44.94C28.6297 44.7 29.1217 44.58 29.6657 44.58C30.2897 44.58 30.8417 44.716 31.3217 44.988C31.8017 45.26 32.1817 45.64 32.4617 46.128C32.7417 46.608 32.8817 47.172 32.8817 47.82C32.8817 48.468 32.7417 49.036 32.4617 49.524C32.1817 50.012 31.8017 50.392 31.3217 50.664C30.8417 50.936 30.2897 51.072 29.6657 51.072ZM26.2937 53.328V44.64H27.3977V46.356L27.3257 47.832L27.4457 49.308V53.328H26.2937ZM29.5697 50.064C29.9777 50.064 30.3417 49.972 30.6617 49.788C30.9897 49.604 31.2457 49.344 31.4297 49.008C31.6217 48.664 31.7177 48.268 31.7177 47.82C31.7177 47.364 31.6217 46.972 31.4297 46.644C31.2457 46.308 30.9897 46.048 30.6617 45.864C30.3417 45.68 29.9777 45.588 29.5697 45.588C29.1697 45.588 28.8057 45.68 28.4777 45.864C28.1577 46.048 27.9017 46.308 27.7097 46.644C27.5257 46.972 27.4337 47.364 27.4337 47.82C27.4337 48.268 27.5257 48.664 27.7097 49.008C27.9017 49.344 28.1577 49.604 28.4777 49.788C28.8057 49.972 29.1697 50.064 29.5697 50.064ZM34.5555 51V44.64H35.7075V49.272L39.6075 44.64H40.6515V51H39.4995V46.368L35.6115 51H34.5555ZM42.8875 51V44.64H44.0755L46.8115 49.344H46.3315L49.1395 44.64H50.2195V51H49.1755V45.936L49.3675 46.044L46.7995 50.28H46.2955L43.7155 45.96L43.9435 45.912V51H42.8875ZM55.1857 51.072C54.5457 51.072 53.9777 50.932 53.4817 50.652C52.9857 50.372 52.5937 49.988 52.3057 49.5C52.0177 49.004 51.8737 48.444 51.8737 47.82C51.8737 47.188 52.0177 46.628 52.3057 46.14C52.5937 45.652 52.9857 45.272 53.4817 45C53.9777 44.72 54.5457 44.58 55.1857 44.58C55.8177 44.58 56.3817 44.72 56.8777 45C57.3817 45.272 57.7737 45.652 58.0537 46.14C58.3417 46.62 58.4857 47.18 58.4857 47.82C58.4857 48.452 58.3417 49.012 58.0537 49.5C57.7737 49.988 57.3817 50.372 56.8777 50.652C56.3817 50.932 55.8177 51.072 55.1857 51.072ZM55.1857 50.064C55.5937 50.064 55.9577 49.972 56.2777 49.788C56.6057 49.604 56.8617 49.344 57.0457 49.008C57.2297 48.664 57.3217 48.268 57.3217 47.82C57.3217 47.364 57.2297 46.972 57.0457 46.644C56.8617 46.308 56.6057 46.048 56.2777 45.864C55.9577 45.68 55.5937 45.588 55.1857 45.588C54.7777 45.588 54.4137 45.68 54.0937 45.864C53.7737 46.048 53.5177 46.308 53.3257 46.644C53.1337 46.972 53.0377 47.364 53.0377 47.82C53.0377 48.268 53.1337 48.664 53.3257 49.008C53.5177 49.344 53.7737 49.604 54.0937 49.788C54.4137 49.972 54.7777 50.064 55.1857 50.064ZM63.5212 51.072C62.9932 51.072 62.5092 50.952 62.0692 50.712C61.6372 50.464 61.2892 50.1 61.0252 49.62C60.7692 49.14 60.6412 48.54 60.6412 47.82C60.6412 47.1 60.7652 46.5 61.0132 46.02C61.2692 45.54 61.6132 45.18 62.0452 44.94C62.4852 44.7 62.9772 44.58 63.5212 44.58C64.1452 44.58 64.6972 44.716 65.1772 44.988C65.6572 45.26 66.0372 45.64 66.3172 46.128C66.5972 46.608 66.7372 47.172 66.7372 47.82C66.7372 48.468 66.5972 49.036 66.3172 49.524C66.0372 50.012 65.6572 50.392 65.1772 50.664C64.6972 50.936 64.1452 51.072 63.5212 51.072ZM60.1492 53.328V44.64H61.2532V46.356L61.1812 47.832L61.3012 49.308V53.328H60.1492ZM63.4252 50.064C63.8332 50.064 64.1972 49.972 64.5172 49.788C64.8452 49.604 65.1012 49.344 65.2852 49.008C65.4772 48.664 65.5732 48.268 65.5732 47.82C65.5732 47.364 65.4772 46.972 65.2852 46.644C65.1012 46.308 64.8452 46.048 64.5172 45.864C64.1972 45.68 63.8332 45.588 63.4252 45.588C63.0252 45.588 62.6612 45.68 62.3332 45.864C62.0132 46.048 61.7572 46.308 61.5652 46.644C61.3812 46.972 61.2892 47.364 61.2892 47.82C61.2892 48.268 61.3812 48.664 61.5652 49.008C61.7572 49.344 62.0132 49.604 62.3332 49.788C62.6612 49.972 63.0252 50.064 63.4252 50.064ZM71.1829 51.072C70.5349 51.072 69.9549 50.932 69.4429 50.652C68.9389 50.372 68.5429 49.988 68.2549 49.5C67.9669 49.012 67.8229 48.452 67.8229 47.82C67.8229 47.188 67.9669 46.628 68.2549 46.14C68.5429 45.652 68.9389 45.272 69.4429 45C69.9549 44.72 70.5349 44.58 71.1829 44.58C71.7589 44.58 72.2709 44.696 72.7189 44.928C73.1749 45.152 73.5269 45.488 73.7749 45.936L72.8989 46.5C72.6909 46.188 72.4349 45.96 72.1309 45.816C71.8349 45.664 71.5149 45.588 71.1709 45.588C70.7549 45.588 70.3829 45.68 70.0549 45.864C69.7269 46.048 69.4669 46.308 69.2749 46.644C69.0829 46.972 68.9869 47.364 68.9869 47.82C68.9869 48.276 69.0829 48.672 69.2749 49.008C69.4669 49.344 69.7269 49.604 70.0549 49.788C70.3829 49.972 70.7549 50.064 71.1709 50.064C71.5149 50.064 71.8349 49.992 72.1309 49.848C72.4349 49.696 72.6909 49.464 72.8989 49.152L73.7749 49.704C73.5269 50.144 73.1749 50.484 72.7189 50.724C72.2709 50.956 71.7589 51.072 71.1829 51.072ZM79.8744 51L77.4144 47.904L78.3624 47.328L81.2304 51H79.8744ZM75.2664 51V44.64H76.4184V51H75.2664ZM76.0704 48.312V47.328H78.1704V48.312H76.0704ZM78.4584 47.952L77.3904 47.808L79.8264 44.64H81.0624L78.4584 47.952ZM82.4383 51V44.64H83.5903V49.272L87.4903 44.64H88.5343V51H87.3823V46.368L83.4943 51H82.4383ZM90.7703 51V44.64H91.9223V49.272L95.8223 44.64H96.8663V51H95.7143V46.368L91.8263 51H90.7703ZM93.7463 43.812C93.1623 43.812 92.7023 43.672 92.3663 43.392C92.0383 43.104 91.8703 42.692 91.8623 42.156H92.6423C92.6503 42.46 92.7503 42.7 92.9423 42.876C93.1423 43.052 93.4063 43.14 93.7343 43.14C94.0623 43.14 94.3263 43.052 94.5263 42.876C94.7263 42.7 94.8303 42.46 94.8383 42.156H95.6423C95.6343 42.692 95.4623 43.104 95.1263 43.392C94.7903 43.672 94.3303 43.812 93.7463 43.812ZM103.753 47.22V46.236H108.253V47.22H103.753ZM104.833 42.504C105.441 42.504 106.001 42.612 106.513 42.828C107.025 43.036 107.469 43.336 107.845 43.728C108.229 44.112 108.525 44.564 108.733 45.084C108.949 45.604 109.057 46.176 109.057 46.8C109.057 47.424 108.949 47.996 108.733 48.516C108.525 49.036 108.229 49.492 107.845 49.884C107.469 50.268 107.025 50.568 106.513 50.784C106.001 50.992 105.441 51.096 104.833 51.096C104.161 51.096 103.541 50.984 102.973 50.76C102.413 50.536 101.941 50.208 101.557 49.776L102.313 49.02C102.649 49.364 103.021 49.616 103.429 49.776C103.845 49.936 104.293 50.016 104.773 50.016C105.213 50.016 105.621 49.936 105.997 49.776C106.373 49.616 106.697 49.396 106.969 49.116C107.249 48.828 107.465 48.488 107.617 48.096C107.769 47.696 107.845 47.264 107.845 46.8C107.845 46.336 107.769 45.908 107.617 45.516C107.465 45.116 107.249 44.776 106.969 44.496C106.697 44.208 106.373 43.984 105.997 43.824C105.621 43.664 105.213 43.584 104.773 43.584C104.293 43.584 103.845 43.664 103.429 43.824C103.021 43.984 102.649 44.236 102.313 44.58L101.557 43.824C101.941 43.392 102.413 43.064 102.973 42.84C103.541 42.616 104.161 42.504 104.833 42.504ZM115.417 51L112.957 47.904L113.905 47.328L116.773 51H115.417ZM110.809 51V44.64H111.961V51H110.809ZM111.613 48.312V47.328H113.713V48.312H111.613ZM114.001 47.952L112.933 47.808L115.369 44.64H116.605L114.001 47.952ZM120.542 51.072C119.894 51.072 119.314 50.932 118.802 50.652C118.298 50.372 117.902 49.988 117.614 49.5C117.326 49.012 117.182 48.452 117.182 47.82C117.182 47.188 117.326 46.628 117.614 46.14C117.902 45.652 118.298 45.272 118.802 45C119.314 44.72 119.894 44.58 120.542 44.58C121.118 44.58 121.63 44.696 122.078 44.928C122.534 45.152 122.886 45.488 123.134 45.936L122.258 46.5C122.05 46.188 121.794 45.96 121.49 45.816C121.194 45.664 120.874 45.588 120.53 45.588C120.114 45.588 119.742 45.68 119.414 45.864C119.086 46.048 118.826 46.308 118.634 46.644C118.442 46.972 118.346 47.364 118.346 47.82C118.346 48.276 118.442 48.672 118.634 49.008C118.826 49.344 119.086 49.604 119.414 49.788C119.742 49.972 120.114 50.064 120.53 50.064C120.874 50.064 121.194 49.992 121.49 49.848C121.794 49.696 122.05 49.464 122.258 49.152L123.134 49.704C122.886 50.144 122.534 50.484 122.078 50.724C121.63 50.956 121.118 51.072 120.542 51.072ZM124.626 51V44.64H130.518V51H129.366V45.36L129.642 45.648H125.502L125.778 45.36V51H124.626ZM135.579 51.072C134.899 51.072 134.299 50.932 133.779 50.652C133.267 50.372 132.867 49.988 132.579 49.5C132.299 49.012 132.159 48.452 132.159 47.82C132.159 47.188 132.295 46.628 132.567 46.14C132.847 45.652 133.227 45.272 133.707 45C134.195 44.72 134.743 44.58 135.351 44.58C135.967 44.58 136.511 44.716 136.983 44.988C137.455 45.26 137.823 45.644 138.087 46.14C138.359 46.628 138.495 47.2 138.495 47.856C138.495 47.904 138.491 47.96 138.483 48.024C138.483 48.088 138.479 48.148 138.471 48.204H133.059V47.376H137.871L137.403 47.664C137.411 47.256 137.327 46.892 137.151 46.572C136.975 46.252 136.731 46.004 136.419 45.828C136.115 45.644 135.759 45.552 135.351 45.552C134.951 45.552 134.595 45.644 134.283 45.828C133.971 46.004 133.727 46.256 133.551 46.584C133.375 46.904 133.287 47.272 133.287 47.688V47.88C133.287 48.304 133.383 48.684 133.575 49.02C133.775 49.348 134.051 49.604 134.403 49.788C134.755 49.972 135.159 50.064 135.615 50.064C135.991 50.064 136.331 50 136.635 49.872C136.947 49.744 137.219 49.552 137.451 49.296L138.087 50.04C137.799 50.376 137.439 50.632 137.007 50.808C136.583 50.984 136.107 51.072 135.579 51.072ZM143.654 51.072C143.126 51.072 142.642 50.952 142.202 50.712C141.77 50.464 141.422 50.1 141.158 49.62C140.902 49.14 140.774 48.54 140.774 47.82C140.774 47.1 140.898 46.5 141.146 46.02C141.402 45.54 141.746 45.18 142.178 44.94C142.618 44.7 143.11 44.58 143.654 44.58C144.278 44.58 144.83 44.716 145.31 44.988C145.79 45.26 146.17 45.64 146.45 46.128C146.73 46.608 146.87 47.172 146.87 47.82C146.87 48.468 146.73 49.036 146.45 49.524C146.17 50.012 145.79 50.392 145.31 50.664C144.83 50.936 144.278 51.072 143.654 51.072ZM140.282 53.328V44.64H141.386V46.356L141.314 47.832L141.434 49.308V53.328H140.282ZM143.558 50.064C143.966 50.064 144.33 49.972 144.65 49.788C144.978 49.604 145.234 49.344 145.418 49.008C145.61 48.664 145.706 48.268 145.706 47.82C145.706 47.364 145.61 46.972 145.418 46.644C145.234 46.308 144.978 46.048 144.65 45.864C144.33 45.68 143.966 45.588 143.558 45.588C143.158 45.588 142.794 45.68 142.466 45.864C142.146 46.048 141.89 46.308 141.698 46.644C141.514 46.972 141.422 47.364 141.422 47.82C141.422 48.268 141.514 48.664 141.698 49.008C141.89 49.344 142.146 49.604 142.466 49.788C142.794 49.972 143.158 50.064 143.558 50.064ZM149.569 51V45.348L149.857 45.648H147.241V44.64H153.049V45.648H150.445L150.721 45.348V51H149.569ZM154.227 51V44.64H155.379V47.34H159.003V44.64H160.155V51H159.003V48.336H155.379V51H154.227ZM165.119 51.072C164.479 51.072 163.911 50.932 163.415 50.652C162.919 50.372 162.527 49.988 162.239 49.5C161.951 49.004 161.807 48.444 161.807 47.82C161.807 47.188 161.951 46.628 162.239 46.14C162.527 45.652 162.919 45.272 163.415 45C163.911 44.72 164.479 44.58 165.119 44.58C165.751 44.58 166.315 44.72 166.811 45C167.315 45.272 167.707 45.652 167.987 46.14C168.275 46.62 168.419 47.18 168.419 47.82C168.419 48.452 168.275 49.012 167.987 49.5C167.707 49.988 167.315 50.372 166.811 50.652C166.315 50.932 165.751 51.072 165.119 51.072ZM165.119 50.064C165.527 50.064 165.891 49.972 166.211 49.788C166.539 49.604 166.795 49.344 166.979 49.008C167.163 48.664 167.255 48.268 167.255 47.82C167.255 47.364 167.163 46.972 166.979 46.644C166.795 46.308 166.539 46.048 166.211 45.864C165.891 45.68 165.527 45.588 165.119 45.588C164.711 45.588 164.347 45.68 164.027 45.864C163.707 46.048 163.451 46.308 163.259 46.644C163.067 46.972 162.971 47.364 162.971 47.82C162.971 48.268 163.067 48.664 163.259 49.008C163.451 49.344 163.707 49.604 164.027 49.788C164.347 49.972 164.711 50.064 165.119 50.064ZM169.768 48.204V47.208H172.996V48.204H169.768ZM43.3256 71V62.6H50.5616V71H49.3856V63.332L49.6736 63.644H44.2136L44.5136 63.332V71H43.3256ZM56.361 71.072C55.833 71.072 55.349 70.952 54.909 70.712C54.477 70.464 54.129 70.1 53.865 69.62C53.609 69.14 53.481 68.54 53.481 67.82C53.481 67.1 53.605 66.5 53.853 66.02C54.109 65.54 54.453 65.18 54.885 64.94C55.325 64.7 55.817 64.58 56.361 64.58C56.985 64.58 57.537 64.716 58.017 64.988C58.497 65.26 58.877 65.64 59.157 66.128C59.437 66.608 59.577 67.172 59.577 67.82C59.577 68.468 59.437 69.036 59.157 69.524C58.877 70.012 58.497 70.392 58.017 70.664C57.537 70.936 56.985 71.072 56.361 71.072ZM52.989 73.328V64.64H54.093V66.356L54.021 67.832L54.141 69.308V73.328H52.989ZM56.265 70.064C56.673 70.064 57.037 69.972 57.357 69.788C57.685 69.604 57.941 69.344 58.125 69.008C58.317 68.664 58.413 68.268 58.413 67.82C58.413 67.364 58.317 66.972 58.125 66.644C57.941 66.308 57.685 66.048 57.357 65.864C57.037 65.68 56.673 65.588 56.265 65.588C55.865 65.588 55.501 65.68 55.173 65.864C54.853 66.048 54.597 66.308 54.405 66.644C54.221 66.972 54.129 67.364 54.129 67.82C54.129 68.268 54.221 68.664 54.405 69.008C54.597 69.344 54.853 69.604 55.173 69.788C55.501 69.972 55.865 70.064 56.265 70.064ZM65.0922 71V69.656L65.0322 69.404V67.112C65.0322 66.624 64.8882 66.248 64.6002 65.984C64.3202 65.712 63.8962 65.576 63.3282 65.576C62.9522 65.576 62.5842 65.64 62.2242 65.768C61.8642 65.888 61.5602 66.052 61.3122 66.26L60.8322 65.396C61.1602 65.132 61.5522 64.932 62.0082 64.796C62.4722 64.652 62.9562 64.58 63.4602 64.58C64.3322 64.58 65.0042 64.792 65.4762 65.216C65.9482 65.64 66.1842 66.288 66.1842 67.16V71H65.0922ZM63.0042 71.072C62.5322 71.072 62.1162 70.992 61.7562 70.832C61.4042 70.672 61.1322 70.452 60.9402 70.172C60.7482 69.884 60.6522 69.56 60.6522 69.2C60.6522 68.856 60.7322 68.544 60.8922 68.264C61.0602 67.984 61.3282 67.76 61.6962 67.592C62.0722 67.424 62.5762 67.34 63.2082 67.34H65.2242V68.168H63.2562C62.6802 68.168 62.2922 68.264 62.0922 68.456C61.8922 68.648 61.7922 68.88 61.7922 69.152C61.7922 69.464 61.9162 69.716 62.1642 69.908C62.4122 70.092 62.7562 70.184 63.1962 70.184C63.6282 70.184 64.0042 70.088 64.3242 69.896C64.6522 69.704 64.8882 69.424 65.0322 69.056L65.2602 69.848C65.1082 70.224 64.8402 70.524 64.4562 70.748C64.0722 70.964 63.5882 71.072 63.0042 71.072ZM68.2586 71V64.64H71.2106C71.9546 64.64 72.5386 64.784 72.9626 65.072C73.3946 65.352 73.6106 65.752 73.6106 66.272C73.6106 66.792 73.4066 67.196 72.9986 67.484C72.5986 67.764 72.0666 67.904 71.4026 67.904L71.5826 67.592C72.3426 67.592 72.9066 67.732 73.2746 68.012C73.6426 68.292 73.8266 68.704 73.8266 69.248C73.8266 69.8 73.6186 70.232 73.2026 70.544C72.7946 70.848 72.1666 71 71.3186 71H68.2586ZM69.3866 70.112H71.2346C71.7146 70.112 72.0746 70.04 72.3146 69.896C72.5546 69.744 72.6746 69.504 72.6746 69.176C72.6746 68.84 72.5626 68.596 72.3386 68.444C72.1226 68.284 71.7786 68.204 71.3066 68.204H69.3866V70.112ZM69.3866 67.376H71.1146C71.5546 67.376 71.8866 67.296 72.1106 67.136C72.3426 66.968 72.4586 66.736 72.4586 66.44C72.4586 66.136 72.3426 65.908 72.1106 65.756C71.8866 65.604 71.5546 65.528 71.1146 65.528H69.3866V67.376ZM78.3537 71.072C77.7137 71.072 77.1457 70.932 76.6497 70.652C76.1537 70.372 75.7617 69.988 75.4737 69.5C75.1857 69.004 75.0417 68.444 75.0417 67.82C75.0417 67.188 75.1857 66.628 75.4737 66.14C75.7617 65.652 76.1537 65.272 76.6497 65C77.1457 64.72 77.7137 64.58 78.3537 64.58C78.9857 64.58 79.5497 64.72 80.0457 65C80.5497 65.272 80.9417 65.652 81.2217 66.14C81.5097 66.62 81.6537 67.18 81.6537 67.82C81.6537 68.452 81.5097 69.012 81.2217 69.5C80.9417 69.988 80.5497 70.372 80.0457 70.652C79.5497 70.932 78.9857 71.072 78.3537 71.072ZM78.3537 70.064C78.7617 70.064 79.1257 69.972 79.4457 69.788C79.7737 69.604 80.0297 69.344 80.2137 69.008C80.3977 68.664 80.4897 68.268 80.4897 67.82C80.4897 67.364 80.3977 66.972 80.2137 66.644C80.0297 66.308 79.7737 66.048 79.4457 65.864C79.1257 65.68 78.7617 65.588 78.3537 65.588C77.9457 65.588 77.5817 65.68 77.2617 65.864C76.9417 66.048 76.6857 66.308 76.4937 66.644C76.3017 66.972 76.2057 67.364 76.2057 67.82C76.2057 68.268 76.3017 68.664 76.4937 69.008C76.6857 69.344 76.9417 69.604 77.2617 69.788C77.5817 69.972 77.9457 70.064 78.3537 70.064ZM83.3172 71V64.64H86.2692C87.0132 64.64 87.5972 64.784 88.0212 65.072C88.4532 65.352 88.6692 65.752 88.6692 66.272C88.6692 66.792 88.4652 67.196 88.0572 67.484C87.6572 67.764 87.1252 67.904 86.4612 67.904L86.6412 67.592C87.4012 67.592 87.9652 67.732 88.3332 68.012C88.7012 68.292 88.8852 68.704 88.8852 69.248C88.8852 69.8 88.6772 70.232 88.2612 70.544C87.8532 70.848 87.2252 71 86.3772 71H83.3172ZM84.4452 70.112H86.2932C86.7732 70.112 87.1332 70.04 87.3732 69.896C87.6132 69.744 87.7332 69.504 87.7332 69.176C87.7332 68.84 87.6212 68.596 87.3972 68.444C87.1812 68.284 86.8372 68.204 86.3652 68.204H84.4452V70.112ZM84.4452 67.376H86.1732C86.6132 67.376 86.9452 67.296 87.1692 67.136C87.4012 66.968 87.5172 66.736 87.5172 66.44C87.5172 66.136 87.4012 65.908 87.1692 65.756C86.9452 65.604 86.6132 65.528 86.1732 65.528H84.4452V67.376ZM93.4123 71.072C92.7723 71.072 92.2043 70.932 91.7083 70.652C91.2123 70.372 90.8203 69.988 90.5323 69.5C90.2443 69.004 90.1003 68.444 90.1003 67.82C90.1003 67.188 90.2443 66.628 90.5323 66.14C90.8203 65.652 91.2123 65.272 91.7083 65C92.2043 64.72 92.7723 64.58 93.4123 64.58C94.0443 64.58 94.6083 64.72 95.1043 65C95.6083 65.272 96.0003 65.652 96.2803 66.14C96.5683 66.62 96.7123 67.18 96.7123 67.82C96.7123 68.452 96.5683 69.012 96.2803 69.5C96.0003 69.988 95.6083 70.372 95.1043 70.652C94.6083 70.932 94.0443 71.072 93.4123 71.072ZM93.4123 70.064C93.8203 70.064 94.1843 69.972 94.5043 69.788C94.8323 69.604 95.0883 69.344 95.2723 69.008C95.4563 68.664 95.5483 68.268 95.5483 67.82C95.5483 67.364 95.4563 66.972 95.2723 66.644C95.0883 66.308 94.8323 66.048 94.5043 65.864C94.1843 65.68 93.8203 65.588 93.4123 65.588C93.0043 65.588 92.6403 65.68 92.3203 65.864C92.0003 66.048 91.7443 66.308 91.5523 66.644C91.3603 66.972 91.2643 67.364 91.2643 67.82C91.2643 68.268 91.3603 68.664 91.5523 69.008C91.7443 69.344 92.0003 69.604 92.3203 69.788C92.6403 69.972 93.0043 70.064 93.4123 70.064ZM98.3758 71V64.64H99.5278V69.272L103.428 64.64H104.472V71H103.32V66.368L99.4318 71H98.3758ZM101.352 63.812C100.768 63.812 100.308 63.672 99.9718 63.392C99.6438 63.104 99.4758 62.692 99.4678 62.156H100.248C100.256 62.46 100.356 62.7 100.548 62.876C100.748 63.052 101.012 63.14 101.34 63.14C101.668 63.14 101.932 63.052 102.132 62.876C102.332 62.7 102.436 62.46 102.444 62.156H103.248C103.24 62.692 103.068 63.104 102.732 63.392C102.396 63.672 101.936 63.812 101.352 63.812ZM109.93 71V64.64H111.082V69.992H114.562V64.64H115.714V71H109.93ZM115.63 72.476V70.94L115.918 71H114.562V69.992H116.722V72.476H115.63ZM121.048 71.072C120.368 71.072 119.768 70.932 119.248 70.652C118.736 70.372 118.336 69.988 118.048 69.5C117.768 69.012 117.628 68.452 117.628 67.82C117.628 67.188 117.764 66.628 118.036 66.14C118.316 65.652 118.696 65.272 119.176 65C119.664 64.72 120.212 64.58 120.82 64.58C121.436 64.58 121.98 64.716 122.452 64.988C122.924 65.26 123.292 65.644 123.556 66.14C123.828 66.628 123.964 67.2 123.964 67.856C123.964 67.904 123.96 67.96 123.952 68.024C123.952 68.088 123.948 68.148 123.94 68.204H118.528V67.376H123.34L122.872 67.664C122.88 67.256 122.796 66.892 122.62 66.572C122.444 66.252 122.2 66.004 121.888 65.828C121.584 65.644 121.228 65.552 120.82 65.552C120.42 65.552 120.064 65.644 119.752 65.828C119.44 66.004 119.196 66.256 119.02 66.584C118.844 66.904 118.756 67.272 118.756 67.688V67.88C118.756 68.304 118.852 68.684 119.044 69.02C119.244 69.348 119.52 69.604 119.872 69.788C120.224 69.972 120.628 70.064 121.084 70.064C121.46 70.064 121.8 70 122.104 69.872C122.416 69.744 122.688 69.552 122.92 69.296L123.556 70.04C123.268 70.376 122.908 70.632 122.476 70.808C122.052 70.984 121.576 71.072 121.048 71.072ZM125.751 71V64.64H126.903V67.34H130.527V64.64H131.679V71H130.527V68.336H126.903V71H125.751ZM135.179 71V65.348L135.467 65.648H132.851V64.64H138.659V65.648H136.055L136.331 65.348V71H135.179ZM143.209 71.072C142.681 71.072 142.197 70.952 141.757 70.712C141.325 70.464 140.977 70.1 140.713 69.62C140.457 69.14 140.329 68.54 140.329 67.82C140.329 67.1 140.453 66.5 140.701 66.02C140.957 65.54 141.301 65.18 141.733 64.94C142.173 64.7 142.665 64.58 143.209 64.58C143.833 64.58 144.385 64.716 144.865 64.988C145.345 65.26 145.725 65.64 146.005 66.128C146.285 66.608 146.425 67.172 146.425 67.82C146.425 68.468 146.285 69.036 146.005 69.524C145.725 70.012 145.345 70.392 144.865 70.664C144.385 70.936 143.833 71.072 143.209 71.072ZM139.837 73.328V64.64H140.941V66.356L140.869 67.832L140.989 69.308V73.328H139.837ZM143.113 70.064C143.521 70.064 143.885 69.972 144.205 69.788C144.533 69.604 144.789 69.344 144.973 69.008C145.165 68.664 145.261 68.268 145.261 67.82C145.261 67.364 145.165 66.972 144.973 66.644C144.789 66.308 144.533 66.048 144.205 65.864C143.885 65.68 143.521 65.588 143.113 65.588C142.713 65.588 142.349 65.68 142.021 65.864C141.701 66.048 141.445 66.308 141.253 66.644C141.069 66.972 140.977 67.364 140.977 67.82C140.977 68.268 141.069 68.664 141.253 69.008C141.445 69.344 141.701 69.604 142.021 69.788C142.349 69.972 142.713 70.064 143.113 70.064Z" fill="#C4C4C4"/>
</svg>
