<svg width="180" height="80" viewBox="0 0 180 80" fill="none" xmlns="http://www.w3.org/2000/svg">
<path fill-rule="evenodd" clip-rule="evenodd" d="M86.3969 14.7458V26.4917H88.6342H90.8715V14.7458V3H88.6342H86.3969V14.7458ZM80.9528 20.1526V31.9379L83.2088 31.9182L85.4647 31.8985V20.1526V8.40681L83.2088 8.38705L80.9528 8.36736V20.1526ZM91.841 20.1526V31.9358H94.0783H96.3156V20.1526V8.36952H94.0783H91.841V20.1526ZM75.5087 24.6827V35.5518L77.7269 37.771C78.9469 38.9915 79.9705 39.9901 80.0015 39.9901C80.0326 39.9901 80.0579 34.1004 80.0579 26.9018V13.8136H77.7833H75.5087V24.6827ZM97.2106 26.9018C97.2106 34.1004 97.2359 39.9901 97.2669 39.9901C97.298 39.9901 98.3215 38.9915 99.5415 37.771L101.76 35.5518V24.6827V13.8136H99.4852H97.2106V26.9018ZM70.0646 24.6806V30.1036L72.3389 32.3807L74.6131 34.6578L74.6134 26.9578L74.6138 19.2577H72.3392H70.0646V24.6806ZM102.655 26.9573V34.6569L104.929 32.3832L107.204 30.1095V24.6836V19.2577H104.929H102.655V26.9573ZM33.0497 62.8603C33.0224 62.8876 33 65.9079 33 69.5722V76.2343H35.7221H38.4441V73.997V71.7597H39.5188H40.5936L42.4066 73.997L44.2195 76.2343H46.8922C49.011 76.2343 49.5531 76.215 49.508 76.1411C49.4767 76.0899 48.6693 75.085 47.7137 73.908C46.7581 72.7311 45.9764 71.7327 45.9764 71.6893C45.9764 71.646 46.0228 71.6106 46.0796 71.6106C46.1364 71.6106 46.4493 71.4772 46.7751 71.3141C47.9208 70.7407 48.7526 69.6298 48.9609 68.395C49.1035 67.5496 49.0224 66.1757 48.7932 65.5565C48.417 64.54 47.6871 63.7214 46.749 63.264C45.8186 62.8104 45.8666 62.8132 39.1837 62.8118C35.8373 62.8111 33.077 62.8329 33.0497 62.8603ZM56.9391 62.8594C54.0243 63.1388 52.4349 63.7662 51.1495 65.1449C50.5149 65.8256 50.0866 66.6354 49.8402 67.6207C49.5972 68.5921 49.5975 70.4549 49.8408 71.4241C50.4606 73.8938 52.1423 75.3396 55.1493 75.9881C55.8684 76.1432 56.2805 76.1795 57.7015 76.2132C59.9937 76.2674 61.3626 76.0883 62.7745 75.5493C63.7807 75.1652 64.3129 74.8262 65.0398 74.1065C65.6231 73.5289 65.7686 73.3323 66.0608 72.7269C66.645 71.5161 66.8601 70.2211 66.718 68.7715C66.6114 67.6849 66.4707 67.1631 66.0558 66.3156C65.7724 65.7371 65.5988 65.4972 65.1088 65.0073C64.1564 64.0551 63.0922 63.5114 61.4883 63.1572C60.1792 62.8681 58.2003 62.7386 56.9391 62.8594ZM70.7358 62.9269C68.7992 63.3444 67.3799 65.0854 67.3799 67.0437C67.3799 68.931 68.5829 70.5743 70.4002 71.1693C70.6189 71.2409 71.5711 71.2781 73.9675 71.3083L77.2365 71.3496L77.4539 71.5931C77.6389 71.8003 77.6715 71.8986 77.6715 72.2514C77.6715 72.6104 77.6422 72.6955 77.4535 72.8841L77.2355 73.1021H75.2104H73.1854L72.9674 72.8841C72.8209 72.7377 72.7494 72.5908 72.7494 72.4367V72.2072H70.0646H67.3799V72.4153C67.3799 72.7805 67.5994 73.4825 67.8816 74.0196C68.4148 75.0343 69.587 75.929 70.6806 76.156C70.9545 76.2129 72.5025 76.232 75.6245 76.2171C80.692 76.1929 80.4666 76.2147 81.3829 75.6586C83.3241 74.4805 84.0206 72.1683 83.0403 70.1563C82.8804 69.8282 82.6149 69.4046 82.4502 69.215C82.0399 68.7427 81.2472 68.2173 80.5782 67.9744L80.0206 67.7719L76.7886 67.7336L73.5566 67.6953L73.3767 67.486C73.1643 67.2391 73.129 66.6632 73.3052 66.3224C73.4926 65.96 73.6716 65.9334 75.763 65.9577L77.6839 65.98L77.9015 66.2236C78.0211 66.3576 78.1189 66.5505 78.1189 66.6524V66.8377H80.8037C83.863 66.8377 83.5677 66.9225 83.3738 66.0996C83.0057 64.538 81.6826 63.256 80.0952 62.9227C79.351 62.7665 71.4638 62.77 70.7358 62.9269ZM84.3834 69.5224V76.2343H87.0675H89.7515L89.7709 72.3875L89.7902 68.5407L92.907 72.3875L96.0238 76.2343H98.743H101.462L101.443 69.5411L101.424 62.8478H98.7394H96.0546L96.0173 66.6651L95.98 70.4823L92.8851 66.6514L89.7902 62.8204L87.0868 62.8155L84.3834 62.8105V69.5224ZM102.506 69.5224V76.2343H109.926H117.346V74.4445V72.6547H112.611H107.875V71.9835V71.3123H111.902H115.929V69.5224V67.7326H111.902H107.875V67.0614V66.3902H112.387H116.899V64.6004V62.8105H109.702H102.506V69.5224ZM117.943 69.5224V76.2343H120.627H123.31L123.33 73.792L123.35 71.3496L127.397 71.3303L131.444 71.311L131.424 69.5404L131.404 67.7699L127.355 67.7506L123.307 67.7313L123.328 67.0794L123.35 66.4275L127.88 66.4083L132.411 66.3891V64.5998V62.8105H125.177H117.943V69.5224ZM133.007 64.6V66.3902H135.431H137.855V71.3123V76.2343H140.54H143.224V71.3123V66.3902H145.612H148L147.98 64.619L147.96 62.8478L140.484 62.8288L133.007 62.8098V64.6ZM43.5176 66.1106C43.7003 66.2028 43.9283 66.3958 44.0244 66.5394C44.1765 66.7667 44.1958 66.8727 44.1739 67.3597C44.1453 67.9944 44.0249 68.2202 43.5798 68.4733C43.3209 68.6205 43.198 68.6275 40.8763 68.6275H38.4441V67.2851V65.9428H40.8147C43.1251 65.9428 43.1939 65.947 43.5176 66.1106ZM59.3804 66.1661C60.2532 66.4725 60.9782 67.1541 61.236 67.9107C61.3274 68.1792 61.3457 68.5383 61.3263 69.6865C61.302 71.1173 61.3006 71.1282 61.084 71.5192C60.8185 71.9983 60.2908 72.5049 59.8016 72.75C59.2378 73.0326 58.7201 73.1259 57.9416 73.0852C57.3422 73.0538 57.1705 73.0123 56.6846 72.7815C56.016 72.464 55.5076 71.9765 55.2303 71.3869C55.044 70.9907 55.0374 70.9283 55.0374 69.5597C55.0374 68.1813 55.0428 68.1313 55.2358 67.7196C55.9068 66.2881 57.7547 65.5955 59.3804 66.1661Z" fill="#A0A0A0"/>
<rect x="80.9526" y="32.8311" width="4.4746" height="24.3866" fill="#B8B8B8"/>
<rect x="86.397" y="27.3115" width="4.4746" height="29.9053" fill="#B8B8B8"/>
<rect x="91.8408" y="32.8311" width="4.4746" height="24.3866" fill="#B8B8B8"/>
</svg>
