<svg width="180" height="80" viewBox="0 0 180 80" fill="none" xmlns="http://www.w3.org/2000/svg">
<path fill-rule="evenodd" clip-rule="evenodd" d="M118.996 2.06615C116.843 2.28139 114.615 2.9313 112.796 3.87536C110.52 5.05631 109.355 6.05408 107.916 8.05463C107.68 8.38305 107.468 8.65183 107.445 8.65183C107.423 8.65183 107.25 8.52753 107.062 8.37572C105.544 7.1511 102.5 5.39478 100.479 4.57691C100.072 4.4125 99.6659 4.2466 99.5756 4.20822C99.2686 4.07791 98.0172 3.6429 97.5638 3.50897C97.3154 3.43557 97.0013 3.342 96.8658 3.30098C95.3084 2.82998 92.8828 2.39242 90.7993 2.20667C88.7361 2.02274 85.3099 2.11417 83.6454 2.39769C82.3015 2.62652 81.7282 2.73163 81.4283 2.80403C81.2476 2.84769 80.7673 2.96021 80.3608 3.05411C79.9543 3.14802 79.5109 3.25946 79.3754 3.3018C76.0915 4.32774 73.8812 5.31883 71.3844 6.88488C68.3342 8.79787 65.5884 11.3048 63.4162 14.1594C63.0934 14.5836 62.8294 14.9617 62.8294 14.9995C62.8294 15.0374 62.9542 15.0161 63.1067 14.9522C64.3863 14.4159 67.0898 14.091 68.3068 14.3273L68.6522 14.3944L69.5146 13.4383C73.5921 8.91789 79.2293 5.72591 85.2877 4.50681C88.5577 3.84883 92.2659 3.75798 95.552 4.25533C98.642 4.72296 101.595 5.65153 104.311 7.00942C104.928 7.31807 105.584 7.66559 105.767 7.78174C105.95 7.89788 106.122 7.99286 106.147 7.99286C106.26 7.99286 107.335 8.74837 107.335 8.82736C107.335 8.87538 107.138 9.21698 106.898 9.58641C106.657 9.95585 106.237 10.6287 105.964 11.0818C105.502 11.8472 105.278 12.2319 104.106 14.2737C103.587 15.1783 102.889 16.4231 102.548 17.0537C102.413 17.3029 102.164 17.7477 101.996 18.0422C101.827 18.3367 101.31 19.2633 100.846 20.1015C96.638 27.7096 93.6684 32.4471 91.0262 35.767C88.5617 38.8637 86.3134 40.7138 84.3415 41.2675L83.7275 41.4399L84.2202 41.3996C85.7452 41.2748 87.2225 40.5929 88.9477 39.2174C90.6364 37.871 93.5249 34.5824 95.6126 31.6293C95.691 31.5184 95.9651 31.131 96.2216 30.7686C96.7784 29.9819 98.8975 26.7983 99.5822 25.7196C99.8495 25.2985 100.318 24.5572 100.623 24.0722C100.928 23.5872 101.284 23.0236 101.414 22.8197C101.543 22.6158 102.084 21.7448 102.616 20.884C107.317 13.2719 108.973 10.837 110.617 9.1192C112.538 7.11148 115.47 5.79683 119.406 5.17831C120.293 5.03902 124.526 5.02353 124.661 5.15911C124.727 5.22476 124.608 5.48382 124.225 6.10639C122.948 8.18585 120.248 12.7856 120.453 12.5323C120.67 12.2639 121.272 11.3831 124.621 6.4278C125.463 5.18193 126.368 3.84817 126.632 3.46391C126.895 3.07956 127.097 2.74184 127.079 2.71326C127.049 2.66482 126.827 2.60082 125.955 2.38937C125.548 2.29086 124.665 2.16434 123.676 2.06294C122.842 1.97752 119.862 1.97949 118.996 2.06615ZM65.3749 16.4115C64.5851 16.47 64.3327 16.5246 63.4452 16.8285C62.3706 17.1966 61.3228 17.9289 60.5825 18.8293C60.2373 19.2491 60.0435 19.6064 59.7187 20.4221C58.4531 23.6013 57.8684 26.4549 57.7665 29.9509C57.6166 35.0946 58.899 40.0376 61.6123 44.7744C63.6316 48.2995 67.4088 52.3093 70.8355 54.5658C74.5675 57.0231 78.4194 58.5001 83.1116 59.2729C85.7373 59.7054 88.9285 59.8145 91.241 59.5508C92.7074 59.3836 94.4439 59.0953 95.1825 58.8964C95.3405 58.8538 95.9687 58.6847 96.5784 58.5204C100.335 57.5086 104.781 55.2519 107.761 52.8445C109.166 51.7089 111.698 49.2444 111.581 49.1265C111.556 49.1019 111.191 49.2196 110.77 49.3881C109.469 49.9083 107.303 50.5639 106.186 50.776C103.593 51.2681 102.559 51.3614 99.6987 51.3614C97.4563 51.3614 95.9105 51.2719 94.7719 51.076C94.5235 51.0332 93.9692 50.9381 93.5402 50.8646C92.6927 50.7194 92.0544 50.5806 91.0357 50.3202C90.6744 50.2279 90.2314 50.1165 90.0515 50.0726C89.1737 49.8586 86.8574 49.0352 85.425 48.4283C84.1475 47.8869 81.9536 46.7583 80.7024 45.999C76.1285 43.223 72.4446 39.6291 69.9085 35.469C68.3833 32.9671 67.4041 30.5051 66.86 27.8032C66.6478 26.7492 66.677 25.0404 66.9311 23.6434C67.1479 22.4517 67.9125 20.6794 68.7469 19.4347C69.4276 18.4192 70.1095 17.843 71.0819 17.4617L71.3282 17.3651L70.8102 17.1676C70.3408 16.9885 69.8199 16.846 68.6129 16.5661C68.012 16.4268 66.282 16.3442 65.3749 16.4115ZM117.435 21.1701C115.311 21.4654 114.029 21.9337 112.793 22.866C110.832 24.3451 109.165 26.0279 105.939 29.782C103.43 32.7031 102.406 33.8661 101.592 34.7224C101.291 35.0395 100.196 36.2426 99.1602 37.3958C96.8895 39.9233 95.724 41.0946 94.7348 41.8437C92.9833 43.1702 91.6599 43.6786 88.9007 44.0852C88.0247 44.2144 84.4622 44.124 83.6178 43.9513C83.2412 43.8743 82.9206 43.8239 82.9053 43.8393C82.877 43.8676 85.1592 45.2631 85.9894 45.7252C86.3519 45.927 88.4542 46.9659 89.147 47.2857C90.166 47.7559 93.2169 48.7604 94.3949 49.0135C94.5797 49.0532 95.0634 49.159 95.4699 49.2486C96.169 49.4026 97.0147 49.5574 98.2207 49.7519C100.037 50.0448 103.378 50.1361 105.188 49.9423C109.113 49.5221 112.176 48.4502 114.52 46.6771C115.849 45.6719 118.386 43.4286 121.377 40.6149C123.907 38.2342 127.618 34.6047 127.618 34.5107C127.618 34.4435 126.375 33.8951 125.524 33.5863C123.395 32.8147 121.928 32.5339 119.755 32.4822C118.886 32.4615 118.174 32.4181 118.174 32.3858C118.174 32.3534 118.562 31.8515 119.035 31.2704C119.509 30.6892 119.988 30.0977 120.101 29.9558C120.213 29.8139 120.924 28.9193 121.68 27.9679C123.735 25.3816 126.632 21.6435 126.632 21.5794C126.632 21.5073 125.673 21.3715 123.758 21.1724C121.779 20.9666 118.908 20.9656 117.435 21.1701ZM83.0706 41.518C83.0427 41.5633 83.0796 41.6004 83.1527 41.6004C83.2258 41.6004 83.2627 41.5633 83.2348 41.518C83.2069 41.4727 83.1699 41.4357 83.1527 41.4357C83.1354 41.4357 83.0985 41.4727 83.0706 41.518ZM23.5224 61.0783C23.3785 61.1411 23.203 61.3046 23.1324 61.4416C22.9558 61.7841 22.9559 63.0144 23.1325 63.357C23.3645 63.8072 23.5746 63.8407 26.1626 63.8407H28.5055V69.409V74.9773L28.7847 75.2574L29.0639 75.5374H30.3942H31.7244L32.0036 75.2574L32.2828 74.9773V69.409V63.8407L34.6436 63.8405C37.7473 63.8404 37.7809 63.8251 37.7832 62.4157C37.784 61.9268 37.7439 61.6122 37.6599 61.4492C37.3957 60.9368 37.7017 60.9574 30.4188 60.9609C24.951 60.9635 23.738 60.9842 23.5224 61.0783ZM124.421 61.1935C124.376 61.2779 124.335 61.9943 124.329 62.7854C124.324 63.5764 124.293 64.2663 124.261 64.3183C124.229 64.3703 123.835 64.4527 123.385 64.5016C122.235 64.6264 121.606 64.7921 120.802 65.1821C119.491 65.8179 118.598 66.9839 118.295 68.4535C118.049 69.646 118.147 71.3073 118.522 72.3171C119.22 74.1982 121.019 75.3277 123.635 75.5283L124.292 75.5786L124.313 77.1437C124.339 79.145 124.2 78.997 126.052 78.997C127.888 78.997 127.771 79.1246 127.801 77.0992L127.823 75.5786L128.48 75.5283C129.655 75.4382 130.824 75.0992 131.666 74.6039C132.214 74.2823 132.898 73.5686 133.228 72.9756C134.183 71.2596 134.139 68.3977 133.135 66.8413C132.259 65.484 130.845 64.73 128.75 64.5035C128.311 64.4561 127.914 64.4173 127.867 64.4173C127.811 64.4173 127.782 63.8986 127.782 62.9118C127.782 61.6824 127.758 61.3726 127.654 61.2232C127.53 61.0453 127.484 61.0401 126.015 61.0401C124.624 61.0401 124.496 61.0523 124.421 61.1935ZM43.6304 64.2628C42.8632 64.3563 42.2572 64.5526 41.5059 64.9511C41.1364 65.1471 40.8131 65.2863 40.7874 65.2604C40.7616 65.2347 40.74 65.1178 40.7393 65.0007C40.7364 64.5063 40.4924 64.4173 39.141 64.4173C38.0638 64.4173 38.016 64.4246 37.8218 64.6195L37.6202 64.8217V71.6923C37.6202 78.5185 37.6213 78.5643 37.7905 78.78L37.9606 78.997H39.3506C41.2117 78.997 41.069 79.1645 41.069 76.9789C41.069 76.0502 41.0967 75.2912 41.1306 75.2923C41.1645 75.2933 41.4693 75.3682 41.8081 75.4587C42.6649 75.6876 43.8696 75.8098 44.6 75.7419C46.9627 75.5221 48.4428 74.3928 49.1757 72.2505C49.4463 71.4598 49.5454 69.7129 49.3813 68.6275C49.1441 67.0575 48.3235 65.6987 47.1728 64.97C46.6931 64.6662 45.708 64.3353 45.1424 64.288C44.8667 64.2648 44.5302 64.2356 44.3947 64.2229C44.2592 64.2102 43.9153 64.2282 43.6304 64.2628ZM54.659 64.4109C53.3397 64.6586 52.6698 64.9635 52.1317 65.561C51.6071 66.1436 51.4137 67.1975 51.7697 67.5331C51.9441 67.6974 52.0451 67.7122 52.9961 67.7122C53.5661 67.7122 54.1347 67.6732 54.2597 67.6255C54.3846 67.5778 54.6602 67.3762 54.8721 67.1773C55.3678 66.7122 55.9572 66.5276 56.9242 66.5343C57.8091 66.5406 58.2906 66.7304 58.5875 67.1901C58.8007 67.5199 59.0167 68.3772 58.9384 68.5821C58.9004 68.6812 58.5302 68.7006 56.6839 68.7006C54.6109 68.7006 54.4259 68.7131 53.6828 68.9022C52.7437 69.1411 52.2244 69.4078 51.6968 69.9223C50.4568 71.1313 50.4651 73.2969 51.7146 74.515C52.1815 74.9702 53.0832 75.4184 53.8789 75.5908C54.2346 75.6678 54.9109 75.7276 55.4801 75.7322C56.738 75.7422 57.5411 75.566 58.466 75.0769C58.8437 74.8772 59.1823 74.7137 59.2184 74.7137C59.2544 74.7137 59.2737 74.8077 59.2612 74.9225C59.2486 75.0374 59.3099 75.2227 59.3975 75.3344C59.5544 75.5346 59.5748 75.5374 60.8236 75.5374C61.9809 75.5374 62.1045 75.5232 62.2546 75.3727C62.4138 75.213 62.4188 75.0982 62.4188 71.5968C62.4188 68.2546 62.4066 67.9376 62.2545 67.3411C62.0553 66.5597 61.8063 66.1164 61.2684 65.5852C60.7755 65.0986 60.1227 64.7376 59.2979 64.4955C58.406 64.2339 55.85 64.1872 54.659 64.4109ZM82.7832 64.3406C80.9469 64.6625 79.6248 65.5996 78.916 67.0814C78.5115 67.927 78.3553 68.7416 78.3529 70.0186C78.3494 71.8729 78.8033 73.1931 79.7867 74.1893C80.3413 74.7511 81.2739 75.2757 82.0928 75.4862C83.6481 75.8862 86.1821 75.8258 87.5869 75.3552C89.2141 74.8102 90.113 73.7869 90.1266 72.4643C90.1346 71.6881 90.0966 71.666 88.7577 71.666C87.5088 71.666 87.3652 71.7194 86.8935 72.3599C86.4144 73.0104 85.8713 73.2578 84.8295 73.2997C83.439 73.3557 82.6386 72.9524 82.1971 71.973C82.015 71.5689 82.0031 71.4462 82.0031 69.9774C82.0031 68.5598 82.0193 68.377 82.176 68.0374C82.5854 67.1497 83.2091 66.7352 84.2418 66.6644C85.4253 66.5833 86.3299 66.9404 86.826 67.6846C87.1829 68.2201 87.5807 68.3711 88.6339 68.3711C89.1135 68.3711 89.6011 68.3348 89.7175 68.2904C90.0496 68.1638 90.1382 67.8738 90.0331 67.2584C89.9125 66.5519 89.6502 66.0552 89.1445 65.5754C88.6067 65.0651 88.0476 64.783 87.0604 64.5238C86.3864 64.3468 86.0543 64.313 84.7539 64.2892C83.9184 64.2739 83.0316 64.297 82.7832 64.3406ZM109.329 64.4143C107.257 64.8992 105.988 66.1264 105.433 68.182C105.293 68.6974 105.259 69.0599 105.259 70.0186C105.259 71.3601 105.4 72.0637 105.865 73.0404C106.213 73.7735 107.094 74.6589 107.879 75.067C108.852 75.572 109.684 75.7329 111.318 75.7314C113.291 75.7295 114.266 75.5598 115.31 75.036C116.394 74.4927 117.067 73.019 116.495 72.4448C116.304 72.2537 116.242 72.2426 115.356 72.2426C114.124 72.2426 113.971 72.281 113.497 72.7083C112.907 73.241 112.445 73.4202 111.556 73.4618C110.657 73.5039 110.067 73.3571 109.611 72.9784C109.229 72.6604 108.902 72.0335 108.838 71.4948L108.791 71.0894H112.691C116.568 71.0894 116.594 71.0883 116.818 70.9108L117.045 70.7323L117.002 69.5723C116.972 68.7595 116.911 68.2514 116.798 67.8747C116.274 66.1305 115.133 65.0224 113.317 64.4936C112.428 64.2349 110.278 64.1922 109.329 64.4143ZM65.1659 64.6195L64.9643 64.8217V70.0148C64.9643 75.0982 64.9678 75.2114 65.1286 75.3727C65.3099 75.5546 65.4043 75.563 67.0172 75.5397C68.529 75.5179 68.4058 75.7209 68.4323 73.2095L68.4542 71.1306L70.5071 71.1074C71.6361 71.0947 72.6431 71.1046 72.7447 71.1296L72.9294 71.1749V73.1914C72.9294 75.0982 72.9384 75.2169 73.0937 75.3727C73.2847 75.5644 73.1856 75.5547 74.8181 75.5423C76.0004 75.5333 76.101 75.5205 76.2345 75.3612C76.3681 75.2018 76.3782 74.8229 76.377 69.9888C76.3763 67.1284 76.3486 64.7472 76.3154 64.6974C76.1628 64.468 75.8545 64.4173 74.6144 64.4173C73.3629 64.4173 73.3278 64.4221 73.131 64.6195L72.9294 64.8217V66.7612V68.7006H70.6713H68.4131L68.4119 66.7443C68.4112 65.6684 68.3835 64.7472 68.3503 64.6974C68.1977 64.468 67.8894 64.4173 66.6493 64.4173C65.3978 64.4173 65.3627 64.4221 65.1659 64.6195ZM92.1741 64.5137C92.0776 64.5605 91.9576 64.6894 91.9072 64.8002C91.8432 64.9413 91.8161 66.5001 91.817 70.0018C91.8183 75.3528 91.8163 75.3265 92.2287 75.4985C92.525 75.6219 95.0603 75.5289 95.1992 75.3893C95.2784 75.3098 95.3161 74.7513 95.3467 73.2065L95.3877 71.1306L97.4406 71.1074C98.5697 71.0947 99.5766 71.1046 99.6782 71.1296L99.863 71.1749V73.2198C99.863 75.0911 99.8756 75.2763 100.012 75.4001C100.138 75.5143 100.386 75.5365 101.592 75.5417C102.966 75.5477 103.028 75.5408 103.167 75.3688C103.302 75.202 103.312 74.831 103.312 69.9742V64.7587L103.095 64.5881C102.898 64.432 102.77 64.4173 101.612 64.4173C100.476 64.4173 100.146 64.4617 99.9451 64.6411C99.9225 64.6613 99.8856 65.5736 99.863 66.6686L99.8219 68.6594L97.5843 68.6813L95.3467 68.7032V66.731V64.7587L95.1303 64.5881C94.9316 64.4312 94.8093 64.4178 93.6317 64.4229C92.9265 64.4259 92.2706 64.4668 92.1741 64.5137ZM134.403 64.5881C134.193 64.7535 134.187 64.7856 134.187 65.6461C134.187 66.3971 134.21 66.5541 134.335 66.6681C134.461 66.7823 134.751 66.8061 136.244 66.825L138.005 66.8473L138.046 71.007C138.069 73.2949 138.118 75.229 138.155 75.3052C138.27 75.5368 138.607 75.5804 139.953 75.5374C140.977 75.5047 141.27 75.4696 141.372 75.3669C141.486 75.2528 141.5 74.7555 141.497 71.1555C141.494 68.9104 141.515 67.0134 141.544 66.9398C141.588 66.8223 141.805 66.8059 143.331 66.8048C144.286 66.8041 145.108 66.7763 145.157 66.743C145.355 66.6107 145.436 66.2924 145.436 65.6542C145.436 64.9076 145.307 64.5503 145.009 64.4701C144.905 64.4422 142.525 64.419 139.72 64.4184C134.683 64.4173 134.617 64.4194 134.403 64.5881ZM147.131 64.5881L146.915 64.7587V69.9834C146.915 75.0982 146.918 75.2114 147.079 75.3727C147.238 75.5326 147.352 75.5374 150.966 75.5374C154.381 75.5374 154.741 75.5243 155.311 75.3778C156.091 75.1778 156.519 74.9603 156.989 74.5256C157.633 73.9307 158 72.9688 158 71.8791C158 70.3791 157.438 69.2837 156.38 68.72C155.49 68.2461 155.139 68.1923 152.642 68.1468L150.363 68.1054V66.4635C150.363 64.2939 150.466 64.4173 148.654 64.4173C147.456 64.4173 147.329 64.4315 147.131 64.5881ZM112.186 66.69C112.85 66.9014 113.363 67.6406 113.468 68.5373L113.517 68.9503L111.145 68.9284L108.772 68.9065L108.801 68.5359C108.852 67.8601 109.227 67.2172 109.786 66.8462C110.33 66.4851 111.338 66.4195 112.186 66.69ZM44.6601 66.8772C45.1186 67.1118 45.4673 67.5639 45.6834 68.2036C45.8369 68.6583 45.8657 68.9271 45.869 69.9362C45.8722 70.9601 45.8457 71.2167 45.6836 71.7343C45.4535 72.4692 45.0086 72.9673 44.395 73.177C43.698 73.4152 42.4351 73.332 41.3359 72.9754L41.069 72.8888V70.272C41.069 67.3073 41.004 67.5801 41.8081 67.1725C42.9177 66.6099 43.9324 66.5047 44.6601 66.8772ZM124.333 70.0246V73.4145L123.957 73.3579C122.709 73.1702 122.069 72.5829 121.777 71.3562C121.488 70.1443 121.648 68.4305 122.123 67.6599C122.46 67.1132 123.228 66.7001 123.992 66.6548L124.333 66.6347V70.0246ZM129.07 66.8958C129.54 67.1239 130.02 67.6865 130.202 68.2229C130.419 68.861 130.469 70.6133 130.291 71.3777C130.093 72.2316 129.724 72.7431 129.079 73.0563C128.765 73.209 128.401 73.3168 128.151 73.331L127.741 73.3546L127.719 69.9861L127.698 66.6177L128.207 66.6711C128.488 66.7005 128.876 66.8015 129.07 66.8958ZM154.019 70.6775C154.846 71.4531 154.571 72.9595 153.553 73.2346C153.384 73.2801 152.607 73.3071 151.825 73.2948L150.404 73.2722L150.382 71.8467L150.359 70.4211L152.079 70.4464C153.785 70.4713 153.801 70.4733 154.019 70.6775ZM58.9525 71.7729L58.9761 72.5799L58.2878 72.9035C56.6443 73.6761 55.1582 73.6774 54.5119 72.907C54.3297 72.6898 54.2895 72.5607 54.2895 72.1939C54.2895 71.8023 54.3235 71.7087 54.5593 71.4506C54.9696 71.0014 55.352 70.9312 57.2866 70.9499L58.9289 70.9658L58.9525 71.7729Z" fill="#C9C9C9"/>
</svg>
