<svg width="180" height="114" viewBox="0 0 180 114" fill="none" xmlns="http://www.w3.org/2000/svg">
<path fill-rule="evenodd" clip-rule="evenodd" d="M82.156 11.4519C74.8626 12.7871 68.1386 15.7064 62.3883 20.034C59.2631 22.3862 54.3198 27.5259 52.184 30.6438C49.925 33.9413 47.4367 39.0196 46.1437 42.9719C42.542 53.9811 43.5312 67.2951 48.7159 77.5907C53.1255 86.3467 61.6933 94.7054 70.4642 98.8077C81.2 103.829 94.9606 104.381 106.166 100.24C112.588 97.8671 117.579 94.5805 122.929 89.2016C129.456 82.6391 133.304 75.4537 135.348 66.0072C136.271 61.743 136.202 52.1376 135.217 47.82C133.869 41.9099 132.624 38.7096 129.809 33.9217C126.621 28.5003 123.928 25.2874 119.344 21.4372C113.184 16.2646 105.755 12.8251 97.8309 11.4783C94.1481 10.8525 85.5108 10.8377 82.156 11.4519ZM97.5573 13.4007C110.838 15.5571 123.07 24.5139 129.301 36.6453C132.666 43.1956 134.181 49.5135 134.181 56.9941C134.181 62.2201 133.568 66.229 132.082 70.7234C127.212 85.4489 115.588 96.1668 100.221 100.101C95.8783 101.213 87.4009 101.462 82.5948 100.619C60.0256 96.659 44.0273 76.0566 45.9918 53.4818C48.2679 27.3225 71.6002 9.18672 97.5573 13.4007ZM56.684 41.1406C56.8524 50.9781 57.0104 51.7587 59.3612 54.3732C61.3103 56.5415 63.3681 57.3939 67.0664 57.5648C70.6268 57.7296 73.0136 56.9606 75.218 54.9388C76.6381 53.636 78.0558 51.15 77.7036 50.5799C77.6048 50.4199 77.7059 50.2287 77.9283 50.1547C78.236 50.0523 78.3583 47.9304 78.4404 41.2748L78.5479 32.5298H75.3123H72.0763L71.9855 40.9796C71.9356 45.6272 71.7615 49.7066 71.5986 50.0456C71.3639 50.5339 71.3974 50.6066 71.7595 50.3964C72.0306 50.239 72.1075 50.2503 71.9485 50.4241C71.8007 50.5851 71.5835 50.7232 71.4657 50.7306C71.3475 50.738 70.8164 50.9739 70.2853 51.255C68.6877 52.1006 67.4324 52.2332 65.9291 51.7153C65.162 51.451 64.3937 51.3216 64.2218 51.4278C64.0489 51.5347 64.0116 51.4548 64.1387 51.2498C64.2649 51.0454 64.2147 50.878 64.0274 50.878C63.84 50.878 63.7093 50.7692 63.7377 50.6366C63.8223 50.2358 63.3121 49.263 63.0894 49.4008C62.9751 49.4716 62.9226 45.7045 62.9725 41.0295L63.0633 32.5298H59.8H56.5363L56.684 41.1406ZM83 44.9229V57.316H86.058H89.116V52.1656V47.0152H93.7834H98.4508V44.44V41.8649H93.7834H89.116V39.9335V38.0021H95.3929H101.67V35.2659V32.5298H92.3349H83V44.9229ZM108.598 36.1512C104.67 45.4814 103.928 47.4089 104.131 47.762C104.25 47.9709 104.226 48.0311 104.077 47.8956C103.841 47.6809 102.451 50.6366 100.367 55.787L99.7477 57.316H103.044H106.34L107.087 55.3917C107.497 54.3336 107.727 53.2971 107.598 53.0888C107.461 52.8664 107.502 52.7952 107.699 52.9169C107.884 53.0309 108.11 52.8361 108.202 52.484C108.359 51.882 108.649 51.8437 113.037 51.8437H117.704L118.7 54.2354C119.248 55.551 119.696 56.7823 119.696 56.9715C119.696 57.1943 120.891 57.316 123.076 57.316C124.935 57.316 126.455 57.2632 126.455 57.1985C126.455 57.0749 117.99 36.6971 116.843 34.0588L116.178 32.5298H113.15H110.122L108.598 36.1512ZM109.845 36.3388C109.936 36.4866 109.806 36.6073 109.556 36.6073C109.306 36.6073 109.176 36.4866 109.267 36.3388C109.358 36.1914 109.489 36.0707 109.556 36.0707C109.624 36.0707 109.754 36.1914 109.845 36.3388ZM113.925 42.1806C114.311 43.2394 114.74 44.0357 114.878 43.9504C115.016 43.8651 115.048 44.1078 114.947 44.4899C114.812 45.0072 114.874 45.118 115.188 44.9235C115.456 44.7578 115.533 44.7883 115.397 45.0072C115.28 45.1965 115.327 45.726 115.501 46.1834L115.817 47.0152L112.847 47.0104C111.214 47.0075 110.035 46.899 110.227 46.769C110.418 46.6389 111.131 45.1199 111.81 43.3939C112.489 41.6679 113.085 40.2554 113.134 40.2554C113.183 40.2554 113.539 41.1216 113.925 42.1806ZM99.3151 63.5795C98.6813 64.2133 98.9462 65.0415 99.7828 65.0415C100.602 65.0415 100.917 64.1502 100.311 63.545C99.8845 63.1185 99.7722 63.1224 99.3151 63.5795ZM54.9954 67.2948V71.1576H55.8001H56.6049V67.2948V63.432H55.8001H54.9954V67.2948ZM122.663 67.2143L122.754 70.9966L123.8 71.0974C124.658 71.1801 124.846 71.0852 124.846 70.5685C124.846 70.2222 124.629 69.8555 124.363 69.7535C123.981 69.6067 123.88 68.9304 123.88 66.5001C123.88 63.6307 123.838 63.432 123.226 63.432C122.601 63.432 122.576 63.5972 122.663 67.2143ZM65.6178 64.8806C65.6178 65.3815 65.4353 65.6853 65.135 65.6853C64.8669 65.6853 64.6522 65.9715 64.6522 66.3291C64.6522 66.6868 64.8669 66.9729 65.135 66.9729C65.4971 66.9729 65.6178 67.3595 65.6178 68.5209C65.6178 70.5582 66.13 71.2387 67.5608 71.1026C68.9475 70.9703 69.3895 69.87 68.0555 69.87C67.2904 69.87 67.2273 69.7612 67.2273 68.444C67.2273 67.2121 67.3255 67.0038 67.9483 66.915C69.0183 66.7621 69.1123 65.6853 68.0555 65.6853C67.3866 65.6853 67.2273 65.5305 67.2273 64.8806C67.2273 64.2368 67.0664 64.0758 66.4226 64.0758C65.7788 64.0758 65.6178 64.2368 65.6178 64.8806ZM94.5881 64.8806C94.5881 65.3815 94.4056 65.6853 94.1053 65.6853C93.8372 65.6853 93.6225 65.9715 93.6225 66.3291C93.6225 66.6868 93.8372 66.9729 94.1053 66.9729C94.4639 66.9729 94.5881 67.3508 94.5881 68.4427C94.5881 70.5843 94.9982 71.1576 96.5308 71.1576C97.5924 71.1576 97.807 71.0494 97.807 70.5138C97.807 70.0416 97.5923 69.87 97.0023 69.87C96.2633 69.87 96.1976 69.7519 96.1976 68.4215C96.1976 67.0911 96.2633 66.9729 97.0023 66.9729C97.5923 66.9729 97.807 66.8013 97.807 66.3291C97.807 65.8569 97.5923 65.6853 97.0023 65.6853C96.3585 65.6853 96.1976 65.5244 96.1976 64.8806C96.1976 64.2368 96.0366 64.0758 95.3929 64.0758C94.7491 64.0758 94.5881 64.2368 94.5881 64.8806ZM60.671 65.8514C60.2052 66.0932 59.8238 66.1547 59.8238 65.9882C59.8238 65.8215 59.4617 65.6853 59.0191 65.6853C58.2237 65.6853 58.2143 65.7175 58.2143 68.4215C58.2143 71.1254 58.2237 71.1576 59.0191 71.1576C59.7877 71.1576 59.8238 71.0713 59.8238 69.2323C59.8238 67.459 59.8859 67.2916 60.6102 67.1097C61.8224 66.8055 62.077 67.176 62.077 69.2452C62.077 71.0704 62.1137 71.1576 62.8818 71.1576C63.6611 71.1576 63.6865 71.089 63.6817 68.9848C63.6759 66.5297 63.5323 66.1775 62.3545 65.7298C61.7484 65.4993 61.2855 65.5328 60.671 65.8514ZM78.7349 65.8292C78.2479 66.0832 77.8497 66.1547 77.8497 65.9882C77.8497 65.8215 77.4876 65.6853 77.045 65.6853C76.2496 65.6853 76.2403 65.7175 76.2403 68.4215C76.2403 71.1254 76.2496 71.1576 77.045 71.1576C77.8021 71.1576 77.8497 71.0568 77.8497 69.4515C77.8497 67.6673 78.2283 66.9729 79.2017 66.9729C79.605 66.9729 79.7811 66.7286 79.7811 66.1682C79.7811 65.2231 79.8522 65.2463 78.7349 65.8292ZM88.955 65.6686C88.2681 65.798 87.9594 66.0597 87.886 66.576C87.7907 67.2462 87.8461 67.2729 88.6103 66.9246C89.2331 66.641 89.6371 66.6385 90.2426 66.9143C91.4011 67.4422 91.234 67.9283 89.9648 67.7226C88.6109 67.5028 87.5751 68.0355 87.3111 69.0875C86.91 70.6857 89.0162 71.7505 90.7467 70.8244C91.1757 70.5946 91.3692 70.5946 91.3692 70.8244C91.3692 71.0076 91.8038 71.1576 92.3349 71.1576C93.0678 71.1576 93.3006 71.0108 93.3006 70.5482C93.3006 70.2131 93.082 69.8549 92.8148 69.7525C92.5477 69.6498 92.3474 69.4535 92.37 69.3157C92.4859 68.6101 92.2927 66.7611 92.0658 66.4038C91.7027 65.8311 90.1016 65.4529 88.955 65.6686ZM104.084 65.6177C101.969 66.051 101.17 69.1776 102.84 70.4903C103.369 70.9072 104.161 71.1576 104.947 71.1576C108.275 71.1576 108.904 66.594 105.693 65.742C105.162 65.601 104.438 65.545 104.084 65.6177ZM111.809 65.6892C111.455 65.8196 110.695 65.8534 110.119 65.7639L109.073 65.601V68.3793C109.073 71.1138 109.086 71.1576 109.863 71.1576C110.606 71.1576 110.658 71.0408 110.748 69.1457C110.843 67.1461 110.849 67.1339 111.809 67.1339C112.769 67.1339 112.776 67.1461 112.871 69.1457C112.961 71.0408 113.013 71.1576 113.756 71.1576C114.503 71.1576 114.545 71.0581 114.541 69.3067C114.534 66.4795 113.473 65.0753 111.809 65.6892ZM117.04 65.6261C116.401 65.6998 116.155 65.9084 116.155 66.3761C116.155 66.9304 116.296 66.9932 117.134 66.8091C117.732 66.6777 118.295 66.7457 118.582 66.9839C119.339 67.6122 119.125 67.937 118.09 67.73C116.759 67.4638 115.511 68.3159 115.511 69.4911C115.511 69.9827 115.685 70.5589 115.897 70.7713C116.379 71.2532 118.481 71.2783 118.951 70.8077C119.203 70.5556 119.362 70.5556 119.517 70.8077C119.636 71.0002 120.087 71.1576 120.519 71.1576C121.09 71.1576 121.305 70.9818 121.305 70.5138C121.305 70.1597 121.16 69.87 120.983 69.87C120.806 69.87 120.661 69.2504 120.661 68.4932C120.661 66.1846 119.586 65.3332 117.04 65.6261ZM70.8418 65.9007C70.1272 66.1885 69.4265 67.9261 69.6376 68.8873C69.9811 70.451 71.1038 71.2107 72.9016 71.0964C74.1869 71.0147 74.4866 70.8798 74.5626 70.3496C74.6453 69.7725 74.5037 69.7145 73.2567 69.8137C72.2681 69.8922 71.7341 69.7754 71.4348 69.4145C71.0559 68.9584 71.2194 68.9043 72.9821 68.9043C74.9276 68.9043 74.9527 68.8927 74.9527 67.9995C74.9527 66.6539 73.886 65.6802 72.4455 65.7108C71.7885 65.7246 71.0668 65.8102 70.8418 65.9007ZM80.7468 68.4215C80.7468 71.1254 80.7561 71.1576 81.5515 71.1576C82.3202 71.1576 82.3562 71.0713 82.3562 69.2323C82.3562 67.459 82.4184 67.2916 83.1426 67.1097C84.3549 66.8055 84.6095 67.176 84.6095 69.2452C84.6095 71.0704 84.6462 71.1576 85.4142 71.1576C86.1951 71.1576 86.2189 71.0916 86.2189 68.9272C86.2189 67.3289 86.0757 66.5538 85.7132 66.191C85.1158 65.5939 83.2936 65.5205 82.7425 66.0716C82.4422 66.3719 82.3562 66.3719 82.3562 66.0716C82.3562 65.8591 81.9941 65.6853 81.5515 65.6853C80.7561 65.6853 80.7468 65.7175 80.7468 68.4215ZM99.0946 68.4215C99.0946 71.1254 99.104 71.1576 99.8993 71.1576C100.695 71.1576 100.704 71.1254 100.704 68.4215C100.704 65.7175 100.695 65.6853 99.8993 65.6853C99.104 65.6853 99.0946 65.7175 99.0946 68.4215ZM73.2831 67.3753C73.369 67.8266 73.162 67.9386 72.2401 67.9386C71.0321 67.9386 70.8257 67.6879 71.4885 67.0251C72.0389 66.4746 73.153 66.6919 73.2831 67.3753ZM106.198 67.6573C106.464 68.1543 106.469 68.5515 106.216 69.1058C105.727 70.179 104.05 70.179 103.561 69.1058C103.051 67.9853 103.681 66.9729 104.889 66.9729C105.521 66.9729 105.953 67.1986 106.198 67.6573ZM90.7254 68.9153C91.1432 69.195 91.1243 69.3025 90.5835 69.7152C89.5167 70.5289 88.504 70.1246 88.9164 69.0498C89.123 68.5116 90.0218 68.4446 90.7254 68.9153ZM118.987 69.2793C119.136 70.0651 117.825 70.3899 117.165 69.7306C116.701 69.2658 116.695 69.1657 117.121 68.8908C117.82 68.4385 118.868 68.6564 118.987 69.2793ZM72.9161 76.5294C72.3872 77.5611 70.1243 82.9941 70.1243 83.2326C70.1243 83.3189 70.4836 83.3897 70.9229 83.3897C71.5062 83.3897 71.776 83.1728 71.9234 82.585C72.1078 81.8507 72.2778 81.7802 73.8679 81.7802C75.414 81.7802 75.6515 81.871 75.977 82.585C76.2158 83.1097 76.6056 83.3897 77.0968 83.3897C77.5108 83.3897 77.8497 83.3308 77.8497 83.259C77.8497 83.1873 77.148 81.4851 76.2902 79.4767C75.0786 76.6398 74.5803 75.8026 74.0556 75.7247C73.5837 75.6545 73.2409 75.8966 72.9161 76.5294ZM78.9223 76.1721C78.8151 76.4512 78.9439 76.8961 79.2081 77.1607C79.635 77.5872 79.7473 77.5833 80.2044 77.1262C80.4876 76.843 80.6376 76.3981 80.5379 76.1377C80.2958 75.5077 79.1679 75.5316 78.9223 76.1721ZM106.176 77.2737C106.176 77.7028 105.962 77.9175 105.532 77.9175C105.103 77.9175 104.889 78.1322 104.889 78.5613C104.889 78.9903 105.103 79.2051 105.532 79.2051C106.094 79.2051 106.177 79.4214 106.181 80.895C106.184 81.8243 106.292 82.7466 106.422 82.9439C106.754 83.4474 107.916 83.7647 108.545 83.5236C109.342 83.2175 109.203 82.1652 108.349 82.0442C107.747 81.9586 107.608 81.7104 107.526 80.5731C107.433 79.2945 107.481 79.2051 108.25 79.2051C108.859 79.2051 109.073 79.0373 109.073 78.5613C109.073 78.089 108.859 77.9175 108.269 77.9175C107.679 77.9175 107.464 77.7459 107.464 77.2737C107.464 76.8446 107.249 76.6299 106.82 76.6299C106.391 76.6299 106.176 76.8446 106.176 77.2737ZM74.4615 78.8671C75.1739 80.2448 75.0811 80.4926 73.8518 80.4926H72.7513L73.257 79.2051C73.5351 78.4969 73.8097 77.9175 73.8666 77.9175C73.9236 77.9175 74.1914 78.3449 74.4615 78.8671ZM78.8154 80.6536C78.8154 83.3575 78.8248 83.3897 79.6201 83.3897C80.4155 83.3897 80.4249 83.3575 80.4249 80.6536C80.4249 77.9497 80.4155 77.9175 79.6201 77.9175C78.8248 77.9175 78.8154 77.9497 78.8154 80.6536ZM82.0343 80.6536C82.0343 83.3575 82.0437 83.3897 82.8391 83.3897C83.6013 83.3897 83.6438 83.2951 83.6438 81.5913C83.6438 79.8888 83.6953 79.7735 84.6095 79.4285C85.1844 79.2115 85.5752 78.832 85.5752 78.4908C85.5752 77.8402 85.1715 77.7662 84.2663 78.2506C83.8373 78.4805 83.6438 78.4805 83.6438 78.2506C83.6438 78.0675 83.2817 77.9175 82.8391 77.9175C82.0437 77.9175 82.0343 77.9497 82.0343 80.6536ZM86.7571 78.1589C86.678 78.2915 86.5891 80.0301 86.5595 82.0217L86.5061 85.643H87.3282C88.075 85.643 88.1503 85.5233 88.1503 84.3339C88.1503 83.1174 88.2018 83.0421 88.8745 83.271C90.7274 83.9019 92.6568 82.7134 92.6568 80.9417C92.6568 79.9071 91.8627 78.3739 91.1938 78.1174C90.344 77.7913 88.9512 77.8891 88.5366 78.3037C88.2362 78.6041 88.1503 78.6041 88.1503 78.3037C88.1503 77.8849 86.9918 77.7642 86.7571 78.1589ZM94.2415 78.8584C93.1905 79.9094 93.073 80.7283 93.7779 82.0912C94.4481 83.3878 96.0952 83.8977 97.5927 83.2719C98.2133 83.0125 98.8773 82.508 99.0689 82.1504C100.688 79.1243 96.6975 76.4026 94.2415 78.8584ZM100.704 80.6536C100.704 83.2764 100.734 83.3897 101.428 83.3904C102.088 83.3907 102.153 83.2391 102.153 81.7004C102.153 80.1096 102.214 79.9811 103.192 79.527C103.776 79.2556 104.234 78.7972 104.238 78.4808C104.247 77.7678 103.353 77.751 102.58 78.4502C102.033 78.9459 101.992 78.9459 101.992 78.4502C101.992 78.1322 101.732 77.9175 101.348 77.9175C100.755 77.9175 100.704 78.1322 100.704 80.6536ZM90.7106 79.6702C91.2498 80.3198 91.0109 81.4632 90.2278 81.9805C88.9122 82.8493 87.4064 80.7215 88.5366 79.5913C89.0651 79.0628 90.2419 79.1053 90.7106 79.6702ZM97.4208 79.5913C98.0958 80.2663 97.892 81.768 97.0828 82.0819C95.6636 82.6323 94.2881 80.8252 95.2467 79.6702C95.7154 79.1053 96.8922 79.0628 97.4208 79.5913Z" fill="#C4C4C4"/>
</svg>
