<svg width="280" height="80" viewBox="0 0 280 80" fill="none" xmlns="http://www.w3.org/2000/svg">
<path fill-rule="evenodd" clip-rule="evenodd" d="M61.6747 3.06248C56.9675 3.34771 52.4797 4.55265 48.2554 6.66546C44.7061 8.44063 42.0057 10.3887 39.2042 13.1948C37.7968 14.6046 37.0553 15.4499 36.0334 16.8097C32.0653 22.0902 29.7883 27.9808 29.1167 34.7032C28.9882 35.9894 28.9682 39.8001 29.0841 40.9195C29.2852 42.8621 29.5144 44.3198 29.8465 45.7675C31.7036 53.8651 36.3045 60.9657 42.9187 65.9419C44.547 67.1669 46.3126 68.253 48.2257 69.2063C49.8605 70.0209 51.0679 70.5223 52.7335 71.0782C58.4179 72.9755 64.308 73.3755 70.1876 72.2636C79.2639 70.5473 87.2869 65.2531 92.4917 57.5457C92.7899 57.104 93.0623 56.7092 93.0969 56.6683C93.1749 56.5762 96.0335 56.5597 96.0898 56.651C96.2035 56.8355 94.7184 59.2546 93.4408 60.9661C89.2749 66.5467 83.625 70.7581 77.1408 73.116C74.2788 74.1567 70.8592 74.9093 67.7693 75.1785C64.6758 75.448 63.4612 75.4921 61.7491 75.3973C57.0674 75.1381 53.1467 74.1507 48.8204 72.1413C44.0991 69.9485 39.1958 66.2423 35.6514 62.1873C35.3251 61.8141 34.8977 61.3331 34.7015 61.1184C34.5053 60.9038 34.2917 60.6542 34.227 60.5639L34.1092 60.3997L31.0546 60.4152L28 60.4307L30.6394 63.0849C33.8214 66.2847 35.0787 67.3857 37.6771 69.2482C39.6593 70.669 41.3955 71.7162 43.7179 72.8918C47.0179 74.5624 49.714 75.5451 53.8308 76.5777C58.0908 77.6464 60.0794 77.9353 63.5637 77.9916C66.1344 78.0332 67.7354 77.9255 70.0529 77.5553C76.9561 76.4525 83.92 73.2783 90.1727 68.3846C90.6224 68.0326 91.0837 67.6798 91.1979 67.6005C92.7442 66.5275 94.68 64.3714 96.2471 61.9766C97.1879 60.539 98.4864 58.2667 99.0595 57.0549L99.2776 56.5939H175.963H252.648V55.7909V54.9879L176.318 54.9729L99.9874 54.9581L100.192 54.4524C100.954 52.5642 101.926 49.5028 102.938 45.7969C103.233 44.7174 104.418 40.6086 105.573 36.6662L107.671 29.4982L108.699 29.4685L109.726 29.4387L109.778 29.2355C109.82 29.0722 109.808 29.0022 109.716 28.8786L109.602 28.7249H106.289H102.977L102.901 28.9861C102.86 29.1297 102.81 29.297 102.791 29.3578C102.758 29.4626 102.807 29.4685 103.709 29.4685C104.233 29.4685 104.661 29.4885 104.66 29.5131C104.659 29.5377 102.982 35.2728 100.932 42.2579L97.206 54.9581L95.6551 54.9739C94.8021 54.9826 94.1042 54.9826 94.1042 54.9738C94.1042 54.965 94.3799 54.4091 94.7169 53.7384C96.2162 50.7543 97.1914 47.8855 97.8397 44.5513C98.1849 42.7759 98.4762 39.902 98.4911 38.1236C98.4987 37.2234 98.3653 35.0843 98.2241 33.8407C97.1612 24.4795 92.2236 15.7919 84.7406 10.1165C78.0781 5.06333 69.9047 2.56375 61.6747 3.06248ZM66.0789 5.32055C73.9813 5.91285 81.2788 9.26974 86.8449 14.8731C89.5163 17.5624 91.8405 20.9199 93.3656 24.2932C95.9125 29.9268 96.828 35.9603 96.0597 42.0497C95.725 44.7028 94.9902 47.5393 93.9858 50.0556C93.5594 51.1238 92.4406 53.4266 91.8997 54.3496L91.5241 54.9903L87.1943 54.9697C82.4659 54.9471 82.7637 54.9667 81.1284 54.5707C78.7105 53.9854 76.1402 52.8432 74.0041 51.4048C72.4443 50.3545 70.7319 48.8281 69.4817 47.3736C68.4747 46.2021 67.3206 44.5126 66.5981 43.1524C66.1775 42.3607 65.7712 41.8042 65.1595 41.1823C64.3448 40.354 63.522 39.8437 62.6091 39.6005C62.073 39.4576 60.9349 39.4586 60.4145 39.6022C59.1613 39.9482 58.0855 40.8396 57.5404 41.9837C57.2085 42.6804 57.1274 43.075 57.1296 43.983C57.1314 44.7229 57.1464 44.8311 57.3202 45.3584C57.9213 47.182 59.5742 49.5084 61.5223 51.2726C62.4567 52.1188 63.0258 52.5616 64.0919 53.2724C66.1511 54.645 68.6645 55.7019 71.0612 56.2027C73.0053 56.609 73.1125 56.6137 80.0767 56.5985L86.3046 56.5848L86.0673 56.8319C85.4917 57.4313 84.1995 58.3065 82.9575 58.9383C80.9341 59.9675 78.6405 60.647 75.9842 61.0044C74.6208 61.1877 71.5329 61.206 70.4087 61.0374C66.0519 60.3837 62.2434 58.3859 58.751 54.9221C56.9343 53.1203 55.3604 51.0986 53.6958 48.4283C52.7275 46.8752 52.341 46.1555 51.9309 45.1429C50.9056 42.6109 49.6729 41.0649 48.0202 40.2382C46.3895 39.4224 45.0466 39.2841 43.1327 39.7347C41.3658 40.1507 39.708 41.3956 38.8863 42.9235C38.1592 44.2753 37.848 45.7092 37.9914 47.0459C38.0882 47.9478 38.2377 48.4644 38.7136 49.5421C39.7434 51.8741 40.6628 53.6412 41.4233 54.7499C46.0613 61.5115 52.6225 65.874 59.9898 67.0944C61.3915 67.3265 62.4768 67.4219 64.1512 67.46C71.3933 67.6246 77.6675 65.4853 82.5404 61.19C83.9257 59.9689 85.1471 58.5728 86.3182 56.8721L86.5098 56.5939H88.4683C89.5455 56.5939 90.4268 56.6096 90.4268 56.6288C90.4268 56.7032 89.2298 58.2688 88.5888 59.0328C87.7213 60.0667 85.7498 62.0402 84.7642 62.8612C79.5053 67.2417 73.5916 69.7292 66.761 70.4341C65.3945 70.5751 62.0775 70.5751 60.7111 70.4341C53.7929 69.7202 47.8061 67.1696 42.5093 62.6796C42.1309 62.3588 41.3405 61.6145 40.7528 61.0256C39.0915 59.3607 37.9769 58.0031 36.6935 56.0812C31.2976 48.0011 29.7682 37.9788 32.51 28.6654C36.0472 16.6499 46.1346 7.70872 58.4437 5.67835C59.3467 5.52946 60.7148 5.36772 61.6601 5.29824C62.326 5.24928 65.3304 5.26445 66.0789 5.32055ZM60.7111 8.45181C58.3804 8.5891 55.9197 9.02995 53.8011 9.68976C48.5953 11.3112 44.0617 14.6313 41.184 18.9298C40.9576 19.268 40.785 19.5573 40.8004 19.5727C40.8157 19.5881 40.8875 19.5173 40.9599 19.4154C41.0322 19.3135 41.1048 19.2435 41.1211 19.2599C41.1374 19.2762 41.0893 19.3781 41.0141 19.4863C40.9338 19.602 41.0773 19.4933 41.3618 19.2232C43.3876 17.2992 46.726 15.7887 50.3313 15.1651C54.8488 14.3836 58.7396 14.8286 62.4439 16.5504C63.7742 17.1688 65.4609 18.2411 66.8203 19.3326C67.7854 20.1075 69.782 22.0875 70.5988 23.0794C71.758 24.4873 72.7482 25.8739 73.8021 27.5649C74.7418 29.0728 75.1348 29.8037 75.5324 30.7832C75.9976 31.9292 76.2749 32.4727 76.7836 33.2357C77.5368 34.3655 78.4515 35.2226 79.421 35.7076C80.5191 36.257 81.232 36.4345 82.3306 36.4324C83.8867 36.4293 85.1873 36.0655 86.3364 35.3118C87.4166 34.6033 88.1433 33.7955 88.6768 32.7104C89.2902 31.4624 89.441 30.8152 89.4389 29.4387C89.4376 28.5396 89.4202 28.3629 89.2824 27.8446C89.0463 26.9574 87.6349 23.8579 86.8254 22.4492C85.3323 19.8511 82.7 16.7784 80.1751 14.6863C75.6741 10.9569 70.5007 8.87338 64.7444 8.47174C63.9607 8.41707 61.5067 8.40494 60.7111 8.45181ZM50.7762 19.3014C48.0707 19.4664 45.4215 20.2179 43.0655 21.4889C40.3532 22.952 37.8316 25.3723 36.3324 27.9516L36.1941 28.1895L36.3527 28.0454C36.5116 27.9009 36.5768 27.9435 36.4373 28.1004C36.3031 28.2513 36.5756 28.041 36.8673 27.7685C37.7714 26.9239 39.0164 26.076 40.2731 25.4487C44.3184 23.4296 49.0617 23.6302 53.8216 26.0218C55.6816 26.9564 57.2063 28.1174 58.4234 29.5261C59.0833 30.2898 59.4416 30.788 60.2525 32.0691C61.8489 34.591 62.9927 35.7035 64.5272 36.2269C66.842 37.0165 69.3192 35.775 70.1189 33.4243C70.3313 32.7999 70.3873 31.6222 70.2367 30.9444C70.0336 30.0304 69.2996 28.6061 68.4032 27.3865C65.858 23.9236 61.9826 21.2422 57.7868 20.0409C55.5061 19.3879 53.2541 19.1504 50.7762 19.3014ZM121.465 24.6547C121.091 24.7954 119.939 24.9031 118.426 24.9388L116.798 24.9773L116.661 25.3321C116.586 25.5272 116.525 25.6945 116.525 25.7039C116.525 25.7132 116.819 25.7209 117.178 25.7209C117.826 25.7209 117.831 25.7221 117.8 25.8547C117.783 25.9284 117.532 26.9656 117.242 28.1598C116.951 29.354 116.629 30.6836 116.526 31.1145L116.338 31.898L116.031 31.7552C115.55 31.5314 115.15 31.4731 114.33 31.5069C113.434 31.5439 112.803 31.7103 111.927 32.1412C109.931 33.1229 108.293 35.0699 107.192 37.7676C106.722 38.9205 106.56 39.7698 106.56 41.0867C106.56 44.3876 108.143 46.4219 110.712 46.4219C111.329 46.4219 111.918 46.3006 112.556 46.0424C112.868 45.916 112.914 45.9095 112.892 45.9952C112.878 46.0499 112.508 47.5736 112.071 49.3811L111.275 52.6674L110.68 52.6677L110.084 52.6679L109.923 52.9963C109.835 53.177 109.763 53.3378 109.763 53.3538C109.763 53.3697 111.116 53.3759 112.769 53.3674L115.775 53.3519L115.852 53.0545C115.895 52.8909 115.93 52.737 115.93 52.7125C115.931 52.6879 115.691 52.6679 115.398 52.6679C115.104 52.6679 114.864 52.6571 114.864 52.6439C114.864 52.5767 116.459 46.0515 116.481 46.0296C116.495 46.0155 116.626 46.0573 116.773 46.1225C117.579 46.4798 118.795 46.5178 119.727 46.2147C121.424 45.663 123.017 44.4142 124.292 42.6345C124.499 42.3456 124.649 42.1627 124.626 42.2281C124.552 42.4352 124.425 43.106 124.384 43.5071C124.268 44.6425 124.921 45.8903 125.821 46.2532C126.313 46.4516 127.489 46.4516 128.178 46.2534C129.098 45.9891 130.035 45.4692 130.812 44.7931L131.19 44.4637L131.35 44.9255C131.878 46.4555 132.953 46.8173 134.555 46.0043C135.055 45.7506 135.684 45.3156 136.127 44.9167L136.424 44.6497L136.287 44.5016L136.149 44.3534L135.812 44.5218C135.149 44.8533 134.725 44.8479 134.686 44.5073C134.676 44.421 135.045 42.9093 135.506 41.1478C137.306 34.2795 137.248 34.5265 137.251 33.7217C137.254 33.0396 137.247 32.9938 137.079 32.6912C136.791 32.1681 136.24 31.8236 135.376 31.6243C134.744 31.4787 132.138 31.4817 131.4 31.6289C130.258 31.8565 129.461 32.2142 128.676 32.8517C127.877 33.5004 126.951 34.7638 126.782 35.4358C126.62 36.083 126.818 36.7945 127.26 37.1494C127.76 37.5508 128.8 37.6035 129.491 37.2625C130.117 36.9533 130.669 36.1861 130.832 35.3989C130.925 34.9512 130.813 34.493 130.459 33.877C130.32 33.6352 130.206 33.3624 130.206 33.2706C130.206 32.9211 130.676 32.468 131.204 32.3082C131.511 32.2153 132.551 32.2225 132.894 32.3199C133.261 32.424 133.626 32.8002 133.743 33.194C133.822 33.4625 133.823 33.5566 133.748 33.9966C133.66 34.5113 133.285 36.0035 132.942 37.2016L132.747 37.8857L131.857 37.9315C129.216 38.0675 127.31 38.7402 126.004 39.9974C125.715 40.2755 125.495 40.4629 125.514 40.4138C125.727 39.8641 125.974 39.0524 126.099 38.4962C126.356 37.3447 126.296 36.0273 125.925 34.7312C125.437 33.0238 124.474 31.9163 123.185 31.5796C122.463 31.3909 121.285 31.4892 120.319 31.8187C120.081 31.9001 119.88 31.96 119.874 31.9519C119.868 31.9438 120.259 30.3176 120.742 28.3383C121.225 26.3589 121.615 24.7092 121.608 24.6723C121.6 24.6286 121.55 24.6224 121.465 24.6547ZM42.8282 27.6066C42.4121 27.6446 41.3701 27.869 40.9053 28.0207C38.0558 28.9505 35.7697 31.469 34.6476 34.9147C34.47 35.4601 34.4628 35.5177 34.5851 35.4159C34.6618 35.3521 34.6691 35.3577 34.6337 35.4533C34.6107 35.5151 34.857 35.2868 35.181 34.9459C36.6957 33.3519 38.0809 32.4269 39.4177 32.1167C39.9884 31.9842 40.8678 31.9827 41.3751 32.1134C42.6031 32.4296 43.8344 33.3801 44.8146 34.7685C45.525 35.7749 46.023 36.2741 46.6343 36.5925C47.4255 37.0046 47.9342 37.0879 48.8887 36.9618C49.8582 36.8338 50.8663 36.1288 51.3263 35.2573C51.9205 34.1313 51.8957 32.5517 51.262 31.1761C50.3243 29.1407 48.38 27.9555 45.438 27.6257C44.9382 27.5698 43.3588 27.5582 42.8282 27.6066ZM198.495 31.4358C197.756 31.6404 197.368 31.8599 196.939 32.3159C196.295 33 195.795 34.0036 195.199 35.8033C195.017 36.3518 194.808 36.8976 194.733 37.0163C194.406 37.5362 193.724 37.9578 192.944 38.1237C192.601 38.1966 191.846 38.2481 191.854 38.198C191.856 38.1898 192.198 36.9116 192.614 35.3576L193.371 32.532L193.897 32.5023L194.422 32.4725L194.526 32.1751C194.584 32.0115 194.633 31.8442 194.635 31.8033C194.639 31.7448 194.012 31.7289 191.686 31.7289H188.732L188.622 32.0412C188.561 32.213 188.5 32.387 188.485 32.4279C188.465 32.4842 188.604 32.5023 189.058 32.5023C189.641 32.5023 189.657 32.506 189.655 32.6361C189.654 32.7097 188.978 35.594 188.153 39.0457L186.652 45.3214L186.132 45.3511L185.613 45.3809L185.47 45.733C185.392 45.9267 185.328 46.1074 185.328 46.1346C185.328 46.1617 186.631 46.1839 188.223 46.1839H191.119L191.226 45.8419C191.285 45.6537 191.346 45.4673 191.361 45.4276C191.381 45.3743 191.226 45.3508 190.772 45.3383L190.155 45.3214L190.941 42.1389C191.374 40.3885 191.729 38.9468 191.73 38.935C191.732 38.9232 192.02 38.9234 192.371 38.9354C192.94 38.955 193.039 38.9753 193.29 39.1228C193.726 39.3793 193.773 39.5182 193.76 40.5328C193.754 41.0072 193.707 42.3352 193.655 43.4838C193.549 45.818 193.545 45.7834 193.945 46.0891C194.338 46.3899 195.424 46.5184 196.194 46.3552C196.919 46.2014 197.719 45.6964 198.163 45.1135C198.39 44.8152 198.391 44.8111 198.281 44.6803C198.22 44.6076 198.166 44.5397 198.161 44.5295C198.156 44.5192 198.009 44.62 197.834 44.7535C197.659 44.8869 197.413 45.0278 197.286 45.0664C197.072 45.1318 197.048 45.1266 196.94 44.9929C196.809 44.8312 196.813 44.7458 197.012 43.4773C197.298 41.6458 197.318 40.6579 197.081 40.1664C196.903 39.7968 196.438 39.2362 196.091 38.9729C195.77 38.729 195.262 38.5372 194.773 38.475L194.462 38.4355L194.661 38.2144C195.331 37.4707 195.902 36.2973 196.503 34.429C196.735 33.7093 196.898 33.4168 197.145 33.2776C197.292 33.1954 197.324 33.1972 197.512 33.2986C197.799 33.454 197.936 33.7581 197.85 34.0484C197.813 34.1696 197.72 34.3384 197.641 34.4235C197.338 34.7516 197.289 35.352 197.536 35.701C197.606 35.7984 197.8 35.9366 197.972 36.0108C198.23 36.1221 198.359 36.1403 198.734 36.1185C200.01 36.0444 200.734 35.0291 200.846 33.1543C200.879 32.6052 200.87 32.4946 200.766 32.262C200.422 31.4899 199.505 31.1562 198.495 31.4358ZM157.219 31.583C156.597 31.7184 156.089 31.904 155.501 32.2109C153.559 33.224 151.981 35.1315 150.906 37.7676C150.435 38.9205 150.274 39.7698 150.274 41.0867C150.274 43.5194 151.127 45.2826 152.67 46.0387C153.858 46.6209 155.319 46.542 156.755 45.8183C159.411 44.4805 161.436 41.7379 162.161 38.4962C162.419 37.3447 162.358 36.0273 161.987 34.7312C161.499 33.0238 160.537 31.9163 159.247 31.5796C158.822 31.4685 157.737 31.4703 157.219 31.583ZM181.597 31.583C180.975 31.7184 180.467 31.904 179.878 32.2109C177.936 33.224 176.359 35.1315 175.283 37.7676C174.813 38.9205 174.651 39.7698 174.651 41.0867C174.651 43.5194 175.504 45.2826 177.047 46.0387C178.235 46.6209 179.696 46.542 181.133 45.8183C183.789 44.4805 185.814 41.7379 186.539 38.4962C186.796 37.3447 186.735 36.0273 186.365 34.7312C185.877 33.0238 184.914 31.9163 183.625 31.5796C183.2 31.4685 182.115 31.4703 181.597 31.583ZM206.93 31.5511C204.802 31.7735 203.219 32.8007 202.103 34.683C201.769 35.2463 201.672 35.5962 201.712 36.0993C201.788 37.0482 202.515 37.5664 203.649 37.4806C204.691 37.4018 205.563 36.559 205.804 35.3989C205.897 34.9512 205.784 34.493 205.43 33.877C205.291 33.6352 205.178 33.3624 205.178 33.2706C205.178 32.9211 205.647 32.468 206.175 32.3082C206.482 32.2153 207.522 32.2225 207.865 32.3199C208.232 32.424 208.598 32.8002 208.714 33.194C208.794 33.4625 208.794 33.5566 208.719 33.9966C208.631 34.5113 208.256 36.0035 207.914 37.2016L207.718 37.8857L206.828 37.9315C202.273 38.166 199.705 40.0825 199.356 43.5071C199.24 44.6425 199.893 45.8903 200.793 46.2532C201.285 46.4516 202.46 46.4516 203.15 46.2534C204.069 45.9891 205.007 45.4692 205.783 44.7931L206.162 44.4637L206.321 44.9255C206.849 46.4555 207.924 46.8173 209.527 46.0043C210.027 45.7506 210.656 45.3156 211.099 44.9167L211.396 44.6497L211.258 44.5016L211.121 44.3534L210.784 44.5218C210.12 44.8533 209.697 44.8479 209.657 44.5073C209.647 44.421 210.016 42.9093 210.478 41.1478C212.277 34.2795 212.219 34.5265 212.223 33.7217C212.226 33.0396 212.218 32.9938 212.051 32.6912C211.765 32.1735 211.208 31.821 210.377 31.633C209.897 31.5242 207.69 31.4717 206.93 31.5511ZM232.91 31.5511C230.782 31.7735 229.198 32.8007 228.082 34.683C227.748 35.2463 227.651 35.5962 227.691 36.0993C227.767 37.0482 228.494 37.5664 229.628 37.4806C230.67 37.4018 231.542 36.559 231.783 35.3989C231.876 34.9512 231.763 34.493 231.409 33.877C231.27 33.6352 231.157 33.3624 231.157 33.2706C231.157 32.9211 231.627 32.468 232.155 32.3082C232.461 32.2153 233.501 32.2225 233.844 32.3199C234.212 32.424 234.577 32.8002 234.693 33.194C234.773 33.4625 234.774 33.5566 234.698 33.9966C234.61 34.5113 234.235 36.0035 233.893 37.2016L233.697 37.8857L232.808 37.9315C228.252 38.166 225.684 40.0825 225.335 43.5071C225.219 44.6425 225.872 45.8903 226.772 46.2532C227.264 46.4516 228.439 46.4516 229.129 46.2534C230.048 45.9891 230.986 45.4692 231.762 44.7931L232.141 44.4637L232.3 44.9255C232.653 45.9466 233.201 46.4131 234.057 46.4193C234.702 46.424 235.534 46.081 236.41 45.45L236.869 45.1194L237.043 45.3723C237.239 45.6594 237.524 45.873 237.997 46.089C238.931 46.515 239.799 46.5209 240.504 46.106C240.914 45.8649 241.421 45.2841 241.643 44.8016C242.101 43.805 242.954 40.9387 244.172 36.3093C244.563 34.8207 244.913 33.5224 244.95 33.4243C245.074 33.0947 245.367 32.7436 245.621 32.6205C245.848 32.5102 245.966 32.501 246.963 32.5158L248.057 32.532L246.485 38.9416L244.913 45.3511H244.333H243.753L243.716 45.5147C243.696 45.6047 243.656 45.772 243.627 45.8865C243.597 46.001 243.573 46.1148 243.573 46.1393C243.573 46.1639 244.877 46.1839 246.47 46.1839H249.368L249.525 45.8121C249.612 45.6077 249.682 45.4203 249.682 45.3957C249.682 45.3712 249.428 45.3511 249.119 45.3511C248.809 45.3511 248.555 45.3311 248.554 45.3065C248.554 45.282 249.265 42.392 250.135 38.8843L251.716 32.5067L252.226 32.4896L252.736 32.4725L252.868 32.1007L253 31.7289H247.909H242.818L242.751 32.066C242.713 32.2515 242.683 32.4255 242.683 32.4527C242.683 32.4799 242.93 32.5024 243.232 32.5025C243.668 32.5027 243.819 32.5261 243.967 32.6168C244.197 32.7573 244.313 33.0738 244.259 33.4124C244.179 33.9122 241.373 43.8779 241.236 44.148C240.976 44.6603 240.646 44.8629 240.247 44.755C239.853 44.6486 239.789 44.296 240.05 43.6695C240.256 43.1744 240.301 42.5477 240.151 42.2599C239.975 41.9213 239.716 41.8117 239.095 41.8117H238.561L238.14 42.0931C237.908 42.2478 237.609 42.4933 237.475 42.6386C237.139 43.0044 236.828 43.6504 236.745 44.1543C236.677 44.5636 236.672 44.5732 236.441 44.6659C235.968 44.8557 235.625 44.7749 235.625 44.4735C235.625 44.3914 236.001 42.8889 236.46 41.1347C238.256 34.2814 238.198 34.5264 238.202 33.7217C238.205 33.0396 238.197 32.9938 238.03 32.6912C237.744 32.1735 237.187 31.821 236.357 31.633C235.876 31.5242 233.669 31.4717 232.91 31.5511ZM214.475 31.833C214.455 31.923 214.415 32.0903 214.385 32.2048C214.356 32.3193 214.332 32.4331 214.332 32.4576C214.332 32.4822 214.562 32.5023 214.843 32.5023H215.355L215.317 32.7414C215.286 32.9327 214.218 37.4531 212.505 44.6373L212.342 45.3214L211.805 45.3383L211.268 45.3554L211.164 45.6953C211.107 45.8822 211.048 46.0821 211.031 46.1393C211.004 46.2374 211.165 46.2434 213.821 46.2434H216.64L216.761 45.8505C216.828 45.6344 216.882 45.4347 216.882 45.4067C216.882 45.3787 216.659 45.348 216.387 45.3386L215.892 45.3214L216.605 42.124L217.318 38.9267H219.087C220.06 38.9267 220.856 38.9467 220.856 38.9713C220.857 38.9959 220.517 40.4413 220.103 42.1835L219.349 45.3511H218.83H218.311L218.248 45.5742C218.214 45.6969 218.169 45.8977 218.149 46.0203L218.112 46.2434H220.934C222.526 46.2434 223.77 46.2203 223.788 46.1903C223.806 46.1611 223.858 45.9603 223.903 45.7442L223.985 45.3511H223.436H222.886L223.027 44.7712C223.105 44.4522 223.795 41.5871 224.56 38.4042C225.326 35.2214 225.968 32.5914 225.988 32.5598C226.007 32.5281 226.285 32.5023 226.605 32.5023H227.187L227.223 32.2792C227.243 32.1565 227.276 31.9691 227.297 31.8628L227.336 31.6695H224.427H221.519L221.481 31.9223C221.46 32.0613 221.429 32.2487 221.412 32.3387L221.38 32.5023H221.893C222.353 32.5023 222.403 32.513 222.377 32.6063C222.361 32.6636 222.061 33.9485 221.71 35.4617L221.071 38.2129H219.361H217.651L217.682 38.079C217.7 38.0054 217.994 36.754 218.336 35.2981C218.677 33.8422 218.97 32.6175 218.985 32.5766C219.005 32.5252 219.168 32.5023 219.515 32.5023H220.017L220.11 32.1808C220.162 32.004 220.204 31.8166 220.204 31.7644C220.204 31.6788 219.924 31.6695 217.358 31.6695H214.512L214.475 31.833ZM139.41 32.1099L139.32 32.4908L139.812 32.5114C140.15 32.5255 140.332 32.5601 140.392 32.6212C140.469 32.6999 140.295 33.461 138.927 39.0308L137.376 45.3511H136.831H136.287L136.163 45.7196C136.094 45.9223 136.038 46.1096 136.038 46.136C136.038 46.1623 137.904 46.1839 140.184 46.1839H144.329L144.912 46.0321C147.085 45.4658 148.469 44.0238 148.825 41.9536C149.114 40.2717 148.133 38.9294 146.329 38.5392C146.068 38.4828 145.833 38.4168 145.807 38.3925C145.706 38.3 146.118 38.0513 146.545 37.9477C147.788 37.6456 148.975 36.8791 149.56 36.0004C150.074 35.2287 150.218 34.1263 149.897 33.4243C149.604 32.7831 149.01 32.2957 148.198 32.0298C147.347 31.7512 146.979 31.7294 143.123 31.7292L139.501 31.7289L139.41 32.1099ZM165.288 32.066C165.251 32.2515 165.22 32.4215 165.22 32.4439C165.22 32.4663 165.465 32.5005 165.764 32.5199C166.146 32.5448 166.335 32.5834 166.401 32.6503C166.687 32.9379 166.299 34.9927 165.317 38.3913C164.631 40.7632 163.918 42.9899 163.7 43.4402C163.457 43.9395 162.876 44.5751 162.417 44.8421C161.991 45.0901 161.331 45.2934 160.824 45.3326L160.372 45.3676L159.828 47.8429C159.529 49.2043 159.235 50.539 159.174 50.8089L159.065 51.2997H159.429L159.793 51.2996L159.961 50.8089C160.174 50.187 160.613 49.2957 160.984 48.7325C161.141 48.4922 161.526 48.0391 161.837 47.7254C162.724 46.8322 163.591 46.3921 164.755 46.2459C165.52 46.1496 168.545 46.1676 169.033 46.2714C169.803 46.435 170.25 46.7829 170.568 47.4653C170.856 48.0808 170.923 48.5233 170.957 50.0127L170.988 51.3727L171.307 51.3462C171.483 51.3316 171.636 51.3085 171.649 51.2948C171.671 51.2712 173.05 45.4519 173.05 45.3836C173.05 45.3658 172.649 45.3511 172.16 45.3511C171.671 45.3511 171.27 45.3311 171.269 45.3065C171.268 45.282 171.94 42.391 172.762 38.8821L174.257 32.5023H174.921H175.586L175.655 32.2197C175.693 32.0643 175.738 31.8903 175.755 31.833C175.784 31.7345 175.51 31.7289 170.571 31.7289H165.355L165.288 32.066ZM114.551 32.337C115.283 32.5779 115.65 33.1378 115.549 33.8576C115.488 34.2869 112.846 44.5233 112.743 44.7265C112.572 45.0643 112.321 45.3279 112.006 45.5004C111.739 45.6468 111.608 45.6769 111.15 45.6974C110.43 45.7295 110.033 45.6165 109.746 45.298C109.504 45.0289 109.373 44.5414 109.438 44.152C109.536 43.5739 112.139 33.4845 112.25 33.254C112.438 32.8649 112.755 32.5293 113.096 32.3588C113.495 32.1596 113.99 32.1522 114.551 32.337ZM122.202 32.337C122.934 32.5779 123.302 33.1378 123.2 33.8576C123.14 34.2869 120.497 44.5233 120.395 44.7265C120.224 45.0643 119.973 45.3279 119.658 45.5004C119.39 45.6468 119.259 45.6769 118.802 45.6974C118.082 45.7295 117.684 45.6165 117.397 45.298C117.155 45.0289 117.024 44.5414 117.09 44.152C117.187 43.5739 119.79 33.4845 119.901 33.254C120.089 32.8649 120.407 32.5293 120.748 32.3588C121.146 32.1596 121.641 32.1522 122.202 32.337ZM158.265 32.337C158.996 32.5779 159.364 33.1378 159.263 33.8576C159.202 34.2869 156.56 44.5233 156.457 44.7265C156.286 45.0643 156.035 45.3279 155.72 45.5004C155.453 45.6468 155.321 45.6769 154.864 45.6974C154.144 45.7295 153.746 45.6165 153.46 45.298C153.217 45.0289 153.086 44.5414 153.152 44.152C153.249 43.5739 155.852 33.4845 155.964 33.254C156.152 32.8649 156.469 32.5293 156.81 32.3588C157.208 32.1596 157.703 32.1522 158.265 32.337ZM182.642 32.337C183.374 32.5779 183.741 33.1378 183.64 33.8576C183.58 34.2869 180.937 44.5233 180.835 44.7265C180.664 45.0643 180.413 45.3279 180.098 45.5004C179.83 45.6468 179.699 45.6769 179.242 45.6974C178.522 45.7295 178.124 45.6165 177.837 45.298C177.595 45.0289 177.464 44.5414 177.529 44.152C177.627 43.5739 180.23 33.4845 180.341 33.254C180.529 32.8649 180.846 32.5293 181.187 32.3588C181.586 32.1596 182.081 32.1522 182.642 32.337ZM146.239 32.679C146.472 32.9299 146.547 33.3079 146.546 34.2275C146.544 35.2192 146.438 35.7654 146.124 36.405C145.838 36.9866 145.272 37.5592 144.697 37.8473C144.332 38.0301 144.304 38.0344 143.502 38.0344C143.051 38.0344 142.682 38.0112 142.682 37.9829C142.682 37.9057 143.993 32.5986 144.025 32.5469C144.04 32.5223 144.508 32.5023 145.063 32.5023H146.074L146.239 32.679ZM170.737 32.5301C170.737 32.5455 170.094 35.3094 169.309 38.672C168.524 42.0348 167.852 44.9132 167.816 45.0686L167.751 45.3511L165.373 45.3498L162.996 45.3485L163.144 45.2289C163.226 45.1632 163.473 44.9901 163.694 44.8444C164.198 44.5109 164.63 44.0594 164.854 43.6312C165.284 42.8085 166.872 37.5194 167.391 35.1823C167.776 33.4463 167.889 33.2041 168.5 32.8115C168.703 32.6815 168.908 32.561 168.957 32.5434C169.067 32.5041 170.737 32.4916 170.737 32.5301ZM132.64 38.7631C132.623 38.8367 132.472 39.5394 132.305 40.3246C131.906 42.1962 131.808 42.5513 131.527 43.1245C131.102 43.9908 130.453 44.6562 129.84 44.8537C129.677 44.9062 129.297 44.9625 128.996 44.9788L128.449 45.0083L128.24 44.799C128.033 44.5911 128.031 44.5863 128.032 44.0633C128.032 42.9427 128.304 41.7006 128.75 40.7797C128.996 40.2704 129.126 40.0845 129.503 39.703C130.235 38.963 131.023 38.6441 132.145 38.634C132.661 38.6294 132.67 38.6318 132.64 38.7631ZM144.669 38.7641C145.01 38.9555 145.233 39.4229 145.274 40.0378C145.32 40.7152 145.032 42.566 144.749 43.4162C144.44 44.3435 143.943 45.0365 143.369 45.3399C143.078 45.494 143.029 45.5003 141.955 45.5192C141.008 45.536 140.843 45.5259 140.843 45.4515C140.843 45.3792 142.255 39.5743 142.448 38.8523L142.508 38.6293L143.47 38.6302C144.353 38.6312 144.45 38.642 144.669 38.7641ZM207.611 38.7631C207.594 38.8367 207.444 39.5394 207.276 40.3246C206.878 42.1962 206.779 42.5513 206.498 43.1245C206.074 43.9908 205.425 44.6562 204.812 44.8537C204.649 44.9062 204.269 44.9625 203.968 44.9788L203.42 45.0083L203.211 44.799C203.004 44.5911 203.003 44.5863 203.003 44.0633C203.004 42.9427 203.275 41.7006 203.721 40.7797C203.967 40.2704 204.098 40.0845 204.475 39.703C205.206 38.963 205.994 38.6441 207.117 38.634C207.632 38.6294 207.641 38.6318 207.611 38.7631ZM233.59 38.7631C233.573 38.8367 233.423 39.5394 233.255 40.3246C232.857 42.1962 232.758 42.5513 232.477 43.1245C232.053 43.9908 231.404 44.6562 230.791 44.8537C230.628 44.9062 230.248 44.9625 229.947 44.9788L229.399 45.0083L229.191 44.799C228.983 44.5911 228.982 44.5863 228.982 44.0633C228.983 42.9427 229.255 41.7006 229.7 40.7797C229.947 40.2704 230.077 40.0845 230.454 39.703C231.185 38.963 231.973 38.6441 233.096 38.634C233.611 38.6294 233.621 38.6318 233.59 38.7631ZM78.3434 39.0166C77.4424 39.2129 76.5714 39.9056 76.141 40.7678C75.8031 41.4449 75.6935 41.9972 75.7344 42.8169C75.8412 44.9538 77.1418 46.7357 79.235 47.6129C80.5139 48.1488 81.866 48.3581 83.7245 48.3077C85.3151 48.2647 86.2376 48.0672 87.4612 47.508C89.3918 46.6257 91.1598 44.7455 92.2108 42.457C92.4543 41.9268 92.918 40.645 92.918 40.5021C92.918 40.4598 92.5243 40.8193 92.0431 41.3011C90.7308 42.615 89.7413 43.2998 88.5882 43.6918C88.1177 43.8518 87.9104 43.8879 87.333 43.9106C86.1748 43.9561 85.3437 43.682 84.3424 42.9242C83.6111 42.3708 83.2124 41.9491 82.5568 41.0355C82.227 40.5759 81.7917 40.0463 81.5896 39.8586C81.1996 39.4965 80.6405 39.1805 80.1104 39.0226C79.7183 38.9058 78.865 38.903 78.3434 39.0166ZM80.0168 40.3846C80.8593 40.6826 81.57 41.3065 82.0877 42.2023C83.2534 44.2189 84.8609 45.1315 87.0757 45.034C87.9071 44.9974 88.4405 44.9007 89.2554 44.6384C89.5409 44.5466 89.7744 44.4913 89.7744 44.5156C89.7744 44.5954 89.1017 45.2044 88.6104 45.5693C87.7435 46.2133 86.4309 46.7994 85.3259 47.0359C83.782 47.3664 82.0156 47.3261 80.6358 46.9291C79.5066 46.6041 78.7442 46.1858 78.0857 45.5301C77.5543 45.0008 77.215 44.4503 76.9576 43.7001C76.5941 42.6404 76.7259 41.6903 77.3272 41.0361C78.0049 40.2987 79.0552 40.0443 80.0168 40.3846ZM45.9229 40.8331C47.0007 41.109 47.9826 41.6935 48.8972 42.6038C49.8796 43.5814 50.4075 44.3777 50.9473 45.6966C52.9817 50.6666 56.9834 55.8509 60.9483 58.6527C63.9225 60.7545 67.1707 62.0433 70.7053 62.524C71.8028 62.6733 74.894 62.6732 75.9545 62.5239C77.2206 62.3456 79.0522 61.9278 79.7743 61.6525C79.8681 61.6166 79.9553 61.5978 79.9681 61.6106C80.0024 61.645 78.4573 62.6494 77.7042 63.0824C71.3431 66.7398 63.8104 67.2755 56.3706 64.5998C53.1478 63.4408 50.1807 61.6668 47.375 59.2217C44.4909 56.7082 41.8769 53.312 40.5487 50.3527C39.8694 48.8392 39.551 47.603 39.4979 46.2732C39.4597 45.3165 39.5777 44.5696 39.885 43.8221C40.3437 42.7065 41.2581 41.7509 42.4298 41.1626C43.408 40.6715 44.7844 40.5417 45.9229 40.8331Z" fill="#C4C4C4"/>
</svg>
