<svg width="62" height="63" viewBox="0 0 62 63" fill="none" xmlns="http://www.w3.org/2000/svg">
<path fill-rule="evenodd" clip-rule="evenodd" d="M61.8054 28.0023C61.7074 27.1167 60.6912 26.4512 59.8125 26.4512C56.9716 26.4512 54.4507 24.7562 53.3935 22.1349C52.3134 19.45 53.0098 16.3188 55.1271 14.3453C55.7935 13.7263 55.8745 12.69 55.3155 11.9701C53.8615 10.0939 52.2089 8.39917 50.4045 6.93039C49.6979 6.35422 48.6612 6.43439 48.0485 7.12377C46.2007 9.20318 42.8816 9.97602 40.3169 8.88861C37.6479 7.74776 35.9648 4.99959 36.1295 2.0496C36.1837 1.12299 35.5173 0.317339 34.6081 0.209747C32.2925 -0.0623979 29.9566 -0.0708365 27.6341 0.190994C26.7353 0.291789 26.0689 1.07845 26.0991 1.99334C26.2001 4.91427 24.4967 7.61438 21.8543 8.71421C19.3202 9.76599 16.0244 8.99972 14.1803 6.93883C13.5708 6.25999 12.551 6.17654 11.8409 6.73888C9.98298 8.22009 8.29322 9.91624 6.82583 11.777C6.2535 12.5003 6.3377 13.5488 7.01084 14.1712C9.16844 16.1566 9.8651 19.315 8.74421 22.0308C7.67406 24.62 5.02811 26.2888 1.99899 26.2888C1.01604 26.2567 0.31591 26.9271 0.20841 27.8351C-0.0642589 30.2017 -0.0674885 32.613 0.195031 34.9988C0.29238 35.8881 1.33946 36.5478 2.22782 36.5478C4.9273 36.4777 7.51904 38.1759 8.60626 40.8643C9.69001 43.5492 8.99335 46.6785 6.87289 48.6536C6.20967 49.2727 6.12547 50.3074 6.68442 51.0272C8.12482 52.8914 9.77768 54.5878 11.5886 56.0688C12.2988 56.6504 13.3323 56.5683 13.948 55.8789C15.8027 53.7944 19.1216 53.0229 21.6762 54.1125C24.3519 55.2498 26.035 57.9977 25.8702 60.9494C25.8165 61.8764 26.4862 62.6835 27.3916 62.7895C28.5762 62.9299 29.7679 63 30.9628 63C32.0971 63 33.2316 62.9367 34.3659 62.8084C35.2649 62.7076 35.9309 61.921 35.9006 61.0045C35.7966 58.0852 37.503 55.3851 40.142 54.2871C42.6932 53.2283 45.9751 54.0032 47.8194 56.062C48.4324 56.7394 49.4451 56.8213 50.159 56.2608C52.0135 54.7831 53.6998 53.0883 55.1741 51.2225C55.7462 50.5007 55.6655 49.4506 54.9889 48.8285C52.8313 46.8431 52.1312 43.6842 53.2521 40.9703C54.3058 38.4155 56.8535 36.7001 59.5938 36.7001L59.9772 36.7102C60.866 36.7836 61.6838 36.0879 61.7916 35.1659C62.0647 32.7973 62.0679 30.388 61.8054 28.0023ZM31.0493 42.0736C25.3473 42.0736 20.7091 37.3607 20.7091 31.5666C20.7091 25.7728 25.3473 21.0596 31.0493 21.0596C36.7512 21.0596 41.3893 25.7728 41.3893 31.5666C41.3893 37.3607 36.7512 42.0736 31.0493 42.0736Z" fill="white"/>
</svg>
