<svg width="138" height="138" viewBox="0 0 138 138" fill="none" xmlns="http://www.w3.org/2000/svg">
<path fill-rule="evenodd" clip-rule="evenodd" d="M137.566 61.3383C137.348 59.3985 135.086 57.9407 133.13 57.9407C126.807 57.9407 121.196 54.2279 118.843 48.4859C116.439 42.6047 117.989 35.7459 122.702 31.4231C124.185 30.0671 124.365 27.7971 123.121 26.2202C119.885 22.1105 116.206 18.3982 112.19 15.1808C110.617 13.9188 108.31 14.0944 106.946 15.6045C102.833 20.1594 95.4455 21.8522 89.7369 19.4703C83.7961 16.9713 80.0499 10.9515 80.4166 4.48959C80.5372 2.45988 79.0538 0.695124 77.0303 0.459446C71.8762 -0.136681 66.6769 -0.155166 61.5074 0.418369C59.5069 0.639157 58.0236 2.36233 58.0908 4.36636C58.3157 10.7646 54.5243 16.6791 48.6426 19.0883C43.0023 21.3922 35.6665 19.7137 31.5619 15.1993C30.2053 13.7124 27.9353 13.5296 26.3549 14.7614C22.2195 18.0059 18.4584 21.7213 15.1923 25.7971C13.9184 27.3817 14.1058 29.6784 15.6041 31.0416C20.4065 35.3906 21.9571 42.309 19.4622 48.2579C17.0803 53.9296 11.1909 57.5849 4.44865 57.5849C2.26079 57.5146 0.702445 58.9831 0.463173 60.9722C-0.143737 66.1561 -0.150925 71.4381 0.433392 76.6641C0.650072 78.6121 2.98067 80.057 4.958 80.057C10.9665 79.9035 16.7352 83.6235 19.1552 89.5124C21.5674 95.3935 20.0167 102.248 15.297 106.575C13.8208 107.931 13.6334 110.197 14.8775 111.774C18.0836 115.857 21.7625 119.573 25.7932 122.817C27.3741 124.091 29.6744 123.912 31.0448 122.401C35.173 117.835 42.5602 116.146 48.2462 118.532C54.2019 121.023 57.9481 127.043 57.5815 133.508C57.4618 135.539 58.9524 137.307 60.9677 137.539C63.6043 137.846 66.2569 138 68.9166 138C71.4413 138 73.9665 137.861 76.4912 137.58C78.4921 137.36 79.9745 135.636 79.9072 133.629C79.6756 127.234 83.4737 121.32 89.3477 118.915C95.026 116.595 102.331 118.293 106.436 122.803C107.8 124.286 110.054 124.466 111.644 123.238C115.771 120.001 119.525 116.289 122.806 112.202C124.08 110.621 123.9 108.32 122.394 106.958C117.592 102.609 116.033 95.6893 118.528 89.7444C120.874 84.1482 126.544 80.3907 132.644 80.3907L133.497 80.4128C135.475 80.5735 137.296 79.0496 137.535 77.0302C138.143 71.8416 138.15 66.5643 137.566 61.3383ZM69.1091 92.1613C56.4174 92.1613 46.0938 81.8377 46.0938 69.146C46.0938 56.4548 56.4174 46.1307 69.1091 46.1307C81.8003 46.1307 92.1239 56.4548 92.1239 69.146C92.1239 81.8377 81.8003 92.1613 69.1091 92.1613Z" fill="#C4C4C4"/>
</svg>
