<svg width="51" height="46" viewBox="0 0 51 46" fill="none" xmlns="http://www.w3.org/2000/svg">
<path fill-rule="evenodd" clip-rule="evenodd" d="M0.711695 0.712332C-0.237232 1.65605 -0.237232 34.7661 0.711695 35.7099C1.66671 36.6596 49.3333 36.6596 50.2883 35.7099C51.2372 34.7661 51.2372 1.65605 50.2883 0.712332C49.3333 -0.237444 1.66671 -0.237444 0.711695 0.712332ZM48.739 14.9094V27.5658H25.5H2.26096V14.9094V2.2531H25.5H48.739V14.9094ZM27.8079 6.51774C27.534 7.0471 25.8796 11.2798 24.1317 15.9225C21.9682 21.669 21.1338 24.5442 21.5184 24.9267C21.8293 25.2359 22.3196 25.3438 22.6078 25.1666C23.4162 24.6702 30.0449 6.74115 29.6537 6.11108C29.1319 5.27191 28.3645 5.44085 27.8079 6.51774ZM14.7641 11.9055C13.3648 13.613 12.2206 15.2126 12.2206 15.4597C12.2206 16.3325 17.3154 22.1164 17.9108 21.9194C19.1048 21.5232 18.8492 20.5789 16.8606 18.0405L14.8388 15.4597L16.8606 12.8789C17.9728 11.4598 18.7994 10.0511 18.6987 9.7495C18.2478 8.40463 17.129 9.01819 14.7641 11.9055ZM32.4164 9.40668C32.018 10.0472 32.3124 10.5986 34.5394 13.3846L36.1794 15.4366L34.1482 18.0289C32.1513 20.5778 31.8941 21.5232 33.0892 21.9194C33.6846 22.1164 38.7794 16.3325 38.7794 15.4597C38.7794 14.7851 33.814 8.85641 33.2486 8.85641C32.9791 8.85641 32.6045 9.10403 32.4164 9.40668ZM45.1724 31.4656C45.7423 32.3834 44.4603 33.4356 43.6967 32.6762C43.0582 32.0412 43.4577 30.8674 44.3126 30.8674C44.5809 30.8674 44.9677 31.1365 45.1724 31.4656ZM18.8603 39.6718C18.8603 40.5891 18.4912 40.7724 16.647 40.7724C13.9026 40.7724 12.0745 42.3577 12.3251 44.5203L12.4972 46H25.5H38.5028L38.6749 44.5203C38.9255 42.3577 37.0974 40.7724 34.353 40.7724C32.5088 40.7724 32.1397 40.5891 32.1397 39.6718C32.1397 38.6324 31.7707 38.5713 25.5 38.5713C19.2293 38.5713 18.8603 38.6324 18.8603 39.6718Z" fill="#FAFF00"/>
</svg>
